G75*
%MOIN*%
%OFA0B0*%
%FSLAX25Y25*%
%IPPOS*%
%LPD*%
%AMOC8*
5,1,8,0,0,1.08239X$1,22.5*
%
%ADD10C,0.00000*%
%ADD11C,0.13398*%
%ADD12C,0.00600*%
%ADD13C,0.08200*%
%ADD14OC8,0.07400*%
%ADD15OC8,0.06400*%
%ADD16C,0.09400*%
%ADD17OC8,0.07200*%
%ADD18C,0.07200*%
D10*
X0012501Y0016300D02*
X0012503Y0016458D01*
X0012509Y0016616D01*
X0012519Y0016774D01*
X0012533Y0016932D01*
X0012551Y0017089D01*
X0012572Y0017246D01*
X0012598Y0017402D01*
X0012628Y0017558D01*
X0012661Y0017713D01*
X0012699Y0017866D01*
X0012740Y0018019D01*
X0012785Y0018171D01*
X0012834Y0018322D01*
X0012887Y0018471D01*
X0012943Y0018619D01*
X0013003Y0018765D01*
X0013067Y0018910D01*
X0013135Y0019053D01*
X0013206Y0019195D01*
X0013280Y0019335D01*
X0013358Y0019472D01*
X0013440Y0019608D01*
X0013524Y0019742D01*
X0013613Y0019873D01*
X0013704Y0020002D01*
X0013799Y0020129D01*
X0013896Y0020254D01*
X0013997Y0020376D01*
X0014101Y0020495D01*
X0014208Y0020612D01*
X0014318Y0020726D01*
X0014431Y0020837D01*
X0014546Y0020946D01*
X0014664Y0021051D01*
X0014785Y0021153D01*
X0014908Y0021253D01*
X0015034Y0021349D01*
X0015162Y0021442D01*
X0015292Y0021532D01*
X0015425Y0021618D01*
X0015560Y0021702D01*
X0015696Y0021781D01*
X0015835Y0021858D01*
X0015976Y0021930D01*
X0016118Y0022000D01*
X0016262Y0022065D01*
X0016408Y0022127D01*
X0016555Y0022185D01*
X0016704Y0022240D01*
X0016854Y0022291D01*
X0017005Y0022338D01*
X0017157Y0022381D01*
X0017310Y0022420D01*
X0017465Y0022456D01*
X0017620Y0022487D01*
X0017776Y0022515D01*
X0017932Y0022539D01*
X0018089Y0022559D01*
X0018247Y0022575D01*
X0018404Y0022587D01*
X0018563Y0022595D01*
X0018721Y0022599D01*
X0018879Y0022599D01*
X0019037Y0022595D01*
X0019196Y0022587D01*
X0019353Y0022575D01*
X0019511Y0022559D01*
X0019668Y0022539D01*
X0019824Y0022515D01*
X0019980Y0022487D01*
X0020135Y0022456D01*
X0020290Y0022420D01*
X0020443Y0022381D01*
X0020595Y0022338D01*
X0020746Y0022291D01*
X0020896Y0022240D01*
X0021045Y0022185D01*
X0021192Y0022127D01*
X0021338Y0022065D01*
X0021482Y0022000D01*
X0021624Y0021930D01*
X0021765Y0021858D01*
X0021904Y0021781D01*
X0022040Y0021702D01*
X0022175Y0021618D01*
X0022308Y0021532D01*
X0022438Y0021442D01*
X0022566Y0021349D01*
X0022692Y0021253D01*
X0022815Y0021153D01*
X0022936Y0021051D01*
X0023054Y0020946D01*
X0023169Y0020837D01*
X0023282Y0020726D01*
X0023392Y0020612D01*
X0023499Y0020495D01*
X0023603Y0020376D01*
X0023704Y0020254D01*
X0023801Y0020129D01*
X0023896Y0020002D01*
X0023987Y0019873D01*
X0024076Y0019742D01*
X0024160Y0019608D01*
X0024242Y0019472D01*
X0024320Y0019335D01*
X0024394Y0019195D01*
X0024465Y0019053D01*
X0024533Y0018910D01*
X0024597Y0018765D01*
X0024657Y0018619D01*
X0024713Y0018471D01*
X0024766Y0018322D01*
X0024815Y0018171D01*
X0024860Y0018019D01*
X0024901Y0017866D01*
X0024939Y0017713D01*
X0024972Y0017558D01*
X0025002Y0017402D01*
X0025028Y0017246D01*
X0025049Y0017089D01*
X0025067Y0016932D01*
X0025081Y0016774D01*
X0025091Y0016616D01*
X0025097Y0016458D01*
X0025099Y0016300D01*
X0025097Y0016142D01*
X0025091Y0015984D01*
X0025081Y0015826D01*
X0025067Y0015668D01*
X0025049Y0015511D01*
X0025028Y0015354D01*
X0025002Y0015198D01*
X0024972Y0015042D01*
X0024939Y0014887D01*
X0024901Y0014734D01*
X0024860Y0014581D01*
X0024815Y0014429D01*
X0024766Y0014278D01*
X0024713Y0014129D01*
X0024657Y0013981D01*
X0024597Y0013835D01*
X0024533Y0013690D01*
X0024465Y0013547D01*
X0024394Y0013405D01*
X0024320Y0013265D01*
X0024242Y0013128D01*
X0024160Y0012992D01*
X0024076Y0012858D01*
X0023987Y0012727D01*
X0023896Y0012598D01*
X0023801Y0012471D01*
X0023704Y0012346D01*
X0023603Y0012224D01*
X0023499Y0012105D01*
X0023392Y0011988D01*
X0023282Y0011874D01*
X0023169Y0011763D01*
X0023054Y0011654D01*
X0022936Y0011549D01*
X0022815Y0011447D01*
X0022692Y0011347D01*
X0022566Y0011251D01*
X0022438Y0011158D01*
X0022308Y0011068D01*
X0022175Y0010982D01*
X0022040Y0010898D01*
X0021904Y0010819D01*
X0021765Y0010742D01*
X0021624Y0010670D01*
X0021482Y0010600D01*
X0021338Y0010535D01*
X0021192Y0010473D01*
X0021045Y0010415D01*
X0020896Y0010360D01*
X0020746Y0010309D01*
X0020595Y0010262D01*
X0020443Y0010219D01*
X0020290Y0010180D01*
X0020135Y0010144D01*
X0019980Y0010113D01*
X0019824Y0010085D01*
X0019668Y0010061D01*
X0019511Y0010041D01*
X0019353Y0010025D01*
X0019196Y0010013D01*
X0019037Y0010005D01*
X0018879Y0010001D01*
X0018721Y0010001D01*
X0018563Y0010005D01*
X0018404Y0010013D01*
X0018247Y0010025D01*
X0018089Y0010041D01*
X0017932Y0010061D01*
X0017776Y0010085D01*
X0017620Y0010113D01*
X0017465Y0010144D01*
X0017310Y0010180D01*
X0017157Y0010219D01*
X0017005Y0010262D01*
X0016854Y0010309D01*
X0016704Y0010360D01*
X0016555Y0010415D01*
X0016408Y0010473D01*
X0016262Y0010535D01*
X0016118Y0010600D01*
X0015976Y0010670D01*
X0015835Y0010742D01*
X0015696Y0010819D01*
X0015560Y0010898D01*
X0015425Y0010982D01*
X0015292Y0011068D01*
X0015162Y0011158D01*
X0015034Y0011251D01*
X0014908Y0011347D01*
X0014785Y0011447D01*
X0014664Y0011549D01*
X0014546Y0011654D01*
X0014431Y0011763D01*
X0014318Y0011874D01*
X0014208Y0011988D01*
X0014101Y0012105D01*
X0013997Y0012224D01*
X0013896Y0012346D01*
X0013799Y0012471D01*
X0013704Y0012598D01*
X0013613Y0012727D01*
X0013524Y0012858D01*
X0013440Y0012992D01*
X0013358Y0013128D01*
X0013280Y0013265D01*
X0013206Y0013405D01*
X0013135Y0013547D01*
X0013067Y0013690D01*
X0013003Y0013835D01*
X0012943Y0013981D01*
X0012887Y0014129D01*
X0012834Y0014278D01*
X0012785Y0014429D01*
X0012740Y0014581D01*
X0012699Y0014734D01*
X0012661Y0014887D01*
X0012628Y0015042D01*
X0012598Y0015198D01*
X0012572Y0015354D01*
X0012551Y0015511D01*
X0012533Y0015668D01*
X0012519Y0015826D01*
X0012509Y0015984D01*
X0012503Y0016142D01*
X0012501Y0016300D01*
X0012501Y0162800D02*
X0012503Y0162958D01*
X0012509Y0163116D01*
X0012519Y0163274D01*
X0012533Y0163432D01*
X0012551Y0163589D01*
X0012572Y0163746D01*
X0012598Y0163902D01*
X0012628Y0164058D01*
X0012661Y0164213D01*
X0012699Y0164366D01*
X0012740Y0164519D01*
X0012785Y0164671D01*
X0012834Y0164822D01*
X0012887Y0164971D01*
X0012943Y0165119D01*
X0013003Y0165265D01*
X0013067Y0165410D01*
X0013135Y0165553D01*
X0013206Y0165695D01*
X0013280Y0165835D01*
X0013358Y0165972D01*
X0013440Y0166108D01*
X0013524Y0166242D01*
X0013613Y0166373D01*
X0013704Y0166502D01*
X0013799Y0166629D01*
X0013896Y0166754D01*
X0013997Y0166876D01*
X0014101Y0166995D01*
X0014208Y0167112D01*
X0014318Y0167226D01*
X0014431Y0167337D01*
X0014546Y0167446D01*
X0014664Y0167551D01*
X0014785Y0167653D01*
X0014908Y0167753D01*
X0015034Y0167849D01*
X0015162Y0167942D01*
X0015292Y0168032D01*
X0015425Y0168118D01*
X0015560Y0168202D01*
X0015696Y0168281D01*
X0015835Y0168358D01*
X0015976Y0168430D01*
X0016118Y0168500D01*
X0016262Y0168565D01*
X0016408Y0168627D01*
X0016555Y0168685D01*
X0016704Y0168740D01*
X0016854Y0168791D01*
X0017005Y0168838D01*
X0017157Y0168881D01*
X0017310Y0168920D01*
X0017465Y0168956D01*
X0017620Y0168987D01*
X0017776Y0169015D01*
X0017932Y0169039D01*
X0018089Y0169059D01*
X0018247Y0169075D01*
X0018404Y0169087D01*
X0018563Y0169095D01*
X0018721Y0169099D01*
X0018879Y0169099D01*
X0019037Y0169095D01*
X0019196Y0169087D01*
X0019353Y0169075D01*
X0019511Y0169059D01*
X0019668Y0169039D01*
X0019824Y0169015D01*
X0019980Y0168987D01*
X0020135Y0168956D01*
X0020290Y0168920D01*
X0020443Y0168881D01*
X0020595Y0168838D01*
X0020746Y0168791D01*
X0020896Y0168740D01*
X0021045Y0168685D01*
X0021192Y0168627D01*
X0021338Y0168565D01*
X0021482Y0168500D01*
X0021624Y0168430D01*
X0021765Y0168358D01*
X0021904Y0168281D01*
X0022040Y0168202D01*
X0022175Y0168118D01*
X0022308Y0168032D01*
X0022438Y0167942D01*
X0022566Y0167849D01*
X0022692Y0167753D01*
X0022815Y0167653D01*
X0022936Y0167551D01*
X0023054Y0167446D01*
X0023169Y0167337D01*
X0023282Y0167226D01*
X0023392Y0167112D01*
X0023499Y0166995D01*
X0023603Y0166876D01*
X0023704Y0166754D01*
X0023801Y0166629D01*
X0023896Y0166502D01*
X0023987Y0166373D01*
X0024076Y0166242D01*
X0024160Y0166108D01*
X0024242Y0165972D01*
X0024320Y0165835D01*
X0024394Y0165695D01*
X0024465Y0165553D01*
X0024533Y0165410D01*
X0024597Y0165265D01*
X0024657Y0165119D01*
X0024713Y0164971D01*
X0024766Y0164822D01*
X0024815Y0164671D01*
X0024860Y0164519D01*
X0024901Y0164366D01*
X0024939Y0164213D01*
X0024972Y0164058D01*
X0025002Y0163902D01*
X0025028Y0163746D01*
X0025049Y0163589D01*
X0025067Y0163432D01*
X0025081Y0163274D01*
X0025091Y0163116D01*
X0025097Y0162958D01*
X0025099Y0162800D01*
X0025097Y0162642D01*
X0025091Y0162484D01*
X0025081Y0162326D01*
X0025067Y0162168D01*
X0025049Y0162011D01*
X0025028Y0161854D01*
X0025002Y0161698D01*
X0024972Y0161542D01*
X0024939Y0161387D01*
X0024901Y0161234D01*
X0024860Y0161081D01*
X0024815Y0160929D01*
X0024766Y0160778D01*
X0024713Y0160629D01*
X0024657Y0160481D01*
X0024597Y0160335D01*
X0024533Y0160190D01*
X0024465Y0160047D01*
X0024394Y0159905D01*
X0024320Y0159765D01*
X0024242Y0159628D01*
X0024160Y0159492D01*
X0024076Y0159358D01*
X0023987Y0159227D01*
X0023896Y0159098D01*
X0023801Y0158971D01*
X0023704Y0158846D01*
X0023603Y0158724D01*
X0023499Y0158605D01*
X0023392Y0158488D01*
X0023282Y0158374D01*
X0023169Y0158263D01*
X0023054Y0158154D01*
X0022936Y0158049D01*
X0022815Y0157947D01*
X0022692Y0157847D01*
X0022566Y0157751D01*
X0022438Y0157658D01*
X0022308Y0157568D01*
X0022175Y0157482D01*
X0022040Y0157398D01*
X0021904Y0157319D01*
X0021765Y0157242D01*
X0021624Y0157170D01*
X0021482Y0157100D01*
X0021338Y0157035D01*
X0021192Y0156973D01*
X0021045Y0156915D01*
X0020896Y0156860D01*
X0020746Y0156809D01*
X0020595Y0156762D01*
X0020443Y0156719D01*
X0020290Y0156680D01*
X0020135Y0156644D01*
X0019980Y0156613D01*
X0019824Y0156585D01*
X0019668Y0156561D01*
X0019511Y0156541D01*
X0019353Y0156525D01*
X0019196Y0156513D01*
X0019037Y0156505D01*
X0018879Y0156501D01*
X0018721Y0156501D01*
X0018563Y0156505D01*
X0018404Y0156513D01*
X0018247Y0156525D01*
X0018089Y0156541D01*
X0017932Y0156561D01*
X0017776Y0156585D01*
X0017620Y0156613D01*
X0017465Y0156644D01*
X0017310Y0156680D01*
X0017157Y0156719D01*
X0017005Y0156762D01*
X0016854Y0156809D01*
X0016704Y0156860D01*
X0016555Y0156915D01*
X0016408Y0156973D01*
X0016262Y0157035D01*
X0016118Y0157100D01*
X0015976Y0157170D01*
X0015835Y0157242D01*
X0015696Y0157319D01*
X0015560Y0157398D01*
X0015425Y0157482D01*
X0015292Y0157568D01*
X0015162Y0157658D01*
X0015034Y0157751D01*
X0014908Y0157847D01*
X0014785Y0157947D01*
X0014664Y0158049D01*
X0014546Y0158154D01*
X0014431Y0158263D01*
X0014318Y0158374D01*
X0014208Y0158488D01*
X0014101Y0158605D01*
X0013997Y0158724D01*
X0013896Y0158846D01*
X0013799Y0158971D01*
X0013704Y0159098D01*
X0013613Y0159227D01*
X0013524Y0159358D01*
X0013440Y0159492D01*
X0013358Y0159628D01*
X0013280Y0159765D01*
X0013206Y0159905D01*
X0013135Y0160047D01*
X0013067Y0160190D01*
X0013003Y0160335D01*
X0012943Y0160481D01*
X0012887Y0160629D01*
X0012834Y0160778D01*
X0012785Y0160929D01*
X0012740Y0161081D01*
X0012699Y0161234D01*
X0012661Y0161387D01*
X0012628Y0161542D01*
X0012598Y0161698D01*
X0012572Y0161854D01*
X0012551Y0162011D01*
X0012533Y0162168D01*
X0012519Y0162326D01*
X0012509Y0162484D01*
X0012503Y0162642D01*
X0012501Y0162800D01*
X0158751Y0162550D02*
X0158753Y0162708D01*
X0158759Y0162866D01*
X0158769Y0163024D01*
X0158783Y0163182D01*
X0158801Y0163339D01*
X0158822Y0163496D01*
X0158848Y0163652D01*
X0158878Y0163808D01*
X0158911Y0163963D01*
X0158949Y0164116D01*
X0158990Y0164269D01*
X0159035Y0164421D01*
X0159084Y0164572D01*
X0159137Y0164721D01*
X0159193Y0164869D01*
X0159253Y0165015D01*
X0159317Y0165160D01*
X0159385Y0165303D01*
X0159456Y0165445D01*
X0159530Y0165585D01*
X0159608Y0165722D01*
X0159690Y0165858D01*
X0159774Y0165992D01*
X0159863Y0166123D01*
X0159954Y0166252D01*
X0160049Y0166379D01*
X0160146Y0166504D01*
X0160247Y0166626D01*
X0160351Y0166745D01*
X0160458Y0166862D01*
X0160568Y0166976D01*
X0160681Y0167087D01*
X0160796Y0167196D01*
X0160914Y0167301D01*
X0161035Y0167403D01*
X0161158Y0167503D01*
X0161284Y0167599D01*
X0161412Y0167692D01*
X0161542Y0167782D01*
X0161675Y0167868D01*
X0161810Y0167952D01*
X0161946Y0168031D01*
X0162085Y0168108D01*
X0162226Y0168180D01*
X0162368Y0168250D01*
X0162512Y0168315D01*
X0162658Y0168377D01*
X0162805Y0168435D01*
X0162954Y0168490D01*
X0163104Y0168541D01*
X0163255Y0168588D01*
X0163407Y0168631D01*
X0163560Y0168670D01*
X0163715Y0168706D01*
X0163870Y0168737D01*
X0164026Y0168765D01*
X0164182Y0168789D01*
X0164339Y0168809D01*
X0164497Y0168825D01*
X0164654Y0168837D01*
X0164813Y0168845D01*
X0164971Y0168849D01*
X0165129Y0168849D01*
X0165287Y0168845D01*
X0165446Y0168837D01*
X0165603Y0168825D01*
X0165761Y0168809D01*
X0165918Y0168789D01*
X0166074Y0168765D01*
X0166230Y0168737D01*
X0166385Y0168706D01*
X0166540Y0168670D01*
X0166693Y0168631D01*
X0166845Y0168588D01*
X0166996Y0168541D01*
X0167146Y0168490D01*
X0167295Y0168435D01*
X0167442Y0168377D01*
X0167588Y0168315D01*
X0167732Y0168250D01*
X0167874Y0168180D01*
X0168015Y0168108D01*
X0168154Y0168031D01*
X0168290Y0167952D01*
X0168425Y0167868D01*
X0168558Y0167782D01*
X0168688Y0167692D01*
X0168816Y0167599D01*
X0168942Y0167503D01*
X0169065Y0167403D01*
X0169186Y0167301D01*
X0169304Y0167196D01*
X0169419Y0167087D01*
X0169532Y0166976D01*
X0169642Y0166862D01*
X0169749Y0166745D01*
X0169853Y0166626D01*
X0169954Y0166504D01*
X0170051Y0166379D01*
X0170146Y0166252D01*
X0170237Y0166123D01*
X0170326Y0165992D01*
X0170410Y0165858D01*
X0170492Y0165722D01*
X0170570Y0165585D01*
X0170644Y0165445D01*
X0170715Y0165303D01*
X0170783Y0165160D01*
X0170847Y0165015D01*
X0170907Y0164869D01*
X0170963Y0164721D01*
X0171016Y0164572D01*
X0171065Y0164421D01*
X0171110Y0164269D01*
X0171151Y0164116D01*
X0171189Y0163963D01*
X0171222Y0163808D01*
X0171252Y0163652D01*
X0171278Y0163496D01*
X0171299Y0163339D01*
X0171317Y0163182D01*
X0171331Y0163024D01*
X0171341Y0162866D01*
X0171347Y0162708D01*
X0171349Y0162550D01*
X0171347Y0162392D01*
X0171341Y0162234D01*
X0171331Y0162076D01*
X0171317Y0161918D01*
X0171299Y0161761D01*
X0171278Y0161604D01*
X0171252Y0161448D01*
X0171222Y0161292D01*
X0171189Y0161137D01*
X0171151Y0160984D01*
X0171110Y0160831D01*
X0171065Y0160679D01*
X0171016Y0160528D01*
X0170963Y0160379D01*
X0170907Y0160231D01*
X0170847Y0160085D01*
X0170783Y0159940D01*
X0170715Y0159797D01*
X0170644Y0159655D01*
X0170570Y0159515D01*
X0170492Y0159378D01*
X0170410Y0159242D01*
X0170326Y0159108D01*
X0170237Y0158977D01*
X0170146Y0158848D01*
X0170051Y0158721D01*
X0169954Y0158596D01*
X0169853Y0158474D01*
X0169749Y0158355D01*
X0169642Y0158238D01*
X0169532Y0158124D01*
X0169419Y0158013D01*
X0169304Y0157904D01*
X0169186Y0157799D01*
X0169065Y0157697D01*
X0168942Y0157597D01*
X0168816Y0157501D01*
X0168688Y0157408D01*
X0168558Y0157318D01*
X0168425Y0157232D01*
X0168290Y0157148D01*
X0168154Y0157069D01*
X0168015Y0156992D01*
X0167874Y0156920D01*
X0167732Y0156850D01*
X0167588Y0156785D01*
X0167442Y0156723D01*
X0167295Y0156665D01*
X0167146Y0156610D01*
X0166996Y0156559D01*
X0166845Y0156512D01*
X0166693Y0156469D01*
X0166540Y0156430D01*
X0166385Y0156394D01*
X0166230Y0156363D01*
X0166074Y0156335D01*
X0165918Y0156311D01*
X0165761Y0156291D01*
X0165603Y0156275D01*
X0165446Y0156263D01*
X0165287Y0156255D01*
X0165129Y0156251D01*
X0164971Y0156251D01*
X0164813Y0156255D01*
X0164654Y0156263D01*
X0164497Y0156275D01*
X0164339Y0156291D01*
X0164182Y0156311D01*
X0164026Y0156335D01*
X0163870Y0156363D01*
X0163715Y0156394D01*
X0163560Y0156430D01*
X0163407Y0156469D01*
X0163255Y0156512D01*
X0163104Y0156559D01*
X0162954Y0156610D01*
X0162805Y0156665D01*
X0162658Y0156723D01*
X0162512Y0156785D01*
X0162368Y0156850D01*
X0162226Y0156920D01*
X0162085Y0156992D01*
X0161946Y0157069D01*
X0161810Y0157148D01*
X0161675Y0157232D01*
X0161542Y0157318D01*
X0161412Y0157408D01*
X0161284Y0157501D01*
X0161158Y0157597D01*
X0161035Y0157697D01*
X0160914Y0157799D01*
X0160796Y0157904D01*
X0160681Y0158013D01*
X0160568Y0158124D01*
X0160458Y0158238D01*
X0160351Y0158355D01*
X0160247Y0158474D01*
X0160146Y0158596D01*
X0160049Y0158721D01*
X0159954Y0158848D01*
X0159863Y0158977D01*
X0159774Y0159108D01*
X0159690Y0159242D01*
X0159608Y0159378D01*
X0159530Y0159515D01*
X0159456Y0159655D01*
X0159385Y0159797D01*
X0159317Y0159940D01*
X0159253Y0160085D01*
X0159193Y0160231D01*
X0159137Y0160379D01*
X0159084Y0160528D01*
X0159035Y0160679D01*
X0158990Y0160831D01*
X0158949Y0160984D01*
X0158911Y0161137D01*
X0158878Y0161292D01*
X0158848Y0161448D01*
X0158822Y0161604D01*
X0158801Y0161761D01*
X0158783Y0161918D01*
X0158769Y0162076D01*
X0158759Y0162234D01*
X0158753Y0162392D01*
X0158751Y0162550D01*
X0158751Y0016300D02*
X0158753Y0016458D01*
X0158759Y0016616D01*
X0158769Y0016774D01*
X0158783Y0016932D01*
X0158801Y0017089D01*
X0158822Y0017246D01*
X0158848Y0017402D01*
X0158878Y0017558D01*
X0158911Y0017713D01*
X0158949Y0017866D01*
X0158990Y0018019D01*
X0159035Y0018171D01*
X0159084Y0018322D01*
X0159137Y0018471D01*
X0159193Y0018619D01*
X0159253Y0018765D01*
X0159317Y0018910D01*
X0159385Y0019053D01*
X0159456Y0019195D01*
X0159530Y0019335D01*
X0159608Y0019472D01*
X0159690Y0019608D01*
X0159774Y0019742D01*
X0159863Y0019873D01*
X0159954Y0020002D01*
X0160049Y0020129D01*
X0160146Y0020254D01*
X0160247Y0020376D01*
X0160351Y0020495D01*
X0160458Y0020612D01*
X0160568Y0020726D01*
X0160681Y0020837D01*
X0160796Y0020946D01*
X0160914Y0021051D01*
X0161035Y0021153D01*
X0161158Y0021253D01*
X0161284Y0021349D01*
X0161412Y0021442D01*
X0161542Y0021532D01*
X0161675Y0021618D01*
X0161810Y0021702D01*
X0161946Y0021781D01*
X0162085Y0021858D01*
X0162226Y0021930D01*
X0162368Y0022000D01*
X0162512Y0022065D01*
X0162658Y0022127D01*
X0162805Y0022185D01*
X0162954Y0022240D01*
X0163104Y0022291D01*
X0163255Y0022338D01*
X0163407Y0022381D01*
X0163560Y0022420D01*
X0163715Y0022456D01*
X0163870Y0022487D01*
X0164026Y0022515D01*
X0164182Y0022539D01*
X0164339Y0022559D01*
X0164497Y0022575D01*
X0164654Y0022587D01*
X0164813Y0022595D01*
X0164971Y0022599D01*
X0165129Y0022599D01*
X0165287Y0022595D01*
X0165446Y0022587D01*
X0165603Y0022575D01*
X0165761Y0022559D01*
X0165918Y0022539D01*
X0166074Y0022515D01*
X0166230Y0022487D01*
X0166385Y0022456D01*
X0166540Y0022420D01*
X0166693Y0022381D01*
X0166845Y0022338D01*
X0166996Y0022291D01*
X0167146Y0022240D01*
X0167295Y0022185D01*
X0167442Y0022127D01*
X0167588Y0022065D01*
X0167732Y0022000D01*
X0167874Y0021930D01*
X0168015Y0021858D01*
X0168154Y0021781D01*
X0168290Y0021702D01*
X0168425Y0021618D01*
X0168558Y0021532D01*
X0168688Y0021442D01*
X0168816Y0021349D01*
X0168942Y0021253D01*
X0169065Y0021153D01*
X0169186Y0021051D01*
X0169304Y0020946D01*
X0169419Y0020837D01*
X0169532Y0020726D01*
X0169642Y0020612D01*
X0169749Y0020495D01*
X0169853Y0020376D01*
X0169954Y0020254D01*
X0170051Y0020129D01*
X0170146Y0020002D01*
X0170237Y0019873D01*
X0170326Y0019742D01*
X0170410Y0019608D01*
X0170492Y0019472D01*
X0170570Y0019335D01*
X0170644Y0019195D01*
X0170715Y0019053D01*
X0170783Y0018910D01*
X0170847Y0018765D01*
X0170907Y0018619D01*
X0170963Y0018471D01*
X0171016Y0018322D01*
X0171065Y0018171D01*
X0171110Y0018019D01*
X0171151Y0017866D01*
X0171189Y0017713D01*
X0171222Y0017558D01*
X0171252Y0017402D01*
X0171278Y0017246D01*
X0171299Y0017089D01*
X0171317Y0016932D01*
X0171331Y0016774D01*
X0171341Y0016616D01*
X0171347Y0016458D01*
X0171349Y0016300D01*
X0171347Y0016142D01*
X0171341Y0015984D01*
X0171331Y0015826D01*
X0171317Y0015668D01*
X0171299Y0015511D01*
X0171278Y0015354D01*
X0171252Y0015198D01*
X0171222Y0015042D01*
X0171189Y0014887D01*
X0171151Y0014734D01*
X0171110Y0014581D01*
X0171065Y0014429D01*
X0171016Y0014278D01*
X0170963Y0014129D01*
X0170907Y0013981D01*
X0170847Y0013835D01*
X0170783Y0013690D01*
X0170715Y0013547D01*
X0170644Y0013405D01*
X0170570Y0013265D01*
X0170492Y0013128D01*
X0170410Y0012992D01*
X0170326Y0012858D01*
X0170237Y0012727D01*
X0170146Y0012598D01*
X0170051Y0012471D01*
X0169954Y0012346D01*
X0169853Y0012224D01*
X0169749Y0012105D01*
X0169642Y0011988D01*
X0169532Y0011874D01*
X0169419Y0011763D01*
X0169304Y0011654D01*
X0169186Y0011549D01*
X0169065Y0011447D01*
X0168942Y0011347D01*
X0168816Y0011251D01*
X0168688Y0011158D01*
X0168558Y0011068D01*
X0168425Y0010982D01*
X0168290Y0010898D01*
X0168154Y0010819D01*
X0168015Y0010742D01*
X0167874Y0010670D01*
X0167732Y0010600D01*
X0167588Y0010535D01*
X0167442Y0010473D01*
X0167295Y0010415D01*
X0167146Y0010360D01*
X0166996Y0010309D01*
X0166845Y0010262D01*
X0166693Y0010219D01*
X0166540Y0010180D01*
X0166385Y0010144D01*
X0166230Y0010113D01*
X0166074Y0010085D01*
X0165918Y0010061D01*
X0165761Y0010041D01*
X0165603Y0010025D01*
X0165446Y0010013D01*
X0165287Y0010005D01*
X0165129Y0010001D01*
X0164971Y0010001D01*
X0164813Y0010005D01*
X0164654Y0010013D01*
X0164497Y0010025D01*
X0164339Y0010041D01*
X0164182Y0010061D01*
X0164026Y0010085D01*
X0163870Y0010113D01*
X0163715Y0010144D01*
X0163560Y0010180D01*
X0163407Y0010219D01*
X0163255Y0010262D01*
X0163104Y0010309D01*
X0162954Y0010360D01*
X0162805Y0010415D01*
X0162658Y0010473D01*
X0162512Y0010535D01*
X0162368Y0010600D01*
X0162226Y0010670D01*
X0162085Y0010742D01*
X0161946Y0010819D01*
X0161810Y0010898D01*
X0161675Y0010982D01*
X0161542Y0011068D01*
X0161412Y0011158D01*
X0161284Y0011251D01*
X0161158Y0011347D01*
X0161035Y0011447D01*
X0160914Y0011549D01*
X0160796Y0011654D01*
X0160681Y0011763D01*
X0160568Y0011874D01*
X0160458Y0011988D01*
X0160351Y0012105D01*
X0160247Y0012224D01*
X0160146Y0012346D01*
X0160049Y0012471D01*
X0159954Y0012598D01*
X0159863Y0012727D01*
X0159774Y0012858D01*
X0159690Y0012992D01*
X0159608Y0013128D01*
X0159530Y0013265D01*
X0159456Y0013405D01*
X0159385Y0013547D01*
X0159317Y0013690D01*
X0159253Y0013835D01*
X0159193Y0013981D01*
X0159137Y0014129D01*
X0159084Y0014278D01*
X0159035Y0014429D01*
X0158990Y0014581D01*
X0158949Y0014734D01*
X0158911Y0014887D01*
X0158878Y0015042D01*
X0158848Y0015198D01*
X0158822Y0015354D01*
X0158801Y0015511D01*
X0158783Y0015668D01*
X0158769Y0015826D01*
X0158759Y0015984D01*
X0158753Y0016142D01*
X0158751Y0016300D01*
D11*
X0165050Y0016300D03*
X0018800Y0016300D03*
X0018800Y0162800D03*
X0165050Y0162550D03*
D12*
X0005300Y0174800D02*
X0005300Y0004800D01*
X0176800Y0004800D01*
X0176300Y0174300D01*
X0175800Y0174800D01*
X0005300Y0174800D01*
D13*
X0041300Y0156300D03*
X0041300Y0146300D03*
X0041300Y0136300D03*
X0041300Y0126300D03*
X0041300Y0116300D03*
X0041300Y0106300D03*
X0041300Y0096300D03*
X0041300Y0086300D03*
X0041300Y0076300D03*
X0041300Y0066300D03*
X0041300Y0056300D03*
X0041300Y0046300D03*
X0101300Y0046300D03*
X0101300Y0056300D03*
X0101300Y0066300D03*
X0101300Y0076300D03*
X0101300Y0086300D03*
X0101300Y0096300D03*
X0101300Y0106300D03*
X0101300Y0116300D03*
X0101300Y0126300D03*
X0101300Y0136300D03*
X0101300Y0146300D03*
X0101300Y0156300D03*
X0171300Y0126300D03*
X0171300Y0116300D03*
X0171300Y0106300D03*
X0171300Y0096300D03*
D14*
X0167300Y0140800D03*
X0157300Y0140800D03*
D15*
X0147300Y0140800D03*
X0117300Y0140800D03*
D16*
X0161300Y0053387D03*
X0161300Y0039607D03*
D17*
X0014300Y0085800D03*
X0014300Y0095800D03*
X0014300Y0105800D03*
X0014300Y0115800D03*
X0014300Y0125800D03*
X0014300Y0135800D03*
D18*
X0171300Y0086300D03*
X0171300Y0076300D03*
X0171300Y0066300D03*
M02*
