G75*
%MOIN*%
%OFA0B0*%
%FSLAX25Y25*%
%IPPOS*%
%LPD*%
%AMOC8*
5,1,8,0,0,1.08239X$1,22.5*
%
%ADD10C,0.00000*%
%ADD11C,0.00600*%
%ADD12C,0.07400*%
%ADD13OC8,0.06600*%
%ADD14OC8,0.05600*%
%ADD15C,0.08600*%
%ADD16OC8,0.06400*%
%ADD17C,0.06400*%
%ADD18C,0.02778*%
%ADD19C,0.01600*%
D10*
X0012501Y0016300D02*
X0012503Y0016458D01*
X0012509Y0016616D01*
X0012519Y0016774D01*
X0012533Y0016932D01*
X0012551Y0017089D01*
X0012572Y0017246D01*
X0012598Y0017402D01*
X0012628Y0017558D01*
X0012661Y0017713D01*
X0012699Y0017866D01*
X0012740Y0018019D01*
X0012785Y0018171D01*
X0012834Y0018322D01*
X0012887Y0018471D01*
X0012943Y0018619D01*
X0013003Y0018765D01*
X0013067Y0018910D01*
X0013135Y0019053D01*
X0013206Y0019195D01*
X0013280Y0019335D01*
X0013358Y0019472D01*
X0013440Y0019608D01*
X0013524Y0019742D01*
X0013613Y0019873D01*
X0013704Y0020002D01*
X0013799Y0020129D01*
X0013896Y0020254D01*
X0013997Y0020376D01*
X0014101Y0020495D01*
X0014208Y0020612D01*
X0014318Y0020726D01*
X0014431Y0020837D01*
X0014546Y0020946D01*
X0014664Y0021051D01*
X0014785Y0021153D01*
X0014908Y0021253D01*
X0015034Y0021349D01*
X0015162Y0021442D01*
X0015292Y0021532D01*
X0015425Y0021618D01*
X0015560Y0021702D01*
X0015696Y0021781D01*
X0015835Y0021858D01*
X0015976Y0021930D01*
X0016118Y0022000D01*
X0016262Y0022065D01*
X0016408Y0022127D01*
X0016555Y0022185D01*
X0016704Y0022240D01*
X0016854Y0022291D01*
X0017005Y0022338D01*
X0017157Y0022381D01*
X0017310Y0022420D01*
X0017465Y0022456D01*
X0017620Y0022487D01*
X0017776Y0022515D01*
X0017932Y0022539D01*
X0018089Y0022559D01*
X0018247Y0022575D01*
X0018404Y0022587D01*
X0018563Y0022595D01*
X0018721Y0022599D01*
X0018879Y0022599D01*
X0019037Y0022595D01*
X0019196Y0022587D01*
X0019353Y0022575D01*
X0019511Y0022559D01*
X0019668Y0022539D01*
X0019824Y0022515D01*
X0019980Y0022487D01*
X0020135Y0022456D01*
X0020290Y0022420D01*
X0020443Y0022381D01*
X0020595Y0022338D01*
X0020746Y0022291D01*
X0020896Y0022240D01*
X0021045Y0022185D01*
X0021192Y0022127D01*
X0021338Y0022065D01*
X0021482Y0022000D01*
X0021624Y0021930D01*
X0021765Y0021858D01*
X0021904Y0021781D01*
X0022040Y0021702D01*
X0022175Y0021618D01*
X0022308Y0021532D01*
X0022438Y0021442D01*
X0022566Y0021349D01*
X0022692Y0021253D01*
X0022815Y0021153D01*
X0022936Y0021051D01*
X0023054Y0020946D01*
X0023169Y0020837D01*
X0023282Y0020726D01*
X0023392Y0020612D01*
X0023499Y0020495D01*
X0023603Y0020376D01*
X0023704Y0020254D01*
X0023801Y0020129D01*
X0023896Y0020002D01*
X0023987Y0019873D01*
X0024076Y0019742D01*
X0024160Y0019608D01*
X0024242Y0019472D01*
X0024320Y0019335D01*
X0024394Y0019195D01*
X0024465Y0019053D01*
X0024533Y0018910D01*
X0024597Y0018765D01*
X0024657Y0018619D01*
X0024713Y0018471D01*
X0024766Y0018322D01*
X0024815Y0018171D01*
X0024860Y0018019D01*
X0024901Y0017866D01*
X0024939Y0017713D01*
X0024972Y0017558D01*
X0025002Y0017402D01*
X0025028Y0017246D01*
X0025049Y0017089D01*
X0025067Y0016932D01*
X0025081Y0016774D01*
X0025091Y0016616D01*
X0025097Y0016458D01*
X0025099Y0016300D01*
X0025097Y0016142D01*
X0025091Y0015984D01*
X0025081Y0015826D01*
X0025067Y0015668D01*
X0025049Y0015511D01*
X0025028Y0015354D01*
X0025002Y0015198D01*
X0024972Y0015042D01*
X0024939Y0014887D01*
X0024901Y0014734D01*
X0024860Y0014581D01*
X0024815Y0014429D01*
X0024766Y0014278D01*
X0024713Y0014129D01*
X0024657Y0013981D01*
X0024597Y0013835D01*
X0024533Y0013690D01*
X0024465Y0013547D01*
X0024394Y0013405D01*
X0024320Y0013265D01*
X0024242Y0013128D01*
X0024160Y0012992D01*
X0024076Y0012858D01*
X0023987Y0012727D01*
X0023896Y0012598D01*
X0023801Y0012471D01*
X0023704Y0012346D01*
X0023603Y0012224D01*
X0023499Y0012105D01*
X0023392Y0011988D01*
X0023282Y0011874D01*
X0023169Y0011763D01*
X0023054Y0011654D01*
X0022936Y0011549D01*
X0022815Y0011447D01*
X0022692Y0011347D01*
X0022566Y0011251D01*
X0022438Y0011158D01*
X0022308Y0011068D01*
X0022175Y0010982D01*
X0022040Y0010898D01*
X0021904Y0010819D01*
X0021765Y0010742D01*
X0021624Y0010670D01*
X0021482Y0010600D01*
X0021338Y0010535D01*
X0021192Y0010473D01*
X0021045Y0010415D01*
X0020896Y0010360D01*
X0020746Y0010309D01*
X0020595Y0010262D01*
X0020443Y0010219D01*
X0020290Y0010180D01*
X0020135Y0010144D01*
X0019980Y0010113D01*
X0019824Y0010085D01*
X0019668Y0010061D01*
X0019511Y0010041D01*
X0019353Y0010025D01*
X0019196Y0010013D01*
X0019037Y0010005D01*
X0018879Y0010001D01*
X0018721Y0010001D01*
X0018563Y0010005D01*
X0018404Y0010013D01*
X0018247Y0010025D01*
X0018089Y0010041D01*
X0017932Y0010061D01*
X0017776Y0010085D01*
X0017620Y0010113D01*
X0017465Y0010144D01*
X0017310Y0010180D01*
X0017157Y0010219D01*
X0017005Y0010262D01*
X0016854Y0010309D01*
X0016704Y0010360D01*
X0016555Y0010415D01*
X0016408Y0010473D01*
X0016262Y0010535D01*
X0016118Y0010600D01*
X0015976Y0010670D01*
X0015835Y0010742D01*
X0015696Y0010819D01*
X0015560Y0010898D01*
X0015425Y0010982D01*
X0015292Y0011068D01*
X0015162Y0011158D01*
X0015034Y0011251D01*
X0014908Y0011347D01*
X0014785Y0011447D01*
X0014664Y0011549D01*
X0014546Y0011654D01*
X0014431Y0011763D01*
X0014318Y0011874D01*
X0014208Y0011988D01*
X0014101Y0012105D01*
X0013997Y0012224D01*
X0013896Y0012346D01*
X0013799Y0012471D01*
X0013704Y0012598D01*
X0013613Y0012727D01*
X0013524Y0012858D01*
X0013440Y0012992D01*
X0013358Y0013128D01*
X0013280Y0013265D01*
X0013206Y0013405D01*
X0013135Y0013547D01*
X0013067Y0013690D01*
X0013003Y0013835D01*
X0012943Y0013981D01*
X0012887Y0014129D01*
X0012834Y0014278D01*
X0012785Y0014429D01*
X0012740Y0014581D01*
X0012699Y0014734D01*
X0012661Y0014887D01*
X0012628Y0015042D01*
X0012598Y0015198D01*
X0012572Y0015354D01*
X0012551Y0015511D01*
X0012533Y0015668D01*
X0012519Y0015826D01*
X0012509Y0015984D01*
X0012503Y0016142D01*
X0012501Y0016300D01*
X0012501Y0162800D02*
X0012503Y0162958D01*
X0012509Y0163116D01*
X0012519Y0163274D01*
X0012533Y0163432D01*
X0012551Y0163589D01*
X0012572Y0163746D01*
X0012598Y0163902D01*
X0012628Y0164058D01*
X0012661Y0164213D01*
X0012699Y0164366D01*
X0012740Y0164519D01*
X0012785Y0164671D01*
X0012834Y0164822D01*
X0012887Y0164971D01*
X0012943Y0165119D01*
X0013003Y0165265D01*
X0013067Y0165410D01*
X0013135Y0165553D01*
X0013206Y0165695D01*
X0013280Y0165835D01*
X0013358Y0165972D01*
X0013440Y0166108D01*
X0013524Y0166242D01*
X0013613Y0166373D01*
X0013704Y0166502D01*
X0013799Y0166629D01*
X0013896Y0166754D01*
X0013997Y0166876D01*
X0014101Y0166995D01*
X0014208Y0167112D01*
X0014318Y0167226D01*
X0014431Y0167337D01*
X0014546Y0167446D01*
X0014664Y0167551D01*
X0014785Y0167653D01*
X0014908Y0167753D01*
X0015034Y0167849D01*
X0015162Y0167942D01*
X0015292Y0168032D01*
X0015425Y0168118D01*
X0015560Y0168202D01*
X0015696Y0168281D01*
X0015835Y0168358D01*
X0015976Y0168430D01*
X0016118Y0168500D01*
X0016262Y0168565D01*
X0016408Y0168627D01*
X0016555Y0168685D01*
X0016704Y0168740D01*
X0016854Y0168791D01*
X0017005Y0168838D01*
X0017157Y0168881D01*
X0017310Y0168920D01*
X0017465Y0168956D01*
X0017620Y0168987D01*
X0017776Y0169015D01*
X0017932Y0169039D01*
X0018089Y0169059D01*
X0018247Y0169075D01*
X0018404Y0169087D01*
X0018563Y0169095D01*
X0018721Y0169099D01*
X0018879Y0169099D01*
X0019037Y0169095D01*
X0019196Y0169087D01*
X0019353Y0169075D01*
X0019511Y0169059D01*
X0019668Y0169039D01*
X0019824Y0169015D01*
X0019980Y0168987D01*
X0020135Y0168956D01*
X0020290Y0168920D01*
X0020443Y0168881D01*
X0020595Y0168838D01*
X0020746Y0168791D01*
X0020896Y0168740D01*
X0021045Y0168685D01*
X0021192Y0168627D01*
X0021338Y0168565D01*
X0021482Y0168500D01*
X0021624Y0168430D01*
X0021765Y0168358D01*
X0021904Y0168281D01*
X0022040Y0168202D01*
X0022175Y0168118D01*
X0022308Y0168032D01*
X0022438Y0167942D01*
X0022566Y0167849D01*
X0022692Y0167753D01*
X0022815Y0167653D01*
X0022936Y0167551D01*
X0023054Y0167446D01*
X0023169Y0167337D01*
X0023282Y0167226D01*
X0023392Y0167112D01*
X0023499Y0166995D01*
X0023603Y0166876D01*
X0023704Y0166754D01*
X0023801Y0166629D01*
X0023896Y0166502D01*
X0023987Y0166373D01*
X0024076Y0166242D01*
X0024160Y0166108D01*
X0024242Y0165972D01*
X0024320Y0165835D01*
X0024394Y0165695D01*
X0024465Y0165553D01*
X0024533Y0165410D01*
X0024597Y0165265D01*
X0024657Y0165119D01*
X0024713Y0164971D01*
X0024766Y0164822D01*
X0024815Y0164671D01*
X0024860Y0164519D01*
X0024901Y0164366D01*
X0024939Y0164213D01*
X0024972Y0164058D01*
X0025002Y0163902D01*
X0025028Y0163746D01*
X0025049Y0163589D01*
X0025067Y0163432D01*
X0025081Y0163274D01*
X0025091Y0163116D01*
X0025097Y0162958D01*
X0025099Y0162800D01*
X0025097Y0162642D01*
X0025091Y0162484D01*
X0025081Y0162326D01*
X0025067Y0162168D01*
X0025049Y0162011D01*
X0025028Y0161854D01*
X0025002Y0161698D01*
X0024972Y0161542D01*
X0024939Y0161387D01*
X0024901Y0161234D01*
X0024860Y0161081D01*
X0024815Y0160929D01*
X0024766Y0160778D01*
X0024713Y0160629D01*
X0024657Y0160481D01*
X0024597Y0160335D01*
X0024533Y0160190D01*
X0024465Y0160047D01*
X0024394Y0159905D01*
X0024320Y0159765D01*
X0024242Y0159628D01*
X0024160Y0159492D01*
X0024076Y0159358D01*
X0023987Y0159227D01*
X0023896Y0159098D01*
X0023801Y0158971D01*
X0023704Y0158846D01*
X0023603Y0158724D01*
X0023499Y0158605D01*
X0023392Y0158488D01*
X0023282Y0158374D01*
X0023169Y0158263D01*
X0023054Y0158154D01*
X0022936Y0158049D01*
X0022815Y0157947D01*
X0022692Y0157847D01*
X0022566Y0157751D01*
X0022438Y0157658D01*
X0022308Y0157568D01*
X0022175Y0157482D01*
X0022040Y0157398D01*
X0021904Y0157319D01*
X0021765Y0157242D01*
X0021624Y0157170D01*
X0021482Y0157100D01*
X0021338Y0157035D01*
X0021192Y0156973D01*
X0021045Y0156915D01*
X0020896Y0156860D01*
X0020746Y0156809D01*
X0020595Y0156762D01*
X0020443Y0156719D01*
X0020290Y0156680D01*
X0020135Y0156644D01*
X0019980Y0156613D01*
X0019824Y0156585D01*
X0019668Y0156561D01*
X0019511Y0156541D01*
X0019353Y0156525D01*
X0019196Y0156513D01*
X0019037Y0156505D01*
X0018879Y0156501D01*
X0018721Y0156501D01*
X0018563Y0156505D01*
X0018404Y0156513D01*
X0018247Y0156525D01*
X0018089Y0156541D01*
X0017932Y0156561D01*
X0017776Y0156585D01*
X0017620Y0156613D01*
X0017465Y0156644D01*
X0017310Y0156680D01*
X0017157Y0156719D01*
X0017005Y0156762D01*
X0016854Y0156809D01*
X0016704Y0156860D01*
X0016555Y0156915D01*
X0016408Y0156973D01*
X0016262Y0157035D01*
X0016118Y0157100D01*
X0015976Y0157170D01*
X0015835Y0157242D01*
X0015696Y0157319D01*
X0015560Y0157398D01*
X0015425Y0157482D01*
X0015292Y0157568D01*
X0015162Y0157658D01*
X0015034Y0157751D01*
X0014908Y0157847D01*
X0014785Y0157947D01*
X0014664Y0158049D01*
X0014546Y0158154D01*
X0014431Y0158263D01*
X0014318Y0158374D01*
X0014208Y0158488D01*
X0014101Y0158605D01*
X0013997Y0158724D01*
X0013896Y0158846D01*
X0013799Y0158971D01*
X0013704Y0159098D01*
X0013613Y0159227D01*
X0013524Y0159358D01*
X0013440Y0159492D01*
X0013358Y0159628D01*
X0013280Y0159765D01*
X0013206Y0159905D01*
X0013135Y0160047D01*
X0013067Y0160190D01*
X0013003Y0160335D01*
X0012943Y0160481D01*
X0012887Y0160629D01*
X0012834Y0160778D01*
X0012785Y0160929D01*
X0012740Y0161081D01*
X0012699Y0161234D01*
X0012661Y0161387D01*
X0012628Y0161542D01*
X0012598Y0161698D01*
X0012572Y0161854D01*
X0012551Y0162011D01*
X0012533Y0162168D01*
X0012519Y0162326D01*
X0012509Y0162484D01*
X0012503Y0162642D01*
X0012501Y0162800D01*
X0158751Y0162550D02*
X0158753Y0162708D01*
X0158759Y0162866D01*
X0158769Y0163024D01*
X0158783Y0163182D01*
X0158801Y0163339D01*
X0158822Y0163496D01*
X0158848Y0163652D01*
X0158878Y0163808D01*
X0158911Y0163963D01*
X0158949Y0164116D01*
X0158990Y0164269D01*
X0159035Y0164421D01*
X0159084Y0164572D01*
X0159137Y0164721D01*
X0159193Y0164869D01*
X0159253Y0165015D01*
X0159317Y0165160D01*
X0159385Y0165303D01*
X0159456Y0165445D01*
X0159530Y0165585D01*
X0159608Y0165722D01*
X0159690Y0165858D01*
X0159774Y0165992D01*
X0159863Y0166123D01*
X0159954Y0166252D01*
X0160049Y0166379D01*
X0160146Y0166504D01*
X0160247Y0166626D01*
X0160351Y0166745D01*
X0160458Y0166862D01*
X0160568Y0166976D01*
X0160681Y0167087D01*
X0160796Y0167196D01*
X0160914Y0167301D01*
X0161035Y0167403D01*
X0161158Y0167503D01*
X0161284Y0167599D01*
X0161412Y0167692D01*
X0161542Y0167782D01*
X0161675Y0167868D01*
X0161810Y0167952D01*
X0161946Y0168031D01*
X0162085Y0168108D01*
X0162226Y0168180D01*
X0162368Y0168250D01*
X0162512Y0168315D01*
X0162658Y0168377D01*
X0162805Y0168435D01*
X0162954Y0168490D01*
X0163104Y0168541D01*
X0163255Y0168588D01*
X0163407Y0168631D01*
X0163560Y0168670D01*
X0163715Y0168706D01*
X0163870Y0168737D01*
X0164026Y0168765D01*
X0164182Y0168789D01*
X0164339Y0168809D01*
X0164497Y0168825D01*
X0164654Y0168837D01*
X0164813Y0168845D01*
X0164971Y0168849D01*
X0165129Y0168849D01*
X0165287Y0168845D01*
X0165446Y0168837D01*
X0165603Y0168825D01*
X0165761Y0168809D01*
X0165918Y0168789D01*
X0166074Y0168765D01*
X0166230Y0168737D01*
X0166385Y0168706D01*
X0166540Y0168670D01*
X0166693Y0168631D01*
X0166845Y0168588D01*
X0166996Y0168541D01*
X0167146Y0168490D01*
X0167295Y0168435D01*
X0167442Y0168377D01*
X0167588Y0168315D01*
X0167732Y0168250D01*
X0167874Y0168180D01*
X0168015Y0168108D01*
X0168154Y0168031D01*
X0168290Y0167952D01*
X0168425Y0167868D01*
X0168558Y0167782D01*
X0168688Y0167692D01*
X0168816Y0167599D01*
X0168942Y0167503D01*
X0169065Y0167403D01*
X0169186Y0167301D01*
X0169304Y0167196D01*
X0169419Y0167087D01*
X0169532Y0166976D01*
X0169642Y0166862D01*
X0169749Y0166745D01*
X0169853Y0166626D01*
X0169954Y0166504D01*
X0170051Y0166379D01*
X0170146Y0166252D01*
X0170237Y0166123D01*
X0170326Y0165992D01*
X0170410Y0165858D01*
X0170492Y0165722D01*
X0170570Y0165585D01*
X0170644Y0165445D01*
X0170715Y0165303D01*
X0170783Y0165160D01*
X0170847Y0165015D01*
X0170907Y0164869D01*
X0170963Y0164721D01*
X0171016Y0164572D01*
X0171065Y0164421D01*
X0171110Y0164269D01*
X0171151Y0164116D01*
X0171189Y0163963D01*
X0171222Y0163808D01*
X0171252Y0163652D01*
X0171278Y0163496D01*
X0171299Y0163339D01*
X0171317Y0163182D01*
X0171331Y0163024D01*
X0171341Y0162866D01*
X0171347Y0162708D01*
X0171349Y0162550D01*
X0171347Y0162392D01*
X0171341Y0162234D01*
X0171331Y0162076D01*
X0171317Y0161918D01*
X0171299Y0161761D01*
X0171278Y0161604D01*
X0171252Y0161448D01*
X0171222Y0161292D01*
X0171189Y0161137D01*
X0171151Y0160984D01*
X0171110Y0160831D01*
X0171065Y0160679D01*
X0171016Y0160528D01*
X0170963Y0160379D01*
X0170907Y0160231D01*
X0170847Y0160085D01*
X0170783Y0159940D01*
X0170715Y0159797D01*
X0170644Y0159655D01*
X0170570Y0159515D01*
X0170492Y0159378D01*
X0170410Y0159242D01*
X0170326Y0159108D01*
X0170237Y0158977D01*
X0170146Y0158848D01*
X0170051Y0158721D01*
X0169954Y0158596D01*
X0169853Y0158474D01*
X0169749Y0158355D01*
X0169642Y0158238D01*
X0169532Y0158124D01*
X0169419Y0158013D01*
X0169304Y0157904D01*
X0169186Y0157799D01*
X0169065Y0157697D01*
X0168942Y0157597D01*
X0168816Y0157501D01*
X0168688Y0157408D01*
X0168558Y0157318D01*
X0168425Y0157232D01*
X0168290Y0157148D01*
X0168154Y0157069D01*
X0168015Y0156992D01*
X0167874Y0156920D01*
X0167732Y0156850D01*
X0167588Y0156785D01*
X0167442Y0156723D01*
X0167295Y0156665D01*
X0167146Y0156610D01*
X0166996Y0156559D01*
X0166845Y0156512D01*
X0166693Y0156469D01*
X0166540Y0156430D01*
X0166385Y0156394D01*
X0166230Y0156363D01*
X0166074Y0156335D01*
X0165918Y0156311D01*
X0165761Y0156291D01*
X0165603Y0156275D01*
X0165446Y0156263D01*
X0165287Y0156255D01*
X0165129Y0156251D01*
X0164971Y0156251D01*
X0164813Y0156255D01*
X0164654Y0156263D01*
X0164497Y0156275D01*
X0164339Y0156291D01*
X0164182Y0156311D01*
X0164026Y0156335D01*
X0163870Y0156363D01*
X0163715Y0156394D01*
X0163560Y0156430D01*
X0163407Y0156469D01*
X0163255Y0156512D01*
X0163104Y0156559D01*
X0162954Y0156610D01*
X0162805Y0156665D01*
X0162658Y0156723D01*
X0162512Y0156785D01*
X0162368Y0156850D01*
X0162226Y0156920D01*
X0162085Y0156992D01*
X0161946Y0157069D01*
X0161810Y0157148D01*
X0161675Y0157232D01*
X0161542Y0157318D01*
X0161412Y0157408D01*
X0161284Y0157501D01*
X0161158Y0157597D01*
X0161035Y0157697D01*
X0160914Y0157799D01*
X0160796Y0157904D01*
X0160681Y0158013D01*
X0160568Y0158124D01*
X0160458Y0158238D01*
X0160351Y0158355D01*
X0160247Y0158474D01*
X0160146Y0158596D01*
X0160049Y0158721D01*
X0159954Y0158848D01*
X0159863Y0158977D01*
X0159774Y0159108D01*
X0159690Y0159242D01*
X0159608Y0159378D01*
X0159530Y0159515D01*
X0159456Y0159655D01*
X0159385Y0159797D01*
X0159317Y0159940D01*
X0159253Y0160085D01*
X0159193Y0160231D01*
X0159137Y0160379D01*
X0159084Y0160528D01*
X0159035Y0160679D01*
X0158990Y0160831D01*
X0158949Y0160984D01*
X0158911Y0161137D01*
X0158878Y0161292D01*
X0158848Y0161448D01*
X0158822Y0161604D01*
X0158801Y0161761D01*
X0158783Y0161918D01*
X0158769Y0162076D01*
X0158759Y0162234D01*
X0158753Y0162392D01*
X0158751Y0162550D01*
X0158751Y0016300D02*
X0158753Y0016458D01*
X0158759Y0016616D01*
X0158769Y0016774D01*
X0158783Y0016932D01*
X0158801Y0017089D01*
X0158822Y0017246D01*
X0158848Y0017402D01*
X0158878Y0017558D01*
X0158911Y0017713D01*
X0158949Y0017866D01*
X0158990Y0018019D01*
X0159035Y0018171D01*
X0159084Y0018322D01*
X0159137Y0018471D01*
X0159193Y0018619D01*
X0159253Y0018765D01*
X0159317Y0018910D01*
X0159385Y0019053D01*
X0159456Y0019195D01*
X0159530Y0019335D01*
X0159608Y0019472D01*
X0159690Y0019608D01*
X0159774Y0019742D01*
X0159863Y0019873D01*
X0159954Y0020002D01*
X0160049Y0020129D01*
X0160146Y0020254D01*
X0160247Y0020376D01*
X0160351Y0020495D01*
X0160458Y0020612D01*
X0160568Y0020726D01*
X0160681Y0020837D01*
X0160796Y0020946D01*
X0160914Y0021051D01*
X0161035Y0021153D01*
X0161158Y0021253D01*
X0161284Y0021349D01*
X0161412Y0021442D01*
X0161542Y0021532D01*
X0161675Y0021618D01*
X0161810Y0021702D01*
X0161946Y0021781D01*
X0162085Y0021858D01*
X0162226Y0021930D01*
X0162368Y0022000D01*
X0162512Y0022065D01*
X0162658Y0022127D01*
X0162805Y0022185D01*
X0162954Y0022240D01*
X0163104Y0022291D01*
X0163255Y0022338D01*
X0163407Y0022381D01*
X0163560Y0022420D01*
X0163715Y0022456D01*
X0163870Y0022487D01*
X0164026Y0022515D01*
X0164182Y0022539D01*
X0164339Y0022559D01*
X0164497Y0022575D01*
X0164654Y0022587D01*
X0164813Y0022595D01*
X0164971Y0022599D01*
X0165129Y0022599D01*
X0165287Y0022595D01*
X0165446Y0022587D01*
X0165603Y0022575D01*
X0165761Y0022559D01*
X0165918Y0022539D01*
X0166074Y0022515D01*
X0166230Y0022487D01*
X0166385Y0022456D01*
X0166540Y0022420D01*
X0166693Y0022381D01*
X0166845Y0022338D01*
X0166996Y0022291D01*
X0167146Y0022240D01*
X0167295Y0022185D01*
X0167442Y0022127D01*
X0167588Y0022065D01*
X0167732Y0022000D01*
X0167874Y0021930D01*
X0168015Y0021858D01*
X0168154Y0021781D01*
X0168290Y0021702D01*
X0168425Y0021618D01*
X0168558Y0021532D01*
X0168688Y0021442D01*
X0168816Y0021349D01*
X0168942Y0021253D01*
X0169065Y0021153D01*
X0169186Y0021051D01*
X0169304Y0020946D01*
X0169419Y0020837D01*
X0169532Y0020726D01*
X0169642Y0020612D01*
X0169749Y0020495D01*
X0169853Y0020376D01*
X0169954Y0020254D01*
X0170051Y0020129D01*
X0170146Y0020002D01*
X0170237Y0019873D01*
X0170326Y0019742D01*
X0170410Y0019608D01*
X0170492Y0019472D01*
X0170570Y0019335D01*
X0170644Y0019195D01*
X0170715Y0019053D01*
X0170783Y0018910D01*
X0170847Y0018765D01*
X0170907Y0018619D01*
X0170963Y0018471D01*
X0171016Y0018322D01*
X0171065Y0018171D01*
X0171110Y0018019D01*
X0171151Y0017866D01*
X0171189Y0017713D01*
X0171222Y0017558D01*
X0171252Y0017402D01*
X0171278Y0017246D01*
X0171299Y0017089D01*
X0171317Y0016932D01*
X0171331Y0016774D01*
X0171341Y0016616D01*
X0171347Y0016458D01*
X0171349Y0016300D01*
X0171347Y0016142D01*
X0171341Y0015984D01*
X0171331Y0015826D01*
X0171317Y0015668D01*
X0171299Y0015511D01*
X0171278Y0015354D01*
X0171252Y0015198D01*
X0171222Y0015042D01*
X0171189Y0014887D01*
X0171151Y0014734D01*
X0171110Y0014581D01*
X0171065Y0014429D01*
X0171016Y0014278D01*
X0170963Y0014129D01*
X0170907Y0013981D01*
X0170847Y0013835D01*
X0170783Y0013690D01*
X0170715Y0013547D01*
X0170644Y0013405D01*
X0170570Y0013265D01*
X0170492Y0013128D01*
X0170410Y0012992D01*
X0170326Y0012858D01*
X0170237Y0012727D01*
X0170146Y0012598D01*
X0170051Y0012471D01*
X0169954Y0012346D01*
X0169853Y0012224D01*
X0169749Y0012105D01*
X0169642Y0011988D01*
X0169532Y0011874D01*
X0169419Y0011763D01*
X0169304Y0011654D01*
X0169186Y0011549D01*
X0169065Y0011447D01*
X0168942Y0011347D01*
X0168816Y0011251D01*
X0168688Y0011158D01*
X0168558Y0011068D01*
X0168425Y0010982D01*
X0168290Y0010898D01*
X0168154Y0010819D01*
X0168015Y0010742D01*
X0167874Y0010670D01*
X0167732Y0010600D01*
X0167588Y0010535D01*
X0167442Y0010473D01*
X0167295Y0010415D01*
X0167146Y0010360D01*
X0166996Y0010309D01*
X0166845Y0010262D01*
X0166693Y0010219D01*
X0166540Y0010180D01*
X0166385Y0010144D01*
X0166230Y0010113D01*
X0166074Y0010085D01*
X0165918Y0010061D01*
X0165761Y0010041D01*
X0165603Y0010025D01*
X0165446Y0010013D01*
X0165287Y0010005D01*
X0165129Y0010001D01*
X0164971Y0010001D01*
X0164813Y0010005D01*
X0164654Y0010013D01*
X0164497Y0010025D01*
X0164339Y0010041D01*
X0164182Y0010061D01*
X0164026Y0010085D01*
X0163870Y0010113D01*
X0163715Y0010144D01*
X0163560Y0010180D01*
X0163407Y0010219D01*
X0163255Y0010262D01*
X0163104Y0010309D01*
X0162954Y0010360D01*
X0162805Y0010415D01*
X0162658Y0010473D01*
X0162512Y0010535D01*
X0162368Y0010600D01*
X0162226Y0010670D01*
X0162085Y0010742D01*
X0161946Y0010819D01*
X0161810Y0010898D01*
X0161675Y0010982D01*
X0161542Y0011068D01*
X0161412Y0011158D01*
X0161284Y0011251D01*
X0161158Y0011347D01*
X0161035Y0011447D01*
X0160914Y0011549D01*
X0160796Y0011654D01*
X0160681Y0011763D01*
X0160568Y0011874D01*
X0160458Y0011988D01*
X0160351Y0012105D01*
X0160247Y0012224D01*
X0160146Y0012346D01*
X0160049Y0012471D01*
X0159954Y0012598D01*
X0159863Y0012727D01*
X0159774Y0012858D01*
X0159690Y0012992D01*
X0159608Y0013128D01*
X0159530Y0013265D01*
X0159456Y0013405D01*
X0159385Y0013547D01*
X0159317Y0013690D01*
X0159253Y0013835D01*
X0159193Y0013981D01*
X0159137Y0014129D01*
X0159084Y0014278D01*
X0159035Y0014429D01*
X0158990Y0014581D01*
X0158949Y0014734D01*
X0158911Y0014887D01*
X0158878Y0015042D01*
X0158848Y0015198D01*
X0158822Y0015354D01*
X0158801Y0015511D01*
X0158783Y0015668D01*
X0158769Y0015826D01*
X0158759Y0015984D01*
X0158753Y0016142D01*
X0158751Y0016300D01*
D11*
X0005300Y0004800D02*
X0005300Y0174800D01*
X0175800Y0174800D01*
X0176300Y0174300D01*
X0176800Y0004800D01*
X0005300Y0004800D01*
X0006900Y0006400D02*
X0006900Y0173200D01*
X0174703Y0173200D01*
X0174785Y0145360D01*
X0167046Y0153100D01*
X0157046Y0153100D01*
X0142046Y0168100D01*
X0090554Y0168100D01*
X0089500Y0167046D01*
X0084500Y0162046D01*
X0084500Y0147046D01*
X0055554Y0118100D01*
X0045642Y0118100D01*
X0045284Y0118962D01*
X0043962Y0120284D01*
X0042235Y0121000D01*
X0040365Y0121000D01*
X0038638Y0120284D01*
X0037316Y0118962D01*
X0036600Y0117235D01*
X0036600Y0115365D01*
X0037316Y0113638D01*
X0038638Y0112316D01*
X0040365Y0111600D01*
X0042235Y0111600D01*
X0043962Y0112316D01*
X0045284Y0113638D01*
X0045642Y0114500D01*
X0057046Y0114500D01*
X0087046Y0144500D01*
X0088100Y0145554D01*
X0088100Y0160554D01*
X0092046Y0164500D01*
X0140554Y0164500D01*
X0154500Y0150554D01*
X0155554Y0149500D01*
X0165554Y0149500D01*
X0172491Y0142563D01*
X0172491Y0140037D01*
X0171600Y0139146D01*
X0171600Y0142581D01*
X0169081Y0145100D01*
X0165519Y0145100D01*
X0163000Y0142581D01*
X0163000Y0139019D01*
X0165519Y0136500D01*
X0168954Y0136500D01*
X0160554Y0128100D01*
X0159500Y0127046D01*
X0159500Y0120554D01*
X0164500Y0115554D01*
X0165554Y0114500D01*
X0166958Y0114500D01*
X0167316Y0113638D01*
X0168638Y0112316D01*
X0170365Y0111600D01*
X0172235Y0111600D01*
X0173962Y0112316D01*
X0174880Y0113233D01*
X0174890Y0109781D01*
X0174557Y0110114D01*
X0173921Y0110576D01*
X0173219Y0110934D01*
X0172471Y0111177D01*
X0171694Y0111300D01*
X0171600Y0111300D01*
X0171600Y0106600D01*
X0171000Y0106600D01*
X0171000Y0111300D01*
X0170906Y0111300D01*
X0170129Y0111177D01*
X0169381Y0110934D01*
X0168679Y0110576D01*
X0168043Y0110114D01*
X0167486Y0109557D01*
X0167024Y0108921D01*
X0166666Y0108219D01*
X0166423Y0107471D01*
X0166300Y0106694D01*
X0166300Y0106600D01*
X0171000Y0106600D01*
X0171000Y0106000D01*
X0171600Y0106000D01*
X0171600Y0101300D01*
X0171694Y0101300D01*
X0172471Y0101423D01*
X0173219Y0101666D01*
X0173921Y0102024D01*
X0174557Y0102486D01*
X0174911Y0102840D01*
X0174921Y0099326D01*
X0173962Y0100284D01*
X0172235Y0101000D01*
X0170365Y0101000D01*
X0168638Y0100284D01*
X0167316Y0098962D01*
X0166600Y0097235D01*
X0166600Y0095365D01*
X0167316Y0093638D01*
X0168638Y0092316D01*
X0170365Y0091600D01*
X0172235Y0091600D01*
X0173962Y0092316D01*
X0174939Y0093292D01*
X0174953Y0088455D01*
X0174861Y0088679D01*
X0173679Y0089861D01*
X0172135Y0090500D01*
X0170465Y0090500D01*
X0168921Y0089861D01*
X0167739Y0088679D01*
X0167100Y0087135D01*
X0167100Y0085465D01*
X0167340Y0084885D01*
X0159500Y0077046D01*
X0159500Y0072046D01*
X0152441Y0064986D01*
X0151608Y0064986D01*
X0150208Y0063587D01*
X0150208Y0061608D01*
X0151608Y0060208D01*
X0153587Y0060208D01*
X0154986Y0061608D01*
X0154986Y0062441D01*
X0162046Y0069500D01*
X0163100Y0070554D01*
X0163100Y0075554D01*
X0169885Y0082340D01*
X0170465Y0082100D01*
X0172135Y0082100D01*
X0173679Y0082739D01*
X0174861Y0083921D01*
X0174966Y0084175D01*
X0174983Y0078384D01*
X0174861Y0078679D01*
X0173679Y0079861D01*
X0172135Y0080500D01*
X0170465Y0080500D01*
X0168921Y0079861D01*
X0167739Y0078679D01*
X0167100Y0077135D01*
X0167100Y0075465D01*
X0167739Y0073921D01*
X0168921Y0072739D01*
X0170465Y0072100D01*
X0172135Y0072100D01*
X0173679Y0072739D01*
X0174861Y0073921D01*
X0174995Y0074246D01*
X0175013Y0068312D01*
X0174861Y0068679D01*
X0173679Y0069861D01*
X0172135Y0070500D01*
X0170465Y0070500D01*
X0168921Y0069861D01*
X0167739Y0068679D01*
X0167100Y0067135D01*
X0167100Y0065465D01*
X0167739Y0063921D01*
X0168921Y0062739D01*
X0170465Y0062100D01*
X0172135Y0062100D01*
X0173679Y0062739D01*
X0174861Y0063921D01*
X0175024Y0064316D01*
X0175195Y0006400D01*
X0006900Y0006400D01*
X0006900Y0006426D02*
X0175195Y0006426D01*
X0175193Y0007025D02*
X0006900Y0007025D01*
X0006900Y0007623D02*
X0175192Y0007623D01*
X0175190Y0008222D02*
X0006900Y0008222D01*
X0006900Y0008820D02*
X0017000Y0008820D01*
X0017288Y0008701D02*
X0020312Y0008701D01*
X0023105Y0009858D01*
X0025242Y0011995D01*
X0026399Y0014788D01*
X0026399Y0017812D01*
X0025242Y0020605D01*
X0023105Y0022742D01*
X0020312Y0023899D01*
X0017288Y0023899D01*
X0014495Y0022742D01*
X0012358Y0020605D01*
X0011201Y0017812D01*
X0011201Y0014788D01*
X0012358Y0011995D01*
X0014495Y0009858D01*
X0017288Y0008701D01*
X0015555Y0009419D02*
X0006900Y0009419D01*
X0006900Y0010017D02*
X0014336Y0010017D01*
X0013737Y0010616D02*
X0006900Y0010616D01*
X0006900Y0011214D02*
X0013139Y0011214D01*
X0012540Y0011813D02*
X0006900Y0011813D01*
X0006900Y0012411D02*
X0012185Y0012411D01*
X0011938Y0013010D02*
X0006900Y0013010D01*
X0006900Y0013608D02*
X0011690Y0013608D01*
X0011442Y0014207D02*
X0006900Y0014207D01*
X0006900Y0014805D02*
X0011201Y0014805D01*
X0011201Y0015404D02*
X0006900Y0015404D01*
X0006900Y0016002D02*
X0011201Y0016002D01*
X0011201Y0016601D02*
X0006900Y0016601D01*
X0006900Y0017199D02*
X0011201Y0017199D01*
X0011201Y0017798D02*
X0006900Y0017798D01*
X0006900Y0018396D02*
X0011443Y0018396D01*
X0011691Y0018995D02*
X0006900Y0018995D01*
X0006900Y0019593D02*
X0011939Y0019593D01*
X0012187Y0020192D02*
X0006900Y0020192D01*
X0006900Y0020790D02*
X0012543Y0020790D01*
X0013142Y0021389D02*
X0006900Y0021389D01*
X0006900Y0021987D02*
X0013740Y0021987D01*
X0014339Y0022586D02*
X0006900Y0022586D01*
X0006900Y0023184D02*
X0015563Y0023184D01*
X0017008Y0023783D02*
X0006900Y0023783D01*
X0006900Y0024381D02*
X0089840Y0024381D01*
X0090310Y0023911D02*
X0092290Y0023911D01*
X0093689Y0025310D01*
X0093689Y0027290D01*
X0093100Y0027879D01*
X0093100Y0039721D01*
X0093689Y0040310D01*
X0093689Y0042290D01*
X0092290Y0043689D01*
X0090310Y0043689D01*
X0088911Y0042290D01*
X0088911Y0040310D01*
X0089500Y0039721D01*
X0089500Y0027879D01*
X0088911Y0027290D01*
X0088911Y0025310D01*
X0090310Y0023911D01*
X0089242Y0024980D02*
X0006900Y0024980D01*
X0006900Y0025578D02*
X0088911Y0025578D01*
X0088911Y0026177D02*
X0006900Y0026177D01*
X0006900Y0026775D02*
X0088911Y0026775D01*
X0088995Y0027374D02*
X0006900Y0027374D01*
X0006900Y0027972D02*
X0089500Y0027972D01*
X0089500Y0028571D02*
X0006900Y0028571D01*
X0006900Y0029170D02*
X0089500Y0029170D01*
X0089500Y0029768D02*
X0006900Y0029768D01*
X0006900Y0030367D02*
X0089500Y0030367D01*
X0089500Y0030965D02*
X0006900Y0030965D01*
X0006900Y0031564D02*
X0089500Y0031564D01*
X0089500Y0032162D02*
X0006900Y0032162D01*
X0006900Y0032761D02*
X0089500Y0032761D01*
X0089500Y0033359D02*
X0006900Y0033359D01*
X0006900Y0033958D02*
X0089500Y0033958D01*
X0089500Y0034556D02*
X0006900Y0034556D01*
X0006900Y0035155D02*
X0089500Y0035155D01*
X0089500Y0035753D02*
X0006900Y0035753D01*
X0006900Y0036352D02*
X0089500Y0036352D01*
X0089500Y0036950D02*
X0006900Y0036950D01*
X0006900Y0037549D02*
X0089500Y0037549D01*
X0089500Y0038147D02*
X0006900Y0038147D01*
X0006900Y0038746D02*
X0089500Y0038746D01*
X0089500Y0039344D02*
X0006900Y0039344D01*
X0006900Y0039943D02*
X0089279Y0039943D01*
X0088911Y0040541D02*
X0006900Y0040541D01*
X0006900Y0041140D02*
X0088911Y0041140D01*
X0088911Y0041738D02*
X0042569Y0041738D01*
X0042235Y0041600D02*
X0043962Y0042316D01*
X0045284Y0043638D01*
X0046000Y0045365D01*
X0046000Y0047235D01*
X0045284Y0048962D01*
X0043962Y0050284D01*
X0042235Y0051000D01*
X0040365Y0051000D01*
X0038638Y0050284D01*
X0037316Y0048962D01*
X0036600Y0047235D01*
X0036600Y0045365D01*
X0037316Y0043638D01*
X0038638Y0042316D01*
X0040365Y0041600D01*
X0042235Y0041600D01*
X0043984Y0042337D02*
X0088958Y0042337D01*
X0089557Y0042935D02*
X0044582Y0042935D01*
X0045181Y0043534D02*
X0090155Y0043534D01*
X0092445Y0043534D02*
X0097419Y0043534D01*
X0097316Y0043638D02*
X0098638Y0042316D01*
X0100365Y0041600D01*
X0102235Y0041600D01*
X0103962Y0042316D01*
X0105284Y0043638D01*
X0106000Y0045365D01*
X0106000Y0047235D01*
X0105284Y0048962D01*
X0103962Y0050284D01*
X0102235Y0051000D01*
X0100365Y0051000D01*
X0098638Y0050284D01*
X0097316Y0048962D01*
X0096600Y0047235D01*
X0096600Y0045365D01*
X0097316Y0043638D01*
X0097111Y0044132D02*
X0045489Y0044132D01*
X0045737Y0044731D02*
X0096863Y0044731D01*
X0096615Y0045329D02*
X0045985Y0045329D01*
X0046000Y0045928D02*
X0096600Y0045928D01*
X0096600Y0046526D02*
X0046000Y0046526D01*
X0046000Y0047125D02*
X0096600Y0047125D01*
X0096802Y0047723D02*
X0045798Y0047723D01*
X0045550Y0048322D02*
X0097050Y0048322D01*
X0097298Y0048920D02*
X0045302Y0048920D01*
X0044728Y0049519D02*
X0097872Y0049519D01*
X0098471Y0050117D02*
X0044129Y0050117D01*
X0042921Y0050716D02*
X0099679Y0050716D01*
X0100365Y0051600D02*
X0102235Y0051600D01*
X0103962Y0052316D01*
X0105284Y0053638D01*
X0106000Y0055365D01*
X0106000Y0057235D01*
X0105284Y0058962D01*
X0103962Y0060284D01*
X0102235Y0061000D01*
X0100365Y0061000D01*
X0098638Y0060284D01*
X0097316Y0058962D01*
X0096600Y0057235D01*
X0096600Y0055365D01*
X0097316Y0053638D01*
X0098638Y0052316D01*
X0100365Y0051600D01*
X0099610Y0051913D02*
X0042990Y0051913D01*
X0042235Y0051600D02*
X0043962Y0052316D01*
X0045284Y0053638D01*
X0046000Y0055365D01*
X0046000Y0057235D01*
X0045284Y0058962D01*
X0043962Y0060284D01*
X0042235Y0061000D01*
X0040365Y0061000D01*
X0038638Y0060284D01*
X0037316Y0058962D01*
X0036600Y0057235D01*
X0036600Y0055365D01*
X0037316Y0053638D01*
X0038638Y0052316D01*
X0040365Y0051600D01*
X0042235Y0051600D01*
X0044158Y0052511D02*
X0098442Y0052511D01*
X0097843Y0053110D02*
X0044757Y0053110D01*
X0045314Y0053708D02*
X0097286Y0053708D01*
X0097038Y0054307D02*
X0045562Y0054307D01*
X0045810Y0054905D02*
X0096790Y0054905D01*
X0096600Y0055504D02*
X0046000Y0055504D01*
X0046000Y0056103D02*
X0096600Y0056103D01*
X0096600Y0056701D02*
X0046000Y0056701D01*
X0045973Y0057300D02*
X0096627Y0057300D01*
X0096875Y0057898D02*
X0045725Y0057898D01*
X0045477Y0058497D02*
X0097123Y0058497D01*
X0097448Y0059095D02*
X0045152Y0059095D01*
X0044553Y0059694D02*
X0098047Y0059694D01*
X0098656Y0060292D02*
X0043944Y0060292D01*
X0042499Y0060891D02*
X0100101Y0060891D01*
X0100365Y0061600D02*
X0102235Y0061600D01*
X0103962Y0062316D01*
X0105284Y0063638D01*
X0106000Y0065365D01*
X0106000Y0067235D01*
X0105284Y0068962D01*
X0103962Y0070284D01*
X0102235Y0071000D01*
X0100365Y0071000D01*
X0098638Y0070284D01*
X0097316Y0068962D01*
X0096600Y0067235D01*
X0096600Y0065365D01*
X0097316Y0063638D01*
X0098638Y0062316D01*
X0100365Y0061600D01*
X0099188Y0062088D02*
X0043412Y0062088D01*
X0043962Y0062316D02*
X0042235Y0061600D01*
X0040365Y0061600D01*
X0038638Y0062316D01*
X0037316Y0063638D01*
X0036600Y0065365D01*
X0036600Y0067235D01*
X0037316Y0068962D01*
X0038638Y0070284D01*
X0040365Y0071000D01*
X0042235Y0071000D01*
X0043962Y0070284D01*
X0045284Y0068962D01*
X0046000Y0067235D01*
X0046000Y0065365D01*
X0045284Y0063638D01*
X0043962Y0062316D01*
X0044333Y0062686D02*
X0098267Y0062686D01*
X0097669Y0063285D02*
X0044931Y0063285D01*
X0045386Y0063883D02*
X0097214Y0063883D01*
X0096966Y0064482D02*
X0045634Y0064482D01*
X0045882Y0065080D02*
X0096718Y0065080D01*
X0096600Y0065679D02*
X0046000Y0065679D01*
X0046000Y0066277D02*
X0096600Y0066277D01*
X0096600Y0066876D02*
X0046000Y0066876D01*
X0045901Y0067474D02*
X0096699Y0067474D01*
X0096947Y0068073D02*
X0045653Y0068073D01*
X0045405Y0068671D02*
X0097195Y0068671D01*
X0097623Y0069270D02*
X0044977Y0069270D01*
X0044379Y0069868D02*
X0098221Y0069868D01*
X0099078Y0070467D02*
X0043522Y0070467D01*
X0042389Y0071664D02*
X0100211Y0071664D01*
X0100365Y0071600D02*
X0102235Y0071600D01*
X0103962Y0072316D01*
X0105284Y0073638D01*
X0106000Y0075365D01*
X0106000Y0077235D01*
X0105284Y0078962D01*
X0103962Y0080284D01*
X0102235Y0081000D01*
X0100365Y0081000D01*
X0098638Y0080284D01*
X0097316Y0078962D01*
X0096600Y0077235D01*
X0096600Y0075365D01*
X0097316Y0073638D01*
X0098638Y0072316D01*
X0100365Y0071600D01*
X0098766Y0072262D02*
X0043834Y0072262D01*
X0043962Y0072316D02*
X0045284Y0073638D01*
X0046000Y0075365D01*
X0046000Y0077235D01*
X0045284Y0078962D01*
X0043962Y0080284D01*
X0042235Y0081000D01*
X0040365Y0081000D01*
X0038638Y0080284D01*
X0037316Y0078962D01*
X0036600Y0077235D01*
X0036600Y0075365D01*
X0037316Y0073638D01*
X0038638Y0072316D01*
X0040365Y0071600D01*
X0042235Y0071600D01*
X0043962Y0072316D01*
X0044508Y0072861D02*
X0098092Y0072861D01*
X0097494Y0073459D02*
X0045106Y0073459D01*
X0045459Y0074058D02*
X0097141Y0074058D01*
X0096894Y0074656D02*
X0045706Y0074656D01*
X0045954Y0075255D02*
X0096646Y0075255D01*
X0096600Y0075853D02*
X0046000Y0075853D01*
X0046000Y0076452D02*
X0096600Y0076452D01*
X0096600Y0077050D02*
X0046000Y0077050D01*
X0045828Y0077649D02*
X0096772Y0077649D01*
X0097019Y0078247D02*
X0045581Y0078247D01*
X0045333Y0078846D02*
X0097267Y0078846D01*
X0097798Y0079444D02*
X0044802Y0079444D01*
X0044204Y0080043D02*
X0098396Y0080043D01*
X0099500Y0080641D02*
X0043100Y0080641D01*
X0042811Y0081839D02*
X0099789Y0081839D01*
X0100365Y0081600D02*
X0098638Y0082316D01*
X0097316Y0083638D01*
X0096600Y0085365D01*
X0096600Y0087235D01*
X0097316Y0088962D01*
X0098638Y0090284D01*
X0100365Y0091000D01*
X0102235Y0091000D01*
X0103962Y0090284D01*
X0105284Y0088962D01*
X0106000Y0087235D01*
X0106000Y0085365D01*
X0105284Y0083638D01*
X0103962Y0082316D01*
X0102235Y0081600D01*
X0100365Y0081600D01*
X0098516Y0082437D02*
X0044084Y0082437D01*
X0043962Y0082316D02*
X0045284Y0083638D01*
X0046000Y0085365D01*
X0046000Y0087235D01*
X0045284Y0088962D01*
X0043962Y0090284D01*
X0042235Y0091000D01*
X0040365Y0091000D01*
X0038638Y0090284D01*
X0037316Y0088962D01*
X0036600Y0087235D01*
X0036600Y0085365D01*
X0037316Y0083638D01*
X0038638Y0082316D01*
X0040365Y0081600D01*
X0042235Y0081600D01*
X0043962Y0082316D01*
X0044682Y0083036D02*
X0097918Y0083036D01*
X0097319Y0083634D02*
X0045281Y0083634D01*
X0045531Y0084233D02*
X0097069Y0084233D01*
X0096821Y0084831D02*
X0045779Y0084831D01*
X0046000Y0085430D02*
X0096600Y0085430D01*
X0096600Y0086028D02*
X0046000Y0086028D01*
X0046000Y0086627D02*
X0096600Y0086627D01*
X0096600Y0087225D02*
X0046000Y0087225D01*
X0045756Y0087824D02*
X0096844Y0087824D01*
X0097092Y0088422D02*
X0045508Y0088422D01*
X0045226Y0089021D02*
X0097374Y0089021D01*
X0097972Y0089619D02*
X0044628Y0089619D01*
X0044029Y0090218D02*
X0098571Y0090218D01*
X0099921Y0090816D02*
X0042679Y0090816D01*
X0042235Y0091600D02*
X0043962Y0092316D01*
X0045284Y0093638D01*
X0046000Y0095365D01*
X0046000Y0097235D01*
X0045284Y0098962D01*
X0043962Y0100284D01*
X0042235Y0101000D01*
X0040365Y0101000D01*
X0038638Y0100284D01*
X0037316Y0098962D01*
X0036600Y0097235D01*
X0036600Y0095365D01*
X0037316Y0093638D01*
X0038638Y0092316D01*
X0040365Y0091600D01*
X0042235Y0091600D01*
X0043232Y0092013D02*
X0099368Y0092013D01*
X0098638Y0092316D02*
X0100365Y0091600D01*
X0102235Y0091600D01*
X0103962Y0092316D01*
X0105284Y0093638D01*
X0106000Y0095365D01*
X0106000Y0097235D01*
X0105284Y0098962D01*
X0103962Y0100284D01*
X0102235Y0101000D01*
X0100365Y0101000D01*
X0098638Y0100284D01*
X0097316Y0098962D01*
X0096600Y0097235D01*
X0096600Y0095365D01*
X0097316Y0093638D01*
X0098638Y0092316D01*
X0098341Y0092612D02*
X0044259Y0092612D01*
X0044857Y0093210D02*
X0097743Y0093210D01*
X0097245Y0093809D02*
X0045355Y0093809D01*
X0045603Y0094407D02*
X0096997Y0094407D01*
X0096749Y0095006D02*
X0045851Y0095006D01*
X0046000Y0095604D02*
X0096600Y0095604D01*
X0096600Y0096203D02*
X0046000Y0096203D01*
X0046000Y0096801D02*
X0096600Y0096801D01*
X0096668Y0097400D02*
X0045932Y0097400D01*
X0045684Y0097998D02*
X0096916Y0097998D01*
X0097164Y0098597D02*
X0045436Y0098597D01*
X0045051Y0099195D02*
X0097549Y0099195D01*
X0098147Y0099794D02*
X0044453Y0099794D01*
X0043702Y0100392D02*
X0098898Y0100392D01*
X0100343Y0100991D02*
X0042257Y0100991D01*
X0042235Y0101600D02*
X0040365Y0101600D01*
X0038638Y0102316D01*
X0037316Y0103638D01*
X0036600Y0105365D01*
X0036600Y0107235D01*
X0037316Y0108962D01*
X0038638Y0110284D01*
X0040365Y0111000D01*
X0042235Y0111000D01*
X0043962Y0110284D01*
X0045284Y0108962D01*
X0046000Y0107235D01*
X0046000Y0105365D01*
X0045284Y0103638D01*
X0043962Y0102316D01*
X0042235Y0101600D01*
X0043654Y0102188D02*
X0098946Y0102188D01*
X0098638Y0102316D02*
X0100365Y0101600D01*
X0102235Y0101600D01*
X0103962Y0102316D01*
X0105284Y0103638D01*
X0106000Y0105365D01*
X0106000Y0107235D01*
X0105284Y0108962D01*
X0103962Y0110284D01*
X0102235Y0111000D01*
X0100365Y0111000D01*
X0098638Y0110284D01*
X0097316Y0108962D01*
X0096600Y0107235D01*
X0096600Y0105365D01*
X0097316Y0103638D01*
X0098638Y0102316D01*
X0098167Y0102786D02*
X0044433Y0102786D01*
X0045032Y0103385D02*
X0097568Y0103385D01*
X0097172Y0103983D02*
X0045428Y0103983D01*
X0045676Y0104582D02*
X0096924Y0104582D01*
X0096676Y0105180D02*
X0045923Y0105180D01*
X0046000Y0105779D02*
X0096600Y0105779D01*
X0096600Y0106377D02*
X0046000Y0106377D01*
X0046000Y0106976D02*
X0096600Y0106976D01*
X0096741Y0107574D02*
X0045859Y0107574D01*
X0045611Y0108173D02*
X0096989Y0108173D01*
X0097236Y0108772D02*
X0045364Y0108772D01*
X0044877Y0109370D02*
X0097723Y0109370D01*
X0098322Y0109969D02*
X0044278Y0109969D01*
X0043280Y0110567D02*
X0099320Y0110567D01*
X0099969Y0111764D02*
X0042631Y0111764D01*
X0044009Y0112363D02*
X0098591Y0112363D01*
X0098638Y0112316D02*
X0097316Y0113638D01*
X0096600Y0115365D01*
X0096600Y0117235D01*
X0097316Y0118962D01*
X0098638Y0120284D01*
X0100365Y0121000D01*
X0102235Y0121000D01*
X0103962Y0120284D01*
X0105284Y0118962D01*
X0106000Y0117235D01*
X0106000Y0115365D01*
X0105284Y0113638D01*
X0103962Y0112316D01*
X0102235Y0111600D01*
X0100365Y0111600D01*
X0098638Y0112316D01*
X0097992Y0112961D02*
X0044608Y0112961D01*
X0045206Y0113560D02*
X0097394Y0113560D01*
X0097100Y0114158D02*
X0045500Y0114158D01*
X0045539Y0118348D02*
X0055802Y0118348D01*
X0056401Y0118946D02*
X0045291Y0118946D01*
X0044702Y0119545D02*
X0056999Y0119545D01*
X0057598Y0120143D02*
X0044104Y0120143D01*
X0042858Y0120742D02*
X0058196Y0120742D01*
X0058795Y0121340D02*
X0041948Y0121340D01*
X0041694Y0121300D02*
X0042471Y0121423D01*
X0043219Y0121666D01*
X0043921Y0122024D01*
X0044557Y0122486D01*
X0045114Y0123043D01*
X0045576Y0123679D01*
X0045934Y0124381D01*
X0046177Y0125129D01*
X0046300Y0125906D01*
X0046300Y0126000D01*
X0041600Y0126000D01*
X0041600Y0126600D01*
X0046300Y0126600D01*
X0046300Y0126694D01*
X0046177Y0127471D01*
X0045934Y0128219D01*
X0045576Y0128921D01*
X0045114Y0129557D01*
X0044557Y0130114D01*
X0043921Y0130576D01*
X0043219Y0130934D01*
X0042471Y0131177D01*
X0041694Y0131300D01*
X0041600Y0131300D01*
X0041600Y0126600D01*
X0041000Y0126600D01*
X0041000Y0131300D01*
X0041000Y0136000D01*
X0041600Y0136000D01*
X0041600Y0136600D01*
X0046300Y0136600D01*
X0046300Y0136694D01*
X0046177Y0137471D01*
X0045934Y0138219D01*
X0045576Y0138921D01*
X0045114Y0139557D01*
X0044557Y0140114D01*
X0043921Y0140576D01*
X0043219Y0140934D01*
X0042471Y0141177D01*
X0041694Y0141300D01*
X0041600Y0141300D01*
X0041600Y0136600D01*
X0041000Y0136600D01*
X0041000Y0141300D01*
X0040906Y0141300D01*
X0040129Y0141177D01*
X0039381Y0140934D01*
X0038679Y0140576D01*
X0038043Y0140114D01*
X0037486Y0139557D01*
X0037024Y0138921D01*
X0036666Y0138219D01*
X0036423Y0137471D01*
X0036300Y0136694D01*
X0036300Y0136600D01*
X0041000Y0136600D01*
X0041000Y0136000D01*
X0036300Y0136000D01*
X0036300Y0135906D01*
X0036423Y0135129D01*
X0036666Y0134381D01*
X0037024Y0133679D01*
X0037486Y0133043D01*
X0038043Y0132486D01*
X0038679Y0132024D01*
X0039381Y0131666D01*
X0040129Y0131423D01*
X0040906Y0131300D01*
X0040129Y0131177D01*
X0039381Y0130934D01*
X0038679Y0130576D01*
X0038043Y0130114D01*
X0037486Y0129557D01*
X0037024Y0128921D01*
X0036666Y0128219D01*
X0036423Y0127471D01*
X0036300Y0126694D01*
X0036300Y0126600D01*
X0041000Y0126600D01*
X0041000Y0126000D01*
X0041600Y0126000D01*
X0041600Y0121300D01*
X0041694Y0121300D01*
X0041600Y0121340D02*
X0041000Y0121340D01*
X0041000Y0121300D02*
X0041000Y0126000D01*
X0036300Y0126000D01*
X0036300Y0125906D01*
X0036423Y0125129D01*
X0036666Y0124381D01*
X0037024Y0123679D01*
X0037486Y0123043D01*
X0038043Y0122486D01*
X0038679Y0122024D01*
X0039381Y0121666D01*
X0040129Y0121423D01*
X0040906Y0121300D01*
X0041000Y0121300D01*
X0040652Y0121340D02*
X0016204Y0121340D01*
X0016164Y0121300D02*
X0018800Y0123936D01*
X0018800Y0125500D01*
X0014600Y0125500D01*
X0014600Y0126100D01*
X0018800Y0126100D01*
X0018800Y0127664D01*
X0016164Y0130300D01*
X0014600Y0130300D01*
X0014600Y0126100D01*
X0014000Y0126100D01*
X0014000Y0130300D01*
X0012436Y0130300D01*
X0009800Y0127664D01*
X0009800Y0126100D01*
X0014000Y0126100D01*
X0014000Y0125500D01*
X0014600Y0125500D01*
X0014600Y0121300D01*
X0016164Y0121300D01*
X0016803Y0121939D02*
X0038846Y0121939D01*
X0037992Y0122537D02*
X0017401Y0122537D01*
X0018000Y0123136D02*
X0037419Y0123136D01*
X0036996Y0123734D02*
X0018598Y0123734D01*
X0018800Y0124333D02*
X0036691Y0124333D01*
X0036487Y0124931D02*
X0018800Y0124931D01*
X0018800Y0126128D02*
X0041000Y0126128D01*
X0041000Y0125530D02*
X0041600Y0125530D01*
X0041600Y0126128D02*
X0063583Y0126128D01*
X0062984Y0125530D02*
X0046240Y0125530D01*
X0046113Y0124931D02*
X0062386Y0124931D01*
X0061787Y0124333D02*
X0045909Y0124333D01*
X0045604Y0123734D02*
X0061189Y0123734D01*
X0060590Y0123136D02*
X0045181Y0123136D01*
X0044608Y0122537D02*
X0059992Y0122537D01*
X0059393Y0121939D02*
X0043754Y0121939D01*
X0041600Y0121939D02*
X0041000Y0121939D01*
X0041000Y0122537D02*
X0041600Y0122537D01*
X0041600Y0123136D02*
X0041000Y0123136D01*
X0041000Y0123734D02*
X0041600Y0123734D01*
X0041600Y0124333D02*
X0041000Y0124333D01*
X0041000Y0124931D02*
X0041600Y0124931D01*
X0041600Y0126727D02*
X0041000Y0126727D01*
X0041000Y0127325D02*
X0041600Y0127325D01*
X0041600Y0127924D02*
X0041000Y0127924D01*
X0041000Y0128522D02*
X0041600Y0128522D01*
X0041600Y0129121D02*
X0041000Y0129121D01*
X0041000Y0129719D02*
X0041600Y0129719D01*
X0041600Y0130318D02*
X0041000Y0130318D01*
X0041000Y0130916D02*
X0041600Y0130916D01*
X0041600Y0131300D02*
X0041694Y0131300D01*
X0042471Y0131423D01*
X0043219Y0131666D01*
X0043921Y0132024D01*
X0044557Y0132486D01*
X0045114Y0133043D01*
X0045576Y0133679D01*
X0045934Y0134381D01*
X0046177Y0135129D01*
X0046300Y0135906D01*
X0046300Y0136000D01*
X0041600Y0136000D01*
X0041600Y0131300D01*
X0041600Y0131515D02*
X0041000Y0131515D01*
X0041000Y0131300D02*
X0040906Y0131300D01*
X0041000Y0131300D01*
X0041000Y0132113D02*
X0041600Y0132113D01*
X0041600Y0132712D02*
X0041000Y0132712D01*
X0041000Y0133310D02*
X0041600Y0133310D01*
X0041600Y0133909D02*
X0041000Y0133909D01*
X0041000Y0134508D02*
X0041600Y0134508D01*
X0041600Y0135106D02*
X0041000Y0135106D01*
X0041000Y0135705D02*
X0041600Y0135705D01*
X0041600Y0136303D02*
X0073757Y0136303D01*
X0073159Y0135705D02*
X0046268Y0135705D01*
X0046169Y0135106D02*
X0072560Y0135106D01*
X0071962Y0134508D02*
X0045975Y0134508D01*
X0045693Y0133909D02*
X0071363Y0133909D01*
X0070765Y0133310D02*
X0045308Y0133310D01*
X0044783Y0132712D02*
X0070166Y0132712D01*
X0069568Y0132113D02*
X0044044Y0132113D01*
X0042753Y0131515D02*
X0068969Y0131515D01*
X0068371Y0130916D02*
X0043253Y0130916D01*
X0044276Y0130318D02*
X0067772Y0130318D01*
X0067174Y0129719D02*
X0044952Y0129719D01*
X0045431Y0129121D02*
X0066575Y0129121D01*
X0065977Y0128522D02*
X0045779Y0128522D01*
X0046030Y0127924D02*
X0065378Y0127924D01*
X0064780Y0127325D02*
X0046200Y0127325D01*
X0046295Y0126727D02*
X0064181Y0126727D01*
X0066878Y0124333D02*
X0097028Y0124333D01*
X0096780Y0124931D02*
X0067477Y0124931D01*
X0068075Y0125530D02*
X0096600Y0125530D01*
X0096600Y0125365D02*
X0097316Y0123638D01*
X0098638Y0122316D01*
X0100365Y0121600D01*
X0102235Y0121600D01*
X0103962Y0122316D01*
X0105284Y0123638D01*
X0106000Y0125365D01*
X0106000Y0127235D01*
X0105284Y0128962D01*
X0103962Y0130284D01*
X0102235Y0131000D01*
X0100365Y0131000D01*
X0098638Y0130284D01*
X0097316Y0128962D01*
X0096600Y0127235D01*
X0096600Y0125365D01*
X0096600Y0126128D02*
X0068674Y0126128D01*
X0069272Y0126727D02*
X0096600Y0126727D01*
X0096637Y0127325D02*
X0069871Y0127325D01*
X0070469Y0127924D02*
X0096885Y0127924D01*
X0097133Y0128522D02*
X0071068Y0128522D01*
X0071666Y0129121D02*
X0097474Y0129121D01*
X0098073Y0129719D02*
X0072265Y0129719D01*
X0072864Y0130318D02*
X0098718Y0130318D01*
X0100163Y0130916D02*
X0073462Y0130916D01*
X0074061Y0131515D02*
X0163969Y0131515D01*
X0163371Y0130916D02*
X0102437Y0130916D01*
X0102235Y0131600D02*
X0103962Y0132316D01*
X0105284Y0133638D01*
X0106000Y0135365D01*
X0106000Y0137235D01*
X0105284Y0138962D01*
X0103962Y0140284D01*
X0102235Y0141000D01*
X0100365Y0141000D01*
X0098638Y0140284D01*
X0097316Y0138962D01*
X0096600Y0137235D01*
X0096600Y0135365D01*
X0097316Y0133638D01*
X0098638Y0132316D01*
X0100365Y0131600D01*
X0102235Y0131600D01*
X0103474Y0132113D02*
X0164568Y0132113D01*
X0165166Y0132712D02*
X0104359Y0132712D01*
X0104957Y0133310D02*
X0165765Y0133310D01*
X0166363Y0133909D02*
X0105397Y0133909D01*
X0105645Y0134508D02*
X0166962Y0134508D01*
X0167560Y0135106D02*
X0105893Y0135106D01*
X0106000Y0135705D02*
X0168159Y0135705D01*
X0168757Y0136303D02*
X0106000Y0136303D01*
X0106000Y0136902D02*
X0115400Y0136902D01*
X0115602Y0136700D02*
X0117000Y0136700D01*
X0117000Y0140500D01*
X0117600Y0140500D01*
X0117600Y0141100D01*
X0121400Y0141100D01*
X0121400Y0142498D01*
X0118998Y0144900D01*
X0117600Y0144900D01*
X0117600Y0141100D01*
X0117000Y0141100D01*
X0117000Y0144900D01*
X0115602Y0144900D01*
X0113200Y0142498D01*
X0113200Y0141100D01*
X0117000Y0141100D01*
X0117000Y0140500D01*
X0113200Y0140500D01*
X0113200Y0139102D01*
X0115602Y0136700D01*
X0114802Y0137500D02*
X0105890Y0137500D01*
X0105642Y0138099D02*
X0114203Y0138099D01*
X0113605Y0138697D02*
X0105394Y0138697D01*
X0104951Y0139296D02*
X0113200Y0139296D01*
X0113200Y0139894D02*
X0104353Y0139894D01*
X0103460Y0140493D02*
X0113200Y0140493D01*
X0113200Y0141690D02*
X0103265Y0141690D01*
X0103219Y0141666D02*
X0103921Y0142024D01*
X0104557Y0142486D01*
X0105114Y0143043D01*
X0105576Y0143679D01*
X0105934Y0144381D01*
X0106177Y0145129D01*
X0106300Y0145906D01*
X0106300Y0146000D01*
X0101600Y0146000D01*
X0101600Y0146600D01*
X0106300Y0146600D01*
X0106300Y0146694D01*
X0106177Y0147471D01*
X0105934Y0148219D01*
X0105576Y0148921D01*
X0105114Y0149557D01*
X0104557Y0150114D01*
X0103921Y0150576D01*
X0103219Y0150934D01*
X0102471Y0151177D01*
X0101694Y0151300D01*
X0101600Y0151300D01*
X0101600Y0146600D01*
X0101000Y0146600D01*
X0101000Y0151300D01*
X0100906Y0151300D01*
X0100129Y0151177D01*
X0099381Y0150934D01*
X0098679Y0150576D01*
X0098043Y0150114D01*
X0097486Y0149557D01*
X0097024Y0148921D01*
X0096666Y0148219D01*
X0096423Y0147471D01*
X0096300Y0146694D01*
X0096300Y0146600D01*
X0101000Y0146600D01*
X0101000Y0146000D01*
X0101600Y0146000D01*
X0101600Y0141300D01*
X0101694Y0141300D01*
X0102471Y0141423D01*
X0103219Y0141666D01*
X0104285Y0142288D02*
X0113200Y0142288D01*
X0113588Y0142887D02*
X0104958Y0142887D01*
X0105435Y0143485D02*
X0114187Y0143485D01*
X0114785Y0144084D02*
X0105782Y0144084D01*
X0106032Y0144682D02*
X0115384Y0144682D01*
X0117000Y0144682D02*
X0117600Y0144682D01*
X0117600Y0144084D02*
X0117000Y0144084D01*
X0117000Y0143485D02*
X0117600Y0143485D01*
X0117600Y0142887D02*
X0117000Y0142887D01*
X0117000Y0142288D02*
X0117600Y0142288D01*
X0117600Y0141690D02*
X0117000Y0141690D01*
X0117000Y0141091D02*
X0083637Y0141091D01*
X0084235Y0141690D02*
X0099335Y0141690D01*
X0099381Y0141666D02*
X0100129Y0141423D01*
X0100906Y0141300D01*
X0101000Y0141300D01*
X0101000Y0146000D01*
X0096300Y0146000D01*
X0096300Y0145906D01*
X0096423Y0145129D01*
X0096666Y0144381D01*
X0097024Y0143679D01*
X0097486Y0143043D01*
X0098043Y0142486D01*
X0098679Y0142024D01*
X0099381Y0141666D01*
X0099140Y0140493D02*
X0083038Y0140493D01*
X0082440Y0139894D02*
X0098247Y0139894D01*
X0097649Y0139296D02*
X0081841Y0139296D01*
X0081243Y0138697D02*
X0097206Y0138697D01*
X0096958Y0138099D02*
X0080644Y0138099D01*
X0080046Y0137500D02*
X0096710Y0137500D01*
X0096600Y0136902D02*
X0079447Y0136902D01*
X0078849Y0136303D02*
X0096600Y0136303D01*
X0096600Y0135705D02*
X0078250Y0135705D01*
X0077652Y0135106D02*
X0096707Y0135106D01*
X0096955Y0134508D02*
X0077053Y0134508D01*
X0076455Y0133909D02*
X0097203Y0133909D01*
X0097643Y0133310D02*
X0075856Y0133310D01*
X0075258Y0132712D02*
X0098241Y0132712D01*
X0099125Y0132113D02*
X0074659Y0132113D01*
X0074356Y0136902D02*
X0046267Y0136902D01*
X0046167Y0137500D02*
X0074954Y0137500D01*
X0075553Y0138099D02*
X0045973Y0138099D01*
X0045690Y0138697D02*
X0076152Y0138697D01*
X0076750Y0139296D02*
X0045304Y0139296D01*
X0044777Y0139894D02*
X0077349Y0139894D01*
X0077947Y0140493D02*
X0044036Y0140493D01*
X0042735Y0141091D02*
X0078546Y0141091D01*
X0079144Y0141690D02*
X0042451Y0141690D01*
X0042235Y0141600D02*
X0043962Y0142316D01*
X0045284Y0143638D01*
X0046000Y0145365D01*
X0046000Y0147235D01*
X0045284Y0148962D01*
X0043962Y0150284D01*
X0042235Y0151000D01*
X0040365Y0151000D01*
X0038638Y0150284D01*
X0037316Y0148962D01*
X0036600Y0147235D01*
X0036600Y0145365D01*
X0037316Y0143638D01*
X0038638Y0142316D01*
X0040365Y0141600D01*
X0042235Y0141600D01*
X0041600Y0141091D02*
X0041000Y0141091D01*
X0041000Y0140493D02*
X0041600Y0140493D01*
X0041600Y0139894D02*
X0041000Y0139894D01*
X0041000Y0139296D02*
X0041600Y0139296D01*
X0041600Y0138697D02*
X0041000Y0138697D01*
X0041000Y0138099D02*
X0041600Y0138099D01*
X0041600Y0137500D02*
X0041000Y0137500D01*
X0041000Y0136902D02*
X0041600Y0136902D01*
X0041000Y0136303D02*
X0018500Y0136303D01*
X0018500Y0135705D02*
X0036332Y0135705D01*
X0036431Y0135106D02*
X0018500Y0135106D01*
X0018500Y0134508D02*
X0036625Y0134508D01*
X0036907Y0133909D02*
X0018349Y0133909D01*
X0018500Y0134060D02*
X0016040Y0131600D01*
X0012560Y0131600D01*
X0010100Y0134060D01*
X0010100Y0137540D01*
X0012560Y0140000D01*
X0016040Y0140000D01*
X0018500Y0137540D01*
X0018500Y0134060D01*
X0017750Y0133310D02*
X0037292Y0133310D01*
X0037817Y0132712D02*
X0017152Y0132712D01*
X0016553Y0132113D02*
X0038556Y0132113D01*
X0039847Y0131515D02*
X0006900Y0131515D01*
X0006900Y0132113D02*
X0012047Y0132113D01*
X0011448Y0132712D02*
X0006900Y0132712D01*
X0006900Y0133310D02*
X0010850Y0133310D01*
X0010251Y0133909D02*
X0006900Y0133909D01*
X0006900Y0134508D02*
X0010100Y0134508D01*
X0010100Y0135106D02*
X0006900Y0135106D01*
X0006900Y0135705D02*
X0010100Y0135705D01*
X0010100Y0136303D02*
X0006900Y0136303D01*
X0006900Y0136902D02*
X0010100Y0136902D01*
X0010100Y0137500D02*
X0006900Y0137500D01*
X0006900Y0138099D02*
X0010659Y0138099D01*
X0011257Y0138697D02*
X0006900Y0138697D01*
X0006900Y0139296D02*
X0011856Y0139296D01*
X0012454Y0139894D02*
X0006900Y0139894D01*
X0006900Y0140493D02*
X0038564Y0140493D01*
X0037823Y0139894D02*
X0016146Y0139894D01*
X0016744Y0139296D02*
X0037296Y0139296D01*
X0036910Y0138697D02*
X0017343Y0138697D01*
X0017941Y0138099D02*
X0036627Y0138099D01*
X0036433Y0137500D02*
X0018500Y0137500D01*
X0018500Y0136902D02*
X0036333Y0136902D01*
X0039865Y0141091D02*
X0006900Y0141091D01*
X0006900Y0141690D02*
X0040149Y0141690D01*
X0038704Y0142288D02*
X0006900Y0142288D01*
X0006900Y0142887D02*
X0038067Y0142887D01*
X0037468Y0143485D02*
X0006900Y0143485D01*
X0006900Y0144084D02*
X0037131Y0144084D01*
X0036883Y0144682D02*
X0006900Y0144682D01*
X0006900Y0145281D02*
X0036635Y0145281D01*
X0036600Y0145879D02*
X0006900Y0145879D01*
X0006900Y0146478D02*
X0036600Y0146478D01*
X0036600Y0147076D02*
X0006900Y0147076D01*
X0006900Y0147675D02*
X0036782Y0147675D01*
X0037030Y0148273D02*
X0006900Y0148273D01*
X0006900Y0148872D02*
X0037278Y0148872D01*
X0037823Y0149470D02*
X0006900Y0149470D01*
X0006900Y0150069D02*
X0038422Y0150069D01*
X0039562Y0150667D02*
X0006900Y0150667D01*
X0006900Y0151266D02*
X0084500Y0151266D01*
X0084500Y0151864D02*
X0042873Y0151864D01*
X0042235Y0151600D02*
X0043962Y0152316D01*
X0045284Y0153638D01*
X0046000Y0155365D01*
X0046000Y0157235D01*
X0045284Y0158962D01*
X0043962Y0160284D01*
X0042235Y0161000D01*
X0040365Y0161000D01*
X0038638Y0160284D01*
X0037316Y0158962D01*
X0036600Y0157235D01*
X0036600Y0155365D01*
X0037316Y0153638D01*
X0038638Y0152316D01*
X0040365Y0151600D01*
X0042235Y0151600D01*
X0043038Y0150667D02*
X0084500Y0150667D01*
X0084500Y0150069D02*
X0044178Y0150069D01*
X0044777Y0149470D02*
X0084500Y0149470D01*
X0084500Y0148872D02*
X0045322Y0148872D01*
X0045570Y0148273D02*
X0084500Y0148273D01*
X0084500Y0147675D02*
X0045818Y0147675D01*
X0046000Y0147076D02*
X0084500Y0147076D01*
X0083932Y0146478D02*
X0046000Y0146478D01*
X0046000Y0145879D02*
X0083334Y0145879D01*
X0082735Y0145281D02*
X0045965Y0145281D01*
X0045717Y0144682D02*
X0082137Y0144682D01*
X0081538Y0144084D02*
X0045469Y0144084D01*
X0045132Y0143485D02*
X0080940Y0143485D01*
X0080341Y0142887D02*
X0044533Y0142887D01*
X0043896Y0142288D02*
X0079743Y0142288D01*
X0084834Y0142288D02*
X0098315Y0142288D01*
X0097642Y0142887D02*
X0085432Y0142887D01*
X0086031Y0143485D02*
X0097165Y0143485D01*
X0096818Y0144084D02*
X0086629Y0144084D01*
X0087228Y0144682D02*
X0096568Y0144682D01*
X0096399Y0145281D02*
X0087826Y0145281D01*
X0088100Y0145879D02*
X0096304Y0145879D01*
X0096361Y0147076D02*
X0088100Y0147076D01*
X0088100Y0146478D02*
X0101000Y0146478D01*
X0101000Y0147076D02*
X0101600Y0147076D01*
X0101600Y0146478D02*
X0168577Y0146478D01*
X0169175Y0145879D02*
X0106296Y0145879D01*
X0106201Y0145281D02*
X0169774Y0145281D01*
X0169499Y0144682D02*
X0170372Y0144682D01*
X0170097Y0144084D02*
X0170971Y0144084D01*
X0170696Y0143485D02*
X0171569Y0143485D01*
X0171294Y0142887D02*
X0172168Y0142887D01*
X0172491Y0142288D02*
X0171600Y0142288D01*
X0171600Y0141690D02*
X0172491Y0141690D01*
X0172491Y0141091D02*
X0171600Y0141091D01*
X0171600Y0140493D02*
X0172491Y0140493D01*
X0172349Y0139894D02*
X0171600Y0139894D01*
X0171600Y0139296D02*
X0171750Y0139296D01*
X0174266Y0145879D02*
X0174784Y0145879D01*
X0174782Y0146478D02*
X0173668Y0146478D01*
X0173069Y0147076D02*
X0174780Y0147076D01*
X0174779Y0147675D02*
X0172471Y0147675D01*
X0171872Y0148273D02*
X0174777Y0148273D01*
X0174775Y0148872D02*
X0171274Y0148872D01*
X0170675Y0149470D02*
X0174773Y0149470D01*
X0174771Y0150069D02*
X0170077Y0150069D01*
X0169478Y0150667D02*
X0174770Y0150667D01*
X0174768Y0151266D02*
X0168880Y0151266D01*
X0168281Y0151864D02*
X0174766Y0151864D01*
X0174764Y0152463D02*
X0167683Y0152463D01*
X0167084Y0153061D02*
X0174763Y0153061D01*
X0174761Y0153660D02*
X0156486Y0153660D01*
X0155887Y0154258D02*
X0174759Y0154258D01*
X0174757Y0154857D02*
X0155289Y0154857D01*
X0154690Y0155455D02*
X0162320Y0155455D01*
X0163538Y0154951D02*
X0160745Y0156108D01*
X0158608Y0158245D01*
X0157451Y0161038D01*
X0157451Y0164062D01*
X0158608Y0166855D01*
X0160745Y0168992D01*
X0163538Y0170149D01*
X0166562Y0170149D01*
X0169355Y0168992D01*
X0171492Y0166855D01*
X0172649Y0164062D01*
X0172649Y0161038D01*
X0171492Y0158245D01*
X0169355Y0156108D01*
X0166562Y0154951D01*
X0163538Y0154951D01*
X0160875Y0156054D02*
X0154092Y0156054D01*
X0153493Y0156652D02*
X0160201Y0156652D01*
X0159602Y0157251D02*
X0152895Y0157251D01*
X0152296Y0157849D02*
X0159004Y0157849D01*
X0158524Y0158448D02*
X0151698Y0158448D01*
X0151099Y0159046D02*
X0158276Y0159046D01*
X0158028Y0159645D02*
X0150501Y0159645D01*
X0149902Y0160243D02*
X0157780Y0160243D01*
X0157532Y0160842D02*
X0149304Y0160842D01*
X0148705Y0161441D02*
X0157451Y0161441D01*
X0157451Y0162039D02*
X0148107Y0162039D01*
X0147508Y0162638D02*
X0157451Y0162638D01*
X0157451Y0163236D02*
X0146910Y0163236D01*
X0146311Y0163835D02*
X0157451Y0163835D01*
X0157605Y0164433D02*
X0145713Y0164433D01*
X0145114Y0165032D02*
X0157853Y0165032D01*
X0158100Y0165630D02*
X0144515Y0165630D01*
X0143917Y0166229D02*
X0158348Y0166229D01*
X0158596Y0166827D02*
X0143318Y0166827D01*
X0142720Y0167426D02*
X0159179Y0167426D01*
X0159777Y0168024D02*
X0142121Y0168024D01*
X0140621Y0164433D02*
X0091979Y0164433D01*
X0091380Y0163835D02*
X0141220Y0163835D01*
X0141818Y0163236D02*
X0090782Y0163236D01*
X0090183Y0162638D02*
X0142417Y0162638D01*
X0143015Y0162039D02*
X0089585Y0162039D01*
X0088986Y0161441D02*
X0143614Y0161441D01*
X0144212Y0160842D02*
X0102616Y0160842D01*
X0102235Y0161000D02*
X0103962Y0160284D01*
X0105284Y0158962D01*
X0106000Y0157235D01*
X0106000Y0155365D01*
X0105284Y0153638D01*
X0103962Y0152316D01*
X0102235Y0151600D01*
X0100365Y0151600D01*
X0098638Y0152316D01*
X0097316Y0153638D01*
X0096600Y0155365D01*
X0096600Y0157235D01*
X0097316Y0158962D01*
X0098638Y0160284D01*
X0100365Y0161000D01*
X0102235Y0161000D01*
X0104003Y0160243D02*
X0144811Y0160243D01*
X0145409Y0159645D02*
X0104602Y0159645D01*
X0105200Y0159046D02*
X0146008Y0159046D01*
X0146606Y0158448D02*
X0105498Y0158448D01*
X0105745Y0157849D02*
X0147205Y0157849D01*
X0147803Y0157251D02*
X0105993Y0157251D01*
X0106000Y0156652D02*
X0148402Y0156652D01*
X0149000Y0156054D02*
X0106000Y0156054D01*
X0106000Y0155455D02*
X0149599Y0155455D01*
X0150198Y0154857D02*
X0105789Y0154857D01*
X0105542Y0154258D02*
X0150796Y0154258D01*
X0151395Y0153660D02*
X0105294Y0153660D01*
X0104708Y0153061D02*
X0151993Y0153061D01*
X0152592Y0152463D02*
X0104110Y0152463D01*
X0102873Y0151864D02*
X0153190Y0151864D01*
X0153789Y0151266D02*
X0101909Y0151266D01*
X0101600Y0151266D02*
X0101000Y0151266D01*
X0100691Y0151266D02*
X0088100Y0151266D01*
X0088100Y0151864D02*
X0099727Y0151864D01*
X0098490Y0152463D02*
X0088100Y0152463D01*
X0088100Y0153061D02*
X0097892Y0153061D01*
X0097306Y0153660D02*
X0088100Y0153660D01*
X0088100Y0154258D02*
X0097058Y0154258D01*
X0096810Y0154857D02*
X0088100Y0154857D01*
X0088100Y0155455D02*
X0096600Y0155455D01*
X0096600Y0156054D02*
X0088100Y0156054D01*
X0088100Y0156652D02*
X0096600Y0156652D01*
X0096607Y0157251D02*
X0088100Y0157251D01*
X0088100Y0157849D02*
X0096855Y0157849D01*
X0097102Y0158448D02*
X0088100Y0158448D01*
X0088100Y0159046D02*
X0097400Y0159046D01*
X0097998Y0159645D02*
X0088100Y0159645D01*
X0088100Y0160243D02*
X0098597Y0160243D01*
X0099984Y0160842D02*
X0088388Y0160842D01*
X0085690Y0163236D02*
X0026399Y0163236D01*
X0026399Y0162638D02*
X0085092Y0162638D01*
X0084500Y0162039D02*
X0026399Y0162039D01*
X0026399Y0161441D02*
X0084500Y0161441D01*
X0084500Y0160842D02*
X0042616Y0160842D01*
X0044003Y0160243D02*
X0084500Y0160243D01*
X0084500Y0159645D02*
X0044602Y0159645D01*
X0045200Y0159046D02*
X0084500Y0159046D01*
X0084500Y0158448D02*
X0045498Y0158448D01*
X0045745Y0157849D02*
X0084500Y0157849D01*
X0084500Y0157251D02*
X0045993Y0157251D01*
X0046000Y0156652D02*
X0084500Y0156652D01*
X0084500Y0156054D02*
X0046000Y0156054D01*
X0046000Y0155455D02*
X0084500Y0155455D01*
X0084500Y0154857D02*
X0045789Y0154857D01*
X0045542Y0154258D02*
X0084500Y0154258D01*
X0084500Y0153660D02*
X0045294Y0153660D01*
X0044708Y0153061D02*
X0084500Y0153061D01*
X0084500Y0152463D02*
X0044110Y0152463D01*
X0039727Y0151864D02*
X0006900Y0151864D01*
X0006900Y0152463D02*
X0038490Y0152463D01*
X0037892Y0153061D02*
X0006900Y0153061D01*
X0006900Y0153660D02*
X0037306Y0153660D01*
X0037058Y0154258D02*
X0006900Y0154258D01*
X0006900Y0154857D02*
X0036810Y0154857D01*
X0036600Y0155455D02*
X0020926Y0155455D01*
X0020312Y0155201D02*
X0023105Y0156358D01*
X0025242Y0158495D01*
X0026399Y0161288D01*
X0026399Y0164312D01*
X0025242Y0167105D01*
X0023105Y0169242D01*
X0020312Y0170399D01*
X0017288Y0170399D01*
X0014495Y0169242D01*
X0012358Y0167105D01*
X0011201Y0164312D01*
X0011201Y0161288D01*
X0012358Y0158495D01*
X0014495Y0156358D01*
X0017288Y0155201D01*
X0020312Y0155201D01*
X0022371Y0156054D02*
X0036600Y0156054D01*
X0036600Y0156652D02*
X0023399Y0156652D01*
X0023998Y0157251D02*
X0036607Y0157251D01*
X0036855Y0157849D02*
X0024596Y0157849D01*
X0025195Y0158448D02*
X0037102Y0158448D01*
X0037400Y0159046D02*
X0025471Y0159046D01*
X0025718Y0159645D02*
X0037998Y0159645D01*
X0038597Y0160243D02*
X0025966Y0160243D01*
X0026214Y0160842D02*
X0039984Y0160842D01*
X0026399Y0163835D02*
X0086289Y0163835D01*
X0086887Y0164433D02*
X0026349Y0164433D01*
X0026101Y0165032D02*
X0087486Y0165032D01*
X0088085Y0165630D02*
X0025853Y0165630D01*
X0025605Y0166229D02*
X0088683Y0166229D01*
X0089282Y0166827D02*
X0025357Y0166827D01*
X0024921Y0167426D02*
X0089880Y0167426D01*
X0090479Y0168024D02*
X0024323Y0168024D01*
X0023724Y0168623D02*
X0160376Y0168623D01*
X0161298Y0169221D02*
X0023126Y0169221D01*
X0021711Y0169820D02*
X0162743Y0169820D01*
X0167357Y0169820D02*
X0174713Y0169820D01*
X0174711Y0170418D02*
X0006900Y0170418D01*
X0006900Y0169820D02*
X0015889Y0169820D01*
X0014474Y0169221D02*
X0006900Y0169221D01*
X0006900Y0168623D02*
X0013876Y0168623D01*
X0013277Y0168024D02*
X0006900Y0168024D01*
X0006900Y0167426D02*
X0012679Y0167426D01*
X0012243Y0166827D02*
X0006900Y0166827D01*
X0006900Y0166229D02*
X0011995Y0166229D01*
X0011747Y0165630D02*
X0006900Y0165630D01*
X0006900Y0165032D02*
X0011499Y0165032D01*
X0011251Y0164433D02*
X0006900Y0164433D01*
X0006900Y0163835D02*
X0011201Y0163835D01*
X0011201Y0163236D02*
X0006900Y0163236D01*
X0006900Y0162638D02*
X0011201Y0162638D01*
X0011201Y0162039D02*
X0006900Y0162039D01*
X0006900Y0161441D02*
X0011201Y0161441D01*
X0011386Y0160842D02*
X0006900Y0160842D01*
X0006900Y0160243D02*
X0011634Y0160243D01*
X0011882Y0159645D02*
X0006900Y0159645D01*
X0006900Y0159046D02*
X0012129Y0159046D01*
X0012405Y0158448D02*
X0006900Y0158448D01*
X0006900Y0157849D02*
X0013004Y0157849D01*
X0013602Y0157251D02*
X0006900Y0157251D01*
X0006900Y0156652D02*
X0014201Y0156652D01*
X0015229Y0156054D02*
X0006900Y0156054D01*
X0006900Y0155455D02*
X0016674Y0155455D01*
X0006900Y0171017D02*
X0174710Y0171017D01*
X0174708Y0171615D02*
X0006900Y0171615D01*
X0006900Y0172214D02*
X0174706Y0172214D01*
X0174704Y0172812D02*
X0006900Y0172812D01*
X0006900Y0130916D02*
X0039347Y0130916D01*
X0038324Y0130318D02*
X0006900Y0130318D01*
X0006900Y0129719D02*
X0011855Y0129719D01*
X0011257Y0129121D02*
X0006900Y0129121D01*
X0006900Y0128522D02*
X0010658Y0128522D01*
X0010060Y0127924D02*
X0006900Y0127924D01*
X0006900Y0127325D02*
X0009800Y0127325D01*
X0009800Y0126727D02*
X0006900Y0126727D01*
X0006900Y0126128D02*
X0009800Y0126128D01*
X0009800Y0125500D02*
X0009800Y0123936D01*
X0012436Y0121300D01*
X0014000Y0121300D01*
X0014000Y0125500D01*
X0009800Y0125500D01*
X0009800Y0124931D02*
X0006900Y0124931D01*
X0006900Y0124333D02*
X0009800Y0124333D01*
X0010002Y0123734D02*
X0006900Y0123734D01*
X0006900Y0123136D02*
X0010600Y0123136D01*
X0011199Y0122537D02*
X0006900Y0122537D01*
X0006900Y0121939D02*
X0011797Y0121939D01*
X0012396Y0121340D02*
X0006900Y0121340D01*
X0006900Y0120742D02*
X0039742Y0120742D01*
X0038496Y0120143D02*
X0006900Y0120143D01*
X0006900Y0119545D02*
X0012105Y0119545D01*
X0012560Y0120000D02*
X0010100Y0117540D01*
X0010100Y0114060D01*
X0012560Y0111600D01*
X0016040Y0111600D01*
X0018500Y0114060D01*
X0018500Y0117540D01*
X0016040Y0120000D01*
X0012560Y0120000D01*
X0011507Y0118946D02*
X0006900Y0118946D01*
X0006900Y0118348D02*
X0010908Y0118348D01*
X0010309Y0117749D02*
X0006900Y0117749D01*
X0006900Y0117151D02*
X0010100Y0117151D01*
X0010100Y0116552D02*
X0006900Y0116552D01*
X0006900Y0115954D02*
X0010100Y0115954D01*
X0010100Y0115355D02*
X0006900Y0115355D01*
X0006900Y0114757D02*
X0010100Y0114757D01*
X0010100Y0114158D02*
X0006900Y0114158D01*
X0006900Y0113560D02*
X0010601Y0113560D01*
X0011199Y0112961D02*
X0006900Y0112961D01*
X0006900Y0112363D02*
X0011798Y0112363D01*
X0012396Y0111764D02*
X0006900Y0111764D01*
X0006900Y0111166D02*
X0149500Y0111166D01*
X0149500Y0111764D02*
X0102631Y0111764D01*
X0103280Y0110567D02*
X0149500Y0110567D01*
X0149500Y0109969D02*
X0104278Y0109969D01*
X0104877Y0109370D02*
X0149500Y0109370D01*
X0149500Y0108772D02*
X0105364Y0108772D01*
X0105611Y0108173D02*
X0149500Y0108173D01*
X0149500Y0107574D02*
X0105859Y0107574D01*
X0106000Y0106976D02*
X0149500Y0106976D01*
X0149500Y0106377D02*
X0106000Y0106377D01*
X0106000Y0105779D02*
X0149500Y0105779D01*
X0149500Y0105180D02*
X0105923Y0105180D01*
X0105676Y0104582D02*
X0149500Y0104582D01*
X0149500Y0103983D02*
X0105428Y0103983D01*
X0105032Y0103385D02*
X0149500Y0103385D01*
X0149500Y0102786D02*
X0104433Y0102786D01*
X0103654Y0102188D02*
X0149500Y0102188D01*
X0149500Y0101589D02*
X0006900Y0101589D01*
X0006900Y0100991D02*
X0040343Y0100991D01*
X0038898Y0100392D02*
X0006900Y0100392D01*
X0006900Y0099794D02*
X0012354Y0099794D01*
X0012560Y0100000D02*
X0010100Y0097540D01*
X0010100Y0094060D01*
X0012560Y0091600D01*
X0016040Y0091600D01*
X0018500Y0094060D01*
X0018500Y0097540D01*
X0016040Y0100000D01*
X0012560Y0100000D01*
X0011756Y0099195D02*
X0006900Y0099195D01*
X0006900Y0098597D02*
X0011157Y0098597D01*
X0010559Y0097998D02*
X0006900Y0097998D01*
X0006900Y0097400D02*
X0010100Y0097400D01*
X0010100Y0096801D02*
X0006900Y0096801D01*
X0006900Y0096203D02*
X0010100Y0096203D01*
X0010100Y0095604D02*
X0006900Y0095604D01*
X0006900Y0095006D02*
X0010100Y0095006D01*
X0010100Y0094407D02*
X0006900Y0094407D01*
X0006900Y0093809D02*
X0010352Y0093809D01*
X0010950Y0093210D02*
X0006900Y0093210D01*
X0006900Y0092612D02*
X0011549Y0092612D01*
X0012147Y0092013D02*
X0006900Y0092013D01*
X0006900Y0091415D02*
X0149500Y0091415D01*
X0149500Y0092013D02*
X0103232Y0092013D01*
X0104259Y0092612D02*
X0149500Y0092612D01*
X0149500Y0093210D02*
X0104857Y0093210D01*
X0105355Y0093809D02*
X0149500Y0093809D01*
X0149500Y0094407D02*
X0105603Y0094407D01*
X0105851Y0095006D02*
X0149500Y0095006D01*
X0149500Y0095604D02*
X0106000Y0095604D01*
X0106000Y0096203D02*
X0149500Y0096203D01*
X0149500Y0096801D02*
X0106000Y0096801D01*
X0105932Y0097400D02*
X0149500Y0097400D01*
X0149500Y0097998D02*
X0105684Y0097998D01*
X0105436Y0098597D02*
X0149500Y0098597D01*
X0149500Y0099195D02*
X0105051Y0099195D01*
X0104453Y0099794D02*
X0149500Y0099794D01*
X0149500Y0100392D02*
X0103702Y0100392D01*
X0102257Y0100991D02*
X0149500Y0100991D01*
X0153100Y0100991D02*
X0170343Y0100991D01*
X0170129Y0101423D02*
X0169381Y0101666D01*
X0168679Y0102024D01*
X0168043Y0102486D01*
X0167486Y0103043D01*
X0167024Y0103679D01*
X0166666Y0104381D01*
X0166423Y0105129D01*
X0166300Y0105906D01*
X0166300Y0106000D01*
X0171000Y0106000D01*
X0171000Y0101300D01*
X0170906Y0101300D01*
X0170129Y0101423D01*
X0169617Y0101589D02*
X0153100Y0101589D01*
X0153100Y0102188D02*
X0168453Y0102188D01*
X0167743Y0102786D02*
X0153100Y0102786D01*
X0153100Y0103385D02*
X0167238Y0103385D01*
X0166869Y0103983D02*
X0153100Y0103983D01*
X0153100Y0104582D02*
X0166601Y0104582D01*
X0166415Y0105180D02*
X0153100Y0105180D01*
X0153100Y0105779D02*
X0166320Y0105779D01*
X0166345Y0106976D02*
X0153100Y0106976D01*
X0153100Y0107574D02*
X0166457Y0107574D01*
X0166651Y0108173D02*
X0153100Y0108173D01*
X0153100Y0108772D02*
X0166948Y0108772D01*
X0167350Y0109370D02*
X0153100Y0109370D01*
X0153100Y0109969D02*
X0167897Y0109969D01*
X0168667Y0110567D02*
X0153100Y0110567D01*
X0153100Y0111166D02*
X0170094Y0111166D01*
X0169969Y0111764D02*
X0153100Y0111764D01*
X0153100Y0112363D02*
X0168591Y0112363D01*
X0167992Y0112961D02*
X0153100Y0112961D01*
X0153100Y0113560D02*
X0167394Y0113560D01*
X0167100Y0114158D02*
X0153100Y0114158D01*
X0153100Y0114757D02*
X0165298Y0114757D01*
X0164699Y0115355D02*
X0153100Y0115355D01*
X0153100Y0115954D02*
X0164101Y0115954D01*
X0163502Y0116552D02*
X0153100Y0116552D01*
X0153100Y0117151D02*
X0162904Y0117151D01*
X0162305Y0117749D02*
X0153100Y0117749D01*
X0153100Y0118348D02*
X0161707Y0118348D01*
X0161108Y0118946D02*
X0153100Y0118946D01*
X0153100Y0119545D02*
X0160510Y0119545D01*
X0159911Y0120143D02*
X0153100Y0120143D01*
X0153100Y0120742D02*
X0159500Y0120742D01*
X0159500Y0121340D02*
X0153100Y0121340D01*
X0153100Y0121939D02*
X0159500Y0121939D01*
X0159500Y0122537D02*
X0153100Y0122537D01*
X0153100Y0123136D02*
X0159500Y0123136D01*
X0159500Y0123734D02*
X0153100Y0123734D01*
X0153100Y0124333D02*
X0159500Y0124333D01*
X0159500Y0124931D02*
X0153310Y0124931D01*
X0153100Y0124721D02*
X0153689Y0125310D01*
X0153689Y0127290D01*
X0152290Y0128689D01*
X0150310Y0128689D01*
X0148911Y0127290D01*
X0148911Y0125310D01*
X0149500Y0124721D01*
X0149500Y0072879D01*
X0148911Y0072290D01*
X0148911Y0070310D01*
X0150310Y0068911D01*
X0152290Y0068911D01*
X0153689Y0070310D01*
X0153689Y0072290D01*
X0153100Y0072879D01*
X0153100Y0124721D01*
X0153689Y0125530D02*
X0159500Y0125530D01*
X0159500Y0126128D02*
X0153689Y0126128D01*
X0153689Y0126727D02*
X0159500Y0126727D01*
X0159780Y0127325D02*
X0153653Y0127325D01*
X0153055Y0127924D02*
X0160378Y0127924D01*
X0160977Y0128522D02*
X0152456Y0128522D01*
X0150144Y0128522D02*
X0105467Y0128522D01*
X0105715Y0127924D02*
X0149545Y0127924D01*
X0148947Y0127325D02*
X0105963Y0127325D01*
X0106000Y0126727D02*
X0148911Y0126727D01*
X0148911Y0126128D02*
X0106000Y0126128D01*
X0106000Y0125530D02*
X0148911Y0125530D01*
X0149290Y0124931D02*
X0105820Y0124931D01*
X0105572Y0124333D02*
X0149500Y0124333D01*
X0149500Y0123734D02*
X0105324Y0123734D01*
X0104783Y0123136D02*
X0149500Y0123136D01*
X0149500Y0122537D02*
X0104184Y0122537D01*
X0103053Y0121939D02*
X0149500Y0121939D01*
X0149500Y0121340D02*
X0063886Y0121340D01*
X0063287Y0120742D02*
X0099742Y0120742D01*
X0099547Y0121939D02*
X0064484Y0121939D01*
X0065083Y0122537D02*
X0098416Y0122537D01*
X0097817Y0123136D02*
X0065681Y0123136D01*
X0066280Y0123734D02*
X0097275Y0123734D01*
X0098496Y0120143D02*
X0062689Y0120143D01*
X0062090Y0119545D02*
X0097898Y0119545D01*
X0097309Y0118946D02*
X0061492Y0118946D01*
X0060893Y0118348D02*
X0097061Y0118348D01*
X0096813Y0117749D02*
X0060295Y0117749D01*
X0059696Y0117151D02*
X0096600Y0117151D01*
X0096600Y0116552D02*
X0059098Y0116552D01*
X0058499Y0115954D02*
X0096600Y0115954D01*
X0096604Y0115355D02*
X0057901Y0115355D01*
X0057302Y0114757D02*
X0096852Y0114757D01*
X0104009Y0112363D02*
X0149500Y0112363D01*
X0149500Y0112961D02*
X0104608Y0112961D01*
X0105206Y0113560D02*
X0149500Y0113560D01*
X0149500Y0114158D02*
X0105500Y0114158D01*
X0105748Y0114757D02*
X0149500Y0114757D01*
X0149500Y0115355D02*
X0105996Y0115355D01*
X0106000Y0115954D02*
X0149500Y0115954D01*
X0149500Y0116552D02*
X0106000Y0116552D01*
X0106000Y0117151D02*
X0149500Y0117151D01*
X0149500Y0117749D02*
X0105787Y0117749D01*
X0105539Y0118348D02*
X0149500Y0118348D01*
X0149500Y0118946D02*
X0105291Y0118946D01*
X0104702Y0119545D02*
X0149500Y0119545D01*
X0149500Y0120143D02*
X0104104Y0120143D01*
X0102858Y0120742D02*
X0149500Y0120742D01*
X0161575Y0129121D02*
X0105126Y0129121D01*
X0104527Y0129719D02*
X0162174Y0129719D01*
X0162772Y0130318D02*
X0103882Y0130318D01*
X0101600Y0141690D02*
X0101000Y0141690D01*
X0101000Y0142288D02*
X0101600Y0142288D01*
X0101600Y0142887D02*
X0101000Y0142887D01*
X0101000Y0143485D02*
X0101600Y0143485D01*
X0101600Y0144084D02*
X0101000Y0144084D01*
X0101000Y0144682D02*
X0101600Y0144682D01*
X0101600Y0145281D02*
X0101000Y0145281D01*
X0101000Y0145879D02*
X0101600Y0145879D01*
X0101600Y0147675D02*
X0101000Y0147675D01*
X0101000Y0148273D02*
X0101600Y0148273D01*
X0101600Y0148872D02*
X0101000Y0148872D01*
X0101000Y0149470D02*
X0101600Y0149470D01*
X0101600Y0150069D02*
X0101000Y0150069D01*
X0101000Y0150667D02*
X0101600Y0150667D01*
X0103742Y0150667D02*
X0154387Y0150667D01*
X0154986Y0150069D02*
X0104602Y0150069D01*
X0105177Y0149470D02*
X0165584Y0149470D01*
X0166183Y0148872D02*
X0105601Y0148872D01*
X0105906Y0148273D02*
X0166781Y0148273D01*
X0167380Y0147675D02*
X0106111Y0147675D01*
X0106239Y0147076D02*
X0167978Y0147076D01*
X0165101Y0144682D02*
X0159499Y0144682D01*
X0159081Y0145100D02*
X0155519Y0145100D01*
X0153000Y0142581D01*
X0153000Y0139019D01*
X0155519Y0136500D01*
X0159081Y0136500D01*
X0161600Y0139019D01*
X0161600Y0142581D01*
X0159081Y0145100D01*
X0160097Y0144084D02*
X0164503Y0144084D01*
X0163904Y0143485D02*
X0160696Y0143485D01*
X0161294Y0142887D02*
X0163306Y0142887D01*
X0163000Y0142288D02*
X0161600Y0142288D01*
X0161600Y0141690D02*
X0163000Y0141690D01*
X0163000Y0141091D02*
X0161600Y0141091D01*
X0161600Y0140493D02*
X0163000Y0140493D01*
X0163000Y0139894D02*
X0161600Y0139894D01*
X0161600Y0139296D02*
X0163000Y0139296D01*
X0163322Y0138697D02*
X0161278Y0138697D01*
X0160680Y0138099D02*
X0163920Y0138099D01*
X0164519Y0137500D02*
X0160081Y0137500D01*
X0159483Y0136902D02*
X0165117Y0136902D01*
X0155117Y0136902D02*
X0119200Y0136902D01*
X0118998Y0136700D02*
X0117600Y0136700D01*
X0117600Y0140500D01*
X0121400Y0140500D01*
X0121400Y0139102D01*
X0118998Y0136700D01*
X0119798Y0137500D02*
X0145226Y0137500D01*
X0145726Y0137000D02*
X0148874Y0137000D01*
X0151100Y0139226D01*
X0151100Y0142374D01*
X0148874Y0144600D01*
X0145726Y0144600D01*
X0143500Y0142374D01*
X0143500Y0139226D01*
X0145726Y0137000D01*
X0144627Y0138099D02*
X0120397Y0138099D01*
X0120995Y0138697D02*
X0144029Y0138697D01*
X0143500Y0139296D02*
X0121400Y0139296D01*
X0121400Y0139894D02*
X0143500Y0139894D01*
X0143500Y0140493D02*
X0121400Y0140493D01*
X0121400Y0141690D02*
X0143500Y0141690D01*
X0143500Y0142288D02*
X0121400Y0142288D01*
X0121012Y0142887D02*
X0144013Y0142887D01*
X0144611Y0143485D02*
X0120413Y0143485D01*
X0119815Y0144084D02*
X0145210Y0144084D01*
X0143500Y0141091D02*
X0117600Y0141091D01*
X0117600Y0140493D02*
X0117000Y0140493D01*
X0117000Y0139894D02*
X0117600Y0139894D01*
X0117600Y0139296D02*
X0117000Y0139296D01*
X0117000Y0138697D02*
X0117600Y0138697D01*
X0117600Y0138099D02*
X0117000Y0138099D01*
X0117000Y0137500D02*
X0117600Y0137500D01*
X0117600Y0136902D02*
X0117000Y0136902D01*
X0119216Y0144682D02*
X0155101Y0144682D01*
X0154503Y0144084D02*
X0149390Y0144084D01*
X0149989Y0143485D02*
X0153904Y0143485D01*
X0153306Y0142887D02*
X0150587Y0142887D01*
X0151100Y0142288D02*
X0153000Y0142288D01*
X0153000Y0141690D02*
X0151100Y0141690D01*
X0151100Y0141091D02*
X0153000Y0141091D01*
X0153000Y0140493D02*
X0151100Y0140493D01*
X0151100Y0139894D02*
X0153000Y0139894D01*
X0153000Y0139296D02*
X0151100Y0139296D01*
X0150571Y0138697D02*
X0153322Y0138697D01*
X0153920Y0138099D02*
X0149973Y0138099D01*
X0149374Y0137500D02*
X0154519Y0137500D01*
X0167780Y0155455D02*
X0174756Y0155455D01*
X0174754Y0156054D02*
X0169225Y0156054D01*
X0169899Y0156652D02*
X0174752Y0156652D01*
X0174750Y0157251D02*
X0170498Y0157251D01*
X0171096Y0157849D02*
X0174749Y0157849D01*
X0174747Y0158448D02*
X0171576Y0158448D01*
X0171824Y0159046D02*
X0174745Y0159046D01*
X0174743Y0159645D02*
X0172072Y0159645D01*
X0172320Y0160243D02*
X0174741Y0160243D01*
X0174740Y0160842D02*
X0172568Y0160842D01*
X0172649Y0161441D02*
X0174738Y0161441D01*
X0174736Y0162039D02*
X0172649Y0162039D01*
X0172649Y0162638D02*
X0174734Y0162638D01*
X0174733Y0163236D02*
X0172649Y0163236D01*
X0172649Y0163835D02*
X0174731Y0163835D01*
X0174729Y0164433D02*
X0172495Y0164433D01*
X0172247Y0165032D02*
X0174727Y0165032D01*
X0174726Y0165630D02*
X0172000Y0165630D01*
X0171752Y0166229D02*
X0174724Y0166229D01*
X0174722Y0166827D02*
X0171504Y0166827D01*
X0170921Y0167426D02*
X0174720Y0167426D01*
X0174719Y0168024D02*
X0170323Y0168024D01*
X0169724Y0168623D02*
X0174717Y0168623D01*
X0174715Y0169221D02*
X0168802Y0169221D01*
X0174608Y0112961D02*
X0174881Y0112961D01*
X0174883Y0112363D02*
X0174009Y0112363D01*
X0174884Y0111764D02*
X0172631Y0111764D01*
X0172506Y0111166D02*
X0174886Y0111166D01*
X0174888Y0110567D02*
X0173933Y0110567D01*
X0174703Y0109969D02*
X0174890Y0109969D01*
X0171600Y0109969D02*
X0171000Y0109969D01*
X0171000Y0110567D02*
X0171600Y0110567D01*
X0171600Y0111166D02*
X0171000Y0111166D01*
X0171000Y0109370D02*
X0171600Y0109370D01*
X0171600Y0108772D02*
X0171000Y0108772D01*
X0171000Y0108173D02*
X0171600Y0108173D01*
X0171600Y0107574D02*
X0171000Y0107574D01*
X0171000Y0106976D02*
X0171600Y0106976D01*
X0171000Y0106377D02*
X0153100Y0106377D01*
X0153100Y0100392D02*
X0168898Y0100392D01*
X0168147Y0099794D02*
X0153100Y0099794D01*
X0153100Y0099195D02*
X0167549Y0099195D01*
X0167164Y0098597D02*
X0153100Y0098597D01*
X0153100Y0097998D02*
X0166916Y0097998D01*
X0166668Y0097400D02*
X0153100Y0097400D01*
X0153100Y0096801D02*
X0166600Y0096801D01*
X0166600Y0096203D02*
X0153100Y0096203D01*
X0153100Y0095604D02*
X0166600Y0095604D01*
X0166749Y0095006D02*
X0153100Y0095006D01*
X0153100Y0094407D02*
X0166997Y0094407D01*
X0167245Y0093809D02*
X0153100Y0093809D01*
X0153100Y0093210D02*
X0167743Y0093210D01*
X0168341Y0092612D02*
X0153100Y0092612D01*
X0153100Y0092013D02*
X0169368Y0092013D01*
X0169783Y0090218D02*
X0153100Y0090218D01*
X0153100Y0090816D02*
X0174946Y0090816D01*
X0174948Y0090218D02*
X0172817Y0090218D01*
X0173921Y0089619D02*
X0174950Y0089619D01*
X0174952Y0089021D02*
X0174519Y0089021D01*
X0174944Y0091415D02*
X0153100Y0091415D01*
X0153100Y0089619D02*
X0168679Y0089619D01*
X0168081Y0089021D02*
X0153100Y0089021D01*
X0153100Y0088422D02*
X0167633Y0088422D01*
X0167385Y0087824D02*
X0153100Y0087824D01*
X0153100Y0087225D02*
X0167137Y0087225D01*
X0167100Y0086627D02*
X0153100Y0086627D01*
X0153100Y0086028D02*
X0167100Y0086028D01*
X0167114Y0085430D02*
X0153100Y0085430D01*
X0153100Y0084831D02*
X0167285Y0084831D01*
X0166687Y0084233D02*
X0153100Y0084233D01*
X0153100Y0083634D02*
X0166088Y0083634D01*
X0165490Y0083036D02*
X0153100Y0083036D01*
X0153100Y0082437D02*
X0164891Y0082437D01*
X0164293Y0081839D02*
X0153100Y0081839D01*
X0153100Y0081240D02*
X0163694Y0081240D01*
X0163096Y0080641D02*
X0153100Y0080641D01*
X0153100Y0080043D02*
X0162497Y0080043D01*
X0161899Y0079444D02*
X0153100Y0079444D01*
X0153100Y0078846D02*
X0161300Y0078846D01*
X0160702Y0078247D02*
X0153100Y0078247D01*
X0153100Y0077649D02*
X0160103Y0077649D01*
X0159505Y0077050D02*
X0153100Y0077050D01*
X0153100Y0076452D02*
X0159500Y0076452D01*
X0159500Y0075853D02*
X0153100Y0075853D01*
X0153100Y0075255D02*
X0159500Y0075255D01*
X0159500Y0074656D02*
X0153100Y0074656D01*
X0153100Y0074058D02*
X0159500Y0074058D01*
X0159500Y0073459D02*
X0153100Y0073459D01*
X0153118Y0072861D02*
X0159500Y0072861D01*
X0159500Y0072262D02*
X0153689Y0072262D01*
X0153689Y0071664D02*
X0159118Y0071664D01*
X0158520Y0071065D02*
X0153689Y0071065D01*
X0153689Y0070467D02*
X0157921Y0070467D01*
X0157323Y0069868D02*
X0153247Y0069868D01*
X0152648Y0069270D02*
X0156724Y0069270D01*
X0156126Y0068671D02*
X0105405Y0068671D01*
X0105653Y0068073D02*
X0155527Y0068073D01*
X0154929Y0067474D02*
X0105901Y0067474D01*
X0106000Y0066876D02*
X0154330Y0066876D01*
X0153732Y0066277D02*
X0106000Y0066277D01*
X0106000Y0065679D02*
X0153133Y0065679D01*
X0152535Y0065080D02*
X0105882Y0065080D01*
X0105634Y0064482D02*
X0151103Y0064482D01*
X0150505Y0063883D02*
X0105386Y0063883D01*
X0104931Y0063285D02*
X0150208Y0063285D01*
X0150208Y0062686D02*
X0104333Y0062686D01*
X0103412Y0062088D02*
X0150208Y0062088D01*
X0150327Y0061489D02*
X0006900Y0061489D01*
X0006900Y0060891D02*
X0040101Y0060891D01*
X0039188Y0062088D02*
X0006900Y0062088D01*
X0006900Y0062686D02*
X0038267Y0062686D01*
X0037669Y0063285D02*
X0006900Y0063285D01*
X0006900Y0063883D02*
X0037214Y0063883D01*
X0036966Y0064482D02*
X0006900Y0064482D01*
X0006900Y0065080D02*
X0036718Y0065080D01*
X0036600Y0065679D02*
X0006900Y0065679D01*
X0006900Y0066277D02*
X0036600Y0066277D01*
X0036600Y0066876D02*
X0006900Y0066876D01*
X0006900Y0067474D02*
X0036699Y0067474D01*
X0036947Y0068073D02*
X0006900Y0068073D01*
X0006900Y0068671D02*
X0037195Y0068671D01*
X0037623Y0069270D02*
X0006900Y0069270D01*
X0006900Y0069868D02*
X0038221Y0069868D01*
X0039078Y0070467D02*
X0006900Y0070467D01*
X0006900Y0071065D02*
X0148911Y0071065D01*
X0148911Y0070467D02*
X0103522Y0070467D01*
X0104379Y0069868D02*
X0149353Y0069868D01*
X0149952Y0069270D02*
X0104977Y0069270D01*
X0103834Y0072262D02*
X0148911Y0072262D01*
X0148911Y0071664D02*
X0102389Y0071664D01*
X0104508Y0072861D02*
X0149482Y0072861D01*
X0149500Y0073459D02*
X0105106Y0073459D01*
X0105459Y0074058D02*
X0149500Y0074058D01*
X0149500Y0074656D02*
X0105706Y0074656D01*
X0105954Y0075255D02*
X0149500Y0075255D01*
X0149500Y0075853D02*
X0106000Y0075853D01*
X0106000Y0076452D02*
X0149500Y0076452D01*
X0149500Y0077050D02*
X0106000Y0077050D01*
X0105828Y0077649D02*
X0149500Y0077649D01*
X0149500Y0078247D02*
X0105581Y0078247D01*
X0105333Y0078846D02*
X0149500Y0078846D01*
X0149500Y0079444D02*
X0104802Y0079444D01*
X0104204Y0080043D02*
X0149500Y0080043D01*
X0149500Y0080641D02*
X0103100Y0080641D01*
X0102811Y0081839D02*
X0149500Y0081839D01*
X0149500Y0082437D02*
X0104084Y0082437D01*
X0104682Y0083036D02*
X0149500Y0083036D01*
X0149500Y0083634D02*
X0105281Y0083634D01*
X0105531Y0084233D02*
X0149500Y0084233D01*
X0149500Y0084831D02*
X0105779Y0084831D01*
X0106000Y0085430D02*
X0149500Y0085430D01*
X0149500Y0086028D02*
X0106000Y0086028D01*
X0106000Y0086627D02*
X0149500Y0086627D01*
X0149500Y0087225D02*
X0106000Y0087225D01*
X0105756Y0087824D02*
X0149500Y0087824D01*
X0149500Y0088422D02*
X0105508Y0088422D01*
X0105226Y0089021D02*
X0149500Y0089021D01*
X0149500Y0089619D02*
X0104628Y0089619D01*
X0104029Y0090218D02*
X0149500Y0090218D01*
X0149500Y0090816D02*
X0102679Y0090816D01*
X0102499Y0060891D02*
X0150926Y0060891D01*
X0151524Y0060292D02*
X0103944Y0060292D01*
X0104553Y0059694D02*
X0175038Y0059694D01*
X0175036Y0060292D02*
X0153671Y0060292D01*
X0154269Y0060891D02*
X0175035Y0060891D01*
X0175033Y0061489D02*
X0154868Y0061489D01*
X0154986Y0062088D02*
X0175031Y0062088D01*
X0175029Y0062686D02*
X0173551Y0062686D01*
X0174224Y0063285D02*
X0175027Y0063285D01*
X0175026Y0063883D02*
X0174823Y0063883D01*
X0175040Y0059095D02*
X0105152Y0059095D01*
X0105477Y0058497D02*
X0159787Y0058497D01*
X0160246Y0058687D02*
X0158298Y0057880D01*
X0156807Y0056389D01*
X0156000Y0054441D01*
X0156000Y0052332D01*
X0156807Y0050384D01*
X0158298Y0048893D01*
X0160246Y0048087D01*
X0162354Y0048087D01*
X0164302Y0048893D01*
X0165793Y0050384D01*
X0166600Y0052332D01*
X0166600Y0054441D01*
X0165793Y0056389D01*
X0164302Y0057880D01*
X0162354Y0058687D01*
X0160246Y0058687D01*
X0158342Y0057898D02*
X0105725Y0057898D01*
X0105973Y0057300D02*
X0157718Y0057300D01*
X0157119Y0056701D02*
X0106000Y0056701D01*
X0106000Y0056103D02*
X0156688Y0056103D01*
X0156440Y0055504D02*
X0106000Y0055504D01*
X0105810Y0054905D02*
X0156192Y0054905D01*
X0156000Y0054307D02*
X0105562Y0054307D01*
X0105314Y0053708D02*
X0156000Y0053708D01*
X0156000Y0053110D02*
X0104757Y0053110D01*
X0104158Y0052511D02*
X0156000Y0052511D01*
X0156174Y0051913D02*
X0102990Y0051913D01*
X0102921Y0050716D02*
X0156670Y0050716D01*
X0156422Y0051314D02*
X0006900Y0051314D01*
X0006900Y0050716D02*
X0039679Y0050716D01*
X0039610Y0051913D02*
X0006900Y0051913D01*
X0006900Y0052511D02*
X0038442Y0052511D01*
X0037843Y0053110D02*
X0006900Y0053110D01*
X0006900Y0053708D02*
X0037286Y0053708D01*
X0037038Y0054307D02*
X0006900Y0054307D01*
X0006900Y0054905D02*
X0036790Y0054905D01*
X0036600Y0055504D02*
X0006900Y0055504D01*
X0006900Y0056103D02*
X0036600Y0056103D01*
X0036600Y0056701D02*
X0006900Y0056701D01*
X0006900Y0057300D02*
X0036627Y0057300D01*
X0036875Y0057898D02*
X0006900Y0057898D01*
X0006900Y0058497D02*
X0037123Y0058497D01*
X0037448Y0059095D02*
X0006900Y0059095D01*
X0006900Y0059694D02*
X0038047Y0059694D01*
X0038656Y0060292D02*
X0006900Y0060292D01*
X0006900Y0050117D02*
X0038471Y0050117D01*
X0037872Y0049519D02*
X0006900Y0049519D01*
X0006900Y0048920D02*
X0037298Y0048920D01*
X0037050Y0048322D02*
X0006900Y0048322D01*
X0006900Y0047723D02*
X0036802Y0047723D01*
X0036600Y0047125D02*
X0006900Y0047125D01*
X0006900Y0046526D02*
X0036600Y0046526D01*
X0036600Y0045928D02*
X0006900Y0045928D01*
X0006900Y0045329D02*
X0036615Y0045329D01*
X0036863Y0044731D02*
X0006900Y0044731D01*
X0006900Y0044132D02*
X0037111Y0044132D01*
X0037419Y0043534D02*
X0006900Y0043534D01*
X0006900Y0042935D02*
X0038018Y0042935D01*
X0038616Y0042337D02*
X0006900Y0042337D01*
X0006900Y0041738D02*
X0040031Y0041738D01*
X0022037Y0023184D02*
X0161813Y0023184D01*
X0160745Y0022742D02*
X0158608Y0020605D01*
X0157451Y0017812D01*
X0157451Y0014788D01*
X0158608Y0011995D01*
X0160745Y0009858D01*
X0163538Y0008701D01*
X0166562Y0008701D01*
X0169355Y0009858D01*
X0171492Y0011995D01*
X0172649Y0014788D01*
X0172649Y0017812D01*
X0171492Y0020605D01*
X0169355Y0022742D01*
X0166562Y0023899D01*
X0163538Y0023899D01*
X0160745Y0022742D01*
X0160589Y0022586D02*
X0023261Y0022586D01*
X0023860Y0021987D02*
X0159990Y0021987D01*
X0159392Y0021389D02*
X0024458Y0021389D01*
X0025057Y0020790D02*
X0158793Y0020790D01*
X0158437Y0020192D02*
X0025413Y0020192D01*
X0025661Y0019593D02*
X0158189Y0019593D01*
X0157941Y0018995D02*
X0025909Y0018995D01*
X0026157Y0018396D02*
X0157693Y0018396D01*
X0157451Y0017798D02*
X0026399Y0017798D01*
X0026399Y0017199D02*
X0157451Y0017199D01*
X0157451Y0016601D02*
X0026399Y0016601D01*
X0026399Y0016002D02*
X0157451Y0016002D01*
X0157451Y0015404D02*
X0026399Y0015404D01*
X0026399Y0014805D02*
X0157451Y0014805D01*
X0157692Y0014207D02*
X0026158Y0014207D01*
X0025910Y0013608D02*
X0157940Y0013608D01*
X0158188Y0013010D02*
X0025662Y0013010D01*
X0025415Y0012411D02*
X0158435Y0012411D01*
X0158790Y0011813D02*
X0025060Y0011813D01*
X0024461Y0011214D02*
X0159389Y0011214D01*
X0159987Y0010616D02*
X0023863Y0010616D01*
X0023264Y0010017D02*
X0160586Y0010017D01*
X0161805Y0009419D02*
X0022045Y0009419D01*
X0020600Y0008820D02*
X0163250Y0008820D01*
X0166850Y0008820D02*
X0175188Y0008820D01*
X0175186Y0009419D02*
X0168295Y0009419D01*
X0169514Y0010017D02*
X0175185Y0010017D01*
X0175183Y0010616D02*
X0170113Y0010616D01*
X0170711Y0011214D02*
X0175181Y0011214D01*
X0175179Y0011813D02*
X0171310Y0011813D01*
X0171665Y0012411D02*
X0175178Y0012411D01*
X0175176Y0013010D02*
X0171912Y0013010D01*
X0172160Y0013608D02*
X0175174Y0013608D01*
X0175172Y0014207D02*
X0172408Y0014207D01*
X0172649Y0014805D02*
X0175170Y0014805D01*
X0175169Y0015404D02*
X0172649Y0015404D01*
X0172649Y0016002D02*
X0175167Y0016002D01*
X0175165Y0016601D02*
X0172649Y0016601D01*
X0172649Y0017199D02*
X0175163Y0017199D01*
X0175162Y0017798D02*
X0172649Y0017798D01*
X0172407Y0018396D02*
X0175160Y0018396D01*
X0175158Y0018995D02*
X0172159Y0018995D01*
X0171911Y0019593D02*
X0175156Y0019593D01*
X0175155Y0020192D02*
X0171663Y0020192D01*
X0171307Y0020790D02*
X0175153Y0020790D01*
X0175151Y0021389D02*
X0170708Y0021389D01*
X0170110Y0021987D02*
X0175149Y0021987D01*
X0175148Y0022586D02*
X0169511Y0022586D01*
X0168287Y0023184D02*
X0175146Y0023184D01*
X0175144Y0023783D02*
X0166842Y0023783D01*
X0163258Y0023783D02*
X0020592Y0023783D01*
X0006900Y0071664D02*
X0040211Y0071664D01*
X0038766Y0072262D02*
X0006900Y0072262D01*
X0006900Y0072861D02*
X0038092Y0072861D01*
X0037494Y0073459D02*
X0006900Y0073459D01*
X0006900Y0074058D02*
X0037141Y0074058D01*
X0036894Y0074656D02*
X0006900Y0074656D01*
X0006900Y0075255D02*
X0036646Y0075255D01*
X0036600Y0075853D02*
X0006900Y0075853D01*
X0006900Y0076452D02*
X0036600Y0076452D01*
X0036600Y0077050D02*
X0006900Y0077050D01*
X0006900Y0077649D02*
X0036772Y0077649D01*
X0037019Y0078247D02*
X0006900Y0078247D01*
X0006900Y0078846D02*
X0037267Y0078846D01*
X0037798Y0079444D02*
X0006900Y0079444D01*
X0006900Y0080043D02*
X0038396Y0080043D01*
X0039500Y0080641D02*
X0006900Y0080641D01*
X0006900Y0081240D02*
X0149500Y0081240D01*
X0161815Y0069270D02*
X0168330Y0069270D01*
X0167736Y0068671D02*
X0161217Y0068671D01*
X0160618Y0068073D02*
X0167488Y0068073D01*
X0167240Y0067474D02*
X0160020Y0067474D01*
X0159421Y0066876D02*
X0167100Y0066876D01*
X0167100Y0066277D02*
X0158823Y0066277D01*
X0158224Y0065679D02*
X0167100Y0065679D01*
X0167259Y0065080D02*
X0157626Y0065080D01*
X0157027Y0064482D02*
X0167507Y0064482D01*
X0167777Y0063883D02*
X0156429Y0063883D01*
X0155830Y0063285D02*
X0168376Y0063285D01*
X0169049Y0062686D02*
X0155232Y0062686D01*
X0162813Y0058497D02*
X0175042Y0058497D01*
X0175043Y0057898D02*
X0164258Y0057898D01*
X0164882Y0057300D02*
X0175045Y0057300D01*
X0175047Y0056701D02*
X0165481Y0056701D01*
X0165912Y0056103D02*
X0175049Y0056103D01*
X0175050Y0055504D02*
X0166160Y0055504D01*
X0166408Y0054905D02*
X0175052Y0054905D01*
X0175054Y0054307D02*
X0166600Y0054307D01*
X0166600Y0053708D02*
X0175056Y0053708D01*
X0175057Y0053110D02*
X0166600Y0053110D01*
X0166600Y0052511D02*
X0175059Y0052511D01*
X0175061Y0051913D02*
X0166426Y0051913D01*
X0166178Y0051314D02*
X0175063Y0051314D01*
X0175065Y0050716D02*
X0165930Y0050716D01*
X0165526Y0050117D02*
X0175066Y0050117D01*
X0175068Y0049519D02*
X0164928Y0049519D01*
X0164329Y0048920D02*
X0175070Y0048920D01*
X0175072Y0048322D02*
X0162922Y0048322D01*
X0159678Y0048322D02*
X0105550Y0048322D01*
X0105302Y0048920D02*
X0158271Y0048920D01*
X0157672Y0049519D02*
X0104728Y0049519D01*
X0104129Y0050117D02*
X0157074Y0050117D01*
X0159150Y0044797D02*
X0158365Y0044397D01*
X0157652Y0043879D01*
X0157029Y0043255D01*
X0156510Y0042542D01*
X0156110Y0041757D01*
X0155838Y0040918D01*
X0155700Y0040048D01*
X0155700Y0039907D01*
X0161000Y0039907D01*
X0161000Y0039307D01*
X0161600Y0039307D01*
X0161600Y0034007D01*
X0161741Y0034007D01*
X0162611Y0034145D01*
X0163450Y0034417D01*
X0164235Y0034818D01*
X0164948Y0035336D01*
X0165571Y0035959D01*
X0166090Y0036672D01*
X0166490Y0037457D01*
X0166762Y0038296D01*
X0166900Y0039166D01*
X0166900Y0039307D01*
X0161600Y0039307D01*
X0161600Y0039907D01*
X0166900Y0039907D01*
X0166900Y0040048D01*
X0166762Y0040918D01*
X0166490Y0041757D01*
X0166090Y0042542D01*
X0165571Y0043255D01*
X0164948Y0043879D01*
X0164235Y0044397D01*
X0163450Y0044797D01*
X0162611Y0045069D01*
X0161741Y0045207D01*
X0161600Y0045207D01*
X0161600Y0039907D01*
X0161000Y0039907D01*
X0161000Y0045207D01*
X0160859Y0045207D01*
X0159989Y0045069D01*
X0159150Y0044797D01*
X0159021Y0044731D02*
X0105737Y0044731D01*
X0105985Y0045329D02*
X0175080Y0045329D01*
X0175082Y0044731D02*
X0163579Y0044731D01*
X0164599Y0044132D02*
X0175084Y0044132D01*
X0175086Y0043534D02*
X0165293Y0043534D01*
X0165804Y0042935D02*
X0175087Y0042935D01*
X0175089Y0042337D02*
X0166194Y0042337D01*
X0166496Y0041738D02*
X0175091Y0041738D01*
X0175093Y0041140D02*
X0166690Y0041140D01*
X0166822Y0040541D02*
X0175095Y0040541D01*
X0175096Y0039943D02*
X0166900Y0039943D01*
X0166833Y0038746D02*
X0175100Y0038746D01*
X0175098Y0039344D02*
X0161600Y0039344D01*
X0161600Y0038746D02*
X0161000Y0038746D01*
X0161000Y0039307D02*
X0161000Y0034007D01*
X0160859Y0034007D01*
X0159989Y0034145D01*
X0159150Y0034417D01*
X0158365Y0034818D01*
X0157652Y0035336D01*
X0157029Y0035959D01*
X0156510Y0036672D01*
X0156110Y0037457D01*
X0155838Y0038296D01*
X0155700Y0039166D01*
X0155700Y0039307D01*
X0161000Y0039307D01*
X0161000Y0039344D02*
X0093100Y0039344D01*
X0093100Y0038746D02*
X0155767Y0038746D01*
X0155886Y0038147D02*
X0093100Y0038147D01*
X0093100Y0037549D02*
X0156081Y0037549D01*
X0156369Y0036950D02*
X0093100Y0036950D01*
X0093100Y0036352D02*
X0156743Y0036352D01*
X0157234Y0035753D02*
X0093100Y0035753D01*
X0093100Y0035155D02*
X0157901Y0035155D01*
X0158878Y0034556D02*
X0093100Y0034556D01*
X0093100Y0033958D02*
X0175114Y0033958D01*
X0175112Y0034556D02*
X0163722Y0034556D01*
X0164699Y0035155D02*
X0175110Y0035155D01*
X0175109Y0035753D02*
X0165366Y0035753D01*
X0165857Y0036352D02*
X0175107Y0036352D01*
X0175105Y0036950D02*
X0166231Y0036950D01*
X0166519Y0037549D02*
X0175103Y0037549D01*
X0175102Y0038147D02*
X0166714Y0038147D01*
X0161600Y0038147D02*
X0161000Y0038147D01*
X0161000Y0037549D02*
X0161600Y0037549D01*
X0161600Y0036950D02*
X0161000Y0036950D01*
X0161000Y0036352D02*
X0161600Y0036352D01*
X0161600Y0035753D02*
X0161000Y0035753D01*
X0161000Y0035155D02*
X0161600Y0035155D01*
X0161600Y0034556D02*
X0161000Y0034556D01*
X0161000Y0039943D02*
X0161600Y0039943D01*
X0161600Y0040541D02*
X0161000Y0040541D01*
X0161000Y0041140D02*
X0161600Y0041140D01*
X0161600Y0041738D02*
X0161000Y0041738D01*
X0161000Y0042337D02*
X0161600Y0042337D01*
X0161600Y0042935D02*
X0161000Y0042935D01*
X0161000Y0043534D02*
X0161600Y0043534D01*
X0161600Y0044132D02*
X0161000Y0044132D01*
X0161000Y0044731D02*
X0161600Y0044731D01*
X0158001Y0044132D02*
X0105489Y0044132D01*
X0105181Y0043534D02*
X0157307Y0043534D01*
X0156796Y0042935D02*
X0104582Y0042935D01*
X0103984Y0042337D02*
X0156406Y0042337D01*
X0156104Y0041738D02*
X0102569Y0041738D01*
X0100031Y0041738D02*
X0093689Y0041738D01*
X0093689Y0041140D02*
X0155910Y0041140D01*
X0155778Y0040541D02*
X0093689Y0040541D01*
X0093321Y0039943D02*
X0155700Y0039943D01*
X0175079Y0045928D02*
X0106000Y0045928D01*
X0106000Y0046526D02*
X0175077Y0046526D01*
X0175075Y0047125D02*
X0106000Y0047125D01*
X0105798Y0047723D02*
X0175073Y0047723D01*
X0175116Y0033359D02*
X0093100Y0033359D01*
X0093100Y0032761D02*
X0175118Y0032761D01*
X0175119Y0032162D02*
X0093100Y0032162D01*
X0093100Y0031564D02*
X0175121Y0031564D01*
X0175123Y0030965D02*
X0093100Y0030965D01*
X0093100Y0030367D02*
X0175125Y0030367D01*
X0175126Y0029768D02*
X0093100Y0029768D01*
X0093100Y0029170D02*
X0175128Y0029170D01*
X0175130Y0028571D02*
X0093100Y0028571D01*
X0093100Y0027972D02*
X0175132Y0027972D01*
X0175133Y0027374D02*
X0093605Y0027374D01*
X0093689Y0026775D02*
X0175135Y0026775D01*
X0175137Y0026177D02*
X0093689Y0026177D01*
X0093689Y0025578D02*
X0175139Y0025578D01*
X0175140Y0024980D02*
X0093358Y0024980D01*
X0092760Y0024381D02*
X0175142Y0024381D01*
X0174864Y0068671D02*
X0175012Y0068671D01*
X0175010Y0069270D02*
X0174270Y0069270D01*
X0173661Y0069868D02*
X0175008Y0069868D01*
X0175006Y0070467D02*
X0172216Y0070467D01*
X0172527Y0072262D02*
X0175001Y0072262D01*
X0175003Y0071664D02*
X0163100Y0071664D01*
X0163100Y0072262D02*
X0170073Y0072262D01*
X0168799Y0072861D02*
X0163100Y0072861D01*
X0163100Y0073459D02*
X0168201Y0073459D01*
X0167683Y0074058D02*
X0163100Y0074058D01*
X0163100Y0074656D02*
X0167435Y0074656D01*
X0167187Y0075255D02*
X0163100Y0075255D01*
X0163399Y0075853D02*
X0167100Y0075853D01*
X0167100Y0076452D02*
X0163997Y0076452D01*
X0164596Y0077050D02*
X0167100Y0077050D01*
X0167313Y0077649D02*
X0165195Y0077649D01*
X0165793Y0078247D02*
X0167561Y0078247D01*
X0167906Y0078846D02*
X0166392Y0078846D01*
X0166990Y0079444D02*
X0168505Y0079444D01*
X0169361Y0080043D02*
X0167589Y0080043D01*
X0168187Y0080641D02*
X0174976Y0080641D01*
X0174978Y0080043D02*
X0173239Y0080043D01*
X0174095Y0079444D02*
X0174980Y0079444D01*
X0174982Y0078846D02*
X0174694Y0078846D01*
X0174975Y0081240D02*
X0168786Y0081240D01*
X0169384Y0081839D02*
X0174973Y0081839D01*
X0174971Y0082437D02*
X0172949Y0082437D01*
X0173975Y0083036D02*
X0174969Y0083036D01*
X0174967Y0083634D02*
X0174574Y0083634D01*
X0174943Y0092013D02*
X0173232Y0092013D01*
X0174259Y0092612D02*
X0174941Y0092612D01*
X0174939Y0093210D02*
X0174857Y0093210D01*
X0174920Y0099794D02*
X0174453Y0099794D01*
X0174918Y0100392D02*
X0173702Y0100392D01*
X0174916Y0100991D02*
X0172257Y0100991D01*
X0171600Y0101589D02*
X0171000Y0101589D01*
X0171000Y0102188D02*
X0171600Y0102188D01*
X0171600Y0102786D02*
X0171000Y0102786D01*
X0171000Y0103385D02*
X0171600Y0103385D01*
X0171600Y0103983D02*
X0171000Y0103983D01*
X0171000Y0104582D02*
X0171600Y0104582D01*
X0171600Y0105180D02*
X0171000Y0105180D01*
X0171000Y0105779D02*
X0171600Y0105779D01*
X0174147Y0102188D02*
X0174913Y0102188D01*
X0174911Y0102786D02*
X0174857Y0102786D01*
X0174914Y0101589D02*
X0172983Y0101589D01*
X0174917Y0074058D02*
X0174996Y0074058D01*
X0174997Y0073459D02*
X0174399Y0073459D01*
X0173801Y0072861D02*
X0174999Y0072861D01*
X0175005Y0071065D02*
X0163100Y0071065D01*
X0163012Y0070467D02*
X0170384Y0070467D01*
X0168939Y0069868D02*
X0162414Y0069868D01*
X0098616Y0042337D02*
X0093642Y0042337D01*
X0093043Y0042935D02*
X0098018Y0042935D01*
X0039789Y0081839D02*
X0016278Y0081839D01*
X0016040Y0081600D02*
X0018500Y0084060D01*
X0018500Y0087540D01*
X0016040Y0090000D01*
X0012560Y0090000D01*
X0010100Y0087540D01*
X0010100Y0084060D01*
X0012560Y0081600D01*
X0016040Y0081600D01*
X0016877Y0082437D02*
X0038516Y0082437D01*
X0037918Y0083036D02*
X0017475Y0083036D01*
X0018074Y0083634D02*
X0037319Y0083634D01*
X0037069Y0084233D02*
X0018500Y0084233D01*
X0018500Y0084831D02*
X0036821Y0084831D01*
X0036600Y0085430D02*
X0018500Y0085430D01*
X0018500Y0086028D02*
X0036600Y0086028D01*
X0036600Y0086627D02*
X0018500Y0086627D01*
X0018500Y0087225D02*
X0036600Y0087225D01*
X0036844Y0087824D02*
X0018216Y0087824D01*
X0017618Y0088422D02*
X0037092Y0088422D01*
X0037374Y0089021D02*
X0017019Y0089021D01*
X0016421Y0089619D02*
X0037972Y0089619D01*
X0038571Y0090218D02*
X0006900Y0090218D01*
X0006900Y0090816D02*
X0039921Y0090816D01*
X0039368Y0092013D02*
X0016453Y0092013D01*
X0017051Y0092612D02*
X0038341Y0092612D01*
X0037743Y0093210D02*
X0017650Y0093210D01*
X0018248Y0093809D02*
X0037245Y0093809D01*
X0036997Y0094407D02*
X0018500Y0094407D01*
X0018500Y0095006D02*
X0036749Y0095006D01*
X0036600Y0095604D02*
X0018500Y0095604D01*
X0018500Y0096203D02*
X0036600Y0096203D01*
X0036600Y0096801D02*
X0018500Y0096801D01*
X0018500Y0097400D02*
X0036668Y0097400D01*
X0036916Y0097998D02*
X0018041Y0097998D01*
X0017443Y0098597D02*
X0037164Y0098597D01*
X0037549Y0099195D02*
X0016844Y0099195D01*
X0016246Y0099794D02*
X0038147Y0099794D01*
X0038946Y0102188D02*
X0016628Y0102188D01*
X0016040Y0101600D02*
X0018500Y0104060D01*
X0018500Y0107540D01*
X0016040Y0110000D01*
X0012560Y0110000D01*
X0010100Y0107540D01*
X0010100Y0104060D01*
X0012560Y0101600D01*
X0016040Y0101600D01*
X0017226Y0102786D02*
X0038167Y0102786D01*
X0037568Y0103385D02*
X0017825Y0103385D01*
X0018423Y0103983D02*
X0037172Y0103983D01*
X0036924Y0104582D02*
X0018500Y0104582D01*
X0018500Y0105180D02*
X0036676Y0105180D01*
X0036600Y0105779D02*
X0018500Y0105779D01*
X0018500Y0106377D02*
X0036600Y0106377D01*
X0036600Y0106976D02*
X0018500Y0106976D01*
X0018465Y0107574D02*
X0036741Y0107574D01*
X0036989Y0108173D02*
X0017867Y0108173D01*
X0017268Y0108772D02*
X0037236Y0108772D01*
X0037723Y0109370D02*
X0016670Y0109370D01*
X0016071Y0109969D02*
X0038322Y0109969D01*
X0039320Y0110567D02*
X0006900Y0110567D01*
X0006900Y0109969D02*
X0012529Y0109969D01*
X0011930Y0109370D02*
X0006900Y0109370D01*
X0006900Y0108772D02*
X0011332Y0108772D01*
X0010733Y0108173D02*
X0006900Y0108173D01*
X0006900Y0107574D02*
X0010135Y0107574D01*
X0010100Y0106976D02*
X0006900Y0106976D01*
X0006900Y0106377D02*
X0010100Y0106377D01*
X0010100Y0105779D02*
X0006900Y0105779D01*
X0006900Y0105180D02*
X0010100Y0105180D01*
X0010100Y0104582D02*
X0006900Y0104582D01*
X0006900Y0103983D02*
X0010177Y0103983D01*
X0010775Y0103385D02*
X0006900Y0103385D01*
X0006900Y0102786D02*
X0011374Y0102786D01*
X0011972Y0102188D02*
X0006900Y0102188D01*
X0016204Y0111764D02*
X0039969Y0111764D01*
X0038591Y0112363D02*
X0016802Y0112363D01*
X0017401Y0112961D02*
X0037992Y0112961D01*
X0037394Y0113560D02*
X0017999Y0113560D01*
X0018500Y0114158D02*
X0037100Y0114158D01*
X0036852Y0114757D02*
X0018500Y0114757D01*
X0018500Y0115355D02*
X0036604Y0115355D01*
X0036600Y0115954D02*
X0018500Y0115954D01*
X0018500Y0116552D02*
X0036600Y0116552D01*
X0036600Y0117151D02*
X0018500Y0117151D01*
X0018290Y0117749D02*
X0036813Y0117749D01*
X0037061Y0118348D02*
X0017692Y0118348D01*
X0017093Y0118946D02*
X0037309Y0118946D01*
X0037898Y0119545D02*
X0016495Y0119545D01*
X0014600Y0121340D02*
X0014000Y0121340D01*
X0014000Y0121939D02*
X0014600Y0121939D01*
X0014600Y0122537D02*
X0014000Y0122537D01*
X0014000Y0123136D02*
X0014600Y0123136D01*
X0014600Y0123734D02*
X0014000Y0123734D01*
X0014000Y0124333D02*
X0014600Y0124333D01*
X0014600Y0124931D02*
X0014000Y0124931D01*
X0014000Y0125530D02*
X0006900Y0125530D01*
X0014000Y0126128D02*
X0014600Y0126128D01*
X0014600Y0125530D02*
X0036360Y0125530D01*
X0036305Y0126727D02*
X0018800Y0126727D01*
X0018800Y0127325D02*
X0036400Y0127325D01*
X0036570Y0127924D02*
X0018540Y0127924D01*
X0017942Y0128522D02*
X0036821Y0128522D01*
X0037169Y0129121D02*
X0017343Y0129121D01*
X0016745Y0129719D02*
X0037648Y0129719D01*
X0014600Y0129719D02*
X0014000Y0129719D01*
X0014000Y0129121D02*
X0014600Y0129121D01*
X0014600Y0128522D02*
X0014000Y0128522D01*
X0014000Y0127924D02*
X0014600Y0127924D01*
X0014600Y0127325D02*
X0014000Y0127325D01*
X0014000Y0126727D02*
X0014600Y0126727D01*
X0012179Y0089619D02*
X0006900Y0089619D01*
X0006900Y0089021D02*
X0011581Y0089021D01*
X0010982Y0088422D02*
X0006900Y0088422D01*
X0006900Y0087824D02*
X0010384Y0087824D01*
X0010100Y0087225D02*
X0006900Y0087225D01*
X0006900Y0086627D02*
X0010100Y0086627D01*
X0010100Y0086028D02*
X0006900Y0086028D01*
X0006900Y0085430D02*
X0010100Y0085430D01*
X0010100Y0084831D02*
X0006900Y0084831D01*
X0006900Y0084233D02*
X0010100Y0084233D01*
X0010526Y0083634D02*
X0006900Y0083634D01*
X0006900Y0083036D02*
X0011125Y0083036D01*
X0011723Y0082437D02*
X0006900Y0082437D01*
X0006900Y0081839D02*
X0012322Y0081839D01*
X0088100Y0147675D02*
X0096489Y0147675D01*
X0096694Y0148273D02*
X0088100Y0148273D01*
X0088100Y0148872D02*
X0096999Y0148872D01*
X0097423Y0149470D02*
X0088100Y0149470D01*
X0088100Y0150069D02*
X0097998Y0150069D01*
X0098858Y0150667D02*
X0088100Y0150667D01*
D12*
X0101300Y0146300D03*
X0101300Y0136300D03*
X0101300Y0126300D03*
X0101300Y0116300D03*
X0101300Y0106300D03*
X0101300Y0096300D03*
X0101300Y0086300D03*
X0101300Y0076300D03*
X0101300Y0066300D03*
X0101300Y0056300D03*
X0101300Y0046300D03*
X0041300Y0046300D03*
X0041300Y0056300D03*
X0041300Y0066300D03*
X0041300Y0076300D03*
X0041300Y0086300D03*
X0041300Y0096300D03*
X0041300Y0106300D03*
X0041300Y0116300D03*
X0041300Y0126300D03*
X0041300Y0136300D03*
X0041300Y0146300D03*
X0041300Y0156300D03*
X0101300Y0156300D03*
X0171300Y0126300D03*
X0171300Y0116300D03*
X0171300Y0106300D03*
X0171300Y0096300D03*
D13*
X0167300Y0140800D03*
X0157300Y0140800D03*
D14*
X0147300Y0140800D03*
X0117300Y0140800D03*
D15*
X0161300Y0053387D03*
X0161300Y0039607D03*
D16*
X0014300Y0085800D03*
X0014300Y0095800D03*
X0014300Y0105800D03*
X0014300Y0115800D03*
X0014300Y0125800D03*
X0014300Y0135800D03*
D17*
X0171300Y0086300D03*
X0171300Y0076300D03*
X0171300Y0066300D03*
D18*
X0152597Y0062597D03*
X0151300Y0071300D03*
X0151300Y0126300D03*
X0091300Y0041300D03*
X0091300Y0026300D03*
D19*
X0091300Y0041300D01*
X0151300Y0071300D02*
X0151300Y0126300D01*
X0161300Y0126300D02*
X0161300Y0121300D01*
X0166300Y0116300D01*
X0171300Y0116300D01*
X0161300Y0126300D02*
X0174291Y0139291D01*
X0174291Y0143309D01*
X0166300Y0151300D01*
X0156300Y0151300D01*
X0141300Y0166300D01*
X0091300Y0166300D01*
X0086300Y0161300D01*
X0086300Y0146300D01*
X0056300Y0116300D01*
X0041300Y0116300D01*
X0152597Y0062597D02*
X0161300Y0071300D01*
X0161300Y0076300D01*
X0171300Y0086300D01*
M02*
