G75*
%MOIN*%
%OFA0B0*%
%FSLAX25Y25*%
%IPPOS*%
%LPD*%
%AMOC8*
5,1,8,0,0,1.08239X$1,22.5*
%
%ADD10C,0.00000*%
%ADD11C,0.01200*%
%ADD12C,0.00600*%
%ADD13C,0.00400*%
%ADD14C,0.02000*%
%ADD15C,0.00300*%
%ADD16C,0.00800*%
%ADD17C,0.00591*%
%ADD18C,0.00060*%
%ADD19C,0.00100*%
%ADD20C,0.00500*%
D10*
X0012501Y0016300D02*
X0012503Y0016458D01*
X0012509Y0016616D01*
X0012519Y0016774D01*
X0012533Y0016932D01*
X0012551Y0017089D01*
X0012572Y0017246D01*
X0012598Y0017402D01*
X0012628Y0017558D01*
X0012661Y0017713D01*
X0012699Y0017866D01*
X0012740Y0018019D01*
X0012785Y0018171D01*
X0012834Y0018322D01*
X0012887Y0018471D01*
X0012943Y0018619D01*
X0013003Y0018765D01*
X0013067Y0018910D01*
X0013135Y0019053D01*
X0013206Y0019195D01*
X0013280Y0019335D01*
X0013358Y0019472D01*
X0013440Y0019608D01*
X0013524Y0019742D01*
X0013613Y0019873D01*
X0013704Y0020002D01*
X0013799Y0020129D01*
X0013896Y0020254D01*
X0013997Y0020376D01*
X0014101Y0020495D01*
X0014208Y0020612D01*
X0014318Y0020726D01*
X0014431Y0020837D01*
X0014546Y0020946D01*
X0014664Y0021051D01*
X0014785Y0021153D01*
X0014908Y0021253D01*
X0015034Y0021349D01*
X0015162Y0021442D01*
X0015292Y0021532D01*
X0015425Y0021618D01*
X0015560Y0021702D01*
X0015696Y0021781D01*
X0015835Y0021858D01*
X0015976Y0021930D01*
X0016118Y0022000D01*
X0016262Y0022065D01*
X0016408Y0022127D01*
X0016555Y0022185D01*
X0016704Y0022240D01*
X0016854Y0022291D01*
X0017005Y0022338D01*
X0017157Y0022381D01*
X0017310Y0022420D01*
X0017465Y0022456D01*
X0017620Y0022487D01*
X0017776Y0022515D01*
X0017932Y0022539D01*
X0018089Y0022559D01*
X0018247Y0022575D01*
X0018404Y0022587D01*
X0018563Y0022595D01*
X0018721Y0022599D01*
X0018879Y0022599D01*
X0019037Y0022595D01*
X0019196Y0022587D01*
X0019353Y0022575D01*
X0019511Y0022559D01*
X0019668Y0022539D01*
X0019824Y0022515D01*
X0019980Y0022487D01*
X0020135Y0022456D01*
X0020290Y0022420D01*
X0020443Y0022381D01*
X0020595Y0022338D01*
X0020746Y0022291D01*
X0020896Y0022240D01*
X0021045Y0022185D01*
X0021192Y0022127D01*
X0021338Y0022065D01*
X0021482Y0022000D01*
X0021624Y0021930D01*
X0021765Y0021858D01*
X0021904Y0021781D01*
X0022040Y0021702D01*
X0022175Y0021618D01*
X0022308Y0021532D01*
X0022438Y0021442D01*
X0022566Y0021349D01*
X0022692Y0021253D01*
X0022815Y0021153D01*
X0022936Y0021051D01*
X0023054Y0020946D01*
X0023169Y0020837D01*
X0023282Y0020726D01*
X0023392Y0020612D01*
X0023499Y0020495D01*
X0023603Y0020376D01*
X0023704Y0020254D01*
X0023801Y0020129D01*
X0023896Y0020002D01*
X0023987Y0019873D01*
X0024076Y0019742D01*
X0024160Y0019608D01*
X0024242Y0019472D01*
X0024320Y0019335D01*
X0024394Y0019195D01*
X0024465Y0019053D01*
X0024533Y0018910D01*
X0024597Y0018765D01*
X0024657Y0018619D01*
X0024713Y0018471D01*
X0024766Y0018322D01*
X0024815Y0018171D01*
X0024860Y0018019D01*
X0024901Y0017866D01*
X0024939Y0017713D01*
X0024972Y0017558D01*
X0025002Y0017402D01*
X0025028Y0017246D01*
X0025049Y0017089D01*
X0025067Y0016932D01*
X0025081Y0016774D01*
X0025091Y0016616D01*
X0025097Y0016458D01*
X0025099Y0016300D01*
X0025097Y0016142D01*
X0025091Y0015984D01*
X0025081Y0015826D01*
X0025067Y0015668D01*
X0025049Y0015511D01*
X0025028Y0015354D01*
X0025002Y0015198D01*
X0024972Y0015042D01*
X0024939Y0014887D01*
X0024901Y0014734D01*
X0024860Y0014581D01*
X0024815Y0014429D01*
X0024766Y0014278D01*
X0024713Y0014129D01*
X0024657Y0013981D01*
X0024597Y0013835D01*
X0024533Y0013690D01*
X0024465Y0013547D01*
X0024394Y0013405D01*
X0024320Y0013265D01*
X0024242Y0013128D01*
X0024160Y0012992D01*
X0024076Y0012858D01*
X0023987Y0012727D01*
X0023896Y0012598D01*
X0023801Y0012471D01*
X0023704Y0012346D01*
X0023603Y0012224D01*
X0023499Y0012105D01*
X0023392Y0011988D01*
X0023282Y0011874D01*
X0023169Y0011763D01*
X0023054Y0011654D01*
X0022936Y0011549D01*
X0022815Y0011447D01*
X0022692Y0011347D01*
X0022566Y0011251D01*
X0022438Y0011158D01*
X0022308Y0011068D01*
X0022175Y0010982D01*
X0022040Y0010898D01*
X0021904Y0010819D01*
X0021765Y0010742D01*
X0021624Y0010670D01*
X0021482Y0010600D01*
X0021338Y0010535D01*
X0021192Y0010473D01*
X0021045Y0010415D01*
X0020896Y0010360D01*
X0020746Y0010309D01*
X0020595Y0010262D01*
X0020443Y0010219D01*
X0020290Y0010180D01*
X0020135Y0010144D01*
X0019980Y0010113D01*
X0019824Y0010085D01*
X0019668Y0010061D01*
X0019511Y0010041D01*
X0019353Y0010025D01*
X0019196Y0010013D01*
X0019037Y0010005D01*
X0018879Y0010001D01*
X0018721Y0010001D01*
X0018563Y0010005D01*
X0018404Y0010013D01*
X0018247Y0010025D01*
X0018089Y0010041D01*
X0017932Y0010061D01*
X0017776Y0010085D01*
X0017620Y0010113D01*
X0017465Y0010144D01*
X0017310Y0010180D01*
X0017157Y0010219D01*
X0017005Y0010262D01*
X0016854Y0010309D01*
X0016704Y0010360D01*
X0016555Y0010415D01*
X0016408Y0010473D01*
X0016262Y0010535D01*
X0016118Y0010600D01*
X0015976Y0010670D01*
X0015835Y0010742D01*
X0015696Y0010819D01*
X0015560Y0010898D01*
X0015425Y0010982D01*
X0015292Y0011068D01*
X0015162Y0011158D01*
X0015034Y0011251D01*
X0014908Y0011347D01*
X0014785Y0011447D01*
X0014664Y0011549D01*
X0014546Y0011654D01*
X0014431Y0011763D01*
X0014318Y0011874D01*
X0014208Y0011988D01*
X0014101Y0012105D01*
X0013997Y0012224D01*
X0013896Y0012346D01*
X0013799Y0012471D01*
X0013704Y0012598D01*
X0013613Y0012727D01*
X0013524Y0012858D01*
X0013440Y0012992D01*
X0013358Y0013128D01*
X0013280Y0013265D01*
X0013206Y0013405D01*
X0013135Y0013547D01*
X0013067Y0013690D01*
X0013003Y0013835D01*
X0012943Y0013981D01*
X0012887Y0014129D01*
X0012834Y0014278D01*
X0012785Y0014429D01*
X0012740Y0014581D01*
X0012699Y0014734D01*
X0012661Y0014887D01*
X0012628Y0015042D01*
X0012598Y0015198D01*
X0012572Y0015354D01*
X0012551Y0015511D01*
X0012533Y0015668D01*
X0012519Y0015826D01*
X0012509Y0015984D01*
X0012503Y0016142D01*
X0012501Y0016300D01*
X0012501Y0162800D02*
X0012503Y0162958D01*
X0012509Y0163116D01*
X0012519Y0163274D01*
X0012533Y0163432D01*
X0012551Y0163589D01*
X0012572Y0163746D01*
X0012598Y0163902D01*
X0012628Y0164058D01*
X0012661Y0164213D01*
X0012699Y0164366D01*
X0012740Y0164519D01*
X0012785Y0164671D01*
X0012834Y0164822D01*
X0012887Y0164971D01*
X0012943Y0165119D01*
X0013003Y0165265D01*
X0013067Y0165410D01*
X0013135Y0165553D01*
X0013206Y0165695D01*
X0013280Y0165835D01*
X0013358Y0165972D01*
X0013440Y0166108D01*
X0013524Y0166242D01*
X0013613Y0166373D01*
X0013704Y0166502D01*
X0013799Y0166629D01*
X0013896Y0166754D01*
X0013997Y0166876D01*
X0014101Y0166995D01*
X0014208Y0167112D01*
X0014318Y0167226D01*
X0014431Y0167337D01*
X0014546Y0167446D01*
X0014664Y0167551D01*
X0014785Y0167653D01*
X0014908Y0167753D01*
X0015034Y0167849D01*
X0015162Y0167942D01*
X0015292Y0168032D01*
X0015425Y0168118D01*
X0015560Y0168202D01*
X0015696Y0168281D01*
X0015835Y0168358D01*
X0015976Y0168430D01*
X0016118Y0168500D01*
X0016262Y0168565D01*
X0016408Y0168627D01*
X0016555Y0168685D01*
X0016704Y0168740D01*
X0016854Y0168791D01*
X0017005Y0168838D01*
X0017157Y0168881D01*
X0017310Y0168920D01*
X0017465Y0168956D01*
X0017620Y0168987D01*
X0017776Y0169015D01*
X0017932Y0169039D01*
X0018089Y0169059D01*
X0018247Y0169075D01*
X0018404Y0169087D01*
X0018563Y0169095D01*
X0018721Y0169099D01*
X0018879Y0169099D01*
X0019037Y0169095D01*
X0019196Y0169087D01*
X0019353Y0169075D01*
X0019511Y0169059D01*
X0019668Y0169039D01*
X0019824Y0169015D01*
X0019980Y0168987D01*
X0020135Y0168956D01*
X0020290Y0168920D01*
X0020443Y0168881D01*
X0020595Y0168838D01*
X0020746Y0168791D01*
X0020896Y0168740D01*
X0021045Y0168685D01*
X0021192Y0168627D01*
X0021338Y0168565D01*
X0021482Y0168500D01*
X0021624Y0168430D01*
X0021765Y0168358D01*
X0021904Y0168281D01*
X0022040Y0168202D01*
X0022175Y0168118D01*
X0022308Y0168032D01*
X0022438Y0167942D01*
X0022566Y0167849D01*
X0022692Y0167753D01*
X0022815Y0167653D01*
X0022936Y0167551D01*
X0023054Y0167446D01*
X0023169Y0167337D01*
X0023282Y0167226D01*
X0023392Y0167112D01*
X0023499Y0166995D01*
X0023603Y0166876D01*
X0023704Y0166754D01*
X0023801Y0166629D01*
X0023896Y0166502D01*
X0023987Y0166373D01*
X0024076Y0166242D01*
X0024160Y0166108D01*
X0024242Y0165972D01*
X0024320Y0165835D01*
X0024394Y0165695D01*
X0024465Y0165553D01*
X0024533Y0165410D01*
X0024597Y0165265D01*
X0024657Y0165119D01*
X0024713Y0164971D01*
X0024766Y0164822D01*
X0024815Y0164671D01*
X0024860Y0164519D01*
X0024901Y0164366D01*
X0024939Y0164213D01*
X0024972Y0164058D01*
X0025002Y0163902D01*
X0025028Y0163746D01*
X0025049Y0163589D01*
X0025067Y0163432D01*
X0025081Y0163274D01*
X0025091Y0163116D01*
X0025097Y0162958D01*
X0025099Y0162800D01*
X0025097Y0162642D01*
X0025091Y0162484D01*
X0025081Y0162326D01*
X0025067Y0162168D01*
X0025049Y0162011D01*
X0025028Y0161854D01*
X0025002Y0161698D01*
X0024972Y0161542D01*
X0024939Y0161387D01*
X0024901Y0161234D01*
X0024860Y0161081D01*
X0024815Y0160929D01*
X0024766Y0160778D01*
X0024713Y0160629D01*
X0024657Y0160481D01*
X0024597Y0160335D01*
X0024533Y0160190D01*
X0024465Y0160047D01*
X0024394Y0159905D01*
X0024320Y0159765D01*
X0024242Y0159628D01*
X0024160Y0159492D01*
X0024076Y0159358D01*
X0023987Y0159227D01*
X0023896Y0159098D01*
X0023801Y0158971D01*
X0023704Y0158846D01*
X0023603Y0158724D01*
X0023499Y0158605D01*
X0023392Y0158488D01*
X0023282Y0158374D01*
X0023169Y0158263D01*
X0023054Y0158154D01*
X0022936Y0158049D01*
X0022815Y0157947D01*
X0022692Y0157847D01*
X0022566Y0157751D01*
X0022438Y0157658D01*
X0022308Y0157568D01*
X0022175Y0157482D01*
X0022040Y0157398D01*
X0021904Y0157319D01*
X0021765Y0157242D01*
X0021624Y0157170D01*
X0021482Y0157100D01*
X0021338Y0157035D01*
X0021192Y0156973D01*
X0021045Y0156915D01*
X0020896Y0156860D01*
X0020746Y0156809D01*
X0020595Y0156762D01*
X0020443Y0156719D01*
X0020290Y0156680D01*
X0020135Y0156644D01*
X0019980Y0156613D01*
X0019824Y0156585D01*
X0019668Y0156561D01*
X0019511Y0156541D01*
X0019353Y0156525D01*
X0019196Y0156513D01*
X0019037Y0156505D01*
X0018879Y0156501D01*
X0018721Y0156501D01*
X0018563Y0156505D01*
X0018404Y0156513D01*
X0018247Y0156525D01*
X0018089Y0156541D01*
X0017932Y0156561D01*
X0017776Y0156585D01*
X0017620Y0156613D01*
X0017465Y0156644D01*
X0017310Y0156680D01*
X0017157Y0156719D01*
X0017005Y0156762D01*
X0016854Y0156809D01*
X0016704Y0156860D01*
X0016555Y0156915D01*
X0016408Y0156973D01*
X0016262Y0157035D01*
X0016118Y0157100D01*
X0015976Y0157170D01*
X0015835Y0157242D01*
X0015696Y0157319D01*
X0015560Y0157398D01*
X0015425Y0157482D01*
X0015292Y0157568D01*
X0015162Y0157658D01*
X0015034Y0157751D01*
X0014908Y0157847D01*
X0014785Y0157947D01*
X0014664Y0158049D01*
X0014546Y0158154D01*
X0014431Y0158263D01*
X0014318Y0158374D01*
X0014208Y0158488D01*
X0014101Y0158605D01*
X0013997Y0158724D01*
X0013896Y0158846D01*
X0013799Y0158971D01*
X0013704Y0159098D01*
X0013613Y0159227D01*
X0013524Y0159358D01*
X0013440Y0159492D01*
X0013358Y0159628D01*
X0013280Y0159765D01*
X0013206Y0159905D01*
X0013135Y0160047D01*
X0013067Y0160190D01*
X0013003Y0160335D01*
X0012943Y0160481D01*
X0012887Y0160629D01*
X0012834Y0160778D01*
X0012785Y0160929D01*
X0012740Y0161081D01*
X0012699Y0161234D01*
X0012661Y0161387D01*
X0012628Y0161542D01*
X0012598Y0161698D01*
X0012572Y0161854D01*
X0012551Y0162011D01*
X0012533Y0162168D01*
X0012519Y0162326D01*
X0012509Y0162484D01*
X0012503Y0162642D01*
X0012501Y0162800D01*
X0158751Y0162550D02*
X0158753Y0162708D01*
X0158759Y0162866D01*
X0158769Y0163024D01*
X0158783Y0163182D01*
X0158801Y0163339D01*
X0158822Y0163496D01*
X0158848Y0163652D01*
X0158878Y0163808D01*
X0158911Y0163963D01*
X0158949Y0164116D01*
X0158990Y0164269D01*
X0159035Y0164421D01*
X0159084Y0164572D01*
X0159137Y0164721D01*
X0159193Y0164869D01*
X0159253Y0165015D01*
X0159317Y0165160D01*
X0159385Y0165303D01*
X0159456Y0165445D01*
X0159530Y0165585D01*
X0159608Y0165722D01*
X0159690Y0165858D01*
X0159774Y0165992D01*
X0159863Y0166123D01*
X0159954Y0166252D01*
X0160049Y0166379D01*
X0160146Y0166504D01*
X0160247Y0166626D01*
X0160351Y0166745D01*
X0160458Y0166862D01*
X0160568Y0166976D01*
X0160681Y0167087D01*
X0160796Y0167196D01*
X0160914Y0167301D01*
X0161035Y0167403D01*
X0161158Y0167503D01*
X0161284Y0167599D01*
X0161412Y0167692D01*
X0161542Y0167782D01*
X0161675Y0167868D01*
X0161810Y0167952D01*
X0161946Y0168031D01*
X0162085Y0168108D01*
X0162226Y0168180D01*
X0162368Y0168250D01*
X0162512Y0168315D01*
X0162658Y0168377D01*
X0162805Y0168435D01*
X0162954Y0168490D01*
X0163104Y0168541D01*
X0163255Y0168588D01*
X0163407Y0168631D01*
X0163560Y0168670D01*
X0163715Y0168706D01*
X0163870Y0168737D01*
X0164026Y0168765D01*
X0164182Y0168789D01*
X0164339Y0168809D01*
X0164497Y0168825D01*
X0164654Y0168837D01*
X0164813Y0168845D01*
X0164971Y0168849D01*
X0165129Y0168849D01*
X0165287Y0168845D01*
X0165446Y0168837D01*
X0165603Y0168825D01*
X0165761Y0168809D01*
X0165918Y0168789D01*
X0166074Y0168765D01*
X0166230Y0168737D01*
X0166385Y0168706D01*
X0166540Y0168670D01*
X0166693Y0168631D01*
X0166845Y0168588D01*
X0166996Y0168541D01*
X0167146Y0168490D01*
X0167295Y0168435D01*
X0167442Y0168377D01*
X0167588Y0168315D01*
X0167732Y0168250D01*
X0167874Y0168180D01*
X0168015Y0168108D01*
X0168154Y0168031D01*
X0168290Y0167952D01*
X0168425Y0167868D01*
X0168558Y0167782D01*
X0168688Y0167692D01*
X0168816Y0167599D01*
X0168942Y0167503D01*
X0169065Y0167403D01*
X0169186Y0167301D01*
X0169304Y0167196D01*
X0169419Y0167087D01*
X0169532Y0166976D01*
X0169642Y0166862D01*
X0169749Y0166745D01*
X0169853Y0166626D01*
X0169954Y0166504D01*
X0170051Y0166379D01*
X0170146Y0166252D01*
X0170237Y0166123D01*
X0170326Y0165992D01*
X0170410Y0165858D01*
X0170492Y0165722D01*
X0170570Y0165585D01*
X0170644Y0165445D01*
X0170715Y0165303D01*
X0170783Y0165160D01*
X0170847Y0165015D01*
X0170907Y0164869D01*
X0170963Y0164721D01*
X0171016Y0164572D01*
X0171065Y0164421D01*
X0171110Y0164269D01*
X0171151Y0164116D01*
X0171189Y0163963D01*
X0171222Y0163808D01*
X0171252Y0163652D01*
X0171278Y0163496D01*
X0171299Y0163339D01*
X0171317Y0163182D01*
X0171331Y0163024D01*
X0171341Y0162866D01*
X0171347Y0162708D01*
X0171349Y0162550D01*
X0171347Y0162392D01*
X0171341Y0162234D01*
X0171331Y0162076D01*
X0171317Y0161918D01*
X0171299Y0161761D01*
X0171278Y0161604D01*
X0171252Y0161448D01*
X0171222Y0161292D01*
X0171189Y0161137D01*
X0171151Y0160984D01*
X0171110Y0160831D01*
X0171065Y0160679D01*
X0171016Y0160528D01*
X0170963Y0160379D01*
X0170907Y0160231D01*
X0170847Y0160085D01*
X0170783Y0159940D01*
X0170715Y0159797D01*
X0170644Y0159655D01*
X0170570Y0159515D01*
X0170492Y0159378D01*
X0170410Y0159242D01*
X0170326Y0159108D01*
X0170237Y0158977D01*
X0170146Y0158848D01*
X0170051Y0158721D01*
X0169954Y0158596D01*
X0169853Y0158474D01*
X0169749Y0158355D01*
X0169642Y0158238D01*
X0169532Y0158124D01*
X0169419Y0158013D01*
X0169304Y0157904D01*
X0169186Y0157799D01*
X0169065Y0157697D01*
X0168942Y0157597D01*
X0168816Y0157501D01*
X0168688Y0157408D01*
X0168558Y0157318D01*
X0168425Y0157232D01*
X0168290Y0157148D01*
X0168154Y0157069D01*
X0168015Y0156992D01*
X0167874Y0156920D01*
X0167732Y0156850D01*
X0167588Y0156785D01*
X0167442Y0156723D01*
X0167295Y0156665D01*
X0167146Y0156610D01*
X0166996Y0156559D01*
X0166845Y0156512D01*
X0166693Y0156469D01*
X0166540Y0156430D01*
X0166385Y0156394D01*
X0166230Y0156363D01*
X0166074Y0156335D01*
X0165918Y0156311D01*
X0165761Y0156291D01*
X0165603Y0156275D01*
X0165446Y0156263D01*
X0165287Y0156255D01*
X0165129Y0156251D01*
X0164971Y0156251D01*
X0164813Y0156255D01*
X0164654Y0156263D01*
X0164497Y0156275D01*
X0164339Y0156291D01*
X0164182Y0156311D01*
X0164026Y0156335D01*
X0163870Y0156363D01*
X0163715Y0156394D01*
X0163560Y0156430D01*
X0163407Y0156469D01*
X0163255Y0156512D01*
X0163104Y0156559D01*
X0162954Y0156610D01*
X0162805Y0156665D01*
X0162658Y0156723D01*
X0162512Y0156785D01*
X0162368Y0156850D01*
X0162226Y0156920D01*
X0162085Y0156992D01*
X0161946Y0157069D01*
X0161810Y0157148D01*
X0161675Y0157232D01*
X0161542Y0157318D01*
X0161412Y0157408D01*
X0161284Y0157501D01*
X0161158Y0157597D01*
X0161035Y0157697D01*
X0160914Y0157799D01*
X0160796Y0157904D01*
X0160681Y0158013D01*
X0160568Y0158124D01*
X0160458Y0158238D01*
X0160351Y0158355D01*
X0160247Y0158474D01*
X0160146Y0158596D01*
X0160049Y0158721D01*
X0159954Y0158848D01*
X0159863Y0158977D01*
X0159774Y0159108D01*
X0159690Y0159242D01*
X0159608Y0159378D01*
X0159530Y0159515D01*
X0159456Y0159655D01*
X0159385Y0159797D01*
X0159317Y0159940D01*
X0159253Y0160085D01*
X0159193Y0160231D01*
X0159137Y0160379D01*
X0159084Y0160528D01*
X0159035Y0160679D01*
X0158990Y0160831D01*
X0158949Y0160984D01*
X0158911Y0161137D01*
X0158878Y0161292D01*
X0158848Y0161448D01*
X0158822Y0161604D01*
X0158801Y0161761D01*
X0158783Y0161918D01*
X0158769Y0162076D01*
X0158759Y0162234D01*
X0158753Y0162392D01*
X0158751Y0162550D01*
X0158751Y0016300D02*
X0158753Y0016458D01*
X0158759Y0016616D01*
X0158769Y0016774D01*
X0158783Y0016932D01*
X0158801Y0017089D01*
X0158822Y0017246D01*
X0158848Y0017402D01*
X0158878Y0017558D01*
X0158911Y0017713D01*
X0158949Y0017866D01*
X0158990Y0018019D01*
X0159035Y0018171D01*
X0159084Y0018322D01*
X0159137Y0018471D01*
X0159193Y0018619D01*
X0159253Y0018765D01*
X0159317Y0018910D01*
X0159385Y0019053D01*
X0159456Y0019195D01*
X0159530Y0019335D01*
X0159608Y0019472D01*
X0159690Y0019608D01*
X0159774Y0019742D01*
X0159863Y0019873D01*
X0159954Y0020002D01*
X0160049Y0020129D01*
X0160146Y0020254D01*
X0160247Y0020376D01*
X0160351Y0020495D01*
X0160458Y0020612D01*
X0160568Y0020726D01*
X0160681Y0020837D01*
X0160796Y0020946D01*
X0160914Y0021051D01*
X0161035Y0021153D01*
X0161158Y0021253D01*
X0161284Y0021349D01*
X0161412Y0021442D01*
X0161542Y0021532D01*
X0161675Y0021618D01*
X0161810Y0021702D01*
X0161946Y0021781D01*
X0162085Y0021858D01*
X0162226Y0021930D01*
X0162368Y0022000D01*
X0162512Y0022065D01*
X0162658Y0022127D01*
X0162805Y0022185D01*
X0162954Y0022240D01*
X0163104Y0022291D01*
X0163255Y0022338D01*
X0163407Y0022381D01*
X0163560Y0022420D01*
X0163715Y0022456D01*
X0163870Y0022487D01*
X0164026Y0022515D01*
X0164182Y0022539D01*
X0164339Y0022559D01*
X0164497Y0022575D01*
X0164654Y0022587D01*
X0164813Y0022595D01*
X0164971Y0022599D01*
X0165129Y0022599D01*
X0165287Y0022595D01*
X0165446Y0022587D01*
X0165603Y0022575D01*
X0165761Y0022559D01*
X0165918Y0022539D01*
X0166074Y0022515D01*
X0166230Y0022487D01*
X0166385Y0022456D01*
X0166540Y0022420D01*
X0166693Y0022381D01*
X0166845Y0022338D01*
X0166996Y0022291D01*
X0167146Y0022240D01*
X0167295Y0022185D01*
X0167442Y0022127D01*
X0167588Y0022065D01*
X0167732Y0022000D01*
X0167874Y0021930D01*
X0168015Y0021858D01*
X0168154Y0021781D01*
X0168290Y0021702D01*
X0168425Y0021618D01*
X0168558Y0021532D01*
X0168688Y0021442D01*
X0168816Y0021349D01*
X0168942Y0021253D01*
X0169065Y0021153D01*
X0169186Y0021051D01*
X0169304Y0020946D01*
X0169419Y0020837D01*
X0169532Y0020726D01*
X0169642Y0020612D01*
X0169749Y0020495D01*
X0169853Y0020376D01*
X0169954Y0020254D01*
X0170051Y0020129D01*
X0170146Y0020002D01*
X0170237Y0019873D01*
X0170326Y0019742D01*
X0170410Y0019608D01*
X0170492Y0019472D01*
X0170570Y0019335D01*
X0170644Y0019195D01*
X0170715Y0019053D01*
X0170783Y0018910D01*
X0170847Y0018765D01*
X0170907Y0018619D01*
X0170963Y0018471D01*
X0171016Y0018322D01*
X0171065Y0018171D01*
X0171110Y0018019D01*
X0171151Y0017866D01*
X0171189Y0017713D01*
X0171222Y0017558D01*
X0171252Y0017402D01*
X0171278Y0017246D01*
X0171299Y0017089D01*
X0171317Y0016932D01*
X0171331Y0016774D01*
X0171341Y0016616D01*
X0171347Y0016458D01*
X0171349Y0016300D01*
X0171347Y0016142D01*
X0171341Y0015984D01*
X0171331Y0015826D01*
X0171317Y0015668D01*
X0171299Y0015511D01*
X0171278Y0015354D01*
X0171252Y0015198D01*
X0171222Y0015042D01*
X0171189Y0014887D01*
X0171151Y0014734D01*
X0171110Y0014581D01*
X0171065Y0014429D01*
X0171016Y0014278D01*
X0170963Y0014129D01*
X0170907Y0013981D01*
X0170847Y0013835D01*
X0170783Y0013690D01*
X0170715Y0013547D01*
X0170644Y0013405D01*
X0170570Y0013265D01*
X0170492Y0013128D01*
X0170410Y0012992D01*
X0170326Y0012858D01*
X0170237Y0012727D01*
X0170146Y0012598D01*
X0170051Y0012471D01*
X0169954Y0012346D01*
X0169853Y0012224D01*
X0169749Y0012105D01*
X0169642Y0011988D01*
X0169532Y0011874D01*
X0169419Y0011763D01*
X0169304Y0011654D01*
X0169186Y0011549D01*
X0169065Y0011447D01*
X0168942Y0011347D01*
X0168816Y0011251D01*
X0168688Y0011158D01*
X0168558Y0011068D01*
X0168425Y0010982D01*
X0168290Y0010898D01*
X0168154Y0010819D01*
X0168015Y0010742D01*
X0167874Y0010670D01*
X0167732Y0010600D01*
X0167588Y0010535D01*
X0167442Y0010473D01*
X0167295Y0010415D01*
X0167146Y0010360D01*
X0166996Y0010309D01*
X0166845Y0010262D01*
X0166693Y0010219D01*
X0166540Y0010180D01*
X0166385Y0010144D01*
X0166230Y0010113D01*
X0166074Y0010085D01*
X0165918Y0010061D01*
X0165761Y0010041D01*
X0165603Y0010025D01*
X0165446Y0010013D01*
X0165287Y0010005D01*
X0165129Y0010001D01*
X0164971Y0010001D01*
X0164813Y0010005D01*
X0164654Y0010013D01*
X0164497Y0010025D01*
X0164339Y0010041D01*
X0164182Y0010061D01*
X0164026Y0010085D01*
X0163870Y0010113D01*
X0163715Y0010144D01*
X0163560Y0010180D01*
X0163407Y0010219D01*
X0163255Y0010262D01*
X0163104Y0010309D01*
X0162954Y0010360D01*
X0162805Y0010415D01*
X0162658Y0010473D01*
X0162512Y0010535D01*
X0162368Y0010600D01*
X0162226Y0010670D01*
X0162085Y0010742D01*
X0161946Y0010819D01*
X0161810Y0010898D01*
X0161675Y0010982D01*
X0161542Y0011068D01*
X0161412Y0011158D01*
X0161284Y0011251D01*
X0161158Y0011347D01*
X0161035Y0011447D01*
X0160914Y0011549D01*
X0160796Y0011654D01*
X0160681Y0011763D01*
X0160568Y0011874D01*
X0160458Y0011988D01*
X0160351Y0012105D01*
X0160247Y0012224D01*
X0160146Y0012346D01*
X0160049Y0012471D01*
X0159954Y0012598D01*
X0159863Y0012727D01*
X0159774Y0012858D01*
X0159690Y0012992D01*
X0159608Y0013128D01*
X0159530Y0013265D01*
X0159456Y0013405D01*
X0159385Y0013547D01*
X0159317Y0013690D01*
X0159253Y0013835D01*
X0159193Y0013981D01*
X0159137Y0014129D01*
X0159084Y0014278D01*
X0159035Y0014429D01*
X0158990Y0014581D01*
X0158949Y0014734D01*
X0158911Y0014887D01*
X0158878Y0015042D01*
X0158848Y0015198D01*
X0158822Y0015354D01*
X0158801Y0015511D01*
X0158783Y0015668D01*
X0158769Y0015826D01*
X0158759Y0015984D01*
X0158753Y0016142D01*
X0158751Y0016300D01*
D11*
X0130200Y0016702D02*
X0127898Y0014400D01*
X0130200Y0016702D02*
X0130200Y0021306D01*
X0127898Y0023608D01*
X0125596Y0023608D01*
X0123294Y0021306D01*
X0123294Y0016702D01*
X0120992Y0014400D01*
X0118690Y0014400D01*
X0116388Y0016702D01*
X0116388Y0021306D01*
X0118690Y0023608D01*
X0120992Y0028212D02*
X0120992Y0032816D01*
X0118690Y0030514D02*
X0127898Y0030514D01*
X0130200Y0032816D01*
X0127898Y0037420D02*
X0123294Y0037420D01*
X0120992Y0039722D01*
X0120992Y0044326D01*
X0123294Y0046628D01*
X0125596Y0046628D01*
X0125596Y0037420D01*
X0127898Y0037420D02*
X0130200Y0039722D01*
X0130200Y0044326D01*
X0130200Y0051231D02*
X0130200Y0058137D01*
X0127898Y0060439D01*
X0123294Y0060439D01*
X0120992Y0058137D01*
X0120992Y0051231D01*
X0134804Y0051231D01*
X0127898Y0065043D02*
X0130200Y0067345D01*
X0130200Y0071949D01*
X0127898Y0074251D01*
X0125596Y0074251D01*
X0123294Y0071949D01*
X0123294Y0067345D01*
X0120992Y0065043D01*
X0118690Y0065043D01*
X0116388Y0067345D01*
X0116388Y0071949D01*
X0118690Y0074251D01*
X0123294Y0078855D02*
X0120992Y0081157D01*
X0120992Y0085761D01*
X0123294Y0088063D01*
X0125596Y0088063D01*
X0125596Y0078855D01*
X0127898Y0078855D02*
X0123294Y0078855D01*
X0127898Y0078855D02*
X0130200Y0081157D01*
X0130200Y0085761D01*
X0130200Y0092667D02*
X0120992Y0092667D01*
X0120992Y0097271D02*
X0120992Y0099573D01*
X0120992Y0097271D02*
X0125596Y0092667D01*
X0120992Y0104177D02*
X0130200Y0108781D01*
X0120992Y0113385D01*
X0123294Y0117988D02*
X0127898Y0117988D01*
X0130200Y0120290D01*
X0130200Y0124894D01*
X0127898Y0127196D01*
X0123294Y0127196D01*
X0120992Y0124894D01*
X0120992Y0120290D01*
X0123294Y0117988D01*
X0176300Y0131300D02*
X0176300Y0091300D01*
D12*
X0005300Y0174800D02*
X0005300Y0004800D01*
X0176800Y0004800D01*
X0176300Y0174300D01*
X0175800Y0174800D01*
X0005300Y0174800D01*
X0024912Y0148266D02*
X0029582Y0143595D01*
X0030750Y0144763D01*
X0030750Y0147098D01*
X0029582Y0148266D01*
X0024912Y0148266D01*
X0023744Y0147098D01*
X0023744Y0144763D01*
X0024912Y0143595D01*
X0029582Y0143595D01*
X0029582Y0141264D02*
X0030750Y0141264D01*
X0030750Y0140096D01*
X0029582Y0140096D01*
X0029582Y0141264D01*
X0030750Y0137769D02*
X0030750Y0133098D01*
X0028415Y0130771D02*
X0023744Y0130771D01*
X0026079Y0133098D02*
X0023744Y0135433D01*
X0030750Y0135433D01*
X0028415Y0130771D02*
X0030750Y0128435D01*
X0028415Y0126100D01*
X0023744Y0126100D01*
X0019300Y0128300D02*
X0019300Y0123300D01*
X0016800Y0120800D01*
X0011800Y0120800D01*
X0009300Y0123300D01*
X0009300Y0128300D01*
X0011800Y0130800D01*
X0009300Y0133300D01*
X0009300Y0138300D01*
X0011800Y0140800D01*
X0016800Y0140800D01*
X0019300Y0138300D01*
X0019300Y0133300D01*
X0016800Y0130800D01*
X0019300Y0128300D01*
X0016800Y0130800D02*
X0011800Y0130800D01*
X0011800Y0120800D02*
X0009300Y0118300D01*
X0009300Y0113300D01*
X0011800Y0110800D01*
X0009300Y0108300D01*
X0009300Y0103300D01*
X0011800Y0100800D01*
X0009300Y0098300D01*
X0009300Y0093300D01*
X0011800Y0090800D01*
X0009300Y0088300D01*
X0009300Y0083300D01*
X0011800Y0080800D01*
X0016800Y0080800D01*
X0019300Y0083300D01*
X0019300Y0088300D01*
X0016800Y0090800D01*
X0011800Y0090800D01*
X0016800Y0090800D02*
X0019300Y0093300D01*
X0019300Y0098300D01*
X0016800Y0100800D01*
X0011800Y0100800D01*
X0016800Y0100800D02*
X0019300Y0103300D01*
X0019300Y0108300D01*
X0016800Y0110800D01*
X0011800Y0110800D01*
X0016800Y0110800D02*
X0019300Y0113300D01*
X0019300Y0118300D01*
X0016800Y0120800D01*
X0052826Y0104593D02*
X0053994Y0104593D01*
X0056329Y0104593D02*
X0061000Y0104593D01*
X0061000Y0103426D02*
X0061000Y0105761D01*
X0062576Y0104091D02*
X0063744Y0104091D01*
X0066079Y0104091D02*
X0066079Y0102924D01*
X0066079Y0104091D02*
X0070750Y0104091D01*
X0070750Y0102924D02*
X0070750Y0105259D01*
X0069582Y0107589D02*
X0070750Y0108756D01*
X0070750Y0112259D01*
X0070750Y0114587D02*
X0066079Y0114587D01*
X0066079Y0112259D02*
X0066079Y0108756D01*
X0067247Y0107589D01*
X0069582Y0107589D01*
X0073744Y0104761D02*
X0076079Y0107097D01*
X0078415Y0107097D01*
X0080750Y0104761D01*
X0078415Y0102434D02*
X0080750Y0100099D01*
X0078415Y0097763D01*
X0073744Y0097763D01*
X0073744Y0095436D02*
X0073744Y0090765D01*
X0077247Y0090765D01*
X0076079Y0093101D01*
X0076079Y0094268D01*
X0077247Y0095436D01*
X0079582Y0095436D01*
X0080750Y0094268D01*
X0080750Y0091933D01*
X0079582Y0090765D01*
X0080750Y0088435D02*
X0078415Y0086100D01*
X0076079Y0086100D01*
X0073744Y0088435D01*
X0070750Y0085433D02*
X0069582Y0086600D01*
X0067247Y0086600D01*
X0066079Y0085433D01*
X0066079Y0083097D01*
X0067247Y0081930D01*
X0069582Y0081930D01*
X0070750Y0083097D01*
X0070750Y0085433D01*
X0066079Y0079601D02*
X0066079Y0078433D01*
X0068415Y0076098D01*
X0070750Y0076098D02*
X0066079Y0076098D01*
X0064912Y0073771D02*
X0067247Y0073771D01*
X0068415Y0072603D01*
X0068415Y0069100D01*
X0070750Y0069100D02*
X0063744Y0069100D01*
X0063744Y0072603D01*
X0064912Y0073771D01*
X0061000Y0076600D02*
X0056329Y0076600D01*
X0053994Y0078935D01*
X0056329Y0081271D01*
X0061000Y0081271D01*
X0061000Y0083598D02*
X0056329Y0083598D01*
X0056329Y0085933D02*
X0056329Y0087101D01*
X0056329Y0085933D02*
X0058665Y0083598D01*
X0057497Y0081271D02*
X0057497Y0076600D01*
X0057497Y0089430D02*
X0056329Y0090597D01*
X0056329Y0094100D01*
X0053994Y0094100D02*
X0061000Y0094100D01*
X0061000Y0090597D01*
X0059832Y0089430D01*
X0057497Y0089430D01*
X0056329Y0096428D02*
X0059832Y0096428D01*
X0061000Y0097595D01*
X0061000Y0101098D01*
X0056329Y0101098D01*
X0056329Y0103426D02*
X0056329Y0104593D01*
X0056329Y0108091D02*
X0056329Y0111594D01*
X0057497Y0112762D01*
X0061000Y0112762D01*
X0059832Y0115089D02*
X0061000Y0116256D01*
X0061000Y0118592D01*
X0059832Y0119759D01*
X0057497Y0119759D01*
X0056329Y0118592D01*
X0056329Y0116256D01*
X0057497Y0115089D01*
X0059832Y0115089D01*
X0066079Y0116922D02*
X0066079Y0118090D01*
X0066079Y0116922D02*
X0068415Y0114587D01*
X0067247Y0120418D02*
X0069582Y0120418D01*
X0070750Y0121586D01*
X0070750Y0123921D01*
X0069582Y0125089D01*
X0067247Y0125089D01*
X0066079Y0123921D01*
X0066079Y0121586D01*
X0067247Y0120418D01*
X0061000Y0108091D02*
X0056329Y0108091D01*
X0063744Y0100596D02*
X0070750Y0100596D01*
X0073744Y0102434D02*
X0078415Y0102434D01*
X0070750Y0095926D02*
X0063744Y0095926D01*
X0066079Y0098261D01*
X0063744Y0100596D01*
X0120800Y0136300D02*
X0122300Y0136300D01*
X0122800Y0136800D01*
X0141800Y0136800D01*
X0142300Y0136300D01*
X0143800Y0136300D01*
X0141800Y0144800D02*
X0122800Y0144800D01*
X0122300Y0145300D01*
X0120800Y0145300D01*
X0122779Y0162000D02*
X0118108Y0162000D01*
X0122779Y0166671D01*
X0122779Y0167838D01*
X0121611Y0169006D01*
X0119276Y0169006D01*
X0118108Y0167838D01*
X0115781Y0162000D02*
X0111110Y0162000D01*
X0111110Y0169006D01*
X0125106Y0167838D02*
X0125106Y0166671D01*
X0126274Y0165503D01*
X0129777Y0165503D01*
X0129777Y0167838D02*
X0128609Y0169006D01*
X0126274Y0169006D01*
X0125106Y0167838D01*
X0125106Y0163168D02*
X0126274Y0162000D01*
X0128609Y0162000D01*
X0129777Y0163168D01*
X0129777Y0167838D01*
X0132104Y0167838D02*
X0132104Y0166671D01*
X0133272Y0165503D01*
X0135607Y0165503D01*
X0136775Y0164335D01*
X0136775Y0163168D01*
X0135607Y0162000D01*
X0133272Y0162000D01*
X0132104Y0163168D01*
X0132104Y0164335D01*
X0133272Y0165503D01*
X0132104Y0167838D02*
X0133272Y0169006D01*
X0135607Y0169006D01*
X0136775Y0167838D01*
X0136775Y0166671D01*
X0135607Y0165503D01*
X0139102Y0162000D02*
X0139102Y0169006D01*
X0143773Y0162000D01*
X0143773Y0169006D01*
X0143800Y0145300D02*
X0142300Y0145300D01*
X0141800Y0144800D01*
X0168800Y0091300D02*
X0173800Y0091300D01*
X0176300Y0088800D01*
X0176300Y0083800D01*
X0173800Y0081300D01*
X0176300Y0078800D01*
X0176300Y0073800D01*
X0173800Y0071300D01*
X0176300Y0068800D01*
X0176300Y0063800D01*
X0173800Y0061300D01*
X0168800Y0061300D01*
X0166300Y0063800D01*
X0166300Y0068800D01*
X0168800Y0071300D01*
X0166300Y0073800D01*
X0166300Y0078800D01*
X0168800Y0081300D01*
X0166300Y0083800D01*
X0166300Y0088800D01*
X0168800Y0091300D01*
X0168800Y0081300D02*
X0173800Y0081300D01*
X0173800Y0071300D02*
X0168800Y0071300D01*
D13*
X0146698Y0155000D02*
X0145163Y0155000D01*
X0144396Y0155767D01*
X0144396Y0157302D01*
X0145163Y0158069D01*
X0146698Y0158069D01*
X0147465Y0157302D01*
X0147465Y0156535D01*
X0144396Y0156535D01*
X0142861Y0158069D02*
X0142094Y0158069D01*
X0140559Y0156535D01*
X0139025Y0156535D02*
X0135955Y0156535D01*
X0135955Y0157302D02*
X0136723Y0158069D01*
X0138257Y0158069D01*
X0139025Y0157302D01*
X0139025Y0156535D01*
X0138257Y0155000D02*
X0136723Y0155000D01*
X0135955Y0155767D01*
X0135955Y0157302D01*
X0134421Y0157302D02*
X0131352Y0157302D01*
X0131352Y0155000D02*
X0131352Y0159604D01*
X0134421Y0159604D02*
X0134421Y0155000D01*
X0140559Y0155000D02*
X0140559Y0158069D01*
X0125213Y0158069D02*
X0122911Y0158069D01*
X0122144Y0157302D01*
X0122911Y0156535D01*
X0124446Y0156535D01*
X0125213Y0155767D01*
X0124446Y0155000D01*
X0122144Y0155000D01*
X0120609Y0156535D02*
X0117540Y0156535D01*
X0117540Y0157302D02*
X0118307Y0158069D01*
X0119842Y0158069D01*
X0120609Y0157302D01*
X0120609Y0156535D01*
X0119842Y0155000D02*
X0118307Y0155000D01*
X0117540Y0155767D01*
X0117540Y0157302D01*
X0116005Y0157302D02*
X0116005Y0155767D01*
X0115238Y0155000D01*
X0113703Y0155000D01*
X0112936Y0155767D01*
X0112936Y0157302D01*
X0113703Y0158069D01*
X0115238Y0158069D01*
X0116005Y0157302D01*
X0111401Y0157302D02*
X0111401Y0155767D01*
X0110634Y0155000D01*
X0109099Y0155000D01*
X0108332Y0155767D01*
X0108332Y0158837D01*
X0109099Y0159604D01*
X0110634Y0159604D01*
X0111401Y0158837D01*
X0111401Y0157302D02*
X0109867Y0157302D01*
X0023100Y0071901D02*
X0023100Y0068831D01*
X0018496Y0068831D01*
X0018496Y0071901D01*
X0020798Y0070366D02*
X0020798Y0068831D01*
X0020798Y0067297D02*
X0019263Y0067297D01*
X0018496Y0066529D01*
X0018496Y0064227D01*
X0023100Y0064227D01*
X0023100Y0062693D02*
X0023100Y0059624D01*
X0018496Y0059624D01*
X0018496Y0062693D01*
X0020798Y0061158D02*
X0020798Y0059624D01*
X0020798Y0058089D02*
X0020798Y0055020D01*
X0023100Y0055020D02*
X0018496Y0055020D01*
X0015600Y0055020D02*
X0015600Y0056554D01*
X0015600Y0055787D02*
X0010996Y0055787D01*
X0010996Y0055020D02*
X0010996Y0056554D01*
X0010996Y0058089D02*
X0015600Y0061158D01*
X0010996Y0061158D01*
X0010996Y0062693D02*
X0015600Y0062693D01*
X0014065Y0062693D02*
X0010996Y0065762D01*
X0013298Y0063460D02*
X0015600Y0065762D01*
X0020798Y0067297D02*
X0021565Y0066529D01*
X0021565Y0064227D01*
X0021565Y0065762D02*
X0023100Y0067297D01*
X0023100Y0058089D02*
X0018496Y0058089D01*
X0015600Y0058089D02*
X0010996Y0058089D01*
X0011763Y0053485D02*
X0010996Y0052718D01*
X0010996Y0051183D01*
X0011763Y0050416D01*
X0012531Y0050416D01*
X0013298Y0051183D01*
X0013298Y0052718D01*
X0014065Y0053485D01*
X0014833Y0053485D01*
X0015600Y0052718D01*
X0015600Y0051183D01*
X0014833Y0050416D01*
X0015600Y0047346D02*
X0010996Y0047346D01*
X0010996Y0045812D02*
X0010996Y0048881D01*
X0012531Y0044277D02*
X0015600Y0044277D01*
X0013298Y0044277D02*
X0013298Y0041208D01*
X0012531Y0041208D02*
X0010996Y0042742D01*
X0012531Y0044277D01*
X0012531Y0041208D02*
X0015600Y0041208D01*
X0015600Y0039673D02*
X0015600Y0036604D01*
X0010996Y0036604D01*
X0010996Y0039673D01*
X0013298Y0038139D02*
X0013298Y0036604D01*
X0013298Y0035069D02*
X0013298Y0032000D01*
X0015600Y0032000D02*
X0010996Y0032000D01*
X0010996Y0035069D02*
X0015600Y0035069D01*
X0018496Y0034302D02*
X0018496Y0032767D01*
X0019263Y0032000D01*
X0022333Y0032000D01*
X0023100Y0032767D01*
X0023100Y0034302D01*
X0022333Y0035069D01*
X0020798Y0035069D01*
X0020798Y0033535D01*
X0019263Y0035069D02*
X0018496Y0034302D01*
X0019263Y0036604D02*
X0022333Y0036604D01*
X0023100Y0037371D01*
X0023100Y0038906D01*
X0022333Y0039673D01*
X0019263Y0039673D01*
X0018496Y0038906D01*
X0018496Y0037371D01*
X0019263Y0036604D01*
X0018496Y0041208D02*
X0023100Y0041208D01*
X0023100Y0044277D01*
X0022333Y0045812D02*
X0023100Y0046579D01*
X0023100Y0048114D01*
X0022333Y0048881D01*
X0021565Y0048881D01*
X0020798Y0048114D01*
X0020798Y0046579D01*
X0020031Y0045812D01*
X0019263Y0045812D01*
X0018496Y0046579D01*
X0018496Y0048114D01*
X0019263Y0048881D01*
X0018496Y0044277D02*
X0018496Y0041208D01*
X0020798Y0041208D02*
X0020798Y0042742D01*
D14*
X0008492Y0016300D02*
X0008495Y0016553D01*
X0008504Y0016806D01*
X0008520Y0017058D01*
X0008542Y0017310D01*
X0008570Y0017562D01*
X0008604Y0017812D01*
X0008644Y0018062D01*
X0008690Y0018311D01*
X0008742Y0018558D01*
X0008801Y0018805D01*
X0008865Y0019049D01*
X0008936Y0019292D01*
X0009012Y0019533D01*
X0009095Y0019773D01*
X0009183Y0020010D01*
X0009277Y0020245D01*
X0009376Y0020477D01*
X0009482Y0020707D01*
X0009593Y0020935D01*
X0009709Y0021159D01*
X0009831Y0021381D01*
X0009959Y0021599D01*
X0010091Y0021815D01*
X0010229Y0022027D01*
X0010372Y0022235D01*
X0010521Y0022440D01*
X0010674Y0022642D01*
X0010832Y0022839D01*
X0010995Y0023033D01*
X0011162Y0023222D01*
X0011334Y0023408D01*
X0011511Y0023589D01*
X0011692Y0023766D01*
X0011878Y0023938D01*
X0012067Y0024105D01*
X0012261Y0024268D01*
X0012458Y0024426D01*
X0012660Y0024579D01*
X0012865Y0024728D01*
X0013073Y0024871D01*
X0013285Y0025009D01*
X0013501Y0025141D01*
X0013719Y0025269D01*
X0013941Y0025391D01*
X0014165Y0025507D01*
X0014393Y0025618D01*
X0014623Y0025724D01*
X0014855Y0025823D01*
X0015090Y0025917D01*
X0015327Y0026005D01*
X0015567Y0026088D01*
X0015808Y0026164D01*
X0016051Y0026235D01*
X0016295Y0026299D01*
X0016542Y0026358D01*
X0016789Y0026410D01*
X0017038Y0026456D01*
X0017288Y0026496D01*
X0017538Y0026530D01*
X0017790Y0026558D01*
X0018042Y0026580D01*
X0018294Y0026596D01*
X0018547Y0026605D01*
X0018800Y0026608D01*
X0019053Y0026605D01*
X0019306Y0026596D01*
X0019558Y0026580D01*
X0019810Y0026558D01*
X0020062Y0026530D01*
X0020312Y0026496D01*
X0020562Y0026456D01*
X0020811Y0026410D01*
X0021058Y0026358D01*
X0021305Y0026299D01*
X0021549Y0026235D01*
X0021792Y0026164D01*
X0022033Y0026088D01*
X0022273Y0026005D01*
X0022510Y0025917D01*
X0022745Y0025823D01*
X0022977Y0025724D01*
X0023207Y0025618D01*
X0023435Y0025507D01*
X0023659Y0025391D01*
X0023881Y0025269D01*
X0024099Y0025141D01*
X0024315Y0025009D01*
X0024527Y0024871D01*
X0024735Y0024728D01*
X0024940Y0024579D01*
X0025142Y0024426D01*
X0025339Y0024268D01*
X0025533Y0024105D01*
X0025722Y0023938D01*
X0025908Y0023766D01*
X0026089Y0023589D01*
X0026266Y0023408D01*
X0026438Y0023222D01*
X0026605Y0023033D01*
X0026768Y0022839D01*
X0026926Y0022642D01*
X0027079Y0022440D01*
X0027228Y0022235D01*
X0027371Y0022027D01*
X0027509Y0021815D01*
X0027641Y0021599D01*
X0027769Y0021381D01*
X0027891Y0021159D01*
X0028007Y0020935D01*
X0028118Y0020707D01*
X0028224Y0020477D01*
X0028323Y0020245D01*
X0028417Y0020010D01*
X0028505Y0019773D01*
X0028588Y0019533D01*
X0028664Y0019292D01*
X0028735Y0019049D01*
X0028799Y0018805D01*
X0028858Y0018558D01*
X0028910Y0018311D01*
X0028956Y0018062D01*
X0028996Y0017812D01*
X0029030Y0017562D01*
X0029058Y0017310D01*
X0029080Y0017058D01*
X0029096Y0016806D01*
X0029105Y0016553D01*
X0029108Y0016300D01*
X0029105Y0016047D01*
X0029096Y0015794D01*
X0029080Y0015542D01*
X0029058Y0015290D01*
X0029030Y0015038D01*
X0028996Y0014788D01*
X0028956Y0014538D01*
X0028910Y0014289D01*
X0028858Y0014042D01*
X0028799Y0013795D01*
X0028735Y0013551D01*
X0028664Y0013308D01*
X0028588Y0013067D01*
X0028505Y0012827D01*
X0028417Y0012590D01*
X0028323Y0012355D01*
X0028224Y0012123D01*
X0028118Y0011893D01*
X0028007Y0011665D01*
X0027891Y0011441D01*
X0027769Y0011219D01*
X0027641Y0011001D01*
X0027509Y0010785D01*
X0027371Y0010573D01*
X0027228Y0010365D01*
X0027079Y0010160D01*
X0026926Y0009958D01*
X0026768Y0009761D01*
X0026605Y0009567D01*
X0026438Y0009378D01*
X0026266Y0009192D01*
X0026089Y0009011D01*
X0025908Y0008834D01*
X0025722Y0008662D01*
X0025533Y0008495D01*
X0025339Y0008332D01*
X0025142Y0008174D01*
X0024940Y0008021D01*
X0024735Y0007872D01*
X0024527Y0007729D01*
X0024315Y0007591D01*
X0024099Y0007459D01*
X0023881Y0007331D01*
X0023659Y0007209D01*
X0023435Y0007093D01*
X0023207Y0006982D01*
X0022977Y0006876D01*
X0022745Y0006777D01*
X0022510Y0006683D01*
X0022273Y0006595D01*
X0022033Y0006512D01*
X0021792Y0006436D01*
X0021549Y0006365D01*
X0021305Y0006301D01*
X0021058Y0006242D01*
X0020811Y0006190D01*
X0020562Y0006144D01*
X0020312Y0006104D01*
X0020062Y0006070D01*
X0019810Y0006042D01*
X0019558Y0006020D01*
X0019306Y0006004D01*
X0019053Y0005995D01*
X0018800Y0005992D01*
X0018547Y0005995D01*
X0018294Y0006004D01*
X0018042Y0006020D01*
X0017790Y0006042D01*
X0017538Y0006070D01*
X0017288Y0006104D01*
X0017038Y0006144D01*
X0016789Y0006190D01*
X0016542Y0006242D01*
X0016295Y0006301D01*
X0016051Y0006365D01*
X0015808Y0006436D01*
X0015567Y0006512D01*
X0015327Y0006595D01*
X0015090Y0006683D01*
X0014855Y0006777D01*
X0014623Y0006876D01*
X0014393Y0006982D01*
X0014165Y0007093D01*
X0013941Y0007209D01*
X0013719Y0007331D01*
X0013501Y0007459D01*
X0013285Y0007591D01*
X0013073Y0007729D01*
X0012865Y0007872D01*
X0012660Y0008021D01*
X0012458Y0008174D01*
X0012261Y0008332D01*
X0012067Y0008495D01*
X0011878Y0008662D01*
X0011692Y0008834D01*
X0011511Y0009011D01*
X0011334Y0009192D01*
X0011162Y0009378D01*
X0010995Y0009567D01*
X0010832Y0009761D01*
X0010674Y0009958D01*
X0010521Y0010160D01*
X0010372Y0010365D01*
X0010229Y0010573D01*
X0010091Y0010785D01*
X0009959Y0011001D01*
X0009831Y0011219D01*
X0009709Y0011441D01*
X0009593Y0011665D01*
X0009482Y0011893D01*
X0009376Y0012123D01*
X0009277Y0012355D01*
X0009183Y0012590D01*
X0009095Y0012827D01*
X0009012Y0013067D01*
X0008936Y0013308D01*
X0008865Y0013551D01*
X0008801Y0013795D01*
X0008742Y0014042D01*
X0008690Y0014289D01*
X0008644Y0014538D01*
X0008604Y0014788D01*
X0008570Y0015038D01*
X0008542Y0015290D01*
X0008520Y0015542D01*
X0008504Y0015794D01*
X0008495Y0016047D01*
X0008492Y0016300D01*
X0008300Y0005800D02*
X0008300Y0172300D01*
X0007800Y0172550D02*
X0175050Y0172550D01*
X0175050Y0150050D01*
X0154972Y0162550D02*
X0154975Y0162797D01*
X0154984Y0163045D01*
X0154999Y0163291D01*
X0155021Y0163538D01*
X0155048Y0163784D01*
X0155081Y0164029D01*
X0155120Y0164273D01*
X0155166Y0164516D01*
X0155217Y0164758D01*
X0155274Y0164999D01*
X0155337Y0165238D01*
X0155406Y0165475D01*
X0155481Y0165711D01*
X0155561Y0165945D01*
X0155647Y0166177D01*
X0155739Y0166407D01*
X0155837Y0166634D01*
X0155940Y0166859D01*
X0156048Y0167081D01*
X0156162Y0167301D01*
X0156281Y0167517D01*
X0156406Y0167731D01*
X0156536Y0167942D01*
X0156670Y0168149D01*
X0156810Y0168353D01*
X0156955Y0168553D01*
X0157105Y0168750D01*
X0157260Y0168943D01*
X0157419Y0169133D01*
X0157583Y0169318D01*
X0157751Y0169499D01*
X0157924Y0169676D01*
X0158101Y0169849D01*
X0158282Y0170017D01*
X0158467Y0170181D01*
X0158657Y0170340D01*
X0158850Y0170495D01*
X0159047Y0170645D01*
X0159247Y0170790D01*
X0159451Y0170930D01*
X0159658Y0171064D01*
X0159869Y0171194D01*
X0160083Y0171319D01*
X0160299Y0171438D01*
X0160519Y0171552D01*
X0160741Y0171660D01*
X0160966Y0171763D01*
X0161193Y0171861D01*
X0161423Y0171953D01*
X0161655Y0172039D01*
X0161889Y0172119D01*
X0162125Y0172194D01*
X0162362Y0172263D01*
X0162601Y0172326D01*
X0162842Y0172383D01*
X0163084Y0172434D01*
X0163327Y0172480D01*
X0163571Y0172519D01*
X0163816Y0172552D01*
X0164062Y0172579D01*
X0164309Y0172601D01*
X0164555Y0172616D01*
X0164803Y0172625D01*
X0165050Y0172628D01*
X0165297Y0172625D01*
X0165545Y0172616D01*
X0165791Y0172601D01*
X0166038Y0172579D01*
X0166284Y0172552D01*
X0166529Y0172519D01*
X0166773Y0172480D01*
X0167016Y0172434D01*
X0167258Y0172383D01*
X0167499Y0172326D01*
X0167738Y0172263D01*
X0167975Y0172194D01*
X0168211Y0172119D01*
X0168445Y0172039D01*
X0168677Y0171953D01*
X0168907Y0171861D01*
X0169134Y0171763D01*
X0169359Y0171660D01*
X0169581Y0171552D01*
X0169801Y0171438D01*
X0170017Y0171319D01*
X0170231Y0171194D01*
X0170442Y0171064D01*
X0170649Y0170930D01*
X0170853Y0170790D01*
X0171053Y0170645D01*
X0171250Y0170495D01*
X0171443Y0170340D01*
X0171633Y0170181D01*
X0171818Y0170017D01*
X0171999Y0169849D01*
X0172176Y0169676D01*
X0172349Y0169499D01*
X0172517Y0169318D01*
X0172681Y0169133D01*
X0172840Y0168943D01*
X0172995Y0168750D01*
X0173145Y0168553D01*
X0173290Y0168353D01*
X0173430Y0168149D01*
X0173564Y0167942D01*
X0173694Y0167731D01*
X0173819Y0167517D01*
X0173938Y0167301D01*
X0174052Y0167081D01*
X0174160Y0166859D01*
X0174263Y0166634D01*
X0174361Y0166407D01*
X0174453Y0166177D01*
X0174539Y0165945D01*
X0174619Y0165711D01*
X0174694Y0165475D01*
X0174763Y0165238D01*
X0174826Y0164999D01*
X0174883Y0164758D01*
X0174934Y0164516D01*
X0174980Y0164273D01*
X0175019Y0164029D01*
X0175052Y0163784D01*
X0175079Y0163538D01*
X0175101Y0163291D01*
X0175116Y0163045D01*
X0175125Y0162797D01*
X0175128Y0162550D01*
X0175125Y0162303D01*
X0175116Y0162055D01*
X0175101Y0161809D01*
X0175079Y0161562D01*
X0175052Y0161316D01*
X0175019Y0161071D01*
X0174980Y0160827D01*
X0174934Y0160584D01*
X0174883Y0160342D01*
X0174826Y0160101D01*
X0174763Y0159862D01*
X0174694Y0159625D01*
X0174619Y0159389D01*
X0174539Y0159155D01*
X0174453Y0158923D01*
X0174361Y0158693D01*
X0174263Y0158466D01*
X0174160Y0158241D01*
X0174052Y0158019D01*
X0173938Y0157799D01*
X0173819Y0157583D01*
X0173694Y0157369D01*
X0173564Y0157158D01*
X0173430Y0156951D01*
X0173290Y0156747D01*
X0173145Y0156547D01*
X0172995Y0156350D01*
X0172840Y0156157D01*
X0172681Y0155967D01*
X0172517Y0155782D01*
X0172349Y0155601D01*
X0172176Y0155424D01*
X0171999Y0155251D01*
X0171818Y0155083D01*
X0171633Y0154919D01*
X0171443Y0154760D01*
X0171250Y0154605D01*
X0171053Y0154455D01*
X0170853Y0154310D01*
X0170649Y0154170D01*
X0170442Y0154036D01*
X0170231Y0153906D01*
X0170017Y0153781D01*
X0169801Y0153662D01*
X0169581Y0153548D01*
X0169359Y0153440D01*
X0169134Y0153337D01*
X0168907Y0153239D01*
X0168677Y0153147D01*
X0168445Y0153061D01*
X0168211Y0152981D01*
X0167975Y0152906D01*
X0167738Y0152837D01*
X0167499Y0152774D01*
X0167258Y0152717D01*
X0167016Y0152666D01*
X0166773Y0152620D01*
X0166529Y0152581D01*
X0166284Y0152548D01*
X0166038Y0152521D01*
X0165791Y0152499D01*
X0165545Y0152484D01*
X0165297Y0152475D01*
X0165050Y0152472D01*
X0164803Y0152475D01*
X0164555Y0152484D01*
X0164309Y0152499D01*
X0164062Y0152521D01*
X0163816Y0152548D01*
X0163571Y0152581D01*
X0163327Y0152620D01*
X0163084Y0152666D01*
X0162842Y0152717D01*
X0162601Y0152774D01*
X0162362Y0152837D01*
X0162125Y0152906D01*
X0161889Y0152981D01*
X0161655Y0153061D01*
X0161423Y0153147D01*
X0161193Y0153239D01*
X0160966Y0153337D01*
X0160741Y0153440D01*
X0160519Y0153548D01*
X0160299Y0153662D01*
X0160083Y0153781D01*
X0159869Y0153906D01*
X0159658Y0154036D01*
X0159451Y0154170D01*
X0159247Y0154310D01*
X0159047Y0154455D01*
X0158850Y0154605D01*
X0158657Y0154760D01*
X0158467Y0154919D01*
X0158282Y0155083D01*
X0158101Y0155251D01*
X0157924Y0155424D01*
X0157751Y0155601D01*
X0157583Y0155782D01*
X0157419Y0155967D01*
X0157260Y0156157D01*
X0157105Y0156350D01*
X0156955Y0156547D01*
X0156810Y0156747D01*
X0156670Y0156951D01*
X0156536Y0157158D01*
X0156406Y0157369D01*
X0156281Y0157583D01*
X0156162Y0157799D01*
X0156048Y0158019D01*
X0155940Y0158241D01*
X0155837Y0158466D01*
X0155739Y0158693D01*
X0155647Y0158923D01*
X0155561Y0159155D01*
X0155481Y0159389D01*
X0155406Y0159625D01*
X0155337Y0159862D01*
X0155274Y0160101D01*
X0155217Y0160342D01*
X0155166Y0160584D01*
X0155120Y0160827D01*
X0155081Y0161071D01*
X0155048Y0161316D01*
X0155021Y0161562D01*
X0154999Y0161809D01*
X0154984Y0162055D01*
X0154975Y0162303D01*
X0154972Y0162550D01*
X0154800Y0159300D02*
X0154800Y0173050D01*
X0101050Y0173050D01*
X0101050Y0159300D01*
X0109800Y0150550D01*
X0146050Y0150550D01*
X0154800Y0159300D01*
X0175050Y0027550D02*
X0175050Y0006300D01*
X0008300Y0005800D01*
X0155287Y0016300D02*
X0155290Y0016540D01*
X0155299Y0016779D01*
X0155313Y0017018D01*
X0155334Y0017257D01*
X0155360Y0017495D01*
X0155393Y0017733D01*
X0155431Y0017969D01*
X0155475Y0018205D01*
X0155524Y0018439D01*
X0155580Y0018672D01*
X0155641Y0018904D01*
X0155707Y0019134D01*
X0155780Y0019362D01*
X0155858Y0019589D01*
X0155941Y0019814D01*
X0156030Y0020036D01*
X0156125Y0020256D01*
X0156224Y0020474D01*
X0156329Y0020690D01*
X0156440Y0020902D01*
X0156555Y0021112D01*
X0156676Y0021319D01*
X0156802Y0021523D01*
X0156932Y0021724D01*
X0157068Y0021922D01*
X0157208Y0022116D01*
X0157353Y0022307D01*
X0157503Y0022494D01*
X0157657Y0022677D01*
X0157816Y0022856D01*
X0157979Y0023032D01*
X0158147Y0023203D01*
X0158318Y0023371D01*
X0158494Y0023534D01*
X0158673Y0023693D01*
X0158856Y0023847D01*
X0159043Y0023997D01*
X0159234Y0024142D01*
X0159428Y0024282D01*
X0159626Y0024418D01*
X0159827Y0024548D01*
X0160031Y0024674D01*
X0160238Y0024795D01*
X0160448Y0024910D01*
X0160660Y0025021D01*
X0160876Y0025126D01*
X0161094Y0025225D01*
X0161314Y0025320D01*
X0161536Y0025409D01*
X0161761Y0025492D01*
X0161988Y0025570D01*
X0162216Y0025643D01*
X0162446Y0025709D01*
X0162678Y0025770D01*
X0162911Y0025826D01*
X0163145Y0025875D01*
X0163381Y0025919D01*
X0163617Y0025957D01*
X0163855Y0025990D01*
X0164093Y0026016D01*
X0164332Y0026037D01*
X0164571Y0026051D01*
X0164810Y0026060D01*
X0165050Y0026063D01*
X0165290Y0026060D01*
X0165529Y0026051D01*
X0165768Y0026037D01*
X0166007Y0026016D01*
X0166245Y0025990D01*
X0166483Y0025957D01*
X0166719Y0025919D01*
X0166955Y0025875D01*
X0167189Y0025826D01*
X0167422Y0025770D01*
X0167654Y0025709D01*
X0167884Y0025643D01*
X0168112Y0025570D01*
X0168339Y0025492D01*
X0168564Y0025409D01*
X0168786Y0025320D01*
X0169006Y0025225D01*
X0169224Y0025126D01*
X0169440Y0025021D01*
X0169652Y0024910D01*
X0169862Y0024795D01*
X0170069Y0024674D01*
X0170273Y0024548D01*
X0170474Y0024418D01*
X0170672Y0024282D01*
X0170866Y0024142D01*
X0171057Y0023997D01*
X0171244Y0023847D01*
X0171427Y0023693D01*
X0171606Y0023534D01*
X0171782Y0023371D01*
X0171953Y0023203D01*
X0172121Y0023032D01*
X0172284Y0022856D01*
X0172443Y0022677D01*
X0172597Y0022494D01*
X0172747Y0022307D01*
X0172892Y0022116D01*
X0173032Y0021922D01*
X0173168Y0021724D01*
X0173298Y0021523D01*
X0173424Y0021319D01*
X0173545Y0021112D01*
X0173660Y0020902D01*
X0173771Y0020690D01*
X0173876Y0020474D01*
X0173975Y0020256D01*
X0174070Y0020036D01*
X0174159Y0019814D01*
X0174242Y0019589D01*
X0174320Y0019362D01*
X0174393Y0019134D01*
X0174459Y0018904D01*
X0174520Y0018672D01*
X0174576Y0018439D01*
X0174625Y0018205D01*
X0174669Y0017969D01*
X0174707Y0017733D01*
X0174740Y0017495D01*
X0174766Y0017257D01*
X0174787Y0017018D01*
X0174801Y0016779D01*
X0174810Y0016540D01*
X0174813Y0016300D01*
X0174810Y0016060D01*
X0174801Y0015821D01*
X0174787Y0015582D01*
X0174766Y0015343D01*
X0174740Y0015105D01*
X0174707Y0014867D01*
X0174669Y0014631D01*
X0174625Y0014395D01*
X0174576Y0014161D01*
X0174520Y0013928D01*
X0174459Y0013696D01*
X0174393Y0013466D01*
X0174320Y0013238D01*
X0174242Y0013011D01*
X0174159Y0012786D01*
X0174070Y0012564D01*
X0173975Y0012344D01*
X0173876Y0012126D01*
X0173771Y0011910D01*
X0173660Y0011698D01*
X0173545Y0011488D01*
X0173424Y0011281D01*
X0173298Y0011077D01*
X0173168Y0010876D01*
X0173032Y0010678D01*
X0172892Y0010484D01*
X0172747Y0010293D01*
X0172597Y0010106D01*
X0172443Y0009923D01*
X0172284Y0009744D01*
X0172121Y0009568D01*
X0171953Y0009397D01*
X0171782Y0009229D01*
X0171606Y0009066D01*
X0171427Y0008907D01*
X0171244Y0008753D01*
X0171057Y0008603D01*
X0170866Y0008458D01*
X0170672Y0008318D01*
X0170474Y0008182D01*
X0170273Y0008052D01*
X0170069Y0007926D01*
X0169862Y0007805D01*
X0169652Y0007690D01*
X0169440Y0007579D01*
X0169224Y0007474D01*
X0169006Y0007375D01*
X0168786Y0007280D01*
X0168564Y0007191D01*
X0168339Y0007108D01*
X0168112Y0007030D01*
X0167884Y0006957D01*
X0167654Y0006891D01*
X0167422Y0006830D01*
X0167189Y0006774D01*
X0166955Y0006725D01*
X0166719Y0006681D01*
X0166483Y0006643D01*
X0166245Y0006610D01*
X0166007Y0006584D01*
X0165768Y0006563D01*
X0165529Y0006549D01*
X0165290Y0006540D01*
X0165050Y0006537D01*
X0164810Y0006540D01*
X0164571Y0006549D01*
X0164332Y0006563D01*
X0164093Y0006584D01*
X0163855Y0006610D01*
X0163617Y0006643D01*
X0163381Y0006681D01*
X0163145Y0006725D01*
X0162911Y0006774D01*
X0162678Y0006830D01*
X0162446Y0006891D01*
X0162216Y0006957D01*
X0161988Y0007030D01*
X0161761Y0007108D01*
X0161536Y0007191D01*
X0161314Y0007280D01*
X0161094Y0007375D01*
X0160876Y0007474D01*
X0160660Y0007579D01*
X0160448Y0007690D01*
X0160238Y0007805D01*
X0160031Y0007926D01*
X0159827Y0008052D01*
X0159626Y0008182D01*
X0159428Y0008318D01*
X0159234Y0008458D01*
X0159043Y0008603D01*
X0158856Y0008753D01*
X0158673Y0008907D01*
X0158494Y0009066D01*
X0158318Y0009229D01*
X0158147Y0009397D01*
X0157979Y0009568D01*
X0157816Y0009744D01*
X0157657Y0009923D01*
X0157503Y0010106D01*
X0157353Y0010293D01*
X0157208Y0010484D01*
X0157068Y0010678D01*
X0156932Y0010876D01*
X0156802Y0011077D01*
X0156676Y0011281D01*
X0156555Y0011488D01*
X0156440Y0011698D01*
X0156329Y0011910D01*
X0156224Y0012126D01*
X0156125Y0012344D01*
X0156030Y0012564D01*
X0155941Y0012786D01*
X0155858Y0013011D01*
X0155780Y0013238D01*
X0155707Y0013466D01*
X0155641Y0013696D01*
X0155580Y0013928D01*
X0155524Y0014161D01*
X0155475Y0014395D01*
X0155431Y0014631D01*
X0155393Y0014867D01*
X0155360Y0015105D01*
X0155334Y0015343D01*
X0155313Y0015582D01*
X0155299Y0015821D01*
X0155290Y0016060D01*
X0155287Y0016300D01*
X0008492Y0162300D02*
X0008495Y0162553D01*
X0008504Y0162806D01*
X0008520Y0163058D01*
X0008542Y0163310D01*
X0008570Y0163562D01*
X0008604Y0163812D01*
X0008644Y0164062D01*
X0008690Y0164311D01*
X0008742Y0164558D01*
X0008801Y0164805D01*
X0008865Y0165049D01*
X0008936Y0165292D01*
X0009012Y0165533D01*
X0009095Y0165773D01*
X0009183Y0166010D01*
X0009277Y0166245D01*
X0009376Y0166477D01*
X0009482Y0166707D01*
X0009593Y0166935D01*
X0009709Y0167159D01*
X0009831Y0167381D01*
X0009959Y0167599D01*
X0010091Y0167815D01*
X0010229Y0168027D01*
X0010372Y0168235D01*
X0010521Y0168440D01*
X0010674Y0168642D01*
X0010832Y0168839D01*
X0010995Y0169033D01*
X0011162Y0169222D01*
X0011334Y0169408D01*
X0011511Y0169589D01*
X0011692Y0169766D01*
X0011878Y0169938D01*
X0012067Y0170105D01*
X0012261Y0170268D01*
X0012458Y0170426D01*
X0012660Y0170579D01*
X0012865Y0170728D01*
X0013073Y0170871D01*
X0013285Y0171009D01*
X0013501Y0171141D01*
X0013719Y0171269D01*
X0013941Y0171391D01*
X0014165Y0171507D01*
X0014393Y0171618D01*
X0014623Y0171724D01*
X0014855Y0171823D01*
X0015090Y0171917D01*
X0015327Y0172005D01*
X0015567Y0172088D01*
X0015808Y0172164D01*
X0016051Y0172235D01*
X0016295Y0172299D01*
X0016542Y0172358D01*
X0016789Y0172410D01*
X0017038Y0172456D01*
X0017288Y0172496D01*
X0017538Y0172530D01*
X0017790Y0172558D01*
X0018042Y0172580D01*
X0018294Y0172596D01*
X0018547Y0172605D01*
X0018800Y0172608D01*
X0019053Y0172605D01*
X0019306Y0172596D01*
X0019558Y0172580D01*
X0019810Y0172558D01*
X0020062Y0172530D01*
X0020312Y0172496D01*
X0020562Y0172456D01*
X0020811Y0172410D01*
X0021058Y0172358D01*
X0021305Y0172299D01*
X0021549Y0172235D01*
X0021792Y0172164D01*
X0022033Y0172088D01*
X0022273Y0172005D01*
X0022510Y0171917D01*
X0022745Y0171823D01*
X0022977Y0171724D01*
X0023207Y0171618D01*
X0023435Y0171507D01*
X0023659Y0171391D01*
X0023881Y0171269D01*
X0024099Y0171141D01*
X0024315Y0171009D01*
X0024527Y0170871D01*
X0024735Y0170728D01*
X0024940Y0170579D01*
X0025142Y0170426D01*
X0025339Y0170268D01*
X0025533Y0170105D01*
X0025722Y0169938D01*
X0025908Y0169766D01*
X0026089Y0169589D01*
X0026266Y0169408D01*
X0026438Y0169222D01*
X0026605Y0169033D01*
X0026768Y0168839D01*
X0026926Y0168642D01*
X0027079Y0168440D01*
X0027228Y0168235D01*
X0027371Y0168027D01*
X0027509Y0167815D01*
X0027641Y0167599D01*
X0027769Y0167381D01*
X0027891Y0167159D01*
X0028007Y0166935D01*
X0028118Y0166707D01*
X0028224Y0166477D01*
X0028323Y0166245D01*
X0028417Y0166010D01*
X0028505Y0165773D01*
X0028588Y0165533D01*
X0028664Y0165292D01*
X0028735Y0165049D01*
X0028799Y0164805D01*
X0028858Y0164558D01*
X0028910Y0164311D01*
X0028956Y0164062D01*
X0028996Y0163812D01*
X0029030Y0163562D01*
X0029058Y0163310D01*
X0029080Y0163058D01*
X0029096Y0162806D01*
X0029105Y0162553D01*
X0029108Y0162300D01*
X0029105Y0162047D01*
X0029096Y0161794D01*
X0029080Y0161542D01*
X0029058Y0161290D01*
X0029030Y0161038D01*
X0028996Y0160788D01*
X0028956Y0160538D01*
X0028910Y0160289D01*
X0028858Y0160042D01*
X0028799Y0159795D01*
X0028735Y0159551D01*
X0028664Y0159308D01*
X0028588Y0159067D01*
X0028505Y0158827D01*
X0028417Y0158590D01*
X0028323Y0158355D01*
X0028224Y0158123D01*
X0028118Y0157893D01*
X0028007Y0157665D01*
X0027891Y0157441D01*
X0027769Y0157219D01*
X0027641Y0157001D01*
X0027509Y0156785D01*
X0027371Y0156573D01*
X0027228Y0156365D01*
X0027079Y0156160D01*
X0026926Y0155958D01*
X0026768Y0155761D01*
X0026605Y0155567D01*
X0026438Y0155378D01*
X0026266Y0155192D01*
X0026089Y0155011D01*
X0025908Y0154834D01*
X0025722Y0154662D01*
X0025533Y0154495D01*
X0025339Y0154332D01*
X0025142Y0154174D01*
X0024940Y0154021D01*
X0024735Y0153872D01*
X0024527Y0153729D01*
X0024315Y0153591D01*
X0024099Y0153459D01*
X0023881Y0153331D01*
X0023659Y0153209D01*
X0023435Y0153093D01*
X0023207Y0152982D01*
X0022977Y0152876D01*
X0022745Y0152777D01*
X0022510Y0152683D01*
X0022273Y0152595D01*
X0022033Y0152512D01*
X0021792Y0152436D01*
X0021549Y0152365D01*
X0021305Y0152301D01*
X0021058Y0152242D01*
X0020811Y0152190D01*
X0020562Y0152144D01*
X0020312Y0152104D01*
X0020062Y0152070D01*
X0019810Y0152042D01*
X0019558Y0152020D01*
X0019306Y0152004D01*
X0019053Y0151995D01*
X0018800Y0151992D01*
X0018547Y0151995D01*
X0018294Y0152004D01*
X0018042Y0152020D01*
X0017790Y0152042D01*
X0017538Y0152070D01*
X0017288Y0152104D01*
X0017038Y0152144D01*
X0016789Y0152190D01*
X0016542Y0152242D01*
X0016295Y0152301D01*
X0016051Y0152365D01*
X0015808Y0152436D01*
X0015567Y0152512D01*
X0015327Y0152595D01*
X0015090Y0152683D01*
X0014855Y0152777D01*
X0014623Y0152876D01*
X0014393Y0152982D01*
X0014165Y0153093D01*
X0013941Y0153209D01*
X0013719Y0153331D01*
X0013501Y0153459D01*
X0013285Y0153591D01*
X0013073Y0153729D01*
X0012865Y0153872D01*
X0012660Y0154021D01*
X0012458Y0154174D01*
X0012261Y0154332D01*
X0012067Y0154495D01*
X0011878Y0154662D01*
X0011692Y0154834D01*
X0011511Y0155011D01*
X0011334Y0155192D01*
X0011162Y0155378D01*
X0010995Y0155567D01*
X0010832Y0155761D01*
X0010674Y0155958D01*
X0010521Y0156160D01*
X0010372Y0156365D01*
X0010229Y0156573D01*
X0010091Y0156785D01*
X0009959Y0157001D01*
X0009831Y0157219D01*
X0009709Y0157441D01*
X0009593Y0157665D01*
X0009482Y0157893D01*
X0009376Y0158123D01*
X0009277Y0158355D01*
X0009183Y0158590D01*
X0009095Y0158827D01*
X0009012Y0159067D01*
X0008936Y0159308D01*
X0008865Y0159551D01*
X0008801Y0159795D01*
X0008742Y0160042D01*
X0008690Y0160289D01*
X0008644Y0160538D01*
X0008604Y0160788D01*
X0008570Y0161038D01*
X0008542Y0161290D01*
X0008520Y0161542D01*
X0008504Y0161794D01*
X0008495Y0162047D01*
X0008492Y0162300D01*
D15*
X0090197Y0161252D02*
X0090197Y0160018D01*
X0090814Y0159401D01*
X0091431Y0159401D01*
X0092048Y0160018D01*
X0092048Y0161252D01*
X0092666Y0161869D01*
X0093283Y0161869D01*
X0093900Y0161252D01*
X0093900Y0160018D01*
X0093283Y0159401D01*
X0090814Y0161869D02*
X0090197Y0161252D01*
X0093283Y0163084D02*
X0093283Y0163701D01*
X0093900Y0163701D01*
X0093900Y0163084D01*
X0093283Y0163084D01*
X0093283Y0164925D02*
X0093900Y0164925D01*
X0093900Y0167394D01*
X0093900Y0168608D02*
X0093900Y0169226D01*
X0093283Y0169226D01*
X0093283Y0168608D01*
X0093900Y0168608D01*
X0090814Y0167394D02*
X0093283Y0164925D01*
X0090197Y0164925D02*
X0090197Y0167394D01*
X0090814Y0167394D01*
X0091431Y0154503D02*
X0094517Y0154503D01*
X0095134Y0153886D01*
X0095134Y0153269D01*
X0093900Y0152651D02*
X0093900Y0154503D01*
X0093900Y0152651D02*
X0093283Y0152034D01*
X0091431Y0152034D01*
X0092048Y0150820D02*
X0091431Y0150203D01*
X0091431Y0148351D01*
X0090197Y0148351D02*
X0093900Y0148351D01*
X0093900Y0150203D01*
X0093283Y0150820D01*
X0092048Y0150820D01*
X0091431Y0143454D02*
X0091431Y0141602D01*
X0092048Y0140985D01*
X0093283Y0140985D01*
X0093900Y0141602D01*
X0093900Y0143454D01*
X0090197Y0143454D01*
X0092048Y0139770D02*
X0092666Y0139770D01*
X0092666Y0137302D01*
X0093283Y0137302D02*
X0092048Y0137302D01*
X0091431Y0137919D01*
X0091431Y0139153D01*
X0092048Y0139770D01*
X0093900Y0139153D02*
X0093900Y0137919D01*
X0093283Y0137302D01*
X0093283Y0136087D02*
X0092048Y0136087D01*
X0091431Y0135470D01*
X0091431Y0133619D01*
X0095134Y0133619D01*
X0093900Y0133619D02*
X0093900Y0135470D01*
X0093283Y0136087D01*
X0093283Y0132404D02*
X0092048Y0132404D01*
X0091431Y0131787D01*
X0091431Y0130553D01*
X0092048Y0129935D01*
X0093283Y0129935D01*
X0093900Y0130553D01*
X0093900Y0131787D01*
X0093283Y0132404D01*
X0093900Y0128714D02*
X0093900Y0127480D01*
X0093900Y0128097D02*
X0090197Y0128097D01*
X0090197Y0127480D01*
X0091431Y0125648D02*
X0092048Y0126266D01*
X0092666Y0126266D01*
X0092666Y0123797D01*
X0093283Y0123797D02*
X0092048Y0123797D01*
X0091431Y0124414D01*
X0091431Y0125648D01*
X0093900Y0125648D02*
X0093900Y0124414D01*
X0093283Y0123797D01*
X0091431Y0122582D02*
X0093900Y0121348D01*
X0091431Y0120114D01*
X0092048Y0118899D02*
X0092666Y0118899D01*
X0092666Y0116430D01*
X0093283Y0116430D02*
X0092048Y0116430D01*
X0091431Y0117048D01*
X0091431Y0118282D01*
X0092048Y0118899D01*
X0093900Y0118282D02*
X0093900Y0117048D01*
X0093283Y0116430D01*
X0093283Y0115216D02*
X0090814Y0115216D01*
X0090197Y0114599D01*
X0090197Y0112747D01*
X0093900Y0112747D01*
X0093900Y0114599D01*
X0093283Y0115216D01*
X0121450Y0131950D02*
X0121450Y0134852D01*
X0122901Y0134852D01*
X0123385Y0134369D01*
X0123385Y0133401D01*
X0122901Y0132917D01*
X0121450Y0132917D01*
X0122417Y0132917D02*
X0123385Y0131950D01*
X0124397Y0131950D02*
X0126331Y0131950D01*
X0125364Y0131950D02*
X0125364Y0134852D01*
X0124397Y0133885D01*
X0133236Y0134369D02*
X0133720Y0134852D01*
X0134687Y0134852D01*
X0135171Y0134369D01*
X0135171Y0133885D01*
X0133236Y0131950D01*
X0135171Y0131950D01*
X0136183Y0132434D02*
X0138118Y0134369D01*
X0138118Y0132434D01*
X0137634Y0131950D01*
X0136666Y0131950D01*
X0136183Y0132434D01*
X0136183Y0134369D01*
X0136666Y0134852D01*
X0137634Y0134852D01*
X0138118Y0134369D01*
X0139129Y0134369D02*
X0139129Y0132434D01*
X0141064Y0134369D01*
X0141064Y0132434D01*
X0140580Y0131950D01*
X0139613Y0131950D01*
X0139129Y0132434D01*
X0139129Y0134369D02*
X0139613Y0134852D01*
X0140580Y0134852D01*
X0141064Y0134369D01*
X0142076Y0134852D02*
X0143527Y0134852D01*
X0144011Y0134369D01*
X0144011Y0133401D01*
X0143527Y0132917D01*
X0142076Y0132917D01*
X0142076Y0131950D02*
X0142076Y0134852D01*
X0143043Y0132917D02*
X0144011Y0131950D01*
X0171448Y0124438D02*
X0174350Y0124438D01*
X0172415Y0123471D02*
X0171448Y0124438D01*
X0172415Y0123471D02*
X0171448Y0122503D01*
X0174350Y0122503D01*
X0174350Y0121492D02*
X0171448Y0121492D01*
X0171448Y0119557D02*
X0174350Y0119557D01*
X0173383Y0120524D01*
X0174350Y0121492D01*
X0172899Y0118545D02*
X0173383Y0118062D01*
X0173383Y0116610D01*
X0174350Y0116610D02*
X0171448Y0116610D01*
X0171448Y0118062D01*
X0171931Y0118545D01*
X0172899Y0118545D01*
X0171948Y0137610D02*
X0171948Y0139062D01*
X0172431Y0139545D01*
X0173399Y0139545D01*
X0173883Y0139062D01*
X0173883Y0137610D01*
X0174850Y0137610D02*
X0171948Y0137610D01*
X0171948Y0140557D02*
X0174850Y0140557D01*
X0173883Y0141524D01*
X0174850Y0142492D01*
X0171948Y0142492D01*
X0171948Y0143503D02*
X0172915Y0144471D01*
X0171948Y0145438D01*
X0174850Y0145438D01*
X0174850Y0143503D02*
X0171948Y0143503D01*
D16*
X0173800Y0131300D02*
X0168800Y0131300D01*
X0166300Y0128800D01*
X0166300Y0123800D01*
X0168800Y0121300D01*
X0166300Y0118800D01*
X0166300Y0113800D01*
X0168800Y0111300D01*
X0166300Y0108800D01*
X0166300Y0103800D01*
X0168800Y0101300D01*
X0166300Y0098800D01*
X0166300Y0093800D01*
X0168800Y0091300D01*
X0173800Y0091300D01*
X0176300Y0093800D01*
X0176300Y0098800D01*
X0173800Y0101300D01*
X0176300Y0103800D01*
X0176300Y0108800D01*
X0173800Y0111300D01*
X0176300Y0113800D01*
X0176300Y0118800D01*
X0173800Y0121300D01*
X0176300Y0123800D01*
X0176300Y0128800D01*
X0173800Y0131300D01*
D17*
X0079283Y0033658D02*
X0075820Y0030834D01*
X0074903Y0031339D01*
X0073936Y0031739D01*
X0072931Y0032031D01*
X0072479Y0036477D01*
X0069121Y0036477D01*
X0068669Y0032031D01*
X0067664Y0031739D01*
X0066697Y0031339D01*
X0065780Y0030834D01*
X0062317Y0033658D01*
X0059942Y0031283D01*
X0062766Y0027820D01*
X0062261Y0026903D01*
X0061861Y0025936D01*
X0061569Y0024931D01*
X0057123Y0024479D01*
X0057123Y0021121D01*
X0061569Y0020669D01*
X0061861Y0019664D01*
X0062261Y0018697D01*
X0062766Y0017780D01*
X0059942Y0014317D01*
X0062317Y0011942D01*
X0065780Y0014766D01*
X0066462Y0014378D01*
X0067174Y0014048D01*
X0069152Y0018822D01*
X0068509Y0019154D01*
X0067930Y0019589D01*
X0067433Y0020115D01*
X0067031Y0020717D01*
X0066735Y0021378D01*
X0066555Y0022079D01*
X0066494Y0022800D01*
X0066569Y0023604D01*
X0066794Y0024380D01*
X0067159Y0025100D01*
X0067653Y0025739D01*
X0068257Y0026275D01*
X0068950Y0026689D01*
X0069709Y0026966D01*
X0070506Y0027096D01*
X0071313Y0027076D01*
X0072103Y0026904D01*
X0072846Y0026589D01*
X0073517Y0026140D01*
X0074093Y0025574D01*
X0074553Y0024911D01*
X0074881Y0024173D01*
X0075066Y0023387D01*
X0075100Y0022580D01*
X0074984Y0021781D01*
X0074720Y0021017D01*
X0074318Y0020317D01*
X0073793Y0019704D01*
X0073162Y0019199D01*
X0072448Y0018822D01*
X0074426Y0014048D01*
X0075138Y0014378D01*
X0075820Y0014766D01*
X0079283Y0011942D01*
X0081658Y0014317D01*
X0078834Y0017780D01*
X0079339Y0018697D01*
X0079739Y0019664D01*
X0080031Y0020669D01*
X0084477Y0021121D01*
X0084477Y0024479D01*
X0080031Y0024931D01*
X0079739Y0025936D01*
X0079339Y0026903D01*
X0078834Y0027820D01*
X0081658Y0031283D01*
X0079283Y0033658D01*
X0079390Y0033552D02*
X0079153Y0033552D01*
X0078430Y0032963D02*
X0079979Y0032963D01*
X0080568Y0032373D02*
X0077708Y0032373D01*
X0076985Y0031784D02*
X0081157Y0031784D01*
X0081586Y0031195D02*
X0076263Y0031195D01*
X0075164Y0031195D02*
X0066436Y0031195D01*
X0065337Y0031195D02*
X0060014Y0031195D01*
X0060443Y0031784D02*
X0064615Y0031784D01*
X0063892Y0032373D02*
X0061032Y0032373D01*
X0061621Y0032963D02*
X0063170Y0032963D01*
X0062447Y0033552D02*
X0062210Y0033552D01*
X0060494Y0030606D02*
X0081106Y0030606D01*
X0080626Y0030017D02*
X0060974Y0030017D01*
X0061455Y0029428D02*
X0080145Y0029428D01*
X0079665Y0028839D02*
X0061935Y0028839D01*
X0062415Y0028250D02*
X0079185Y0028250D01*
X0078922Y0027661D02*
X0062678Y0027661D01*
X0062354Y0027072D02*
X0070357Y0027072D01*
X0071330Y0027072D02*
X0079246Y0027072D01*
X0079513Y0026483D02*
X0073005Y0026483D01*
X0073768Y0025894D02*
X0079752Y0025894D01*
X0079922Y0025305D02*
X0074280Y0025305D01*
X0074640Y0024716D02*
X0082150Y0024716D01*
X0084477Y0024127D02*
X0074892Y0024127D01*
X0075031Y0023537D02*
X0084477Y0023537D01*
X0084477Y0022948D02*
X0075085Y0022948D01*
X0075068Y0022359D02*
X0084477Y0022359D01*
X0084477Y0021770D02*
X0074980Y0021770D01*
X0074777Y0021181D02*
X0084477Y0021181D01*
X0080008Y0020592D02*
X0074476Y0020592D01*
X0074049Y0020003D02*
X0079838Y0020003D01*
X0079636Y0019414D02*
X0073430Y0019414D01*
X0072454Y0018825D02*
X0079392Y0018825D01*
X0079085Y0018236D02*
X0072691Y0018236D01*
X0072935Y0017647D02*
X0078943Y0017647D01*
X0079423Y0017058D02*
X0073179Y0017058D01*
X0073423Y0016469D02*
X0079903Y0016469D01*
X0080384Y0015880D02*
X0073667Y0015880D01*
X0073911Y0015291D02*
X0080864Y0015291D01*
X0081344Y0014702D02*
X0075899Y0014702D01*
X0075707Y0014702D02*
X0074155Y0014702D01*
X0074399Y0014112D02*
X0074565Y0014112D01*
X0076621Y0014112D02*
X0081454Y0014112D01*
X0080865Y0013523D02*
X0077344Y0013523D01*
X0078066Y0012934D02*
X0080276Y0012934D01*
X0079687Y0012345D02*
X0078789Y0012345D01*
X0068177Y0016469D02*
X0061697Y0016469D01*
X0062177Y0017058D02*
X0068421Y0017058D01*
X0068665Y0017647D02*
X0062657Y0017647D01*
X0062515Y0018236D02*
X0068909Y0018236D01*
X0069145Y0018825D02*
X0062208Y0018825D01*
X0061964Y0019414D02*
X0068163Y0019414D01*
X0067539Y0020003D02*
X0061762Y0020003D01*
X0061592Y0020592D02*
X0067114Y0020592D01*
X0066823Y0021181D02*
X0057123Y0021181D01*
X0057123Y0021770D02*
X0066634Y0021770D01*
X0066531Y0022359D02*
X0057123Y0022359D01*
X0057123Y0022948D02*
X0066508Y0022948D01*
X0066563Y0023537D02*
X0057123Y0023537D01*
X0057123Y0024127D02*
X0066721Y0024127D01*
X0066964Y0024716D02*
X0059450Y0024716D01*
X0061678Y0025305D02*
X0067317Y0025305D01*
X0067827Y0025894D02*
X0061848Y0025894D01*
X0062087Y0026483D02*
X0068605Y0026483D01*
X0067819Y0031784D02*
X0073781Y0031784D01*
X0072896Y0032373D02*
X0068704Y0032373D01*
X0068764Y0032963D02*
X0072836Y0032963D01*
X0072777Y0033552D02*
X0068824Y0033552D01*
X0068883Y0034141D02*
X0072717Y0034141D01*
X0072657Y0034730D02*
X0068943Y0034730D01*
X0069003Y0035319D02*
X0072597Y0035319D01*
X0072537Y0035908D02*
X0069063Y0035908D01*
X0067933Y0015880D02*
X0061216Y0015880D01*
X0060736Y0015291D02*
X0067689Y0015291D01*
X0067445Y0014702D02*
X0065893Y0014702D01*
X0065701Y0014702D02*
X0060256Y0014702D01*
X0060146Y0014112D02*
X0064979Y0014112D01*
X0064256Y0013523D02*
X0060735Y0013523D01*
X0061324Y0012934D02*
X0063534Y0012934D01*
X0062811Y0012345D02*
X0061913Y0012345D01*
X0067034Y0014112D02*
X0067201Y0014112D01*
D18*
X0119531Y0137271D02*
X0120071Y0137271D01*
X0120071Y0137270D02*
X0120075Y0137218D01*
X0120082Y0137167D01*
X0120093Y0137117D01*
X0120108Y0137067D01*
X0120126Y0137019D01*
X0120148Y0136972D01*
X0120173Y0136926D01*
X0120201Y0136883D01*
X0120232Y0136842D01*
X0120266Y0136802D01*
X0120302Y0136766D01*
X0120342Y0136732D01*
X0120383Y0136701D01*
X0120426Y0136673D01*
X0120472Y0136648D01*
X0120519Y0136626D01*
X0120567Y0136608D01*
X0120617Y0136593D01*
X0120667Y0136582D01*
X0120718Y0136575D01*
X0120770Y0136571D01*
X0120771Y0136031D01*
X0120770Y0136030D01*
X0120701Y0136034D01*
X0120632Y0136041D01*
X0120564Y0136052D01*
X0120497Y0136067D01*
X0120430Y0136085D01*
X0120364Y0136107D01*
X0120300Y0136132D01*
X0120237Y0136161D01*
X0120176Y0136194D01*
X0120117Y0136229D01*
X0120060Y0136268D01*
X0120005Y0136310D01*
X0119952Y0136354D01*
X0119902Y0136402D01*
X0119854Y0136452D01*
X0119810Y0136505D01*
X0119768Y0136560D01*
X0119729Y0136617D01*
X0119694Y0136676D01*
X0119661Y0136737D01*
X0119632Y0136800D01*
X0119607Y0136864D01*
X0119585Y0136930D01*
X0119567Y0136997D01*
X0119552Y0137064D01*
X0119541Y0137132D01*
X0119534Y0137201D01*
X0119530Y0137270D01*
X0119586Y0137270D01*
X0119590Y0137202D01*
X0119597Y0137134D01*
X0119609Y0137066D01*
X0119624Y0137000D01*
X0119643Y0136934D01*
X0119665Y0136869D01*
X0119691Y0136806D01*
X0119721Y0136744D01*
X0119754Y0136684D01*
X0119790Y0136626D01*
X0119830Y0136571D01*
X0119872Y0136517D01*
X0119918Y0136466D01*
X0119966Y0136418D01*
X0120017Y0136372D01*
X0120071Y0136330D01*
X0120126Y0136290D01*
X0120184Y0136254D01*
X0120244Y0136221D01*
X0120306Y0136191D01*
X0120369Y0136165D01*
X0120434Y0136143D01*
X0120500Y0136124D01*
X0120566Y0136109D01*
X0120634Y0136097D01*
X0120702Y0136090D01*
X0120770Y0136086D01*
X0120770Y0136142D01*
X0120702Y0136146D01*
X0120635Y0136154D01*
X0120569Y0136165D01*
X0120503Y0136181D01*
X0120438Y0136200D01*
X0120374Y0136223D01*
X0120312Y0136250D01*
X0120252Y0136280D01*
X0120193Y0136314D01*
X0120136Y0136351D01*
X0120082Y0136391D01*
X0120030Y0136435D01*
X0119981Y0136481D01*
X0119935Y0136530D01*
X0119891Y0136582D01*
X0119851Y0136636D01*
X0119814Y0136693D01*
X0119780Y0136752D01*
X0119750Y0136812D01*
X0119723Y0136874D01*
X0119700Y0136938D01*
X0119681Y0137003D01*
X0119665Y0137069D01*
X0119654Y0137135D01*
X0119646Y0137202D01*
X0119642Y0137270D01*
X0119698Y0137270D01*
X0119702Y0137206D01*
X0119709Y0137142D01*
X0119720Y0137079D01*
X0119735Y0137016D01*
X0119754Y0136955D01*
X0119775Y0136894D01*
X0119801Y0136835D01*
X0119830Y0136778D01*
X0119862Y0136722D01*
X0119897Y0136668D01*
X0119935Y0136617D01*
X0119977Y0136568D01*
X0120021Y0136521D01*
X0120068Y0136477D01*
X0120117Y0136435D01*
X0120168Y0136397D01*
X0120222Y0136362D01*
X0120278Y0136330D01*
X0120335Y0136301D01*
X0120394Y0136275D01*
X0120455Y0136254D01*
X0120516Y0136235D01*
X0120579Y0136220D01*
X0120642Y0136209D01*
X0120706Y0136202D01*
X0120770Y0136198D01*
X0120770Y0136254D01*
X0120707Y0136258D01*
X0120644Y0136266D01*
X0120582Y0136277D01*
X0120520Y0136292D01*
X0120460Y0136311D01*
X0120400Y0136333D01*
X0120343Y0136359D01*
X0120287Y0136389D01*
X0120232Y0136421D01*
X0120180Y0136457D01*
X0120130Y0136496D01*
X0120083Y0136538D01*
X0120038Y0136583D01*
X0119996Y0136630D01*
X0119957Y0136680D01*
X0119921Y0136732D01*
X0119889Y0136787D01*
X0119859Y0136843D01*
X0119833Y0136900D01*
X0119811Y0136960D01*
X0119792Y0137020D01*
X0119777Y0137082D01*
X0119766Y0137144D01*
X0119758Y0137207D01*
X0119754Y0137270D01*
X0119810Y0137270D01*
X0119814Y0137208D01*
X0119822Y0137146D01*
X0119834Y0137085D01*
X0119849Y0137025D01*
X0119868Y0136965D01*
X0119891Y0136907D01*
X0119918Y0136851D01*
X0119948Y0136796D01*
X0119981Y0136744D01*
X0120018Y0136693D01*
X0120057Y0136645D01*
X0120100Y0136600D01*
X0120145Y0136557D01*
X0120193Y0136518D01*
X0120244Y0136481D01*
X0120296Y0136448D01*
X0120351Y0136418D01*
X0120407Y0136391D01*
X0120465Y0136368D01*
X0120525Y0136349D01*
X0120585Y0136334D01*
X0120646Y0136322D01*
X0120708Y0136314D01*
X0120770Y0136310D01*
X0120770Y0136366D01*
X0120712Y0136370D01*
X0120653Y0136378D01*
X0120596Y0136389D01*
X0120539Y0136403D01*
X0120483Y0136421D01*
X0120429Y0136443D01*
X0120376Y0136468D01*
X0120324Y0136496D01*
X0120275Y0136528D01*
X0120227Y0136562D01*
X0120182Y0136599D01*
X0120140Y0136640D01*
X0120099Y0136682D01*
X0120062Y0136727D01*
X0120028Y0136775D01*
X0119996Y0136824D01*
X0119968Y0136876D01*
X0119943Y0136929D01*
X0119921Y0136983D01*
X0119903Y0137039D01*
X0119889Y0137096D01*
X0119878Y0137153D01*
X0119870Y0137212D01*
X0119866Y0137270D01*
X0119923Y0137270D01*
X0119926Y0137213D01*
X0119934Y0137156D01*
X0119945Y0137100D01*
X0119960Y0137044D01*
X0119979Y0136990D01*
X0120001Y0136937D01*
X0120026Y0136886D01*
X0120055Y0136836D01*
X0120086Y0136788D01*
X0120121Y0136743D01*
X0120159Y0136700D01*
X0120200Y0136659D01*
X0120243Y0136621D01*
X0120288Y0136586D01*
X0120336Y0136555D01*
X0120386Y0136526D01*
X0120437Y0136501D01*
X0120490Y0136479D01*
X0120544Y0136460D01*
X0120600Y0136445D01*
X0120656Y0136434D01*
X0120713Y0136426D01*
X0120770Y0136423D01*
X0120770Y0136479D01*
X0120714Y0136482D01*
X0120659Y0136490D01*
X0120604Y0136502D01*
X0120550Y0136517D01*
X0120497Y0136536D01*
X0120446Y0136558D01*
X0120397Y0136584D01*
X0120349Y0136613D01*
X0120303Y0136645D01*
X0120260Y0136681D01*
X0120219Y0136719D01*
X0120181Y0136760D01*
X0120145Y0136803D01*
X0120113Y0136849D01*
X0120084Y0136897D01*
X0120058Y0136946D01*
X0120036Y0136997D01*
X0120017Y0137050D01*
X0120002Y0137104D01*
X0119990Y0137159D01*
X0119982Y0137214D01*
X0119979Y0137270D01*
X0120035Y0137270D01*
X0120039Y0137216D01*
X0120047Y0137162D01*
X0120058Y0137109D01*
X0120074Y0137057D01*
X0120093Y0137006D01*
X0120116Y0136956D01*
X0120142Y0136908D01*
X0120171Y0136863D01*
X0120204Y0136819D01*
X0120239Y0136778D01*
X0120278Y0136739D01*
X0120319Y0136704D01*
X0120363Y0136671D01*
X0120408Y0136642D01*
X0120456Y0136616D01*
X0120506Y0136593D01*
X0120557Y0136574D01*
X0120609Y0136558D01*
X0120662Y0136547D01*
X0120716Y0136539D01*
X0120770Y0136535D01*
X0120771Y0145569D02*
X0120771Y0145029D01*
X0120770Y0145029D02*
X0120718Y0145025D01*
X0120667Y0145018D01*
X0120617Y0145007D01*
X0120567Y0144992D01*
X0120519Y0144974D01*
X0120472Y0144952D01*
X0120426Y0144927D01*
X0120383Y0144899D01*
X0120342Y0144868D01*
X0120302Y0144834D01*
X0120266Y0144798D01*
X0120232Y0144758D01*
X0120201Y0144717D01*
X0120173Y0144674D01*
X0120148Y0144628D01*
X0120126Y0144581D01*
X0120108Y0144533D01*
X0120093Y0144483D01*
X0120082Y0144433D01*
X0120075Y0144382D01*
X0120071Y0144330D01*
X0119531Y0144329D01*
X0119530Y0144330D01*
X0119534Y0144399D01*
X0119541Y0144468D01*
X0119552Y0144536D01*
X0119567Y0144603D01*
X0119585Y0144670D01*
X0119607Y0144736D01*
X0119632Y0144800D01*
X0119661Y0144863D01*
X0119694Y0144924D01*
X0119729Y0144983D01*
X0119768Y0145040D01*
X0119810Y0145095D01*
X0119854Y0145148D01*
X0119902Y0145198D01*
X0119952Y0145246D01*
X0120005Y0145290D01*
X0120060Y0145332D01*
X0120117Y0145371D01*
X0120176Y0145406D01*
X0120237Y0145439D01*
X0120300Y0145468D01*
X0120364Y0145493D01*
X0120430Y0145515D01*
X0120497Y0145533D01*
X0120564Y0145548D01*
X0120632Y0145559D01*
X0120701Y0145566D01*
X0120770Y0145570D01*
X0120770Y0145514D01*
X0120702Y0145510D01*
X0120634Y0145503D01*
X0120566Y0145491D01*
X0120500Y0145476D01*
X0120434Y0145457D01*
X0120369Y0145435D01*
X0120306Y0145409D01*
X0120244Y0145379D01*
X0120184Y0145346D01*
X0120126Y0145310D01*
X0120071Y0145270D01*
X0120017Y0145228D01*
X0119966Y0145182D01*
X0119918Y0145134D01*
X0119872Y0145083D01*
X0119830Y0145029D01*
X0119790Y0144974D01*
X0119754Y0144916D01*
X0119721Y0144856D01*
X0119691Y0144794D01*
X0119665Y0144731D01*
X0119643Y0144666D01*
X0119624Y0144600D01*
X0119609Y0144534D01*
X0119597Y0144466D01*
X0119590Y0144398D01*
X0119586Y0144330D01*
X0119642Y0144330D01*
X0119646Y0144398D01*
X0119654Y0144465D01*
X0119665Y0144531D01*
X0119681Y0144597D01*
X0119700Y0144662D01*
X0119723Y0144726D01*
X0119750Y0144788D01*
X0119780Y0144848D01*
X0119814Y0144907D01*
X0119851Y0144964D01*
X0119891Y0145018D01*
X0119935Y0145070D01*
X0119981Y0145119D01*
X0120030Y0145165D01*
X0120082Y0145209D01*
X0120136Y0145249D01*
X0120193Y0145286D01*
X0120252Y0145320D01*
X0120312Y0145350D01*
X0120374Y0145377D01*
X0120438Y0145400D01*
X0120503Y0145419D01*
X0120569Y0145435D01*
X0120635Y0145446D01*
X0120702Y0145454D01*
X0120770Y0145458D01*
X0120770Y0145402D01*
X0120706Y0145398D01*
X0120642Y0145391D01*
X0120579Y0145380D01*
X0120516Y0145365D01*
X0120455Y0145346D01*
X0120394Y0145325D01*
X0120335Y0145299D01*
X0120278Y0145270D01*
X0120222Y0145238D01*
X0120168Y0145203D01*
X0120117Y0145165D01*
X0120068Y0145123D01*
X0120021Y0145079D01*
X0119977Y0145032D01*
X0119935Y0144983D01*
X0119897Y0144932D01*
X0119862Y0144878D01*
X0119830Y0144822D01*
X0119801Y0144765D01*
X0119775Y0144706D01*
X0119754Y0144645D01*
X0119735Y0144584D01*
X0119720Y0144521D01*
X0119709Y0144458D01*
X0119702Y0144394D01*
X0119698Y0144330D01*
X0119754Y0144330D01*
X0119758Y0144393D01*
X0119766Y0144456D01*
X0119777Y0144518D01*
X0119792Y0144580D01*
X0119811Y0144640D01*
X0119833Y0144700D01*
X0119859Y0144757D01*
X0119889Y0144813D01*
X0119921Y0144868D01*
X0119957Y0144920D01*
X0119996Y0144970D01*
X0120038Y0145017D01*
X0120083Y0145062D01*
X0120130Y0145104D01*
X0120180Y0145143D01*
X0120232Y0145179D01*
X0120287Y0145211D01*
X0120343Y0145241D01*
X0120400Y0145267D01*
X0120460Y0145289D01*
X0120520Y0145308D01*
X0120582Y0145323D01*
X0120644Y0145334D01*
X0120707Y0145342D01*
X0120770Y0145346D01*
X0120770Y0145290D01*
X0120708Y0145286D01*
X0120646Y0145278D01*
X0120585Y0145266D01*
X0120525Y0145251D01*
X0120465Y0145232D01*
X0120407Y0145209D01*
X0120351Y0145182D01*
X0120296Y0145152D01*
X0120244Y0145119D01*
X0120193Y0145082D01*
X0120145Y0145043D01*
X0120100Y0145000D01*
X0120057Y0144955D01*
X0120018Y0144907D01*
X0119981Y0144856D01*
X0119948Y0144804D01*
X0119918Y0144749D01*
X0119891Y0144693D01*
X0119868Y0144635D01*
X0119849Y0144575D01*
X0119834Y0144515D01*
X0119822Y0144454D01*
X0119814Y0144392D01*
X0119810Y0144330D01*
X0119866Y0144330D01*
X0119870Y0144388D01*
X0119878Y0144447D01*
X0119889Y0144504D01*
X0119903Y0144561D01*
X0119921Y0144617D01*
X0119943Y0144671D01*
X0119968Y0144724D01*
X0119996Y0144776D01*
X0120028Y0144825D01*
X0120062Y0144873D01*
X0120099Y0144918D01*
X0120140Y0144960D01*
X0120182Y0145001D01*
X0120227Y0145038D01*
X0120275Y0145072D01*
X0120324Y0145104D01*
X0120376Y0145132D01*
X0120429Y0145157D01*
X0120483Y0145179D01*
X0120539Y0145197D01*
X0120596Y0145211D01*
X0120653Y0145222D01*
X0120712Y0145230D01*
X0120770Y0145234D01*
X0120770Y0145177D01*
X0120713Y0145174D01*
X0120656Y0145166D01*
X0120600Y0145155D01*
X0120544Y0145140D01*
X0120490Y0145121D01*
X0120437Y0145099D01*
X0120386Y0145074D01*
X0120336Y0145045D01*
X0120288Y0145014D01*
X0120243Y0144979D01*
X0120200Y0144941D01*
X0120159Y0144900D01*
X0120121Y0144857D01*
X0120086Y0144812D01*
X0120055Y0144764D01*
X0120026Y0144714D01*
X0120001Y0144663D01*
X0119979Y0144610D01*
X0119960Y0144556D01*
X0119945Y0144500D01*
X0119934Y0144444D01*
X0119926Y0144387D01*
X0119923Y0144330D01*
X0119979Y0144330D01*
X0119982Y0144386D01*
X0119990Y0144441D01*
X0120002Y0144496D01*
X0120017Y0144550D01*
X0120036Y0144603D01*
X0120058Y0144654D01*
X0120084Y0144703D01*
X0120113Y0144751D01*
X0120145Y0144797D01*
X0120181Y0144840D01*
X0120219Y0144881D01*
X0120260Y0144919D01*
X0120303Y0144955D01*
X0120349Y0144987D01*
X0120397Y0145016D01*
X0120446Y0145042D01*
X0120497Y0145064D01*
X0120550Y0145083D01*
X0120604Y0145098D01*
X0120659Y0145110D01*
X0120714Y0145118D01*
X0120770Y0145121D01*
X0120770Y0145065D01*
X0120716Y0145061D01*
X0120662Y0145053D01*
X0120609Y0145042D01*
X0120557Y0145026D01*
X0120506Y0145007D01*
X0120456Y0144984D01*
X0120408Y0144958D01*
X0120363Y0144929D01*
X0120319Y0144896D01*
X0120278Y0144861D01*
X0120239Y0144822D01*
X0120204Y0144781D01*
X0120171Y0144737D01*
X0120142Y0144692D01*
X0120116Y0144644D01*
X0120093Y0144594D01*
X0120074Y0144543D01*
X0120058Y0144491D01*
X0120047Y0144438D01*
X0120039Y0144384D01*
X0120035Y0144330D01*
X0145069Y0144329D02*
X0144529Y0144329D01*
X0144529Y0144330D02*
X0144525Y0144382D01*
X0144518Y0144433D01*
X0144507Y0144483D01*
X0144492Y0144533D01*
X0144474Y0144581D01*
X0144452Y0144628D01*
X0144427Y0144674D01*
X0144399Y0144717D01*
X0144368Y0144758D01*
X0144334Y0144798D01*
X0144298Y0144834D01*
X0144258Y0144868D01*
X0144217Y0144899D01*
X0144174Y0144927D01*
X0144128Y0144952D01*
X0144081Y0144974D01*
X0144033Y0144992D01*
X0143983Y0145007D01*
X0143933Y0145018D01*
X0143882Y0145025D01*
X0143830Y0145029D01*
X0143829Y0145569D01*
X0143830Y0145570D01*
X0143899Y0145566D01*
X0143968Y0145559D01*
X0144036Y0145548D01*
X0144103Y0145533D01*
X0144170Y0145515D01*
X0144236Y0145493D01*
X0144300Y0145468D01*
X0144363Y0145439D01*
X0144424Y0145406D01*
X0144483Y0145371D01*
X0144540Y0145332D01*
X0144595Y0145290D01*
X0144648Y0145246D01*
X0144698Y0145198D01*
X0144746Y0145148D01*
X0144790Y0145095D01*
X0144832Y0145040D01*
X0144871Y0144983D01*
X0144906Y0144924D01*
X0144939Y0144863D01*
X0144968Y0144800D01*
X0144993Y0144736D01*
X0145015Y0144670D01*
X0145033Y0144603D01*
X0145048Y0144536D01*
X0145059Y0144468D01*
X0145066Y0144399D01*
X0145070Y0144330D01*
X0145014Y0144330D01*
X0145010Y0144398D01*
X0145003Y0144466D01*
X0144991Y0144534D01*
X0144976Y0144600D01*
X0144957Y0144666D01*
X0144935Y0144731D01*
X0144909Y0144794D01*
X0144879Y0144856D01*
X0144846Y0144916D01*
X0144810Y0144974D01*
X0144770Y0145029D01*
X0144728Y0145083D01*
X0144682Y0145134D01*
X0144634Y0145182D01*
X0144583Y0145228D01*
X0144529Y0145270D01*
X0144474Y0145310D01*
X0144416Y0145346D01*
X0144356Y0145379D01*
X0144294Y0145409D01*
X0144231Y0145435D01*
X0144166Y0145457D01*
X0144100Y0145476D01*
X0144034Y0145491D01*
X0143966Y0145503D01*
X0143898Y0145510D01*
X0143830Y0145514D01*
X0143830Y0145458D01*
X0143898Y0145454D01*
X0143965Y0145446D01*
X0144031Y0145435D01*
X0144097Y0145419D01*
X0144162Y0145400D01*
X0144226Y0145377D01*
X0144288Y0145350D01*
X0144348Y0145320D01*
X0144407Y0145286D01*
X0144464Y0145249D01*
X0144518Y0145209D01*
X0144570Y0145165D01*
X0144619Y0145119D01*
X0144665Y0145070D01*
X0144709Y0145018D01*
X0144749Y0144964D01*
X0144786Y0144907D01*
X0144820Y0144848D01*
X0144850Y0144788D01*
X0144877Y0144726D01*
X0144900Y0144662D01*
X0144919Y0144597D01*
X0144935Y0144531D01*
X0144946Y0144465D01*
X0144954Y0144398D01*
X0144958Y0144330D01*
X0144902Y0144330D01*
X0144898Y0144394D01*
X0144891Y0144458D01*
X0144880Y0144521D01*
X0144865Y0144584D01*
X0144846Y0144645D01*
X0144825Y0144706D01*
X0144799Y0144765D01*
X0144770Y0144822D01*
X0144738Y0144878D01*
X0144703Y0144932D01*
X0144665Y0144983D01*
X0144623Y0145032D01*
X0144579Y0145079D01*
X0144532Y0145123D01*
X0144483Y0145165D01*
X0144432Y0145203D01*
X0144378Y0145238D01*
X0144322Y0145270D01*
X0144265Y0145299D01*
X0144206Y0145325D01*
X0144145Y0145346D01*
X0144084Y0145365D01*
X0144021Y0145380D01*
X0143958Y0145391D01*
X0143894Y0145398D01*
X0143830Y0145402D01*
X0143830Y0145346D01*
X0143893Y0145342D01*
X0143956Y0145334D01*
X0144018Y0145323D01*
X0144080Y0145308D01*
X0144140Y0145289D01*
X0144200Y0145267D01*
X0144257Y0145241D01*
X0144313Y0145211D01*
X0144368Y0145179D01*
X0144420Y0145143D01*
X0144470Y0145104D01*
X0144517Y0145062D01*
X0144562Y0145017D01*
X0144604Y0144970D01*
X0144643Y0144920D01*
X0144679Y0144868D01*
X0144711Y0144813D01*
X0144741Y0144757D01*
X0144767Y0144700D01*
X0144789Y0144640D01*
X0144808Y0144580D01*
X0144823Y0144518D01*
X0144834Y0144456D01*
X0144842Y0144393D01*
X0144846Y0144330D01*
X0144790Y0144330D01*
X0144786Y0144392D01*
X0144778Y0144454D01*
X0144766Y0144515D01*
X0144751Y0144575D01*
X0144732Y0144635D01*
X0144709Y0144693D01*
X0144682Y0144749D01*
X0144652Y0144804D01*
X0144619Y0144856D01*
X0144582Y0144907D01*
X0144543Y0144955D01*
X0144500Y0145000D01*
X0144455Y0145043D01*
X0144407Y0145082D01*
X0144356Y0145119D01*
X0144304Y0145152D01*
X0144249Y0145182D01*
X0144193Y0145209D01*
X0144135Y0145232D01*
X0144075Y0145251D01*
X0144015Y0145266D01*
X0143954Y0145278D01*
X0143892Y0145286D01*
X0143830Y0145290D01*
X0143830Y0145234D01*
X0143888Y0145230D01*
X0143947Y0145222D01*
X0144004Y0145211D01*
X0144061Y0145197D01*
X0144117Y0145179D01*
X0144171Y0145157D01*
X0144224Y0145132D01*
X0144276Y0145104D01*
X0144325Y0145072D01*
X0144373Y0145038D01*
X0144418Y0145001D01*
X0144460Y0144960D01*
X0144501Y0144918D01*
X0144538Y0144873D01*
X0144572Y0144825D01*
X0144604Y0144776D01*
X0144632Y0144724D01*
X0144657Y0144671D01*
X0144679Y0144617D01*
X0144697Y0144561D01*
X0144711Y0144504D01*
X0144722Y0144447D01*
X0144730Y0144388D01*
X0144734Y0144330D01*
X0144677Y0144330D01*
X0144674Y0144387D01*
X0144666Y0144444D01*
X0144655Y0144500D01*
X0144640Y0144556D01*
X0144621Y0144610D01*
X0144599Y0144663D01*
X0144574Y0144714D01*
X0144545Y0144764D01*
X0144514Y0144812D01*
X0144479Y0144857D01*
X0144441Y0144900D01*
X0144400Y0144941D01*
X0144357Y0144979D01*
X0144312Y0145014D01*
X0144264Y0145045D01*
X0144214Y0145074D01*
X0144163Y0145099D01*
X0144110Y0145121D01*
X0144056Y0145140D01*
X0144000Y0145155D01*
X0143944Y0145166D01*
X0143887Y0145174D01*
X0143830Y0145177D01*
X0143830Y0145121D01*
X0143886Y0145118D01*
X0143941Y0145110D01*
X0143996Y0145098D01*
X0144050Y0145083D01*
X0144103Y0145064D01*
X0144154Y0145042D01*
X0144203Y0145016D01*
X0144251Y0144987D01*
X0144297Y0144955D01*
X0144340Y0144919D01*
X0144381Y0144881D01*
X0144419Y0144840D01*
X0144455Y0144797D01*
X0144487Y0144751D01*
X0144516Y0144703D01*
X0144542Y0144654D01*
X0144564Y0144603D01*
X0144583Y0144550D01*
X0144598Y0144496D01*
X0144610Y0144441D01*
X0144618Y0144386D01*
X0144621Y0144330D01*
X0144565Y0144330D01*
X0144561Y0144384D01*
X0144553Y0144438D01*
X0144542Y0144491D01*
X0144526Y0144543D01*
X0144507Y0144594D01*
X0144484Y0144644D01*
X0144458Y0144692D01*
X0144429Y0144737D01*
X0144396Y0144781D01*
X0144361Y0144822D01*
X0144322Y0144861D01*
X0144281Y0144896D01*
X0144237Y0144929D01*
X0144192Y0144958D01*
X0144144Y0144984D01*
X0144094Y0145007D01*
X0144043Y0145026D01*
X0143991Y0145042D01*
X0143938Y0145053D01*
X0143884Y0145061D01*
X0143830Y0145065D01*
X0143829Y0136031D02*
X0143829Y0136571D01*
X0143830Y0136571D02*
X0143882Y0136575D01*
X0143933Y0136582D01*
X0143983Y0136593D01*
X0144033Y0136608D01*
X0144081Y0136626D01*
X0144128Y0136648D01*
X0144174Y0136673D01*
X0144217Y0136701D01*
X0144258Y0136732D01*
X0144298Y0136766D01*
X0144334Y0136802D01*
X0144368Y0136842D01*
X0144399Y0136883D01*
X0144427Y0136926D01*
X0144452Y0136972D01*
X0144474Y0137019D01*
X0144492Y0137067D01*
X0144507Y0137117D01*
X0144518Y0137167D01*
X0144525Y0137218D01*
X0144529Y0137270D01*
X0145069Y0137271D01*
X0145070Y0137270D01*
X0145066Y0137201D01*
X0145059Y0137132D01*
X0145048Y0137064D01*
X0145033Y0136997D01*
X0145015Y0136930D01*
X0144993Y0136864D01*
X0144968Y0136800D01*
X0144939Y0136737D01*
X0144906Y0136676D01*
X0144871Y0136617D01*
X0144832Y0136560D01*
X0144790Y0136505D01*
X0144746Y0136452D01*
X0144698Y0136402D01*
X0144648Y0136354D01*
X0144595Y0136310D01*
X0144540Y0136268D01*
X0144483Y0136229D01*
X0144424Y0136194D01*
X0144363Y0136161D01*
X0144300Y0136132D01*
X0144236Y0136107D01*
X0144170Y0136085D01*
X0144103Y0136067D01*
X0144036Y0136052D01*
X0143968Y0136041D01*
X0143899Y0136034D01*
X0143830Y0136030D01*
X0143830Y0136086D01*
X0143898Y0136090D01*
X0143966Y0136097D01*
X0144034Y0136109D01*
X0144100Y0136124D01*
X0144166Y0136143D01*
X0144231Y0136165D01*
X0144294Y0136191D01*
X0144356Y0136221D01*
X0144416Y0136254D01*
X0144474Y0136290D01*
X0144529Y0136330D01*
X0144583Y0136372D01*
X0144634Y0136418D01*
X0144682Y0136466D01*
X0144728Y0136517D01*
X0144770Y0136571D01*
X0144810Y0136626D01*
X0144846Y0136684D01*
X0144879Y0136744D01*
X0144909Y0136806D01*
X0144935Y0136869D01*
X0144957Y0136934D01*
X0144976Y0137000D01*
X0144991Y0137066D01*
X0145003Y0137134D01*
X0145010Y0137202D01*
X0145014Y0137270D01*
X0144958Y0137270D01*
X0144954Y0137202D01*
X0144946Y0137135D01*
X0144935Y0137069D01*
X0144919Y0137003D01*
X0144900Y0136938D01*
X0144877Y0136874D01*
X0144850Y0136812D01*
X0144820Y0136752D01*
X0144786Y0136693D01*
X0144749Y0136636D01*
X0144709Y0136582D01*
X0144665Y0136530D01*
X0144619Y0136481D01*
X0144570Y0136435D01*
X0144518Y0136391D01*
X0144464Y0136351D01*
X0144407Y0136314D01*
X0144348Y0136280D01*
X0144288Y0136250D01*
X0144226Y0136223D01*
X0144162Y0136200D01*
X0144097Y0136181D01*
X0144031Y0136165D01*
X0143965Y0136154D01*
X0143898Y0136146D01*
X0143830Y0136142D01*
X0143830Y0136198D01*
X0143894Y0136202D01*
X0143958Y0136209D01*
X0144021Y0136220D01*
X0144084Y0136235D01*
X0144145Y0136254D01*
X0144206Y0136275D01*
X0144265Y0136301D01*
X0144322Y0136330D01*
X0144378Y0136362D01*
X0144432Y0136397D01*
X0144483Y0136435D01*
X0144532Y0136477D01*
X0144579Y0136521D01*
X0144623Y0136568D01*
X0144665Y0136617D01*
X0144703Y0136668D01*
X0144738Y0136722D01*
X0144770Y0136778D01*
X0144799Y0136835D01*
X0144825Y0136894D01*
X0144846Y0136955D01*
X0144865Y0137016D01*
X0144880Y0137079D01*
X0144891Y0137142D01*
X0144898Y0137206D01*
X0144902Y0137270D01*
X0144846Y0137270D01*
X0144842Y0137207D01*
X0144834Y0137144D01*
X0144823Y0137082D01*
X0144808Y0137020D01*
X0144789Y0136960D01*
X0144767Y0136900D01*
X0144741Y0136843D01*
X0144711Y0136787D01*
X0144679Y0136732D01*
X0144643Y0136680D01*
X0144604Y0136630D01*
X0144562Y0136583D01*
X0144517Y0136538D01*
X0144470Y0136496D01*
X0144420Y0136457D01*
X0144368Y0136421D01*
X0144313Y0136389D01*
X0144257Y0136359D01*
X0144200Y0136333D01*
X0144140Y0136311D01*
X0144080Y0136292D01*
X0144018Y0136277D01*
X0143956Y0136266D01*
X0143893Y0136258D01*
X0143830Y0136254D01*
X0143830Y0136310D01*
X0143892Y0136314D01*
X0143954Y0136322D01*
X0144015Y0136334D01*
X0144075Y0136349D01*
X0144135Y0136368D01*
X0144193Y0136391D01*
X0144249Y0136418D01*
X0144304Y0136448D01*
X0144356Y0136481D01*
X0144407Y0136518D01*
X0144455Y0136557D01*
X0144500Y0136600D01*
X0144543Y0136645D01*
X0144582Y0136693D01*
X0144619Y0136744D01*
X0144652Y0136796D01*
X0144682Y0136851D01*
X0144709Y0136907D01*
X0144732Y0136965D01*
X0144751Y0137025D01*
X0144766Y0137085D01*
X0144778Y0137146D01*
X0144786Y0137208D01*
X0144790Y0137270D01*
X0144734Y0137270D01*
X0144730Y0137212D01*
X0144722Y0137153D01*
X0144711Y0137096D01*
X0144697Y0137039D01*
X0144679Y0136983D01*
X0144657Y0136929D01*
X0144632Y0136876D01*
X0144604Y0136824D01*
X0144572Y0136775D01*
X0144538Y0136727D01*
X0144501Y0136682D01*
X0144460Y0136640D01*
X0144418Y0136599D01*
X0144373Y0136562D01*
X0144325Y0136528D01*
X0144276Y0136496D01*
X0144224Y0136468D01*
X0144171Y0136443D01*
X0144117Y0136421D01*
X0144061Y0136403D01*
X0144004Y0136389D01*
X0143947Y0136378D01*
X0143888Y0136370D01*
X0143830Y0136366D01*
X0143830Y0136423D01*
X0143887Y0136426D01*
X0143944Y0136434D01*
X0144000Y0136445D01*
X0144056Y0136460D01*
X0144110Y0136479D01*
X0144163Y0136501D01*
X0144214Y0136526D01*
X0144264Y0136555D01*
X0144312Y0136586D01*
X0144357Y0136621D01*
X0144400Y0136659D01*
X0144441Y0136700D01*
X0144479Y0136743D01*
X0144514Y0136788D01*
X0144545Y0136836D01*
X0144574Y0136886D01*
X0144599Y0136937D01*
X0144621Y0136990D01*
X0144640Y0137044D01*
X0144655Y0137100D01*
X0144666Y0137156D01*
X0144674Y0137213D01*
X0144677Y0137270D01*
X0144621Y0137270D01*
X0144618Y0137214D01*
X0144610Y0137159D01*
X0144598Y0137104D01*
X0144583Y0137050D01*
X0144564Y0136997D01*
X0144542Y0136946D01*
X0144516Y0136897D01*
X0144487Y0136849D01*
X0144455Y0136803D01*
X0144419Y0136760D01*
X0144381Y0136719D01*
X0144340Y0136681D01*
X0144297Y0136645D01*
X0144251Y0136613D01*
X0144203Y0136584D01*
X0144154Y0136558D01*
X0144103Y0136536D01*
X0144050Y0136517D01*
X0143996Y0136502D01*
X0143941Y0136490D01*
X0143886Y0136482D01*
X0143830Y0136479D01*
X0143830Y0136535D01*
X0143884Y0136539D01*
X0143938Y0136547D01*
X0143991Y0136558D01*
X0144043Y0136574D01*
X0144094Y0136593D01*
X0144144Y0136616D01*
X0144192Y0136642D01*
X0144237Y0136671D01*
X0144281Y0136704D01*
X0144322Y0136739D01*
X0144361Y0136778D01*
X0144396Y0136819D01*
X0144429Y0136863D01*
X0144458Y0136908D01*
X0144484Y0136956D01*
X0144507Y0137006D01*
X0144526Y0137057D01*
X0144542Y0137109D01*
X0144553Y0137162D01*
X0144561Y0137216D01*
X0144565Y0137270D01*
X0167230Y0144672D02*
X0166804Y0144341D01*
X0166805Y0144341D02*
X0166712Y0144456D01*
X0166617Y0144568D01*
X0166519Y0144678D01*
X0166418Y0144785D01*
X0166314Y0144889D01*
X0166207Y0144991D01*
X0166098Y0145090D01*
X0165987Y0145186D01*
X0165873Y0145280D01*
X0165757Y0145370D01*
X0165638Y0145457D01*
X0165517Y0145541D01*
X0165395Y0145622D01*
X0165270Y0145700D01*
X0165143Y0145775D01*
X0165014Y0145846D01*
X0164884Y0145915D01*
X0164751Y0145979D01*
X0164617Y0146040D01*
X0164482Y0146098D01*
X0164345Y0146153D01*
X0164207Y0146203D01*
X0164067Y0146251D01*
X0163927Y0146294D01*
X0163785Y0146334D01*
X0163643Y0146371D01*
X0163499Y0146403D01*
X0163355Y0146432D01*
X0163210Y0146457D01*
X0163064Y0146479D01*
X0162918Y0146497D01*
X0162771Y0146511D01*
X0162624Y0146521D01*
X0162477Y0146527D01*
X0162330Y0146530D01*
X0162330Y0147069D01*
X0162330Y0147070D01*
X0162487Y0147067D01*
X0162643Y0147061D01*
X0162800Y0147050D01*
X0162956Y0147036D01*
X0163112Y0147017D01*
X0163267Y0146995D01*
X0163421Y0146969D01*
X0163575Y0146939D01*
X0163728Y0146905D01*
X0163881Y0146867D01*
X0164032Y0146826D01*
X0164182Y0146781D01*
X0164331Y0146732D01*
X0164479Y0146679D01*
X0164625Y0146623D01*
X0164770Y0146563D01*
X0164913Y0146499D01*
X0165055Y0146432D01*
X0165195Y0146362D01*
X0165333Y0146288D01*
X0165469Y0146210D01*
X0165604Y0146129D01*
X0165736Y0146045D01*
X0165866Y0145957D01*
X0165994Y0145867D01*
X0166119Y0145773D01*
X0166242Y0145676D01*
X0166363Y0145575D01*
X0166481Y0145472D01*
X0166597Y0145366D01*
X0166709Y0145258D01*
X0166820Y0145146D01*
X0166927Y0145032D01*
X0167031Y0144915D01*
X0167133Y0144795D01*
X0167231Y0144673D01*
X0167187Y0144638D01*
X0167089Y0144759D01*
X0166989Y0144878D01*
X0166885Y0144994D01*
X0166779Y0145107D01*
X0166670Y0145218D01*
X0166558Y0145326D01*
X0166444Y0145431D01*
X0166327Y0145533D01*
X0166207Y0145632D01*
X0166085Y0145728D01*
X0165961Y0145821D01*
X0165834Y0145911D01*
X0165705Y0145998D01*
X0165574Y0146082D01*
X0165441Y0146162D01*
X0165306Y0146239D01*
X0165169Y0146312D01*
X0165030Y0146382D01*
X0164890Y0146449D01*
X0164748Y0146512D01*
X0164604Y0146571D01*
X0164459Y0146627D01*
X0164313Y0146679D01*
X0164165Y0146727D01*
X0164017Y0146772D01*
X0163867Y0146813D01*
X0163716Y0146851D01*
X0163564Y0146884D01*
X0163412Y0146914D01*
X0163258Y0146940D01*
X0163105Y0146962D01*
X0162950Y0146980D01*
X0162796Y0146994D01*
X0162641Y0147005D01*
X0162485Y0147011D01*
X0162330Y0147014D01*
X0162330Y0146958D01*
X0162484Y0146955D01*
X0162638Y0146949D01*
X0162791Y0146938D01*
X0162945Y0146924D01*
X0163098Y0146906D01*
X0163250Y0146884D01*
X0163402Y0146859D01*
X0163553Y0146829D01*
X0163703Y0146796D01*
X0163853Y0146759D01*
X0164001Y0146718D01*
X0164149Y0146674D01*
X0164295Y0146626D01*
X0164440Y0146574D01*
X0164584Y0146519D01*
X0164726Y0146460D01*
X0164867Y0146398D01*
X0165006Y0146332D01*
X0165143Y0146262D01*
X0165279Y0146190D01*
X0165413Y0146113D01*
X0165544Y0146034D01*
X0165674Y0145951D01*
X0165802Y0145865D01*
X0165927Y0145776D01*
X0166051Y0145684D01*
X0166172Y0145589D01*
X0166290Y0145490D01*
X0166406Y0145389D01*
X0166520Y0145285D01*
X0166630Y0145178D01*
X0166739Y0145069D01*
X0166844Y0144956D01*
X0166946Y0144841D01*
X0167046Y0144724D01*
X0167142Y0144604D01*
X0167098Y0144570D01*
X0167003Y0144688D01*
X0166904Y0144805D01*
X0166802Y0144919D01*
X0166698Y0145030D01*
X0166591Y0145139D01*
X0166481Y0145244D01*
X0166369Y0145348D01*
X0166254Y0145448D01*
X0166136Y0145545D01*
X0166017Y0145640D01*
X0165894Y0145731D01*
X0165770Y0145819D01*
X0165643Y0145904D01*
X0165515Y0145986D01*
X0165384Y0146065D01*
X0165252Y0146141D01*
X0165117Y0146213D01*
X0164981Y0146281D01*
X0164843Y0146347D01*
X0164704Y0146409D01*
X0164563Y0146467D01*
X0164420Y0146522D01*
X0164277Y0146573D01*
X0164132Y0146621D01*
X0163986Y0146665D01*
X0163839Y0146705D01*
X0163691Y0146741D01*
X0163542Y0146774D01*
X0163392Y0146804D01*
X0163242Y0146829D01*
X0163091Y0146851D01*
X0162939Y0146868D01*
X0162787Y0146883D01*
X0162635Y0146893D01*
X0162483Y0146899D01*
X0162330Y0146902D01*
X0162330Y0146846D01*
X0162481Y0146843D01*
X0162632Y0146837D01*
X0162783Y0146827D01*
X0162933Y0146813D01*
X0163083Y0146795D01*
X0163233Y0146774D01*
X0163382Y0146748D01*
X0163530Y0146719D01*
X0163678Y0146687D01*
X0163825Y0146651D01*
X0163970Y0146611D01*
X0164115Y0146567D01*
X0164259Y0146520D01*
X0164401Y0146469D01*
X0164542Y0146415D01*
X0164682Y0146357D01*
X0164820Y0146296D01*
X0164956Y0146231D01*
X0165091Y0146163D01*
X0165225Y0146092D01*
X0165356Y0146017D01*
X0165485Y0145939D01*
X0165613Y0145858D01*
X0165738Y0145773D01*
X0165861Y0145686D01*
X0165982Y0145595D01*
X0166101Y0145502D01*
X0166217Y0145405D01*
X0166331Y0145306D01*
X0166443Y0145204D01*
X0166551Y0145099D01*
X0166657Y0144991D01*
X0166761Y0144881D01*
X0166861Y0144768D01*
X0166959Y0144653D01*
X0167054Y0144535D01*
X0167010Y0144501D01*
X0166913Y0144621D01*
X0166813Y0144738D01*
X0166711Y0144853D01*
X0166605Y0144965D01*
X0166497Y0145074D01*
X0166385Y0145181D01*
X0166271Y0145284D01*
X0166155Y0145385D01*
X0166036Y0145482D01*
X0165914Y0145577D01*
X0165790Y0145668D01*
X0165664Y0145756D01*
X0165535Y0145841D01*
X0165405Y0145923D01*
X0165272Y0146001D01*
X0165137Y0146075D01*
X0165001Y0146147D01*
X0164862Y0146214D01*
X0164722Y0146278D01*
X0164581Y0146339D01*
X0164438Y0146396D01*
X0164293Y0146449D01*
X0164147Y0146498D01*
X0164000Y0146544D01*
X0163852Y0146585D01*
X0163703Y0146623D01*
X0163553Y0146658D01*
X0163402Y0146688D01*
X0163250Y0146714D01*
X0163098Y0146737D01*
X0162945Y0146755D01*
X0162791Y0146770D01*
X0162638Y0146780D01*
X0162484Y0146787D01*
X0162330Y0146790D01*
X0162330Y0146734D01*
X0162483Y0146731D01*
X0162635Y0146725D01*
X0162787Y0146714D01*
X0162939Y0146700D01*
X0163090Y0146681D01*
X0163241Y0146659D01*
X0163392Y0146633D01*
X0163541Y0146603D01*
X0163690Y0146569D01*
X0163838Y0146531D01*
X0163984Y0146490D01*
X0164130Y0146445D01*
X0164275Y0146396D01*
X0164418Y0146343D01*
X0164560Y0146287D01*
X0164700Y0146227D01*
X0164839Y0146164D01*
X0164976Y0146097D01*
X0165111Y0146026D01*
X0165244Y0145952D01*
X0165376Y0145875D01*
X0165505Y0145794D01*
X0165632Y0145710D01*
X0165757Y0145623D01*
X0165880Y0145532D01*
X0166001Y0145439D01*
X0166119Y0145342D01*
X0166234Y0145242D01*
X0166347Y0145140D01*
X0166457Y0145034D01*
X0166565Y0144926D01*
X0166669Y0144815D01*
X0166771Y0144701D01*
X0166870Y0144585D01*
X0166966Y0144467D01*
X0166921Y0144432D01*
X0166827Y0144550D01*
X0166729Y0144665D01*
X0166628Y0144777D01*
X0166524Y0144887D01*
X0166418Y0144995D01*
X0166309Y0145099D01*
X0166197Y0145201D01*
X0166083Y0145299D01*
X0165966Y0145395D01*
X0165846Y0145488D01*
X0165725Y0145577D01*
X0165601Y0145664D01*
X0165475Y0145747D01*
X0165347Y0145827D01*
X0165216Y0145904D01*
X0165084Y0145977D01*
X0164950Y0146047D01*
X0164815Y0146113D01*
X0164677Y0146176D01*
X0164538Y0146235D01*
X0164398Y0146291D01*
X0164256Y0146343D01*
X0164113Y0146391D01*
X0163969Y0146436D01*
X0163823Y0146477D01*
X0163677Y0146514D01*
X0163530Y0146548D01*
X0163381Y0146578D01*
X0163233Y0146604D01*
X0163083Y0146626D01*
X0162933Y0146644D01*
X0162783Y0146658D01*
X0162632Y0146669D01*
X0162481Y0146675D01*
X0162330Y0146678D01*
X0162330Y0146622D01*
X0162480Y0146619D01*
X0162629Y0146613D01*
X0162778Y0146602D01*
X0162927Y0146588D01*
X0163076Y0146570D01*
X0163224Y0146548D01*
X0163371Y0146523D01*
X0163518Y0146493D01*
X0163664Y0146460D01*
X0163809Y0146423D01*
X0163953Y0146382D01*
X0164096Y0146338D01*
X0164237Y0146290D01*
X0164378Y0146239D01*
X0164517Y0146183D01*
X0164655Y0146125D01*
X0164791Y0146062D01*
X0164925Y0145997D01*
X0165058Y0145927D01*
X0165189Y0145855D01*
X0165317Y0145779D01*
X0165444Y0145700D01*
X0165569Y0145617D01*
X0165692Y0145532D01*
X0165812Y0145443D01*
X0165931Y0145351D01*
X0166046Y0145256D01*
X0166160Y0145159D01*
X0166270Y0145058D01*
X0166378Y0144955D01*
X0166484Y0144849D01*
X0166587Y0144740D01*
X0166686Y0144628D01*
X0166783Y0144514D01*
X0166877Y0144398D01*
X0166833Y0144363D01*
X0166740Y0144479D01*
X0166644Y0144592D01*
X0166545Y0144702D01*
X0166444Y0144810D01*
X0166339Y0144915D01*
X0166232Y0145017D01*
X0166122Y0145117D01*
X0166010Y0145214D01*
X0165896Y0145308D01*
X0165779Y0145399D01*
X0165659Y0145486D01*
X0165538Y0145571D01*
X0165414Y0145653D01*
X0165288Y0145731D01*
X0165161Y0145806D01*
X0165031Y0145878D01*
X0164900Y0145947D01*
X0164767Y0146012D01*
X0164632Y0146073D01*
X0164496Y0146132D01*
X0164358Y0146186D01*
X0164219Y0146237D01*
X0164079Y0146285D01*
X0163937Y0146329D01*
X0163794Y0146369D01*
X0163651Y0146406D01*
X0163506Y0146438D01*
X0163361Y0146468D01*
X0163215Y0146493D01*
X0163069Y0146515D01*
X0162921Y0146532D01*
X0162774Y0146546D01*
X0162626Y0146557D01*
X0162478Y0146563D01*
X0162330Y0146566D01*
X0162329Y0134531D02*
X0162329Y0135071D01*
X0162330Y0135070D02*
X0162480Y0135073D01*
X0162630Y0135080D01*
X0162780Y0135090D01*
X0162929Y0135105D01*
X0163078Y0135123D01*
X0163226Y0135145D01*
X0163374Y0135172D01*
X0163521Y0135202D01*
X0163668Y0135236D01*
X0163813Y0135273D01*
X0163957Y0135315D01*
X0164100Y0135360D01*
X0164242Y0135409D01*
X0164383Y0135462D01*
X0164522Y0135518D01*
X0164659Y0135578D01*
X0164795Y0135642D01*
X0164929Y0135709D01*
X0165062Y0135780D01*
X0165192Y0135854D01*
X0165321Y0135931D01*
X0165447Y0136012D01*
X0165572Y0136096D01*
X0165694Y0136183D01*
X0165814Y0136274D01*
X0165931Y0136367D01*
X0166046Y0136464D01*
X0166158Y0136564D01*
X0166268Y0136666D01*
X0166375Y0136771D01*
X0166479Y0136879D01*
X0166580Y0136990D01*
X0166678Y0137104D01*
X0166774Y0137220D01*
X0166866Y0137338D01*
X0167297Y0137015D01*
X0167298Y0137014D01*
X0167203Y0136891D01*
X0167104Y0136771D01*
X0167003Y0136653D01*
X0166898Y0136538D01*
X0166791Y0136425D01*
X0166681Y0136315D01*
X0166569Y0136208D01*
X0166454Y0136103D01*
X0166336Y0136002D01*
X0166216Y0135903D01*
X0166093Y0135807D01*
X0165968Y0135715D01*
X0165841Y0135625D01*
X0165711Y0135539D01*
X0165580Y0135456D01*
X0165446Y0135376D01*
X0165311Y0135300D01*
X0165173Y0135227D01*
X0165034Y0135158D01*
X0164893Y0135092D01*
X0164751Y0135029D01*
X0164607Y0134970D01*
X0164462Y0134915D01*
X0164315Y0134863D01*
X0164167Y0134815D01*
X0164018Y0134770D01*
X0163868Y0134729D01*
X0163717Y0134692D01*
X0163565Y0134659D01*
X0163413Y0134630D01*
X0163259Y0134604D01*
X0163105Y0134582D01*
X0162951Y0134564D01*
X0162796Y0134550D01*
X0162641Y0134539D01*
X0162485Y0134533D01*
X0162330Y0134530D01*
X0162330Y0134586D01*
X0162484Y0134589D01*
X0162638Y0134595D01*
X0162792Y0134605D01*
X0162945Y0134620D01*
X0163098Y0134637D01*
X0163251Y0134659D01*
X0163403Y0134685D01*
X0163554Y0134714D01*
X0163705Y0134747D01*
X0163854Y0134784D01*
X0164003Y0134824D01*
X0164151Y0134868D01*
X0164297Y0134916D01*
X0164443Y0134967D01*
X0164587Y0135022D01*
X0164729Y0135081D01*
X0164870Y0135143D01*
X0165010Y0135208D01*
X0165148Y0135277D01*
X0165284Y0135349D01*
X0165418Y0135425D01*
X0165550Y0135504D01*
X0165681Y0135586D01*
X0165809Y0135672D01*
X0165935Y0135760D01*
X0166059Y0135852D01*
X0166180Y0135947D01*
X0166300Y0136044D01*
X0166416Y0136145D01*
X0166531Y0136248D01*
X0166642Y0136355D01*
X0166751Y0136464D01*
X0166857Y0136576D01*
X0166961Y0136690D01*
X0167061Y0136807D01*
X0167159Y0136926D01*
X0167253Y0137048D01*
X0167208Y0137081D01*
X0167115Y0136961D01*
X0167018Y0136842D01*
X0166918Y0136727D01*
X0166816Y0136613D01*
X0166711Y0136503D01*
X0166603Y0136395D01*
X0166492Y0136289D01*
X0166379Y0136187D01*
X0166263Y0136087D01*
X0166145Y0135990D01*
X0166025Y0135896D01*
X0165902Y0135806D01*
X0165777Y0135718D01*
X0165650Y0135633D01*
X0165521Y0135552D01*
X0165390Y0135473D01*
X0165257Y0135398D01*
X0165122Y0135327D01*
X0164985Y0135258D01*
X0164847Y0135194D01*
X0164707Y0135132D01*
X0164566Y0135074D01*
X0164423Y0135020D01*
X0164279Y0134969D01*
X0164134Y0134922D01*
X0163988Y0134878D01*
X0163841Y0134838D01*
X0163692Y0134801D01*
X0163543Y0134769D01*
X0163393Y0134740D01*
X0163243Y0134715D01*
X0163091Y0134693D01*
X0162940Y0134675D01*
X0162788Y0134661D01*
X0162635Y0134651D01*
X0162483Y0134645D01*
X0162330Y0134642D01*
X0162330Y0134698D01*
X0162485Y0134701D01*
X0162641Y0134708D01*
X0162796Y0134718D01*
X0162951Y0134733D01*
X0163105Y0134751D01*
X0163259Y0134774D01*
X0163412Y0134800D01*
X0163565Y0134831D01*
X0163717Y0134865D01*
X0163867Y0134903D01*
X0164017Y0134945D01*
X0164166Y0134990D01*
X0164313Y0135040D01*
X0164459Y0135093D01*
X0164604Y0135150D01*
X0164747Y0135210D01*
X0164889Y0135274D01*
X0165029Y0135342D01*
X0165167Y0135414D01*
X0165303Y0135488D01*
X0165438Y0135567D01*
X0165570Y0135648D01*
X0165700Y0135733D01*
X0165828Y0135822D01*
X0165954Y0135913D01*
X0166077Y0136008D01*
X0166198Y0136106D01*
X0166317Y0136206D01*
X0166432Y0136310D01*
X0166545Y0136417D01*
X0166656Y0136527D01*
X0166763Y0136639D01*
X0166868Y0136754D01*
X0166969Y0136872D01*
X0167068Y0136992D01*
X0167164Y0137115D01*
X0167119Y0137148D01*
X0167024Y0137027D01*
X0166926Y0136908D01*
X0166826Y0136791D01*
X0166722Y0136677D01*
X0166616Y0136566D01*
X0166506Y0136457D01*
X0166394Y0136351D01*
X0166280Y0136249D01*
X0166162Y0136149D01*
X0166043Y0136052D01*
X0165920Y0135958D01*
X0165796Y0135867D01*
X0165669Y0135780D01*
X0165540Y0135695D01*
X0165409Y0135615D01*
X0165276Y0135537D01*
X0165141Y0135463D01*
X0165004Y0135392D01*
X0164865Y0135325D01*
X0164725Y0135262D01*
X0164583Y0135202D01*
X0164440Y0135145D01*
X0164295Y0135093D01*
X0164149Y0135044D01*
X0164001Y0134998D01*
X0163853Y0134957D01*
X0163704Y0134919D01*
X0163553Y0134885D01*
X0163402Y0134855D01*
X0163250Y0134829D01*
X0163098Y0134807D01*
X0162945Y0134789D01*
X0162792Y0134774D01*
X0162638Y0134763D01*
X0162484Y0134757D01*
X0162330Y0134754D01*
X0162330Y0134810D01*
X0162483Y0134813D01*
X0162635Y0134819D01*
X0162787Y0134830D01*
X0162939Y0134844D01*
X0163091Y0134862D01*
X0163242Y0134885D01*
X0163392Y0134910D01*
X0163542Y0134940D01*
X0163691Y0134974D01*
X0163839Y0135011D01*
X0163986Y0135052D01*
X0164132Y0135097D01*
X0164276Y0135145D01*
X0164420Y0135198D01*
X0164562Y0135253D01*
X0164702Y0135313D01*
X0164841Y0135376D01*
X0164979Y0135442D01*
X0165114Y0135512D01*
X0165248Y0135586D01*
X0165380Y0135663D01*
X0165510Y0135743D01*
X0165638Y0135826D01*
X0165763Y0135913D01*
X0165887Y0136003D01*
X0166008Y0136096D01*
X0166127Y0136192D01*
X0166243Y0136291D01*
X0166356Y0136392D01*
X0166467Y0136497D01*
X0166576Y0136605D01*
X0166681Y0136715D01*
X0166784Y0136828D01*
X0166883Y0136944D01*
X0166980Y0137062D01*
X0167074Y0137182D01*
X0167029Y0137216D01*
X0166936Y0137096D01*
X0166840Y0136979D01*
X0166742Y0136865D01*
X0166640Y0136753D01*
X0166535Y0136644D01*
X0166428Y0136537D01*
X0166318Y0136434D01*
X0166206Y0136333D01*
X0166091Y0136235D01*
X0165973Y0136139D01*
X0165853Y0136047D01*
X0165731Y0135958D01*
X0165607Y0135873D01*
X0165480Y0135790D01*
X0165351Y0135711D01*
X0165221Y0135635D01*
X0165088Y0135562D01*
X0164954Y0135492D01*
X0164818Y0135427D01*
X0164680Y0135364D01*
X0164541Y0135305D01*
X0164400Y0135250D01*
X0164258Y0135198D01*
X0164115Y0135150D01*
X0163970Y0135106D01*
X0163825Y0135065D01*
X0163678Y0135028D01*
X0163530Y0134995D01*
X0163382Y0134966D01*
X0163233Y0134940D01*
X0163084Y0134918D01*
X0162934Y0134900D01*
X0162783Y0134886D01*
X0162632Y0134875D01*
X0162481Y0134869D01*
X0162330Y0134866D01*
X0162330Y0134922D01*
X0162480Y0134925D01*
X0162629Y0134931D01*
X0162779Y0134942D01*
X0162928Y0134956D01*
X0163076Y0134974D01*
X0163225Y0134995D01*
X0163372Y0135021D01*
X0163519Y0135050D01*
X0163665Y0135083D01*
X0163810Y0135119D01*
X0163954Y0135160D01*
X0164098Y0135204D01*
X0164240Y0135251D01*
X0164380Y0135302D01*
X0164520Y0135357D01*
X0164658Y0135416D01*
X0164794Y0135477D01*
X0164929Y0135543D01*
X0165062Y0135611D01*
X0165193Y0135683D01*
X0165322Y0135759D01*
X0165450Y0135837D01*
X0165575Y0135919D01*
X0165699Y0136004D01*
X0165820Y0136092D01*
X0165938Y0136183D01*
X0166055Y0136278D01*
X0166169Y0136375D01*
X0166280Y0136475D01*
X0166389Y0136577D01*
X0166495Y0136683D01*
X0166599Y0136791D01*
X0166700Y0136902D01*
X0166797Y0137015D01*
X0166892Y0137131D01*
X0166984Y0137249D01*
X0166940Y0137283D01*
X0166848Y0137166D01*
X0166754Y0137051D01*
X0166657Y0136939D01*
X0166558Y0136829D01*
X0166455Y0136722D01*
X0166350Y0136618D01*
X0166242Y0136516D01*
X0166132Y0136417D01*
X0166019Y0136321D01*
X0165904Y0136227D01*
X0165786Y0136137D01*
X0165666Y0136050D01*
X0165544Y0135966D01*
X0165420Y0135884D01*
X0165294Y0135807D01*
X0165165Y0135732D01*
X0165035Y0135661D01*
X0164904Y0135593D01*
X0164770Y0135528D01*
X0164635Y0135467D01*
X0164499Y0135409D01*
X0164361Y0135355D01*
X0164221Y0135304D01*
X0164081Y0135257D01*
X0163939Y0135213D01*
X0163796Y0135173D01*
X0163652Y0135137D01*
X0163508Y0135105D01*
X0163362Y0135076D01*
X0163216Y0135051D01*
X0163069Y0135029D01*
X0162922Y0135011D01*
X0162774Y0134997D01*
X0162626Y0134987D01*
X0162478Y0134981D01*
X0162330Y0134978D01*
X0162330Y0135034D01*
X0162481Y0135037D01*
X0162632Y0135044D01*
X0162783Y0135054D01*
X0162933Y0135069D01*
X0163083Y0135087D01*
X0163232Y0135110D01*
X0163381Y0135136D01*
X0163529Y0135166D01*
X0163676Y0135201D01*
X0163822Y0135239D01*
X0163967Y0135280D01*
X0164111Y0135326D01*
X0164254Y0135375D01*
X0164396Y0135428D01*
X0164536Y0135485D01*
X0164674Y0135545D01*
X0164811Y0135609D01*
X0164946Y0135677D01*
X0165079Y0135748D01*
X0165211Y0135823D01*
X0165340Y0135900D01*
X0165467Y0135982D01*
X0165592Y0136066D01*
X0165715Y0136154D01*
X0165836Y0136245D01*
X0165954Y0136340D01*
X0166069Y0136437D01*
X0166182Y0136537D01*
X0166293Y0136640D01*
X0166400Y0136746D01*
X0166505Y0136855D01*
X0166607Y0136966D01*
X0166706Y0137081D01*
X0166802Y0137197D01*
X0166895Y0137316D01*
X0157216Y0137132D02*
X0157655Y0137446D01*
X0157655Y0137445D02*
X0157744Y0137325D01*
X0157836Y0137207D01*
X0157932Y0137092D01*
X0158030Y0136979D01*
X0158131Y0136869D01*
X0158235Y0136761D01*
X0158342Y0136657D01*
X0158452Y0136555D01*
X0158564Y0136456D01*
X0158678Y0136360D01*
X0158796Y0136267D01*
X0158915Y0136177D01*
X0159037Y0136090D01*
X0159161Y0136006D01*
X0159287Y0135926D01*
X0159416Y0135849D01*
X0159546Y0135775D01*
X0159678Y0135705D01*
X0159812Y0135638D01*
X0159948Y0135575D01*
X0160085Y0135516D01*
X0160223Y0135459D01*
X0160364Y0135407D01*
X0160505Y0135358D01*
X0160648Y0135313D01*
X0160792Y0135272D01*
X0160936Y0135235D01*
X0161082Y0135201D01*
X0161229Y0135171D01*
X0161376Y0135145D01*
X0161524Y0135123D01*
X0161673Y0135104D01*
X0161822Y0135090D01*
X0161971Y0135079D01*
X0162120Y0135073D01*
X0162270Y0135070D01*
X0162270Y0134531D01*
X0162270Y0134530D01*
X0162115Y0134533D01*
X0161960Y0134539D01*
X0161805Y0134550D01*
X0161650Y0134564D01*
X0161496Y0134582D01*
X0161342Y0134604D01*
X0161189Y0134629D01*
X0161037Y0134659D01*
X0160885Y0134692D01*
X0160734Y0134729D01*
X0160584Y0134769D01*
X0160435Y0134814D01*
X0160288Y0134862D01*
X0160141Y0134913D01*
X0159996Y0134969D01*
X0159853Y0135027D01*
X0159710Y0135090D01*
X0159570Y0135156D01*
X0159431Y0135225D01*
X0159294Y0135298D01*
X0159158Y0135374D01*
X0159025Y0135453D01*
X0158894Y0135536D01*
X0158764Y0135622D01*
X0158637Y0135711D01*
X0158512Y0135803D01*
X0158390Y0135899D01*
X0158270Y0135997D01*
X0158152Y0136098D01*
X0158037Y0136202D01*
X0157924Y0136309D01*
X0157814Y0136419D01*
X0157707Y0136531D01*
X0157603Y0136646D01*
X0157502Y0136764D01*
X0157403Y0136884D01*
X0157308Y0137007D01*
X0157215Y0137131D01*
X0157261Y0137164D01*
X0157353Y0137040D01*
X0157447Y0136919D01*
X0157545Y0136800D01*
X0157645Y0136683D01*
X0157749Y0136569D01*
X0157855Y0136458D01*
X0157963Y0136349D01*
X0158075Y0136243D01*
X0158189Y0136140D01*
X0158306Y0136040D01*
X0158425Y0135942D01*
X0158546Y0135848D01*
X0158670Y0135756D01*
X0158796Y0135668D01*
X0158924Y0135583D01*
X0159054Y0135501D01*
X0159186Y0135422D01*
X0159321Y0135347D01*
X0159457Y0135275D01*
X0159594Y0135206D01*
X0159733Y0135141D01*
X0159874Y0135079D01*
X0160017Y0135021D01*
X0160161Y0134966D01*
X0160306Y0134915D01*
X0160452Y0134867D01*
X0160599Y0134823D01*
X0160748Y0134783D01*
X0160897Y0134746D01*
X0161048Y0134714D01*
X0161199Y0134684D01*
X0161350Y0134659D01*
X0161503Y0134637D01*
X0161656Y0134620D01*
X0161809Y0134605D01*
X0161962Y0134595D01*
X0162116Y0134589D01*
X0162270Y0134586D01*
X0162270Y0134642D01*
X0162113Y0134645D01*
X0161957Y0134652D01*
X0161801Y0134662D01*
X0161645Y0134677D01*
X0161489Y0134696D01*
X0161334Y0134718D01*
X0161180Y0134745D01*
X0161026Y0134775D01*
X0160874Y0134809D01*
X0160722Y0134848D01*
X0160571Y0134890D01*
X0160421Y0134936D01*
X0160273Y0134985D01*
X0160126Y0135039D01*
X0159980Y0135096D01*
X0159836Y0135157D01*
X0159693Y0135221D01*
X0159552Y0135289D01*
X0159413Y0135361D01*
X0159275Y0135436D01*
X0159140Y0135515D01*
X0159007Y0135597D01*
X0158875Y0135682D01*
X0158746Y0135771D01*
X0158620Y0135863D01*
X0158495Y0135958D01*
X0158373Y0136056D01*
X0158254Y0136158D01*
X0158137Y0136262D01*
X0158023Y0136369D01*
X0157912Y0136479D01*
X0157804Y0136592D01*
X0157698Y0136708D01*
X0157596Y0136826D01*
X0157496Y0136947D01*
X0157400Y0137071D01*
X0157307Y0137196D01*
X0157352Y0137229D01*
X0157444Y0137104D01*
X0157540Y0136982D01*
X0157639Y0136862D01*
X0157740Y0136745D01*
X0157845Y0136630D01*
X0157952Y0136519D01*
X0158062Y0136409D01*
X0158175Y0136303D01*
X0158291Y0136200D01*
X0158409Y0136099D01*
X0158530Y0136002D01*
X0158653Y0135908D01*
X0158779Y0135816D01*
X0158907Y0135729D01*
X0159037Y0135644D01*
X0159169Y0135563D01*
X0159303Y0135485D01*
X0159439Y0135410D01*
X0159577Y0135339D01*
X0159717Y0135272D01*
X0159858Y0135208D01*
X0160001Y0135148D01*
X0160145Y0135091D01*
X0160291Y0135038D01*
X0160438Y0134989D01*
X0160587Y0134943D01*
X0160736Y0134902D01*
X0160887Y0134864D01*
X0161038Y0134830D01*
X0161190Y0134800D01*
X0161343Y0134774D01*
X0161497Y0134751D01*
X0161651Y0134733D01*
X0161805Y0134718D01*
X0161960Y0134707D01*
X0162115Y0134701D01*
X0162270Y0134698D01*
X0162270Y0134754D01*
X0162116Y0134757D01*
X0161963Y0134763D01*
X0161809Y0134774D01*
X0161656Y0134788D01*
X0161504Y0134807D01*
X0161352Y0134829D01*
X0161200Y0134855D01*
X0161049Y0134885D01*
X0160899Y0134918D01*
X0160750Y0134956D01*
X0160602Y0134997D01*
X0160455Y0135042D01*
X0160310Y0135091D01*
X0160165Y0135143D01*
X0160022Y0135200D01*
X0159880Y0135259D01*
X0159740Y0135323D01*
X0159602Y0135389D01*
X0159465Y0135460D01*
X0159330Y0135534D01*
X0159198Y0135611D01*
X0159067Y0135691D01*
X0158938Y0135775D01*
X0158811Y0135862D01*
X0158687Y0135952D01*
X0158565Y0136046D01*
X0158445Y0136142D01*
X0158328Y0136242D01*
X0158213Y0136344D01*
X0158101Y0136450D01*
X0157992Y0136558D01*
X0157886Y0136669D01*
X0157782Y0136782D01*
X0157681Y0136898D01*
X0157584Y0137017D01*
X0157489Y0137138D01*
X0157398Y0137261D01*
X0157443Y0137294D01*
X0157534Y0137172D01*
X0157628Y0137052D01*
X0157724Y0136934D01*
X0157824Y0136819D01*
X0157927Y0136707D01*
X0158032Y0136597D01*
X0158140Y0136490D01*
X0158251Y0136385D01*
X0158365Y0136284D01*
X0158481Y0136185D01*
X0158599Y0136090D01*
X0158720Y0135997D01*
X0158844Y0135908D01*
X0158969Y0135822D01*
X0159097Y0135739D01*
X0159226Y0135659D01*
X0159358Y0135582D01*
X0159492Y0135509D01*
X0159627Y0135440D01*
X0159764Y0135373D01*
X0159903Y0135311D01*
X0160043Y0135251D01*
X0160185Y0135196D01*
X0160328Y0135144D01*
X0160472Y0135096D01*
X0160618Y0135051D01*
X0160765Y0135010D01*
X0160912Y0134973D01*
X0161061Y0134940D01*
X0161210Y0134910D01*
X0161360Y0134884D01*
X0161511Y0134862D01*
X0161662Y0134844D01*
X0161814Y0134830D01*
X0161966Y0134819D01*
X0162118Y0134813D01*
X0162270Y0134810D01*
X0162270Y0134866D01*
X0162119Y0134869D01*
X0161968Y0134875D01*
X0161818Y0134886D01*
X0161668Y0134900D01*
X0161518Y0134918D01*
X0161369Y0134940D01*
X0161220Y0134965D01*
X0161072Y0134994D01*
X0160925Y0135027D01*
X0160779Y0135064D01*
X0160634Y0135105D01*
X0160489Y0135149D01*
X0160346Y0135197D01*
X0160205Y0135248D01*
X0160064Y0135303D01*
X0159925Y0135362D01*
X0159788Y0135424D01*
X0159652Y0135490D01*
X0159518Y0135559D01*
X0159385Y0135631D01*
X0159255Y0135707D01*
X0159127Y0135786D01*
X0159000Y0135868D01*
X0158876Y0135954D01*
X0158754Y0136042D01*
X0158634Y0136134D01*
X0158517Y0136228D01*
X0158402Y0136326D01*
X0158289Y0136427D01*
X0158179Y0136530D01*
X0158072Y0136636D01*
X0157968Y0136745D01*
X0157866Y0136856D01*
X0157767Y0136970D01*
X0157671Y0137087D01*
X0157579Y0137205D01*
X0157489Y0137327D01*
X0157534Y0137359D01*
X0157623Y0137239D01*
X0157715Y0137121D01*
X0157810Y0137006D01*
X0157908Y0136893D01*
X0158009Y0136783D01*
X0158112Y0136675D01*
X0158218Y0136570D01*
X0158327Y0136468D01*
X0158439Y0136368D01*
X0158553Y0136272D01*
X0158669Y0136178D01*
X0158787Y0136087D01*
X0158908Y0135999D01*
X0159031Y0135915D01*
X0159157Y0135833D01*
X0159284Y0135755D01*
X0159413Y0135680D01*
X0159544Y0135608D01*
X0159677Y0135540D01*
X0159811Y0135475D01*
X0159948Y0135413D01*
X0160085Y0135355D01*
X0160224Y0135301D01*
X0160365Y0135250D01*
X0160506Y0135202D01*
X0160649Y0135159D01*
X0160793Y0135118D01*
X0160938Y0135082D01*
X0161084Y0135049D01*
X0161230Y0135020D01*
X0161377Y0134995D01*
X0161525Y0134973D01*
X0161674Y0134955D01*
X0161822Y0134941D01*
X0161971Y0134931D01*
X0162121Y0134925D01*
X0162270Y0134922D01*
X0162270Y0134978D01*
X0162118Y0134981D01*
X0161966Y0134988D01*
X0161814Y0134998D01*
X0161663Y0135013D01*
X0161512Y0135032D01*
X0161362Y0135054D01*
X0161212Y0135081D01*
X0161063Y0135111D01*
X0160915Y0135145D01*
X0160768Y0135183D01*
X0160621Y0135225D01*
X0160476Y0135271D01*
X0160333Y0135320D01*
X0160190Y0135374D01*
X0160049Y0135431D01*
X0159910Y0135491D01*
X0159772Y0135555D01*
X0159636Y0135623D01*
X0159502Y0135695D01*
X0159369Y0135769D01*
X0159239Y0135848D01*
X0159111Y0135929D01*
X0158984Y0136014D01*
X0158861Y0136103D01*
X0158739Y0136194D01*
X0158620Y0136288D01*
X0158504Y0136386D01*
X0158390Y0136487D01*
X0158278Y0136590D01*
X0158170Y0136697D01*
X0158064Y0136806D01*
X0157961Y0136918D01*
X0157861Y0137033D01*
X0157764Y0137150D01*
X0157671Y0137270D01*
X0157580Y0137392D01*
X0157625Y0137424D01*
X0157715Y0137303D01*
X0157808Y0137185D01*
X0157904Y0137069D01*
X0158003Y0136955D01*
X0158105Y0136844D01*
X0158210Y0136736D01*
X0158317Y0136631D01*
X0158427Y0136528D01*
X0158540Y0136428D01*
X0158656Y0136332D01*
X0158773Y0136238D01*
X0158894Y0136148D01*
X0159016Y0136060D01*
X0159141Y0135976D01*
X0159268Y0135895D01*
X0159397Y0135818D01*
X0159529Y0135744D01*
X0159662Y0135673D01*
X0159796Y0135606D01*
X0159933Y0135542D01*
X0160071Y0135482D01*
X0160210Y0135426D01*
X0160352Y0135373D01*
X0160494Y0135324D01*
X0160637Y0135279D01*
X0160782Y0135237D01*
X0160928Y0135200D01*
X0161075Y0135166D01*
X0161222Y0135136D01*
X0161370Y0135109D01*
X0161519Y0135087D01*
X0161669Y0135069D01*
X0161819Y0135054D01*
X0161969Y0135044D01*
X0162119Y0135037D01*
X0162270Y0135034D01*
X0162270Y0147069D02*
X0162270Y0146529D01*
X0162270Y0146530D02*
X0162123Y0146527D01*
X0161976Y0146521D01*
X0161829Y0146511D01*
X0161682Y0146497D01*
X0161536Y0146479D01*
X0161390Y0146457D01*
X0161245Y0146432D01*
X0161101Y0146403D01*
X0160957Y0146371D01*
X0160815Y0146334D01*
X0160673Y0146294D01*
X0160533Y0146251D01*
X0160393Y0146203D01*
X0160255Y0146153D01*
X0160118Y0146098D01*
X0159983Y0146040D01*
X0159849Y0145979D01*
X0159716Y0145915D01*
X0159586Y0145846D01*
X0159457Y0145775D01*
X0159330Y0145700D01*
X0159205Y0145622D01*
X0159083Y0145541D01*
X0158962Y0145457D01*
X0158843Y0145370D01*
X0158727Y0145280D01*
X0158613Y0145186D01*
X0158502Y0145090D01*
X0158393Y0144991D01*
X0158286Y0144889D01*
X0158182Y0144785D01*
X0158081Y0144678D01*
X0157983Y0144568D01*
X0157888Y0144456D01*
X0157795Y0144341D01*
X0157370Y0144672D01*
X0157369Y0144673D01*
X0157467Y0144795D01*
X0157569Y0144915D01*
X0157673Y0145032D01*
X0157780Y0145146D01*
X0157891Y0145258D01*
X0158003Y0145366D01*
X0158119Y0145472D01*
X0158237Y0145575D01*
X0158358Y0145676D01*
X0158481Y0145773D01*
X0158606Y0145867D01*
X0158734Y0145957D01*
X0158864Y0146045D01*
X0158996Y0146129D01*
X0159131Y0146210D01*
X0159267Y0146288D01*
X0159405Y0146362D01*
X0159545Y0146432D01*
X0159687Y0146499D01*
X0159830Y0146563D01*
X0159975Y0146623D01*
X0160121Y0146679D01*
X0160269Y0146732D01*
X0160418Y0146781D01*
X0160568Y0146826D01*
X0160719Y0146867D01*
X0160872Y0146905D01*
X0161025Y0146939D01*
X0161179Y0146969D01*
X0161333Y0146995D01*
X0161488Y0147017D01*
X0161644Y0147036D01*
X0161800Y0147050D01*
X0161957Y0147061D01*
X0162113Y0147067D01*
X0162270Y0147070D01*
X0162270Y0147014D01*
X0162115Y0147011D01*
X0161959Y0147005D01*
X0161804Y0146994D01*
X0161650Y0146980D01*
X0161495Y0146962D01*
X0161342Y0146940D01*
X0161188Y0146914D01*
X0161036Y0146884D01*
X0160884Y0146851D01*
X0160733Y0146813D01*
X0160583Y0146772D01*
X0160435Y0146727D01*
X0160287Y0146679D01*
X0160141Y0146627D01*
X0159996Y0146571D01*
X0159852Y0146512D01*
X0159710Y0146449D01*
X0159570Y0146382D01*
X0159431Y0146312D01*
X0159294Y0146239D01*
X0159159Y0146162D01*
X0159026Y0146082D01*
X0158895Y0145998D01*
X0158766Y0145911D01*
X0158639Y0145821D01*
X0158515Y0145728D01*
X0158393Y0145632D01*
X0158273Y0145533D01*
X0158156Y0145431D01*
X0158042Y0145326D01*
X0157930Y0145218D01*
X0157821Y0145107D01*
X0157715Y0144994D01*
X0157611Y0144878D01*
X0157511Y0144759D01*
X0157413Y0144638D01*
X0157458Y0144604D01*
X0157554Y0144724D01*
X0157654Y0144841D01*
X0157756Y0144956D01*
X0157861Y0145069D01*
X0157970Y0145178D01*
X0158080Y0145285D01*
X0158194Y0145389D01*
X0158310Y0145490D01*
X0158428Y0145589D01*
X0158549Y0145684D01*
X0158673Y0145776D01*
X0158798Y0145865D01*
X0158926Y0145951D01*
X0159056Y0146034D01*
X0159187Y0146113D01*
X0159321Y0146190D01*
X0159457Y0146262D01*
X0159594Y0146332D01*
X0159733Y0146398D01*
X0159874Y0146460D01*
X0160016Y0146519D01*
X0160160Y0146574D01*
X0160305Y0146626D01*
X0160451Y0146674D01*
X0160599Y0146718D01*
X0160747Y0146759D01*
X0160897Y0146796D01*
X0161047Y0146829D01*
X0161198Y0146859D01*
X0161350Y0146884D01*
X0161502Y0146906D01*
X0161655Y0146924D01*
X0161809Y0146938D01*
X0161962Y0146949D01*
X0162116Y0146955D01*
X0162270Y0146958D01*
X0162270Y0146902D01*
X0162117Y0146899D01*
X0161965Y0146893D01*
X0161813Y0146883D01*
X0161661Y0146868D01*
X0161509Y0146851D01*
X0161358Y0146829D01*
X0161208Y0146804D01*
X0161058Y0146774D01*
X0160909Y0146741D01*
X0160761Y0146705D01*
X0160614Y0146665D01*
X0160468Y0146621D01*
X0160323Y0146573D01*
X0160180Y0146522D01*
X0160037Y0146467D01*
X0159896Y0146409D01*
X0159757Y0146347D01*
X0159619Y0146281D01*
X0159483Y0146213D01*
X0159348Y0146141D01*
X0159216Y0146065D01*
X0159085Y0145986D01*
X0158957Y0145904D01*
X0158830Y0145819D01*
X0158706Y0145731D01*
X0158583Y0145640D01*
X0158464Y0145545D01*
X0158346Y0145448D01*
X0158231Y0145348D01*
X0158119Y0145244D01*
X0158009Y0145139D01*
X0157902Y0145030D01*
X0157798Y0144919D01*
X0157696Y0144805D01*
X0157597Y0144688D01*
X0157502Y0144570D01*
X0157546Y0144535D01*
X0157641Y0144653D01*
X0157739Y0144768D01*
X0157839Y0144881D01*
X0157943Y0144991D01*
X0158049Y0145099D01*
X0158157Y0145204D01*
X0158269Y0145306D01*
X0158383Y0145405D01*
X0158499Y0145502D01*
X0158618Y0145595D01*
X0158739Y0145686D01*
X0158862Y0145773D01*
X0158987Y0145858D01*
X0159115Y0145939D01*
X0159244Y0146017D01*
X0159375Y0146092D01*
X0159509Y0146163D01*
X0159644Y0146231D01*
X0159780Y0146296D01*
X0159918Y0146357D01*
X0160058Y0146415D01*
X0160199Y0146469D01*
X0160341Y0146520D01*
X0160485Y0146567D01*
X0160630Y0146611D01*
X0160775Y0146651D01*
X0160922Y0146687D01*
X0161070Y0146719D01*
X0161218Y0146748D01*
X0161367Y0146774D01*
X0161517Y0146795D01*
X0161667Y0146813D01*
X0161817Y0146827D01*
X0161968Y0146837D01*
X0162119Y0146843D01*
X0162270Y0146846D01*
X0162270Y0146790D01*
X0162116Y0146787D01*
X0161962Y0146780D01*
X0161809Y0146770D01*
X0161655Y0146755D01*
X0161502Y0146737D01*
X0161350Y0146714D01*
X0161198Y0146688D01*
X0161047Y0146658D01*
X0160897Y0146623D01*
X0160748Y0146585D01*
X0160600Y0146544D01*
X0160453Y0146498D01*
X0160307Y0146449D01*
X0160162Y0146396D01*
X0160019Y0146339D01*
X0159878Y0146278D01*
X0159738Y0146214D01*
X0159599Y0146147D01*
X0159463Y0146075D01*
X0159328Y0146001D01*
X0159195Y0145923D01*
X0159065Y0145841D01*
X0158936Y0145756D01*
X0158810Y0145668D01*
X0158686Y0145577D01*
X0158564Y0145482D01*
X0158445Y0145385D01*
X0158329Y0145284D01*
X0158215Y0145181D01*
X0158103Y0145074D01*
X0157995Y0144965D01*
X0157889Y0144853D01*
X0157787Y0144738D01*
X0157687Y0144621D01*
X0157590Y0144501D01*
X0157634Y0144467D01*
X0157730Y0144585D01*
X0157829Y0144701D01*
X0157931Y0144815D01*
X0158035Y0144926D01*
X0158143Y0145034D01*
X0158253Y0145140D01*
X0158366Y0145242D01*
X0158481Y0145342D01*
X0158599Y0145439D01*
X0158720Y0145532D01*
X0158843Y0145623D01*
X0158968Y0145710D01*
X0159095Y0145794D01*
X0159224Y0145875D01*
X0159356Y0145952D01*
X0159489Y0146026D01*
X0159624Y0146097D01*
X0159761Y0146164D01*
X0159900Y0146227D01*
X0160040Y0146287D01*
X0160182Y0146343D01*
X0160325Y0146396D01*
X0160470Y0146445D01*
X0160616Y0146490D01*
X0160762Y0146531D01*
X0160910Y0146569D01*
X0161059Y0146603D01*
X0161208Y0146633D01*
X0161359Y0146659D01*
X0161510Y0146681D01*
X0161661Y0146700D01*
X0161813Y0146714D01*
X0161965Y0146725D01*
X0162117Y0146731D01*
X0162270Y0146734D01*
X0162270Y0146678D01*
X0162119Y0146675D01*
X0161968Y0146669D01*
X0161817Y0146658D01*
X0161667Y0146644D01*
X0161517Y0146626D01*
X0161367Y0146604D01*
X0161219Y0146578D01*
X0161070Y0146548D01*
X0160923Y0146514D01*
X0160777Y0146477D01*
X0160631Y0146436D01*
X0160487Y0146391D01*
X0160344Y0146343D01*
X0160202Y0146291D01*
X0160062Y0146235D01*
X0159923Y0146176D01*
X0159785Y0146113D01*
X0159650Y0146047D01*
X0159516Y0145977D01*
X0159384Y0145904D01*
X0159253Y0145827D01*
X0159125Y0145747D01*
X0158999Y0145664D01*
X0158875Y0145577D01*
X0158754Y0145488D01*
X0158634Y0145395D01*
X0158517Y0145299D01*
X0158403Y0145201D01*
X0158291Y0145099D01*
X0158182Y0144995D01*
X0158076Y0144887D01*
X0157972Y0144777D01*
X0157871Y0144665D01*
X0157773Y0144550D01*
X0157679Y0144432D01*
X0157723Y0144398D01*
X0157817Y0144514D01*
X0157914Y0144628D01*
X0158013Y0144740D01*
X0158116Y0144849D01*
X0158222Y0144955D01*
X0158330Y0145058D01*
X0158440Y0145159D01*
X0158554Y0145256D01*
X0158669Y0145351D01*
X0158788Y0145443D01*
X0158908Y0145532D01*
X0159031Y0145617D01*
X0159156Y0145700D01*
X0159283Y0145779D01*
X0159411Y0145855D01*
X0159542Y0145927D01*
X0159675Y0145997D01*
X0159809Y0146062D01*
X0159945Y0146125D01*
X0160083Y0146183D01*
X0160222Y0146239D01*
X0160363Y0146290D01*
X0160504Y0146338D01*
X0160647Y0146382D01*
X0160791Y0146423D01*
X0160936Y0146460D01*
X0161082Y0146493D01*
X0161229Y0146523D01*
X0161376Y0146548D01*
X0161524Y0146570D01*
X0161673Y0146588D01*
X0161822Y0146602D01*
X0161971Y0146613D01*
X0162120Y0146619D01*
X0162270Y0146622D01*
X0162270Y0146566D01*
X0162122Y0146563D01*
X0161974Y0146557D01*
X0161826Y0146546D01*
X0161679Y0146532D01*
X0161531Y0146515D01*
X0161385Y0146493D01*
X0161239Y0146468D01*
X0161094Y0146438D01*
X0160949Y0146406D01*
X0160806Y0146369D01*
X0160663Y0146329D01*
X0160521Y0146285D01*
X0160381Y0146237D01*
X0160242Y0146186D01*
X0160104Y0146132D01*
X0159968Y0146073D01*
X0159833Y0146012D01*
X0159700Y0145947D01*
X0159569Y0145878D01*
X0159439Y0145806D01*
X0159312Y0145731D01*
X0159186Y0145653D01*
X0159062Y0145571D01*
X0158941Y0145486D01*
X0158821Y0145399D01*
X0158704Y0145308D01*
X0158590Y0145214D01*
X0158478Y0145117D01*
X0158368Y0145017D01*
X0158261Y0144915D01*
X0158156Y0144810D01*
X0158055Y0144702D01*
X0157956Y0144592D01*
X0157860Y0144479D01*
X0157767Y0144363D01*
D19*
X0162350Y0132351D02*
X0162350Y0133251D01*
X0162350Y0133250D02*
X0162533Y0133254D01*
X0162716Y0133261D01*
X0162899Y0133274D01*
X0163082Y0133291D01*
X0163264Y0133312D01*
X0163445Y0133337D01*
X0163626Y0133367D01*
X0163806Y0133402D01*
X0163985Y0133440D01*
X0164163Y0133483D01*
X0164340Y0133531D01*
X0164515Y0133582D01*
X0164690Y0133638D01*
X0164863Y0133698D01*
X0165034Y0133763D01*
X0165204Y0133831D01*
X0165373Y0133903D01*
X0165539Y0133980D01*
X0165703Y0134061D01*
X0165866Y0134145D01*
X0166026Y0134234D01*
X0166185Y0134326D01*
X0166341Y0134422D01*
X0166494Y0134522D01*
X0166645Y0134626D01*
X0166794Y0134733D01*
X0166940Y0134844D01*
X0167083Y0134958D01*
X0167223Y0135076D01*
X0167360Y0135197D01*
X0167495Y0135321D01*
X0167626Y0135449D01*
X0167755Y0135580D01*
X0167880Y0135714D01*
X0168001Y0135850D01*
X0168120Y0135990D01*
X0168235Y0136133D01*
X0168346Y0136278D01*
X0168454Y0136426D01*
X0168558Y0136577D01*
X0168659Y0136730D01*
X0168756Y0136885D01*
X0168849Y0137043D01*
X0168938Y0137203D01*
X0169732Y0136780D01*
X0169632Y0136600D01*
X0169528Y0136423D01*
X0169420Y0136249D01*
X0169307Y0136077D01*
X0169190Y0135909D01*
X0169069Y0135743D01*
X0168945Y0135580D01*
X0168816Y0135420D01*
X0168683Y0135263D01*
X0168547Y0135110D01*
X0168407Y0134960D01*
X0168263Y0134813D01*
X0168116Y0134670D01*
X0167965Y0134530D01*
X0167811Y0134395D01*
X0167654Y0134263D01*
X0167494Y0134135D01*
X0167330Y0134010D01*
X0167164Y0133890D01*
X0166994Y0133774D01*
X0166822Y0133662D01*
X0166648Y0133554D01*
X0166470Y0133451D01*
X0166291Y0133352D01*
X0166108Y0133257D01*
X0165924Y0133167D01*
X0165738Y0133081D01*
X0165549Y0133000D01*
X0165359Y0132923D01*
X0165166Y0132851D01*
X0164972Y0132784D01*
X0164777Y0132721D01*
X0164580Y0132663D01*
X0164382Y0132610D01*
X0164182Y0132562D01*
X0163981Y0132519D01*
X0163780Y0132481D01*
X0163577Y0132447D01*
X0163374Y0132419D01*
X0163170Y0132395D01*
X0162965Y0132376D01*
X0162761Y0132363D01*
X0162556Y0132354D01*
X0162350Y0132350D01*
X0162350Y0132444D01*
X0162553Y0132448D01*
X0162756Y0132456D01*
X0162959Y0132470D01*
X0163161Y0132488D01*
X0163362Y0132512D01*
X0163563Y0132540D01*
X0163764Y0132573D01*
X0163963Y0132611D01*
X0164161Y0132654D01*
X0164359Y0132702D01*
X0164555Y0132754D01*
X0164750Y0132811D01*
X0164943Y0132873D01*
X0165135Y0132940D01*
X0165325Y0133011D01*
X0165513Y0133086D01*
X0165699Y0133167D01*
X0165884Y0133252D01*
X0166066Y0133341D01*
X0166246Y0133435D01*
X0166424Y0133533D01*
X0166599Y0133635D01*
X0166772Y0133741D01*
X0166942Y0133852D01*
X0167110Y0133967D01*
X0167274Y0134086D01*
X0167436Y0134209D01*
X0167594Y0134335D01*
X0167750Y0134466D01*
X0167902Y0134600D01*
X0168051Y0134738D01*
X0168197Y0134879D01*
X0168339Y0135024D01*
X0168477Y0135173D01*
X0168612Y0135324D01*
X0168743Y0135479D01*
X0168870Y0135637D01*
X0168994Y0135799D01*
X0169113Y0135963D01*
X0169229Y0136130D01*
X0169340Y0136299D01*
X0169448Y0136472D01*
X0169551Y0136647D01*
X0169649Y0136824D01*
X0169566Y0136868D01*
X0169469Y0136693D01*
X0169367Y0136520D01*
X0169261Y0136350D01*
X0169151Y0136182D01*
X0169037Y0136017D01*
X0168918Y0135855D01*
X0168796Y0135695D01*
X0168670Y0135539D01*
X0168541Y0135386D01*
X0168407Y0135236D01*
X0168271Y0135089D01*
X0168130Y0134946D01*
X0167986Y0134806D01*
X0167839Y0134670D01*
X0167688Y0134537D01*
X0167535Y0134408D01*
X0167378Y0134283D01*
X0167218Y0134161D01*
X0167055Y0134044D01*
X0166890Y0133930D01*
X0166722Y0133821D01*
X0166551Y0133715D01*
X0166378Y0133614D01*
X0166202Y0133517D01*
X0166024Y0133425D01*
X0165844Y0133337D01*
X0165661Y0133253D01*
X0165477Y0133173D01*
X0165291Y0133098D01*
X0165103Y0133028D01*
X0164913Y0132962D01*
X0164722Y0132901D01*
X0164530Y0132845D01*
X0164336Y0132793D01*
X0164141Y0132746D01*
X0163945Y0132703D01*
X0163747Y0132666D01*
X0163549Y0132633D01*
X0163351Y0132605D01*
X0163151Y0132582D01*
X0162952Y0132564D01*
X0162751Y0132550D01*
X0162551Y0132542D01*
X0162350Y0132538D01*
X0162350Y0132632D01*
X0162549Y0132636D01*
X0162747Y0132644D01*
X0162945Y0132657D01*
X0163142Y0132676D01*
X0163339Y0132698D01*
X0163536Y0132726D01*
X0163731Y0132758D01*
X0163926Y0132796D01*
X0164120Y0132837D01*
X0164313Y0132884D01*
X0164505Y0132935D01*
X0164695Y0132991D01*
X0164884Y0133051D01*
X0165071Y0133116D01*
X0165257Y0133186D01*
X0165441Y0133260D01*
X0165623Y0133339D01*
X0165803Y0133422D01*
X0165982Y0133509D01*
X0166158Y0133600D01*
X0166331Y0133696D01*
X0166503Y0133796D01*
X0166671Y0133900D01*
X0166838Y0134008D01*
X0167001Y0134121D01*
X0167162Y0134237D01*
X0167320Y0134357D01*
X0167475Y0134481D01*
X0167627Y0134608D01*
X0167776Y0134739D01*
X0167921Y0134874D01*
X0168064Y0135012D01*
X0168202Y0135154D01*
X0168338Y0135299D01*
X0168470Y0135447D01*
X0168598Y0135599D01*
X0168722Y0135753D01*
X0168843Y0135910D01*
X0168960Y0136071D01*
X0169073Y0136234D01*
X0169181Y0136400D01*
X0169286Y0136568D01*
X0169387Y0136739D01*
X0169483Y0136912D01*
X0169401Y0136957D01*
X0169305Y0136785D01*
X0169206Y0136616D01*
X0169102Y0136450D01*
X0168994Y0136286D01*
X0168883Y0136125D01*
X0168767Y0135966D01*
X0168648Y0135811D01*
X0168525Y0135658D01*
X0168398Y0135509D01*
X0168268Y0135362D01*
X0168134Y0135219D01*
X0167997Y0135079D01*
X0167856Y0134942D01*
X0167713Y0134809D01*
X0167566Y0134679D01*
X0167415Y0134553D01*
X0167262Y0134431D01*
X0167106Y0134312D01*
X0166947Y0134197D01*
X0166785Y0134087D01*
X0166621Y0133980D01*
X0166454Y0133877D01*
X0166285Y0133778D01*
X0166113Y0133683D01*
X0165939Y0133593D01*
X0165763Y0133506D01*
X0165585Y0133425D01*
X0165405Y0133347D01*
X0165223Y0133274D01*
X0165040Y0133205D01*
X0164854Y0133141D01*
X0164668Y0133081D01*
X0164480Y0133026D01*
X0164290Y0132975D01*
X0164100Y0132929D01*
X0163908Y0132888D01*
X0163715Y0132851D01*
X0163522Y0132819D01*
X0163328Y0132792D01*
X0163133Y0132769D01*
X0162938Y0132751D01*
X0162742Y0132738D01*
X0162546Y0132730D01*
X0162350Y0132726D01*
X0162350Y0132820D01*
X0162544Y0132824D01*
X0162738Y0132832D01*
X0162931Y0132845D01*
X0163124Y0132863D01*
X0163316Y0132885D01*
X0163508Y0132912D01*
X0163699Y0132944D01*
X0163890Y0132980D01*
X0164079Y0133021D01*
X0164267Y0133066D01*
X0164454Y0133116D01*
X0164640Y0133171D01*
X0164825Y0133230D01*
X0165008Y0133293D01*
X0165189Y0133361D01*
X0165369Y0133434D01*
X0165547Y0133510D01*
X0165723Y0133591D01*
X0165897Y0133677D01*
X0166069Y0133766D01*
X0166239Y0133860D01*
X0166406Y0133957D01*
X0166571Y0134059D01*
X0166733Y0134165D01*
X0166893Y0134274D01*
X0167050Y0134388D01*
X0167204Y0134505D01*
X0167356Y0134626D01*
X0167504Y0134750D01*
X0167649Y0134878D01*
X0167792Y0135010D01*
X0167931Y0135145D01*
X0168066Y0135283D01*
X0168198Y0135425D01*
X0168327Y0135570D01*
X0168452Y0135718D01*
X0168574Y0135869D01*
X0168692Y0136022D01*
X0168806Y0136179D01*
X0168916Y0136338D01*
X0169022Y0136500D01*
X0169125Y0136665D01*
X0169223Y0136832D01*
X0169318Y0137001D01*
X0169235Y0137045D01*
X0169141Y0136878D01*
X0169044Y0136713D01*
X0168943Y0136550D01*
X0168838Y0136390D01*
X0168729Y0136233D01*
X0168616Y0136078D01*
X0168500Y0135926D01*
X0168380Y0135777D01*
X0168256Y0135631D01*
X0168129Y0135488D01*
X0167998Y0135348D01*
X0167864Y0135212D01*
X0167727Y0135078D01*
X0167586Y0134948D01*
X0167443Y0134821D01*
X0167296Y0134698D01*
X0167146Y0134579D01*
X0166994Y0134463D01*
X0166839Y0134351D01*
X0166681Y0134243D01*
X0166520Y0134138D01*
X0166357Y0134038D01*
X0166192Y0133941D01*
X0166025Y0133849D01*
X0165855Y0133761D01*
X0165683Y0133676D01*
X0165509Y0133596D01*
X0165333Y0133521D01*
X0165155Y0133449D01*
X0164976Y0133382D01*
X0164795Y0133319D01*
X0164613Y0133261D01*
X0164429Y0133207D01*
X0164244Y0133157D01*
X0164058Y0133113D01*
X0163871Y0133072D01*
X0163683Y0133036D01*
X0163494Y0133005D01*
X0163305Y0132978D01*
X0163115Y0132956D01*
X0162924Y0132939D01*
X0162733Y0132926D01*
X0162542Y0132918D01*
X0162350Y0132914D01*
X0162350Y0133008D01*
X0162539Y0133012D01*
X0162728Y0133020D01*
X0162917Y0133032D01*
X0163105Y0133050D01*
X0163293Y0133072D01*
X0163480Y0133098D01*
X0163667Y0133129D01*
X0163853Y0133164D01*
X0164038Y0133204D01*
X0164222Y0133249D01*
X0164404Y0133298D01*
X0164586Y0133351D01*
X0164766Y0133408D01*
X0164944Y0133470D01*
X0165122Y0133537D01*
X0165297Y0133607D01*
X0165471Y0133682D01*
X0165643Y0133761D01*
X0165812Y0133845D01*
X0165980Y0133932D01*
X0166146Y0134023D01*
X0166309Y0134119D01*
X0166470Y0134218D01*
X0166629Y0134321D01*
X0166785Y0134428D01*
X0166938Y0134539D01*
X0167089Y0134653D01*
X0167236Y0134771D01*
X0167381Y0134893D01*
X0167523Y0135018D01*
X0167662Y0135146D01*
X0167797Y0135278D01*
X0167930Y0135413D01*
X0168059Y0135551D01*
X0168185Y0135693D01*
X0168307Y0135837D01*
X0168426Y0135984D01*
X0168541Y0136134D01*
X0168652Y0136287D01*
X0168760Y0136443D01*
X0168864Y0136601D01*
X0168964Y0136761D01*
X0169060Y0136924D01*
X0169152Y0137089D01*
X0169069Y0137134D01*
X0168978Y0136970D01*
X0168883Y0136809D01*
X0168784Y0136651D01*
X0168682Y0136495D01*
X0168575Y0136341D01*
X0168465Y0136190D01*
X0168351Y0136042D01*
X0168234Y0135896D01*
X0168113Y0135754D01*
X0167989Y0135614D01*
X0167862Y0135478D01*
X0167731Y0135344D01*
X0167597Y0135214D01*
X0167460Y0135087D01*
X0167320Y0134964D01*
X0167177Y0134844D01*
X0167031Y0134727D01*
X0166882Y0134614D01*
X0166730Y0134505D01*
X0166576Y0134399D01*
X0166420Y0134297D01*
X0166261Y0134199D01*
X0166099Y0134105D01*
X0165936Y0134015D01*
X0165770Y0133928D01*
X0165602Y0133846D01*
X0165433Y0133768D01*
X0165261Y0133694D01*
X0165088Y0133625D01*
X0164913Y0133559D01*
X0164736Y0133498D01*
X0164558Y0133441D01*
X0164379Y0133388D01*
X0164199Y0133340D01*
X0164017Y0133296D01*
X0163834Y0133256D01*
X0163651Y0133221D01*
X0163467Y0133191D01*
X0163282Y0133165D01*
X0163096Y0133143D01*
X0162910Y0133126D01*
X0162724Y0133114D01*
X0162537Y0133106D01*
X0162350Y0133102D01*
X0162350Y0133196D01*
X0162535Y0133200D01*
X0162719Y0133208D01*
X0162903Y0133220D01*
X0163087Y0133237D01*
X0163270Y0133258D01*
X0163453Y0133284D01*
X0163635Y0133314D01*
X0163816Y0133349D01*
X0163996Y0133388D01*
X0164176Y0133431D01*
X0164354Y0133479D01*
X0164531Y0133531D01*
X0164707Y0133587D01*
X0164881Y0133647D01*
X0165054Y0133712D01*
X0165225Y0133781D01*
X0165394Y0133854D01*
X0165562Y0133931D01*
X0165728Y0134012D01*
X0165891Y0134098D01*
X0166053Y0134187D01*
X0166212Y0134280D01*
X0166369Y0134377D01*
X0166524Y0134477D01*
X0166676Y0134582D01*
X0166826Y0134690D01*
X0166973Y0134801D01*
X0167117Y0134916D01*
X0167258Y0135035D01*
X0167397Y0135157D01*
X0167532Y0135282D01*
X0167664Y0135411D01*
X0167794Y0135543D01*
X0167920Y0135677D01*
X0168042Y0135815D01*
X0168161Y0135956D01*
X0168277Y0136100D01*
X0168390Y0136246D01*
X0168498Y0136395D01*
X0168603Y0136547D01*
X0168705Y0136701D01*
X0168802Y0136858D01*
X0168896Y0137017D01*
X0168986Y0137178D01*
X0169611Y0145035D02*
X0168830Y0144589D01*
X0168737Y0144746D01*
X0168640Y0144900D01*
X0168539Y0145052D01*
X0168434Y0145201D01*
X0168326Y0145348D01*
X0168215Y0145493D01*
X0168100Y0145634D01*
X0167981Y0145773D01*
X0167859Y0145908D01*
X0167734Y0146041D01*
X0167606Y0146171D01*
X0167475Y0146297D01*
X0167341Y0146421D01*
X0167204Y0146541D01*
X0167064Y0146658D01*
X0166921Y0146771D01*
X0166775Y0146881D01*
X0166627Y0146987D01*
X0166476Y0147090D01*
X0166323Y0147189D01*
X0166168Y0147284D01*
X0166010Y0147375D01*
X0165850Y0147463D01*
X0165688Y0147547D01*
X0165525Y0147627D01*
X0165359Y0147703D01*
X0165191Y0147774D01*
X0165022Y0147842D01*
X0164851Y0147906D01*
X0164679Y0147965D01*
X0164505Y0148021D01*
X0164330Y0148072D01*
X0164154Y0148119D01*
X0163977Y0148161D01*
X0163798Y0148200D01*
X0163619Y0148234D01*
X0163439Y0148264D01*
X0163259Y0148289D01*
X0163078Y0148310D01*
X0162896Y0148326D01*
X0162714Y0148339D01*
X0162532Y0148346D01*
X0162350Y0148350D01*
X0162349Y0149249D01*
X0162350Y0149250D01*
X0162554Y0149246D01*
X0162758Y0149238D01*
X0162962Y0149224D01*
X0163166Y0149206D01*
X0163369Y0149182D01*
X0163571Y0149154D01*
X0163773Y0149121D01*
X0163973Y0149083D01*
X0164173Y0149040D01*
X0164372Y0148992D01*
X0164569Y0148940D01*
X0164765Y0148882D01*
X0164960Y0148820D01*
X0165153Y0148754D01*
X0165345Y0148682D01*
X0165534Y0148606D01*
X0165722Y0148526D01*
X0165908Y0148441D01*
X0166092Y0148351D01*
X0166273Y0148258D01*
X0166452Y0148159D01*
X0166629Y0148057D01*
X0166803Y0147950D01*
X0166975Y0147839D01*
X0167144Y0147724D01*
X0167310Y0147605D01*
X0167473Y0147482D01*
X0167633Y0147355D01*
X0167790Y0147224D01*
X0167944Y0147089D01*
X0168094Y0146951D01*
X0168241Y0146809D01*
X0168385Y0146664D01*
X0168525Y0146515D01*
X0168661Y0146363D01*
X0168794Y0146207D01*
X0168922Y0146049D01*
X0169047Y0145887D01*
X0169168Y0145722D01*
X0169285Y0145555D01*
X0169398Y0145384D01*
X0169507Y0145211D01*
X0169612Y0145036D01*
X0169530Y0144989D01*
X0169427Y0145163D01*
X0169319Y0145334D01*
X0169207Y0145502D01*
X0169092Y0145668D01*
X0168972Y0145831D01*
X0168848Y0145990D01*
X0168721Y0146147D01*
X0168590Y0146301D01*
X0168455Y0146451D01*
X0168317Y0146599D01*
X0168175Y0146742D01*
X0168029Y0146883D01*
X0167881Y0147019D01*
X0167729Y0147152D01*
X0167573Y0147282D01*
X0167415Y0147407D01*
X0167254Y0147529D01*
X0167090Y0147647D01*
X0166923Y0147761D01*
X0166753Y0147870D01*
X0166581Y0147976D01*
X0166406Y0148077D01*
X0166229Y0148175D01*
X0166050Y0148267D01*
X0165868Y0148356D01*
X0165684Y0148440D01*
X0165499Y0148520D01*
X0165311Y0148595D01*
X0165122Y0148665D01*
X0164931Y0148731D01*
X0164738Y0148792D01*
X0164544Y0148849D01*
X0164349Y0148901D01*
X0164153Y0148948D01*
X0163955Y0148990D01*
X0163757Y0149028D01*
X0163557Y0149061D01*
X0163357Y0149089D01*
X0163156Y0149112D01*
X0162955Y0149130D01*
X0162754Y0149144D01*
X0162552Y0149152D01*
X0162350Y0149156D01*
X0162350Y0149062D01*
X0162549Y0149058D01*
X0162749Y0149050D01*
X0162948Y0149037D01*
X0163147Y0149018D01*
X0163346Y0148996D01*
X0163543Y0148968D01*
X0163741Y0148935D01*
X0163937Y0148898D01*
X0164132Y0148856D01*
X0164326Y0148810D01*
X0164519Y0148758D01*
X0164711Y0148702D01*
X0164901Y0148642D01*
X0165090Y0148577D01*
X0165277Y0148507D01*
X0165463Y0148433D01*
X0165646Y0148354D01*
X0165828Y0148271D01*
X0166008Y0148183D01*
X0166185Y0148092D01*
X0166360Y0147996D01*
X0166533Y0147895D01*
X0166703Y0147791D01*
X0166871Y0147682D01*
X0167036Y0147570D01*
X0167198Y0147454D01*
X0167357Y0147333D01*
X0167514Y0147209D01*
X0167667Y0147081D01*
X0167818Y0146950D01*
X0167965Y0146814D01*
X0168108Y0146676D01*
X0168249Y0146534D01*
X0168386Y0146388D01*
X0168519Y0146239D01*
X0168649Y0146087D01*
X0168775Y0145932D01*
X0168897Y0145774D01*
X0169015Y0145613D01*
X0169129Y0145450D01*
X0169240Y0145283D01*
X0169346Y0145114D01*
X0169448Y0144943D01*
X0169367Y0144896D01*
X0169266Y0145066D01*
X0169161Y0145233D01*
X0169051Y0145397D01*
X0168938Y0145559D01*
X0168821Y0145718D01*
X0168701Y0145874D01*
X0168576Y0146028D01*
X0168448Y0146178D01*
X0168316Y0146325D01*
X0168181Y0146469D01*
X0168042Y0146609D01*
X0167900Y0146746D01*
X0167755Y0146880D01*
X0167606Y0147010D01*
X0167454Y0147136D01*
X0167300Y0147259D01*
X0167142Y0147378D01*
X0166982Y0147493D01*
X0166819Y0147604D01*
X0166653Y0147711D01*
X0166485Y0147815D01*
X0166314Y0147914D01*
X0166141Y0148009D01*
X0165965Y0148099D01*
X0165788Y0148186D01*
X0165608Y0148268D01*
X0165427Y0148346D01*
X0165244Y0148419D01*
X0165059Y0148488D01*
X0164872Y0148552D01*
X0164684Y0148612D01*
X0164494Y0148668D01*
X0164304Y0148718D01*
X0164112Y0148765D01*
X0163919Y0148806D01*
X0163725Y0148843D01*
X0163530Y0148875D01*
X0163334Y0148902D01*
X0163138Y0148925D01*
X0162941Y0148943D01*
X0162744Y0148956D01*
X0162547Y0148964D01*
X0162350Y0148968D01*
X0162350Y0148874D01*
X0162545Y0148870D01*
X0162740Y0148862D01*
X0162935Y0148849D01*
X0163129Y0148831D01*
X0163323Y0148809D01*
X0163516Y0148782D01*
X0163709Y0148750D01*
X0163900Y0148714D01*
X0164091Y0148673D01*
X0164281Y0148627D01*
X0164469Y0148577D01*
X0164657Y0148522D01*
X0164843Y0148463D01*
X0165027Y0148400D01*
X0165210Y0148331D01*
X0165391Y0148259D01*
X0165570Y0148182D01*
X0165748Y0148101D01*
X0165923Y0148015D01*
X0166097Y0147926D01*
X0166268Y0147832D01*
X0166436Y0147734D01*
X0166603Y0147632D01*
X0166767Y0147526D01*
X0166928Y0147416D01*
X0167086Y0147302D01*
X0167242Y0147185D01*
X0167395Y0147063D01*
X0167545Y0146938D01*
X0167692Y0146810D01*
X0167835Y0146678D01*
X0167976Y0146542D01*
X0168113Y0146403D01*
X0168247Y0146261D01*
X0168377Y0146116D01*
X0168504Y0145968D01*
X0168627Y0145816D01*
X0168746Y0145662D01*
X0168862Y0145505D01*
X0168973Y0145345D01*
X0169081Y0145182D01*
X0169185Y0145017D01*
X0169285Y0144849D01*
X0169204Y0144803D01*
X0169105Y0144968D01*
X0169002Y0145132D01*
X0168895Y0145292D01*
X0168785Y0145450D01*
X0168671Y0145606D01*
X0168553Y0145758D01*
X0168431Y0145908D01*
X0168306Y0146054D01*
X0168177Y0146198D01*
X0168045Y0146338D01*
X0167910Y0146476D01*
X0167771Y0146610D01*
X0167629Y0146740D01*
X0167484Y0146867D01*
X0167336Y0146991D01*
X0167185Y0147110D01*
X0167031Y0147227D01*
X0166874Y0147339D01*
X0166715Y0147448D01*
X0166553Y0147552D01*
X0166388Y0147653D01*
X0166222Y0147750D01*
X0166052Y0147843D01*
X0165881Y0147931D01*
X0165708Y0148016D01*
X0165532Y0148096D01*
X0165355Y0148172D01*
X0165176Y0148244D01*
X0164995Y0148311D01*
X0164813Y0148374D01*
X0164629Y0148432D01*
X0164444Y0148486D01*
X0164258Y0148536D01*
X0164070Y0148581D01*
X0163882Y0148622D01*
X0163693Y0148658D01*
X0163502Y0148689D01*
X0163311Y0148716D01*
X0163120Y0148738D01*
X0162928Y0148755D01*
X0162735Y0148768D01*
X0162543Y0148776D01*
X0162350Y0148780D01*
X0162350Y0148686D01*
X0162540Y0148682D01*
X0162731Y0148674D01*
X0162921Y0148662D01*
X0163111Y0148644D01*
X0163300Y0148622D01*
X0163488Y0148596D01*
X0163676Y0148565D01*
X0163864Y0148529D01*
X0164050Y0148489D01*
X0164235Y0148445D01*
X0164419Y0148396D01*
X0164602Y0148342D01*
X0164784Y0148285D01*
X0164964Y0148222D01*
X0165142Y0148156D01*
X0165319Y0148085D01*
X0165494Y0148010D01*
X0165668Y0147931D01*
X0165839Y0147847D01*
X0166008Y0147760D01*
X0166175Y0147668D01*
X0166340Y0147572D01*
X0166503Y0147473D01*
X0166663Y0147369D01*
X0166820Y0147262D01*
X0166975Y0147151D01*
X0167127Y0147036D01*
X0167276Y0146918D01*
X0167422Y0146796D01*
X0167566Y0146670D01*
X0167706Y0146541D01*
X0167843Y0146409D01*
X0167977Y0146273D01*
X0168108Y0146135D01*
X0168235Y0145993D01*
X0168359Y0145848D01*
X0168479Y0145700D01*
X0168595Y0145549D01*
X0168708Y0145396D01*
X0168817Y0145240D01*
X0168923Y0145081D01*
X0169024Y0144920D01*
X0169122Y0144756D01*
X0169040Y0144709D01*
X0168944Y0144871D01*
X0168844Y0145030D01*
X0168740Y0145187D01*
X0168632Y0145342D01*
X0168520Y0145493D01*
X0168405Y0145642D01*
X0168286Y0145788D01*
X0168164Y0145931D01*
X0168038Y0146071D01*
X0167909Y0146208D01*
X0167777Y0146342D01*
X0167641Y0146473D01*
X0167503Y0146600D01*
X0167361Y0146724D01*
X0167217Y0146845D01*
X0167069Y0146962D01*
X0166919Y0147075D01*
X0166766Y0147185D01*
X0166610Y0147291D01*
X0166452Y0147393D01*
X0166292Y0147492D01*
X0166129Y0147586D01*
X0165964Y0147677D01*
X0165797Y0147763D01*
X0165628Y0147846D01*
X0165457Y0147924D01*
X0165284Y0147998D01*
X0165109Y0148068D01*
X0164932Y0148134D01*
X0164754Y0148195D01*
X0164575Y0148252D01*
X0164394Y0148305D01*
X0164212Y0148354D01*
X0164029Y0148398D01*
X0163845Y0148437D01*
X0163660Y0148472D01*
X0163475Y0148503D01*
X0163288Y0148529D01*
X0163101Y0148551D01*
X0162914Y0148568D01*
X0162726Y0148580D01*
X0162538Y0148588D01*
X0162350Y0148592D01*
X0162350Y0148498D01*
X0162536Y0148494D01*
X0162721Y0148486D01*
X0162907Y0148474D01*
X0163092Y0148457D01*
X0163277Y0148436D01*
X0163461Y0148410D01*
X0163644Y0148380D01*
X0163827Y0148345D01*
X0164009Y0148306D01*
X0164190Y0148262D01*
X0164369Y0148215D01*
X0164548Y0148162D01*
X0164725Y0148106D01*
X0164901Y0148045D01*
X0165075Y0147980D01*
X0165248Y0147911D01*
X0165419Y0147838D01*
X0165588Y0147761D01*
X0165755Y0147679D01*
X0165920Y0147594D01*
X0166083Y0147504D01*
X0166244Y0147411D01*
X0166402Y0147314D01*
X0166558Y0147213D01*
X0166712Y0147108D01*
X0166863Y0147000D01*
X0167012Y0146888D01*
X0167157Y0146772D01*
X0167300Y0146653D01*
X0167440Y0146531D01*
X0167577Y0146405D01*
X0167711Y0146276D01*
X0167841Y0146143D01*
X0167969Y0146008D01*
X0168093Y0145870D01*
X0168214Y0145728D01*
X0168331Y0145584D01*
X0168445Y0145437D01*
X0168555Y0145287D01*
X0168662Y0145135D01*
X0168764Y0144980D01*
X0168863Y0144822D01*
X0168959Y0144663D01*
X0168877Y0144616D01*
X0168783Y0144774D01*
X0168685Y0144929D01*
X0168584Y0145082D01*
X0168478Y0145233D01*
X0168369Y0145381D01*
X0168257Y0145526D01*
X0168141Y0145668D01*
X0168022Y0145808D01*
X0167899Y0145945D01*
X0167773Y0146078D01*
X0167644Y0146209D01*
X0167512Y0146337D01*
X0167377Y0146461D01*
X0167239Y0146582D01*
X0167098Y0146699D01*
X0166954Y0146813D01*
X0166807Y0146924D01*
X0166658Y0147031D01*
X0166506Y0147135D01*
X0166352Y0147234D01*
X0166196Y0147330D01*
X0166037Y0147422D01*
X0165876Y0147511D01*
X0165713Y0147595D01*
X0165548Y0147676D01*
X0165381Y0147752D01*
X0165212Y0147824D01*
X0165041Y0147893D01*
X0164869Y0147957D01*
X0164696Y0148017D01*
X0164521Y0148073D01*
X0164344Y0148124D01*
X0164167Y0148171D01*
X0163988Y0148214D01*
X0163809Y0148253D01*
X0163628Y0148287D01*
X0163447Y0148317D01*
X0163265Y0148342D01*
X0163083Y0148364D01*
X0162900Y0148380D01*
X0162717Y0148393D01*
X0162533Y0148400D01*
X0162350Y0148404D01*
X0162251Y0149249D02*
X0162251Y0148349D01*
X0162250Y0148350D02*
X0162066Y0148346D01*
X0161881Y0148338D01*
X0161697Y0148326D01*
X0161514Y0148309D01*
X0161330Y0148287D01*
X0161148Y0148262D01*
X0160966Y0148231D01*
X0160785Y0148196D01*
X0160604Y0148157D01*
X0160425Y0148113D01*
X0160247Y0148065D01*
X0160070Y0148013D01*
X0159894Y0147956D01*
X0159720Y0147896D01*
X0159548Y0147830D01*
X0159377Y0147761D01*
X0159207Y0147688D01*
X0159040Y0147610D01*
X0158875Y0147528D01*
X0158711Y0147443D01*
X0158550Y0147353D01*
X0158391Y0147259D01*
X0158234Y0147162D01*
X0158080Y0147061D01*
X0157928Y0146956D01*
X0157779Y0146847D01*
X0157633Y0146735D01*
X0157489Y0146619D01*
X0157349Y0146500D01*
X0157211Y0146377D01*
X0157076Y0146251D01*
X0156944Y0146122D01*
X0156816Y0145989D01*
X0156691Y0145854D01*
X0156569Y0145715D01*
X0155882Y0146296D01*
X0156018Y0146452D01*
X0156159Y0146604D01*
X0156303Y0146753D01*
X0156450Y0146898D01*
X0156601Y0147039D01*
X0156755Y0147176D01*
X0156913Y0147310D01*
X0157074Y0147440D01*
X0157238Y0147566D01*
X0157405Y0147688D01*
X0157575Y0147806D01*
X0157748Y0147919D01*
X0157924Y0148028D01*
X0158102Y0148133D01*
X0158283Y0148234D01*
X0158466Y0148330D01*
X0158651Y0148422D01*
X0158839Y0148509D01*
X0159029Y0148591D01*
X0159220Y0148669D01*
X0159414Y0148742D01*
X0159609Y0148810D01*
X0159806Y0148874D01*
X0160004Y0148932D01*
X0160204Y0148986D01*
X0160405Y0149035D01*
X0160607Y0149079D01*
X0160810Y0149118D01*
X0161014Y0149152D01*
X0161219Y0149181D01*
X0161424Y0149205D01*
X0161630Y0149223D01*
X0161837Y0149237D01*
X0162043Y0149246D01*
X0162250Y0149250D01*
X0162250Y0149156D01*
X0162046Y0149152D01*
X0161841Y0149143D01*
X0161637Y0149130D01*
X0161434Y0149111D01*
X0161231Y0149087D01*
X0161028Y0149059D01*
X0160826Y0149025D01*
X0160626Y0148987D01*
X0160426Y0148943D01*
X0160227Y0148895D01*
X0160030Y0148842D01*
X0159833Y0148784D01*
X0159639Y0148721D01*
X0159446Y0148653D01*
X0159254Y0148581D01*
X0159065Y0148504D01*
X0158877Y0148423D01*
X0158692Y0148337D01*
X0158509Y0148246D01*
X0158327Y0148151D01*
X0158149Y0148052D01*
X0157973Y0147948D01*
X0157799Y0147840D01*
X0157628Y0147728D01*
X0157460Y0147611D01*
X0157295Y0147491D01*
X0157132Y0147366D01*
X0156973Y0147238D01*
X0156817Y0147106D01*
X0156665Y0146970D01*
X0156515Y0146830D01*
X0156370Y0146687D01*
X0156227Y0146540D01*
X0156089Y0146389D01*
X0155954Y0146236D01*
X0156025Y0146175D01*
X0156159Y0146327D01*
X0156296Y0146476D01*
X0156437Y0146621D01*
X0156581Y0146762D01*
X0156728Y0146901D01*
X0156879Y0147035D01*
X0157033Y0147166D01*
X0157191Y0147293D01*
X0157351Y0147416D01*
X0157515Y0147535D01*
X0157681Y0147650D01*
X0157850Y0147761D01*
X0158021Y0147868D01*
X0158196Y0147970D01*
X0158372Y0148069D01*
X0158551Y0148163D01*
X0158733Y0148252D01*
X0158916Y0148337D01*
X0159101Y0148418D01*
X0159289Y0148494D01*
X0159478Y0148565D01*
X0159669Y0148632D01*
X0159861Y0148694D01*
X0160055Y0148751D01*
X0160250Y0148804D01*
X0160447Y0148851D01*
X0160644Y0148894D01*
X0160843Y0148932D01*
X0161042Y0148966D01*
X0161242Y0148994D01*
X0161443Y0149017D01*
X0161644Y0149036D01*
X0161846Y0149050D01*
X0162048Y0149058D01*
X0162250Y0149062D01*
X0162250Y0148968D01*
X0162050Y0148964D01*
X0161851Y0148956D01*
X0161651Y0148942D01*
X0161452Y0148924D01*
X0161254Y0148901D01*
X0161056Y0148873D01*
X0160859Y0148840D01*
X0160663Y0148802D01*
X0160467Y0148760D01*
X0160273Y0148713D01*
X0160080Y0148661D01*
X0159889Y0148604D01*
X0159698Y0148543D01*
X0159510Y0148477D01*
X0159323Y0148406D01*
X0159138Y0148331D01*
X0158954Y0148251D01*
X0158773Y0148167D01*
X0158594Y0148079D01*
X0158417Y0147986D01*
X0158242Y0147889D01*
X0158070Y0147787D01*
X0157901Y0147682D01*
X0157733Y0147572D01*
X0157569Y0147458D01*
X0157408Y0147341D01*
X0157249Y0147219D01*
X0157094Y0147094D01*
X0156941Y0146964D01*
X0156792Y0146831D01*
X0156646Y0146695D01*
X0156504Y0146555D01*
X0156365Y0146411D01*
X0156229Y0146264D01*
X0156097Y0146114D01*
X0156169Y0146054D01*
X0156299Y0146202D01*
X0156433Y0146347D01*
X0156571Y0146489D01*
X0156712Y0146627D01*
X0156856Y0146762D01*
X0157003Y0146894D01*
X0157154Y0147021D01*
X0157308Y0147145D01*
X0157464Y0147266D01*
X0157624Y0147382D01*
X0157786Y0147494D01*
X0157951Y0147603D01*
X0158119Y0147707D01*
X0158289Y0147807D01*
X0158462Y0147903D01*
X0158637Y0147995D01*
X0158814Y0148083D01*
X0158993Y0148166D01*
X0159174Y0148244D01*
X0159357Y0148319D01*
X0159542Y0148388D01*
X0159728Y0148453D01*
X0159916Y0148514D01*
X0160106Y0148570D01*
X0160296Y0148621D01*
X0160488Y0148668D01*
X0160681Y0148710D01*
X0160875Y0148747D01*
X0161070Y0148780D01*
X0161266Y0148807D01*
X0161462Y0148830D01*
X0161658Y0148848D01*
X0161855Y0148862D01*
X0162053Y0148870D01*
X0162250Y0148874D01*
X0162250Y0148780D01*
X0162055Y0148776D01*
X0161860Y0148768D01*
X0161665Y0148755D01*
X0161471Y0148737D01*
X0161277Y0148714D01*
X0161084Y0148687D01*
X0160891Y0148655D01*
X0160700Y0148618D01*
X0160509Y0148576D01*
X0160319Y0148530D01*
X0160131Y0148480D01*
X0159944Y0148424D01*
X0159758Y0148364D01*
X0159574Y0148300D01*
X0159391Y0148231D01*
X0159210Y0148158D01*
X0159031Y0148080D01*
X0158854Y0147998D01*
X0158679Y0147911D01*
X0158507Y0147821D01*
X0158336Y0147726D01*
X0158168Y0147627D01*
X0158002Y0147524D01*
X0157839Y0147417D01*
X0157678Y0147306D01*
X0157521Y0147191D01*
X0157366Y0147072D01*
X0157214Y0146949D01*
X0157065Y0146823D01*
X0156919Y0146693D01*
X0156777Y0146560D01*
X0156638Y0146423D01*
X0156502Y0146283D01*
X0156370Y0146139D01*
X0156241Y0145993D01*
X0156313Y0145932D01*
X0156440Y0146077D01*
X0156571Y0146219D01*
X0156705Y0146357D01*
X0156842Y0146492D01*
X0156983Y0146624D01*
X0157127Y0146752D01*
X0157274Y0146877D01*
X0157424Y0146998D01*
X0157577Y0147115D01*
X0157733Y0147229D01*
X0157892Y0147339D01*
X0158053Y0147445D01*
X0158217Y0147546D01*
X0158383Y0147644D01*
X0158551Y0147738D01*
X0158722Y0147828D01*
X0158895Y0147913D01*
X0159070Y0147994D01*
X0159247Y0148071D01*
X0159425Y0148143D01*
X0159606Y0148212D01*
X0159788Y0148275D01*
X0159971Y0148334D01*
X0160156Y0148389D01*
X0160342Y0148439D01*
X0160530Y0148485D01*
X0160718Y0148526D01*
X0160908Y0148562D01*
X0161098Y0148594D01*
X0161289Y0148621D01*
X0161480Y0148643D01*
X0161672Y0148661D01*
X0161865Y0148674D01*
X0162057Y0148682D01*
X0162250Y0148686D01*
X0162250Y0148592D01*
X0162060Y0148588D01*
X0161869Y0148580D01*
X0161679Y0148567D01*
X0161490Y0148550D01*
X0161300Y0148528D01*
X0161112Y0148501D01*
X0160924Y0148470D01*
X0160737Y0148434D01*
X0160551Y0148393D01*
X0160366Y0148348D01*
X0160182Y0148299D01*
X0159999Y0148244D01*
X0159818Y0148186D01*
X0159638Y0148123D01*
X0159460Y0148056D01*
X0159283Y0147984D01*
X0159108Y0147908D01*
X0158936Y0147828D01*
X0158765Y0147744D01*
X0158596Y0147655D01*
X0158430Y0147563D01*
X0158265Y0147466D01*
X0158104Y0147366D01*
X0157944Y0147261D01*
X0157788Y0147153D01*
X0157634Y0147040D01*
X0157483Y0146924D01*
X0157334Y0146805D01*
X0157189Y0146682D01*
X0157047Y0146555D01*
X0156908Y0146425D01*
X0156772Y0146291D01*
X0156639Y0146155D01*
X0156510Y0146015D01*
X0156384Y0145871D01*
X0156456Y0145811D01*
X0156580Y0145952D01*
X0156708Y0146090D01*
X0156839Y0146225D01*
X0156973Y0146357D01*
X0157110Y0146486D01*
X0157251Y0146611D01*
X0157395Y0146733D01*
X0157541Y0146851D01*
X0157690Y0146965D01*
X0157842Y0147076D01*
X0157997Y0147183D01*
X0158154Y0147286D01*
X0158314Y0147386D01*
X0158476Y0147481D01*
X0158641Y0147573D01*
X0158807Y0147660D01*
X0158976Y0147743D01*
X0159147Y0147823D01*
X0159319Y0147898D01*
X0159494Y0147968D01*
X0159670Y0148035D01*
X0159847Y0148097D01*
X0160027Y0148155D01*
X0160207Y0148208D01*
X0160389Y0148257D01*
X0160571Y0148301D01*
X0160755Y0148341D01*
X0160940Y0148377D01*
X0161126Y0148408D01*
X0161312Y0148434D01*
X0161499Y0148456D01*
X0161686Y0148473D01*
X0161874Y0148486D01*
X0162062Y0148494D01*
X0162250Y0148498D01*
X0162250Y0148404D01*
X0162064Y0148400D01*
X0161879Y0148392D01*
X0161693Y0148380D01*
X0161508Y0148363D01*
X0161324Y0148341D01*
X0161140Y0148315D01*
X0160956Y0148284D01*
X0160774Y0148249D01*
X0160592Y0148210D01*
X0160412Y0148166D01*
X0160232Y0148117D01*
X0160054Y0148065D01*
X0159877Y0148008D01*
X0159702Y0147946D01*
X0159528Y0147881D01*
X0159356Y0147811D01*
X0159185Y0147737D01*
X0159017Y0147659D01*
X0158850Y0147576D01*
X0158686Y0147490D01*
X0158523Y0147400D01*
X0158363Y0147305D01*
X0158205Y0147207D01*
X0158050Y0147105D01*
X0157897Y0147000D01*
X0157747Y0146890D01*
X0157599Y0146777D01*
X0157455Y0146660D01*
X0157313Y0146540D01*
X0157174Y0146417D01*
X0157038Y0146290D01*
X0156906Y0146160D01*
X0156777Y0146026D01*
X0156650Y0145890D01*
X0156528Y0145750D01*
X0155841Y0135352D02*
X0156533Y0135929D01*
X0156532Y0135928D02*
X0156651Y0135791D01*
X0156772Y0135657D01*
X0156897Y0135526D01*
X0157025Y0135398D01*
X0157156Y0135274D01*
X0157290Y0135152D01*
X0157427Y0135033D01*
X0157566Y0134918D01*
X0157709Y0134807D01*
X0157854Y0134698D01*
X0158001Y0134593D01*
X0158151Y0134492D01*
X0158303Y0134395D01*
X0158458Y0134301D01*
X0158615Y0134210D01*
X0158774Y0134124D01*
X0158935Y0134041D01*
X0159098Y0133963D01*
X0159263Y0133888D01*
X0159429Y0133817D01*
X0159597Y0133750D01*
X0159767Y0133688D01*
X0159938Y0133629D01*
X0160111Y0133574D01*
X0160284Y0133524D01*
X0160459Y0133478D01*
X0160635Y0133436D01*
X0160812Y0133398D01*
X0160990Y0133365D01*
X0161169Y0133335D01*
X0161348Y0133310D01*
X0161528Y0133290D01*
X0161708Y0133273D01*
X0161888Y0133261D01*
X0162069Y0133254D01*
X0162250Y0133250D01*
X0162251Y0132351D01*
X0162250Y0132350D01*
X0162047Y0132354D01*
X0161845Y0132362D01*
X0161642Y0132376D01*
X0161440Y0132394D01*
X0161239Y0132417D01*
X0161038Y0132445D01*
X0160838Y0132478D01*
X0160638Y0132515D01*
X0160440Y0132557D01*
X0160242Y0132604D01*
X0160046Y0132656D01*
X0159852Y0132713D01*
X0159658Y0132774D01*
X0159466Y0132839D01*
X0159276Y0132910D01*
X0159087Y0132985D01*
X0158901Y0133064D01*
X0158716Y0133148D01*
X0158533Y0133236D01*
X0158353Y0133329D01*
X0158175Y0133425D01*
X0157999Y0133527D01*
X0157826Y0133632D01*
X0157655Y0133741D01*
X0157487Y0133855D01*
X0157321Y0133972D01*
X0157159Y0134094D01*
X0156999Y0134219D01*
X0156843Y0134348D01*
X0156690Y0134481D01*
X0156540Y0134618D01*
X0156393Y0134758D01*
X0156250Y0134901D01*
X0156110Y0135048D01*
X0155973Y0135198D01*
X0155841Y0135352D01*
X0155913Y0135412D01*
X0156044Y0135260D01*
X0156179Y0135112D01*
X0156317Y0134967D01*
X0156459Y0134825D01*
X0156604Y0134686D01*
X0156752Y0134551D01*
X0156904Y0134420D01*
X0157059Y0134292D01*
X0157216Y0134168D01*
X0157377Y0134048D01*
X0157540Y0133932D01*
X0157707Y0133820D01*
X0157875Y0133712D01*
X0158047Y0133607D01*
X0158221Y0133507D01*
X0158397Y0133412D01*
X0158575Y0133320D01*
X0158756Y0133233D01*
X0158939Y0133150D01*
X0159123Y0133071D01*
X0159309Y0132997D01*
X0159498Y0132928D01*
X0159687Y0132863D01*
X0159879Y0132803D01*
X0160071Y0132747D01*
X0160265Y0132696D01*
X0160460Y0132649D01*
X0160656Y0132607D01*
X0160853Y0132570D01*
X0161051Y0132538D01*
X0161250Y0132510D01*
X0161449Y0132487D01*
X0161649Y0132469D01*
X0161849Y0132456D01*
X0162050Y0132448D01*
X0162250Y0132444D01*
X0162250Y0132538D01*
X0162052Y0132542D01*
X0161854Y0132550D01*
X0161656Y0132563D01*
X0161458Y0132581D01*
X0161261Y0132604D01*
X0161065Y0132631D01*
X0160869Y0132663D01*
X0160675Y0132699D01*
X0160481Y0132741D01*
X0160288Y0132787D01*
X0160096Y0132837D01*
X0159906Y0132893D01*
X0159717Y0132952D01*
X0159529Y0133017D01*
X0159343Y0133085D01*
X0159159Y0133158D01*
X0158976Y0133236D01*
X0158796Y0133318D01*
X0158617Y0133404D01*
X0158441Y0133495D01*
X0158267Y0133589D01*
X0158095Y0133688D01*
X0157925Y0133791D01*
X0157758Y0133898D01*
X0157594Y0134009D01*
X0157433Y0134124D01*
X0157274Y0134243D01*
X0157118Y0134365D01*
X0156965Y0134491D01*
X0156815Y0134621D01*
X0156668Y0134755D01*
X0156525Y0134892D01*
X0156385Y0135032D01*
X0156248Y0135175D01*
X0156115Y0135322D01*
X0155985Y0135472D01*
X0156057Y0135532D01*
X0156186Y0135384D01*
X0156317Y0135239D01*
X0156452Y0135097D01*
X0156591Y0134959D01*
X0156733Y0134823D01*
X0156878Y0134691D01*
X0157026Y0134563D01*
X0157177Y0134438D01*
X0157331Y0134317D01*
X0157488Y0134200D01*
X0157648Y0134086D01*
X0157810Y0133977D01*
X0157975Y0133871D01*
X0158143Y0133769D01*
X0158313Y0133671D01*
X0158485Y0133578D01*
X0158659Y0133488D01*
X0158836Y0133403D01*
X0159014Y0133322D01*
X0159194Y0133245D01*
X0159377Y0133173D01*
X0159560Y0133105D01*
X0159746Y0133042D01*
X0159933Y0132983D01*
X0160121Y0132928D01*
X0160310Y0132878D01*
X0160501Y0132833D01*
X0160693Y0132792D01*
X0160885Y0132755D01*
X0161079Y0132724D01*
X0161273Y0132697D01*
X0161468Y0132675D01*
X0161663Y0132657D01*
X0161858Y0132644D01*
X0162054Y0132636D01*
X0162250Y0132632D01*
X0162250Y0132726D01*
X0162056Y0132730D01*
X0161863Y0132738D01*
X0161670Y0132751D01*
X0161477Y0132768D01*
X0161284Y0132790D01*
X0161092Y0132817D01*
X0160901Y0132848D01*
X0160711Y0132884D01*
X0160521Y0132924D01*
X0160333Y0132969D01*
X0160146Y0133019D01*
X0159960Y0133073D01*
X0159775Y0133131D01*
X0159592Y0133194D01*
X0159410Y0133261D01*
X0159230Y0133332D01*
X0159052Y0133408D01*
X0158875Y0133488D01*
X0158701Y0133572D01*
X0158529Y0133661D01*
X0158359Y0133753D01*
X0158191Y0133850D01*
X0158025Y0133951D01*
X0157862Y0134055D01*
X0157702Y0134163D01*
X0157544Y0134276D01*
X0157389Y0134392D01*
X0157236Y0134511D01*
X0157087Y0134635D01*
X0156940Y0134761D01*
X0156797Y0134892D01*
X0156657Y0135025D01*
X0156520Y0135162D01*
X0156387Y0135303D01*
X0156256Y0135446D01*
X0156130Y0135593D01*
X0156202Y0135653D01*
X0156327Y0135508D01*
X0156456Y0135366D01*
X0156588Y0135228D01*
X0156723Y0135092D01*
X0156862Y0134960D01*
X0157003Y0134831D01*
X0157148Y0134706D01*
X0157295Y0134584D01*
X0157446Y0134466D01*
X0157599Y0134351D01*
X0157755Y0134241D01*
X0157914Y0134133D01*
X0158075Y0134030D01*
X0158239Y0133931D01*
X0158405Y0133835D01*
X0158573Y0133744D01*
X0158743Y0133657D01*
X0158915Y0133573D01*
X0159090Y0133494D01*
X0159266Y0133419D01*
X0159444Y0133349D01*
X0159623Y0133282D01*
X0159804Y0133220D01*
X0159987Y0133163D01*
X0160171Y0133109D01*
X0160356Y0133060D01*
X0160542Y0133016D01*
X0160729Y0132976D01*
X0160917Y0132941D01*
X0161106Y0132910D01*
X0161296Y0132883D01*
X0161486Y0132862D01*
X0161676Y0132844D01*
X0161867Y0132832D01*
X0162059Y0132824D01*
X0162250Y0132820D01*
X0162250Y0132914D01*
X0162061Y0132918D01*
X0161872Y0132926D01*
X0161683Y0132938D01*
X0161495Y0132955D01*
X0161307Y0132977D01*
X0161120Y0133003D01*
X0160933Y0133033D01*
X0160747Y0133068D01*
X0160562Y0133108D01*
X0160378Y0133152D01*
X0160196Y0133200D01*
X0160014Y0133253D01*
X0159834Y0133310D01*
X0159655Y0133371D01*
X0159477Y0133437D01*
X0159301Y0133506D01*
X0159127Y0133580D01*
X0158955Y0133658D01*
X0158785Y0133741D01*
X0158617Y0133827D01*
X0158451Y0133917D01*
X0158287Y0134012D01*
X0158125Y0134110D01*
X0157966Y0134212D01*
X0157809Y0134318D01*
X0157655Y0134427D01*
X0157503Y0134541D01*
X0157355Y0134657D01*
X0157209Y0134778D01*
X0157066Y0134901D01*
X0156926Y0135029D01*
X0156789Y0135159D01*
X0156655Y0135293D01*
X0156525Y0135430D01*
X0156398Y0135570D01*
X0156274Y0135713D01*
X0156346Y0135773D01*
X0156469Y0135632D01*
X0156594Y0135494D01*
X0156723Y0135358D01*
X0156855Y0135226D01*
X0156990Y0135097D01*
X0157129Y0134972D01*
X0157270Y0134849D01*
X0157414Y0134730D01*
X0157561Y0134615D01*
X0157710Y0134503D01*
X0157863Y0134395D01*
X0158018Y0134290D01*
X0158175Y0134190D01*
X0158335Y0134093D01*
X0158496Y0133999D01*
X0158661Y0133910D01*
X0158827Y0133825D01*
X0158995Y0133744D01*
X0159165Y0133666D01*
X0159337Y0133593D01*
X0159511Y0133524D01*
X0159686Y0133460D01*
X0159863Y0133399D01*
X0160041Y0133343D01*
X0160220Y0133291D01*
X0160401Y0133243D01*
X0160583Y0133200D01*
X0160765Y0133161D01*
X0160949Y0133126D01*
X0161133Y0133096D01*
X0161318Y0133070D01*
X0161504Y0133049D01*
X0161690Y0133032D01*
X0161877Y0133020D01*
X0162063Y0133012D01*
X0162250Y0133008D01*
X0162250Y0133102D01*
X0162066Y0133106D01*
X0161881Y0133113D01*
X0161697Y0133126D01*
X0161513Y0133142D01*
X0161330Y0133163D01*
X0161147Y0133189D01*
X0160965Y0133219D01*
X0160784Y0133253D01*
X0160603Y0133291D01*
X0160424Y0133334D01*
X0160245Y0133381D01*
X0160068Y0133433D01*
X0159892Y0133488D01*
X0159717Y0133548D01*
X0159544Y0133612D01*
X0159373Y0133680D01*
X0159203Y0133752D01*
X0159035Y0133829D01*
X0158869Y0133909D01*
X0158705Y0133993D01*
X0158542Y0134081D01*
X0158382Y0134173D01*
X0158225Y0134269D01*
X0158069Y0134369D01*
X0157916Y0134472D01*
X0157766Y0134579D01*
X0157618Y0134689D01*
X0157473Y0134803D01*
X0157331Y0134921D01*
X0157191Y0135042D01*
X0157055Y0135166D01*
X0156921Y0135293D01*
X0156791Y0135424D01*
X0156663Y0135557D01*
X0156539Y0135694D01*
X0156419Y0135833D01*
X0156491Y0135894D01*
X0156610Y0135756D01*
X0156733Y0135621D01*
X0156858Y0135489D01*
X0156987Y0135360D01*
X0157119Y0135234D01*
X0157254Y0135112D01*
X0157392Y0134992D01*
X0157532Y0134876D01*
X0157676Y0134764D01*
X0157822Y0134655D01*
X0157970Y0134549D01*
X0158121Y0134447D01*
X0158275Y0134349D01*
X0158430Y0134254D01*
X0158588Y0134163D01*
X0158749Y0134076D01*
X0158911Y0133993D01*
X0159075Y0133914D01*
X0159241Y0133839D01*
X0159409Y0133767D01*
X0159578Y0133700D01*
X0159749Y0133637D01*
X0159921Y0133578D01*
X0160095Y0133523D01*
X0160270Y0133472D01*
X0160446Y0133425D01*
X0160624Y0133383D01*
X0160802Y0133345D01*
X0160981Y0133311D01*
X0161161Y0133282D01*
X0161341Y0133257D01*
X0161522Y0133236D01*
X0161704Y0133219D01*
X0161886Y0133207D01*
X0162068Y0133200D01*
X0162250Y0133196D01*
D20*
X0169600Y0134000D02*
X0172500Y0134000D01*
X0171100Y0132500D02*
X0171100Y0135600D01*
X0169961Y0060473D02*
X0147914Y0060473D01*
X0147914Y0032914D01*
X0169961Y0032914D01*
X0169961Y0060473D01*
X0175473Y0060473D01*
X0175473Y0032914D01*
X0169961Y0032914D01*
M02*
