%
M48
M72
T01C0.01378
T02C0.03200
T03C0.03937
T04C0.04000
T05C0.12598
%
T01
X91300Y26300
X91300Y41300
X151300Y71300
X152597Y62597
X151300Y126300
T02
X117300Y140800
X147300Y140800
X157300Y140800
X167300Y140800
T03
X161300Y53387
X161300Y39607
T04
X41300Y46300
X41300Y56300
X41300Y66300
X41300Y76300
X41300Y86300
X41300Y96300
X41300Y106300
X41300Y116300
X41300Y126300
X41300Y136300
X41300Y146300
X41300Y156300
X14300Y135800
X14300Y125800
X14300Y115800
X14300Y105800
X14300Y95800
X14300Y85800
X101300Y86300
X101300Y76300
X101300Y66300
X101300Y56300
X101300Y46300
X101300Y96300
X101300Y106300
X101300Y116300
X101300Y126300
X101300Y136300
X101300Y146300
X101300Y156300
X171300Y126300
X171300Y116300
X171300Y106300
X171300Y96300
X171300Y86300
X171300Y76300
X171300Y66300
T05
X18800Y16300
X18800Y162800
X165050Y162550
X165050Y16300
M30
